<?xml version="1.0" standalone="no"?><!DOCTYPE svg PUBLIC "-//W3C//DTD SVG 1.1//EN" "http://www.w3.org/Graphics/SVG/1.1/DTD/svg11.dtd"><svg id="Morris_Julie-Page%201" viewBox="0 0 800 800" style="background-color:#ffffff" version="1.1"	xmlns="http://www.w3.org/2000/svg" xmlns:xlink="http://www.w3.org/1999/xlink" xml:space="preserve"	x="0px" y="0px" width="800px" height="800px">	<defs>		<radialGradient id="gradient1" cx="33.3333%" cy="16.418%" r="45.195%">			<stop stop-color="#c8a078" stop-opacity="1" offset="0%"/>			<stop stop-color="#ffcc99" stop-opacity="1" offset="100%"/>		</radialGradient>	</defs>	<g id="svgContainer" opacity="0">	<g id="background">		<rect x="0" y="0" width="800" height="800" fill="#8358c3"/>	</g>	<g id="Julie">		<path d="M 39.25 388.0363 C 39.25 388.0363 60.3333 450.0218 39.25 477.2954 C 39.25 477.2954 93.8186 482.2542 83.8971 415.9298 L 39.25 388.0363 Z" fill="#ff0000"/>		<path id="Ellipse" d="M -24 265.3051 C -24 135.9003 91.7688 31 234.5809 31 C 377.393 31 493.1618 135.9003 493.1618 265.3051 C 493.1618 394.7099 377.393 499.6102 234.5809 499.6102 C 91.7688 499.6102 -24 394.7099 -24 265.3051 Z" fill="#ff0000"/>		<path d="M 50.4118 164.8886 C 50.4118 164.8886 -57.4853 277.7021 3.9044 376.8789 L 3.9044 352.7046 L 22.5074 397.3341 L 26.2279 382.4576 L 72.7353 445.6828 C 72.7353 445.6828 133.5049 247.9492 134.125 241.1308 C 134.7451 234.3123 50.4118 164.8886 50.4118 164.8886 Z" fill="#ff0000"/>		<path d="M 29.9485 363.862 C 29.9485 363.862 72.7353 381.8378 82.0368 544.2397 C 82.0368 544.2397 15.6863 637.2179 141.5662 713.46 L 387.125 639.0775 L 573.1544 620.4818 L 641.9853 598.1671 C 641.9853 598.1671 628.3432 535.5618 647.5662 531.2228 C 666.7892 526.8837 649.4265 525.644 649.4265 525.644 C 649.4265 525.644 681.6716 416.5497 586.1765 402.9128 C 586.1765 402.9128 536.9453 356.1015 514.6907 264.2505 C 514.3282 262.7544 513.9728 261.2464 513.625 259.7264 C 491.9216 164.8886 29.9485 363.862 29.9485 363.862 Z" fill="#ff0000"/>		<path d="M 375.9632 507.0484 L 424.3309 588.8693 L 331.3162 631.6392 L 290.3897 553.5375 L 375.9632 507.0484 Z" fill="url(#gradient1)"/>		<path id="Ellipse2" d="M 96.9191 472.6465 C 96.9191 455.7006 108.5793 441.9637 122.9632 441.9637 C 137.3472 441.9637 149.0074 455.7006 149.0074 472.6465 C 149.0074 489.5924 137.3472 503.3293 122.9632 503.3293 C 108.5793 503.3293 96.9191 489.5924 96.9191 472.6465 Z" fill="#dcb084"/>		<path id="Ellipse3" d="M 405.7279 455.9104 C 405.7279 438.9645 417.3881 425.2276 431.7721 425.2276 C 446.156 425.2276 457.8162 438.9645 457.8162 455.9104 C 457.8162 472.8563 446.156 486.5932 431.7721 486.5932 C 417.3881 486.5932 405.7279 472.8563 405.7279 455.9104 Z" fill="#dcb084"/>		<path id="Ellipse4" d="M 18.7868 301.5666 C 18.7868 162.4051 131.6405 49.5956 270.8566 49.5956 C 410.0727 49.5956 522.9265 162.4051 522.9265 301.5666 C 522.9265 440.7281 305.5132 569.0339 267.446 569.0339 C 220.0774 569.0339 18.7868 440.7281 18.7868 301.5666 Z" stroke="#eabb8c" stroke-width="2" fill="#ffcc99"/>		<g>			<path id="Ellipse5" d="M 72.159 356.4604 C 74.7001 344.1631 122.7405 321.2494 162.1572 336.2527 C 201.5738 351.2559 225.186 384.6274 214.8974 410.7912 C 204.6088 436.955 164.3159 446.0022 124.8992 430.999 C 85.4826 415.9958 66.4786 383.9503 72.159 356.4604 Z" fill="#000000"/>			<path id="Ellipse6" d="M 88.0537 362.857 C 90.223 351.7893 131.2332 331.167 164.8815 344.6699 C 198.5298 358.1728 218.6866 388.2071 209.9036 411.7546 C 201.1206 435.302 166.7242 443.4445 133.0759 429.9416 C 99.4275 416.4387 83.2046 387.5978 88.0537 362.857 Z" fill="#ffffff"/>			<path d="M 108.5968 333.1089 C 108.5968 333.1089 77.7065 341.4247 67.6078 327.763 C 57.509 314.1013 62.2614 329.545 62.2614 329.545 C 62.2614 329.545 66.8808 369.2681 72.4535 381.5076 C 73.2002 383.1478 73.9641 384.2944 74.7363 384.7857 C 81.2708 388.9436 75.3303 354.4924 108.5968 333.1089 Z" fill="#000000"/>		</g>		<g>			<path id="Ellipse7" d="M 436.1867 356.4604 C 433.6456 344.1631 385.6052 321.2494 346.1885 336.2527 C 306.7719 351.2559 283.1597 384.6274 293.4483 410.7912 C 303.7369 436.955 344.0298 446.0022 383.4464 430.999 C 422.8632 415.9958 441.8671 383.9503 436.1867 356.4604 Z" fill="#000000"/>			<path id="Ellipse8" d="M 420.292 362.857 C 418.1228 351.7893 377.1126 331.167 343.4642 344.6699 C 309.8159 358.1728 289.6592 388.2071 298.4421 411.7546 C 307.2251 435.302 341.6216 443.4445 375.2698 429.9416 C 408.9182 416.4387 425.1411 387.5978 420.292 362.857 Z" fill="#ffffff"/>			<path d="M 399.749 333.1089 C 399.749 333.1089 430.6392 341.4247 440.7379 327.763 C 450.8367 314.1013 446.0844 329.545 446.0844 329.545 C 446.0844 329.545 441.465 369.2681 435.8923 381.5076 C 435.1455 383.1478 434.3816 384.2944 433.6094 384.7857 C 427.075 388.9436 433.0154 354.4924 399.749 333.1089 Z" fill="#000000"/>		</g>		<path d="M 230.8603 500.7016 C 230.8603 515.5042 242.5205 527.5037 256.9044 527.5037 C 271.2884 527.5037 282.9485 515.5042 282.9485 500.7016 C 282.9485 499.0594 282.8048 497.4518 282.5299 495.8911 C 280.3275 508.3978 269.6926 517.8824 256.9044 517.8824 C 244.1163 517.8824 233.4813 508.3978 231.2789 495.8911 C 231.004 497.4518 230.8603 499.0594 230.8603 500.7016 Z" fill="#ff0000"/>		<path id="Ellipse9" d="M 122.8538 399.0414 C 122.8538 377.3899 143.1996 359.8383 168.2981 359.8383 C 193.3967 359.8383 213.7424 377.3899 213.7424 399.0414 C 213.7424 420.693 193.3967 438.2445 168.2981 438.2445 C 143.1996 438.2445 122.8538 420.693 122.8538 399.0414 Z" fill="#000000"/>		<path id="Ellipse10" d="M 322.4524 395.4775 C 322.4524 373.8259 342.7982 356.2744 367.8968 356.2744 C 392.9952 356.2744 413.3411 373.8259 413.3411 395.4775 C 413.3411 417.1291 392.9952 434.6806 367.8968 434.6806 C 342.7982 434.6806 322.4524 417.1291 322.4524 395.4775 Z" fill="#000000"/>		<path d="M 11.3456 299.2293 C 11.3456 323.1567 17.2243 346.324 27.2421 368.3191 L 30.429 367.0674 C 25.9762 351.143 18.979 298.2738 18.979 298.2738 L 22.7957 265.788 L 30.429 265.788 L 45.6958 242.8568 L 53.3292 263.877 L 64.7793 248.5896 L 64.7793 275.3426 L 99.1295 248.5896 L 91.4961 279.1645 L 129.663 242.8568 L 127.7547 286.8082 L 162.1049 254.3224 L 150.6548 294.4519 L 209.8136 252.4114 L 194.5468 290.6301 L 230.8054 258.1442 L 228.897 294.4519 L 263.2473 263.877 L 263.2473 290.6301 L 297.5975 248.5896 L 301.4142 271.5208 L 328.131 248.5896 L 318.5893 281.0754 L 364.3896 246.6786 L 354.8479 275.3426 L 419.7316 235.213 L 400.6482 277.2536 L 452.1735 242.8568 L 436.9068 281.0754 L 488.4321 260.0551 L 480.7987 288.7191 L 511.3322 279.1645 L 507.5156 298.2738 C 522.1462 312.9243 499.8822 386.1768 499.8822 386.1768 L 504.195 383.1384 C 519.2468 356.8245 528.5073 328.5966 528.5073 299.2293 C 528.5073 156.2236 412.7386 40.2978 269.9265 40.2978 C 127.1144 40.2978 11.3456 156.2236 11.3456 299.2293 Z" fill="#ff0000"/>		<path d="M 33.6691 309.1673 C 33.6691 309.1673 144.1612 272.9341 176.2396 284.2198 L 167.3289 294.9117 C 167.3289 294.9117 140.5969 281.2499 33.6691 309.1673 Z" fill="#000000"/>		<path d="M 428.0514 321.8738 C 428.0514 321.8738 317.5593 285.6407 285.481 296.9264 L 294.3917 307.6182 C 294.3917 307.6182 321.1236 293.9565 428.0514 321.8738 Z" fill="#000000"/>		<path d="M 230.8603 458.6998 C 230.8603 458.6998 253.1838 447.5424 271.7868 456.8402 " stroke="#dcb084" stroke-width="6" fill="none"/>		<path d="M 413.1691 83.0678 C 413.1691 83.0678 490.6814 130.1767 496.8824 148.1525 L 487.5809 150.0121 L 515.4853 174.1864 L 506.1838 179.7651 L 530.3677 220.6756 L 517.3456 218.816 L 535.9485 256.0073 L 513.625 246.7094 C 513.625 246.7094 422.4706 183.4843 416.8897 170.4673 C 411.3088 157.4504 413.1691 83.0678 413.1691 83.0678 Z" fill="#ff0000"/>		<path d="M 132.2647 728.3365 C 132.2647 728.3365 135.9853 690.5254 156.4485 679.9879 L 375.9632 579.5714 L 586.1765 555.3971 C 586.1765 555.3971 619.6617 554.1574 651.2867 579.5714 L 701.5147 719.0388 L 171.3309 752.5109 L 132.2647 728.3365 Z" fill="#ffcc99"/>		<path d="M 132.2647 728.3365 L 139.7059 799 L 717.6373 797.7604 L 651.2867 579.5714 C 619.6617 554.1574 586.1765 555.3971 586.1765 555.3971 L 487.0786 566.7962 C 489.8335 574.1213 491.3015 581.8331 491.3015 589.799 C 491.3015 637.5556 438.4143 676.2687 373.1728 676.2687 C 327.2208 676.2687 287.4024 657.0606 267.8708 629.0172 L 156.4485 679.9879 C 135.9853 690.5254 132.2647 728.3365 132.2647 728.3365 Z" fill="#000000"/>		<path d="M 197.375 605.6053 C 197.375 605.6053 184.3529 663.2518 201.0956 704.1622 C 201.0956 704.1622 224.0392 740.1138 236.4412 739.494 C 236.4412 739.494 155.8284 741.3535 115.5221 702.3027 L 197.375 605.6053 Z" fill="#ff0000"/>		<path d="M 219.6985 542.3801 C 219.6985 542.3801 206.6765 600.0266 223.4191 640.9371 C 223.4191 640.9371 246.3628 676.8886 258.7647 676.2687 C 258.7647 676.2687 178.152 678.1284 137.8456 639.0775 L 219.6985 542.3801 Z" fill="#ff0000"/>		<path id="Ellipse11" d="M 115.5221 368.5109 C 115.5221 359.7812 123.0179 352.7046 132.2647 352.7046 C 141.5115 352.7046 149.0074 359.7812 149.0074 368.5109 C 149.0074 377.2406 141.5115 384.3172 132.2647 384.3172 C 123.0179 384.3172 115.5221 377.2406 115.5221 368.5109 Z" fill="#ffffff"/>		<path id="Ellipse12" d="M 316.4338 372.23 C 316.4338 363.5003 323.9296 356.4237 333.1765 356.4237 C 342.4233 356.4237 349.9191 363.5003 349.9191 372.23 C 349.9191 380.9597 342.4233 388.0363 333.1765 388.0363 C 323.9296 388.0363 316.4338 380.9597 316.4338 372.23 Z" fill="#ffffff"/>		<path d="M 528.5073 311.7942 C 528.5073 311.7942 583.696 384.3172 612.2206 363.862 C 612.2206 363.862 609.7402 436.385 571.2941 438.2445 L 534.0883 376.8789 L 528.5073 311.7942 Z" fill="#ff0000"/>		<path d="M 565.7133 547.9589 C 565.7133 547.9589 638.2647 619.8619 612.2206 648.3753 C 612.2206 648.3753 653.147 622.3414 636.4044 566.5545 L 602.9191 508.908 L 565.7133 547.9589 Z" fill="#ff0000"/>		<path d="M 506.1838 508.908 C 506.1838 508.908 578.7353 580.8111 552.6912 609.3245 C 552.6912 609.3245 593.6177 583.2905 576.875 527.5037 L 543.3897 469.8571 L 506.1838 508.908 Z" fill="#ff0000"/>	</g>	<g id="Morris">		<path d="M 471.6941 669.2681 C 471.6941 723.0589 500.4427 770.556 544.3292 799 L 735.4557 799 C 779.3422 770.556 808.0945 723.0589 808.0945 669.2681 C 808.0945 582.2128 732.7899 511.6426 639.8943 511.6426 C 546.9987 511.6426 471.6941 582.2128 471.6941 669.2681 Z" fill="#ffcc00"/>		<path id="Ellipse13" d="M 488.5142 642.7966 C 488.5142 565.0449 555.7504 502.0167 638.6929 502.0167 C 721.6354 502.0167 788.8716 565.0449 788.8716 642.7966 C 788.8716 720.5483 721.6354 783.5765 638.6929 783.5765 C 555.7504 783.5765 488.5142 720.5483 488.5142 642.7966 Z" fill="#ffffff"/>		<path id="Ellipse14" d="M 440.9995 466.9037 C 440.9995 367.8867 527.062 287.6198 633.2283 287.6198 C 739.3946 287.6198 825.4572 367.8867 825.4572 466.9037 C 825.4572 565.9208 739.3946 646.1876 633.2283 646.1876 C 527.062 646.1876 440.9995 565.9208 440.9995 466.9037 Z" fill="#ffcc00"/>		<path d="M 450.0684 420.1959 C 450.0684 420.1959 398.0065 448.2716 404.414 475.5453 L 454.8741 497.2036 L 450.0684 420.1959 Z" fill="#ffcc00"/>		<path d="M 814.7566 405.7569 C 814.7566 405.7569 866.8185 433.8326 860.411 461.1063 L 809.9509 482.7647 L 814.7566 405.7569 Z" fill="#ffcc00"/>		<path d="M 447.6655 463.5127 C 447.6655 463.5127 412.4236 456.2932 406.8169 475.5453 C 406.8169 475.5453 441.258 489.9842 445.2627 504.4232 C 445.2627 504.4232 439.6559 472.3365 447.6655 463.5127 Z" fill="#9d6b36"/>		<path d="M 822.5117 449.0738 C 822.5117 449.0738 857.7535 441.8543 863.3603 461.1063 C 863.3603 461.1063 828.9192 475.5453 824.9145 489.9842 C 824.9145 489.9842 830.5213 457.8976 822.5117 449.0738 Z" fill="#9d6b36"/>		<path id="Ellipse15" d="M 784.0659 386.5049 C 784.0659 386.5049 785.1417 386.5049 786.4688 386.5049 C 787.7958 386.5049 788.8716 386.5049 788.8716 386.5049 C 788.8716 386.5049 787.7958 386.5049 786.4688 386.5049 C 785.1417 386.5049 784.0659 386.5049 784.0659 386.5049 Z" stroke="#000000" stroke-width="2" fill="#ffffff"/>		<path d="M 418.75 678.1284 C 418.75 716.6417 507.9762 724.6174 636.4044 724.6174 C 764.8326 724.6174 854.0588 701.7651 854.0588 663.2518 C 854.0588 642.4244 834.4318 598.8575 786.1581 586.0799 C 769.627 629.4114 711.5132 678.1284 637.3345 678.1284 C 562.9029 678.1284 500.5536 645.6923 484.2788 602.1372 C 435.0252 614.9237 418.75 657.0586 418.75 678.1284 Z" stroke="#ffcc00" stroke-width="4" fill="#ffffff"/>		<path d="M 416.8897 678.1284 C 416.8897 716.6417 434.3644 727.1929 562.7925 727.1929 C 575.9796 727.1929 588.7526 726.9511 601.0588 726.477 C 620.78 712.2122 713.042 681.8965 735.9302 648.3753 C 708.3967 663.2576 674.6793 678.1284 635.4742 678.1284 C 561.0426 678.1284 508.5063 638.9328 492.2316 595.3777 C 442.978 608.1642 416.8897 657.0587 416.8897 678.1284 Z" stroke="#ffcc00" stroke-width="4" fill="#ffffff"/>		<path d="M 506.1838 629.7797 L 519.2059 631.6392 L 519.2059 627.9201 L 495.0221 596.3075 L 485.7206 600.0266 L 506.1838 629.7797 Z" fill="#ffffff"/>		<path d="M 772.2059 620.4818 L 759.1838 622.3414 L 759.1838 618.6223 L 783.3677 587.0097 L 792.6691 590.7288 L 772.2059 620.4818 Z" fill="#ffffff"/>		<path d="M 801.2882 642.7966 C 801.2882 642.7966 792.9169 622.3414 754.7808 622.3414 C 754.7808 622.3414 711.0639 639.0775 711.9941 657.6731 C 711.9941 657.6731 769.6632 651.1647 777.1044 661.3923 C 777.1044 661.3923 806.8691 662.322 801.2882 642.7966 Z" stroke="#ffcc00" stroke-width="4" fill="#ffffff"/>		<path d="M 489.4412 652.0944 C 489.4412 652.0944 497.8125 631.6392 535.9485 631.6392 C 535.9485 631.6392 579.6655 648.3753 578.7353 666.9709 C 578.7353 666.9709 521.0662 660.4625 513.625 670.6901 C 513.625 670.6901 483.8603 671.6199 489.4412 652.0944 Z" stroke="#ffcc00" stroke-width="4" fill="#ffffff"/>		<rect x="984.2794" y="735.7748" width="3.7206" height="3.7191" fill="#000000"/>		<path d="M 478.8085 573.692 C 482.8198 578.7294 487.1114 583.5601 491.6549 588.1719 C 486.7428 596.5634 482.569 607.7448 487.5809 616.7627 L 504.3979 599.9522 C 505.2256 600.6498 506.0594 601.3414 506.9001 602.0257 C 502.7159 610.0177 499.8308 619.8364 504.3235 627.9201 L 520.2756 611.9743 C 521.2986 612.6685 522.3255 613.3535 523.3636 614.0292 C 520.5046 621.0032 519.2588 628.7591 522.9265 635.3583 L 536.4507 621.8393 C 564.8719 637.3186 597.9397 646.1875 633.2284 646.1875 C 667.6136 646.1875 699.8916 637.7634 727.8192 623.0108 L 745.7548 640.9371 C 750.3966 632.5853 747.1625 622.3802 742.7574 614.2523 L 744.1805 613.3226 L 764.3578 633.4988 C 769.8477 623.6208 764.319 611.1534 758.8675 602.5928 L 761.0255 600.8262 L 760.6372 601.8862 L 781.1004 622.3414 C 787.1387 611.477 779.8494 597.4756 773.9917 588.9901 C 780.4911 582.4742 786.4764 575.5091 791.8891 568.1448 L 659.6598 573.9927 L 594.7826 496.985 L 478.8085 573.692 Z" fill="#ffcc00"/>		<path d="M 478.8085 569.9728 C 482.8198 575.0103 487.1114 579.841 491.6549 584.4528 C 486.7428 592.8443 482.569 604.0256 487.5809 613.0436 L 504.3979 596.233 C 505.2256 596.9307 506.0594 597.6223 506.9001 598.3066 C 502.7159 606.2986 499.8308 616.1172 504.3235 624.201 L 520.2756 608.2552 C 521.2986 608.9493 522.3255 609.6343 523.3636 610.3101 C 520.5046 617.2841 519.2588 625.04 522.9265 631.6392 L 536.4507 618.1202 C 564.8719 633.5995 597.9397 642.4684 633.2284 642.4684 C 667.6136 642.4684 699.8916 634.0443 727.8192 619.2917 L 745.7548 637.2179 C 750.3966 628.8661 747.1625 618.6611 742.7574 610.5332 L 744.1805 609.6035 L 764.3578 629.7797 C 769.8477 619.9016 764.319 607.4343 758.8675 598.8737 L 761.0255 597.1071 L 760.6372 598.1671 L 781.1004 618.6223 C 787.1387 607.7578 779.8494 593.7565 773.9917 585.271 C 780.4911 578.7551 786.4764 571.79 791.8891 564.4257 L 659.6598 570.2736 L 594.7826 493.2658 L 478.8085 569.9728 Z" stroke="#ffcc00" stroke-width="4" fill="#ffffff"/>		<path d="M 555.7942 557.3661 C 555.7942 565.3406 562.2489 571.805 570.2114 571.805 C 578.1738 571.805 584.6285 565.3406 584.6285 557.3661 C 584.6285 556.7951 584.5967 556.235 584.5324 555.6815 L 561.4049 545.9352 C 557.9893 548.5756 555.7942 552.7105 555.7942 557.3661 Z" fill="#000000"/>		<path d="M 699.9659 559.7725 C 699.9659 567.7471 693.5112 574.2115 685.5487 574.2115 C 677.5861 574.2115 671.1315 567.7471 671.1315 559.7725 C 671.1315 559.2017 671.1633 558.6415 671.2276 558.088 L 694.3551 548.3417 C 697.7708 550.9821 699.9659 555.117 699.9659 559.7725 Z" fill="#000000"/>		<path d="M 611.06 582.853 L 649.5057 582.853 C 649.5057 582.853 637.4915 597.292 630.2829 599.6984 C 630.2829 599.6984 615.8657 598.0942 611.06 582.853 Z" fill="#000000"/>		<path d="M 567.8085 523.6751 L 589.4343 559.7725 L 596.6428 554.9595 L 567.8085 523.6751 Z" fill="#000000"/>		<path d="M 661.5201 554.9595 L 666.3258 559.7725 L 687.9515 530.8946 L 661.5201 554.9595 Z" fill="#000000"/>		<path d="M 649.4265 627.9201 C 648.8894 619.6276 640.7648 613.0436 630.8236 613.0436 C 620.8823 613.0436 612.7576 619.6276 612.2206 627.9201 L 616.3448 627.9201 C 616.6171 621.5982 622.763 616.5439 630.3061 616.5439 C 637.8492 616.5439 643.9951 621.5982 644.2673 627.9201 L 649.4265 627.9201 Z" fill="#000000"/>		<path d="M 697.7941 363.862 C 697.7941 363.862 740.5809 328.5303 787.0883 339.6877 L 770.3456 354.5642 C 770.3456 354.5642 818.7133 341.5472 826.1544 354.5642 L 801.9706 369.4407 C 801.9706 369.4407 839.1765 375.0194 842.897 382.4576 L 788.9485 410.3511 L 697.7941 363.862 Z" fill="#ffcc00"/>	</g>	<g id="hand">		<path d="M 632.1556 257.8801 C 625.9951 257.1971 558.9144 283.1499 550.0159 270.1736 C 550.0159 270.1736 526.0585 305.0049 615.7276 296.8093 C 615.7276 296.8093 638.316 258.5631 632.1556 257.8801 Z" fill="#dcb084"/>		<path d="M 575.079 351.6205 L 598.441 273.3603 C 602.535 259.6461 626.3464 254.3036 651.5538 261.3627 L 696.2836 273.8889 C 721.2336 280.8759 738.2944 297.5452 734.4623 311.1847 L 712.597 389.0101 C 708.6807 402.9495 684.9757 408.7447 659.5756 401.8896 L 614.0349 389.5989 C 588.3685 382.6719 570.8942 365.6393 575.079 351.6205 Z" fill="#ffcc99"/>		<path d="M 605.4601 386.961 L 636.947 291.3456 L 613.6741 393.1077 L 605.4601 386.961 Z" fill="#d5aa80"/>		<path d="M 652.6904 397.2055 L 686.2308 298.1752 L 660.9045 403.3522 L 652.6904 397.2055 Z" fill="#d5aa80"/>	</g>	<g id="captions" opacity="1">		<rect id="bubble02" x="462" y="140" width="285" height="87" fill="#000000" rx="16.965" ry="16.965" opacity="0"/>		<rect id="bubble01" x="292" y="20" width="419" height="97" fill="#000000" rx="19.885" ry="19.885" opacity="0"/>		<g id="title" opacity="0">			<path d="M 32.7031 715 C 27.0781 715 23.0625 717.4219 20.6406 722.2656 C 18.2031 727.1094 17 734.5 17 744.4375 C 17 762.8125 22.2813 772 32.8438 772 C 35.0469 772 37.0469 771.5 38.8281 770.5313 L 38.8281 763.8594 C 37.1094 764.625 35.6563 765 34.4375 765 C 27.4688 765 24 757.9531 24 743.8281 C 24 739.9219 24.1875 736.5156 24.5781 733.6406 C 24.9688 730.7656 25.5781 728.3906 26.4063 726.5156 C 27.2188 724.6406 28.2656 723.2656 29.5156 722.3594 C 30.7656 721.4531 32.2813 721 34.0469 721 C 35.3281 721 36.9219 721.4688 38.8281 722.3906 L 38.8281 716.4219 C 36.7969 715.4844 34.7656 715 32.7031 715 L 32.7031 715 Z" fill="#000000"/>			<path d="M 47 771 L 54 771 L 54 746.8125 C 54 745.375 54.0625 744.1563 54.2188 743.1563 C 54.375 742.1719 54.6094 741.375 54.9375 740.75 C 55.25 740.1406 55.6719 739.7031 56.2031 739.4219 C 56.7188 739.1406 57.3594 739 58.125 739 C 59.5313 739 60.5156 739.5313 61.0938 740.5938 C 61.6719 741.6563 61.9688 743.4531 61.9688 745.9844 L 62 771 L 69 771 L 69 744.4219 C 69 740.5469 68.6406 737.9219 67.9375 736.5781 C 66.6563 734.2031 64.5156 733 61.5313 733 C 58.4531 733 55.9375 734.625 54 737.8438 L 54 710 L 47 710 L 47 771 L 47 771 Z" fill="#000000"/>			<path d="M 93 734 L 93 738.1719 C 91.25 734.7344 88.9375 733 86.0781 733 C 82.9375 733 80.6406 734.5469 79.1875 737.625 C 77.7188 740.7031 77 745.5156 77 752.0625 C 77 758.9375 77.7188 763.9688 79.1875 767.1875 C 80.6406 770.4063 82.9375 772 86.0781 772 C 87.7031 772 89 771.5469 90 770.6406 C 91 769.7344 92 768.2813 93 766.2656 L 93 771 L 100 771 L 100 734 L 93 734 L 93 734 ZM 85.0156 742.5156 C 85.7188 740.625 86.8906 739.6719 88.5469 739.6719 C 90.1094 739.6719 91.2344 740.6719 91.9375 742.6563 C 92.6406 744.8125 93 748.1094 93 752.5781 C 93 757.0156 92.6406 760.3125 91.9375 762.4375 C 91.2344 764.4375 90.1094 765.4375 88.5469 765.4375 C 86.8438 765.4375 85.6563 764.4844 84.9844 762.5469 C 84.3281 760.6406 84 757.25 84 752.3906 C 84 747.5781 84.3281 744.2813 85.0156 742.5156 L 85.0156 742.5156 Z" fill="#000000"/>			<path d="M 117 786 L 117 767.2969 C 117.4531 768.1875 117.9063 768.9375 118.3594 769.5469 C 118.8125 770.1719 119.2656 770.6406 119.7344 770.9688 C 120.6719 771.6563 121.8594 772 123.3281 772 C 126.3438 772 128.5469 770.5 129.9219 767.4688 C 131.2969 764.5313 132 759.6875 132 752.9688 C 132 746.1094 131.2969 741.0625 129.9219 737.8438 C 128.5313 734.625 126.3438 733 123.375 733 C 121.7813 733 120.5 733.4688 119.5313 734.375 C 118.5469 735.2969 117.5938 736.7656 116.6719 738.7813 L 116.6719 734 L 110 734 L 110 786 L 117 786 L 117 786 ZM 124.0938 763.0156 C 123.4688 765.0156 122.4219 766 120.9531 766 C 119.5469 766 118.5313 764.9688 117.9063 762.9063 C 117.2969 760.9688 117 757.5 117 752.5156 C 117 747.5469 117.2969 744.0781 117.9063 742.1406 C 118.5 740.0469 119.5156 739 120.9531 739 C 122.4531 739 123.5 740.0156 124.0938 742.0313 C 124.6875 743.9063 125 747.4531 125 752.7031 C 125 757.7344 124.6875 761.1719 124.0938 763.0156 L 124.0938 763.0156 Z" fill="#000000"/>			<path d="M 142 734 L 138.25 734 L 138.25 739 L 142 739 L 142 771 L 149 771 L 149 739 L 152.7031 739 L 152.7031 734 L 149 734 L 149 724 L 142 724 L 142 734 L 142 734 Z" fill="#ffffff"/>			<path d="M 168.7188 766 C 165.5625 766 164 762 164 754 L 179.5781 754 L 179.5781 753.125 C 179.5781 739.7188 175.875 733 168.4844 733 C 164.6406 733 161.7656 734.6094 159.8594 737.8281 C 157.9531 741.0469 157 745.9844 157 752.6406 C 157 756.0156 157.2188 758.9063 157.6875 761.3438 C 158.1406 763.7813 158.8594 765.7813 159.8281 767.3594 C 160.7969 768.9531 162.0156 770.125 163.5 770.875 C 164.9688 771.6094 166.75 772 168.8125 772 C 175.75 772 179.4688 767.6719 180 759 L 173 759 C 173 763.6719 171.5625 766 168.7188 766 L 168.7188 766 ZM 164 749 C 164.2813 745.125 164.7188 742.5938 165.3125 741.375 C 165.9063 740.0313 166.9063 739.3438 168.3125 739.3438 C 169.6875 739.3438 170.6875 740.0313 171.3125 741.375 C 171.9063 742.5938 172.3438 745.125 172.625 749 L 164 749 L 164 749 Z" fill="#ffffff"/>			<path d="M 188 771 L 195 771 L 195 748.5 C 195 745.4063 195.5 743.2188 196.5313 741.9688 C 197.5781 740.7031 199.3281 740.0625 201.7813 740.0625 C 202.0938 740.0625 202.5 740.1094 202.9844 740.1719 L 202.9844 733 C 201.1094 733.1406 199.5938 733.625 198.4531 734.4375 C 197.3125 735.2656 196.1563 736.6563 195 738.5938 L 195 734 L 188 734 L 188 771 L 188 771 Z" fill="#ffffff"/>			<path d="M 252.0625 728.9063 C 251.4375 724.9688 250.4219 721.9375 249.0313 719.7813 C 246.9219 716.5938 243.7031 715 239.3594 715 C 234.5 715 231.0469 717.0625 229.0156 721.1875 C 227 725.2969 226 732.2969 226 742.1875 C 226 753.2813 227.0156 761 229.0625 765.3438 C 231.1094 769.7813 234.6563 772 239.7031 772 C 244.4844 772 247.9063 769.9375 249.9375 765.8125 C 251.9688 761.6875 253 754.7031 253 744.8906 C 253 737.8906 252.6875 732.5625 252.0625 728.9063 L 252.0625 728.9063 ZM 244.625 761.6719 C 243.6875 764.5625 241.9844 766 239.5156 766 C 236.9844 766 235.2656 764.4688 234.3438 761.375 C 233.4375 758.125 233 752.2656 233 743.8125 C 233 734.6563 233.4219 728.5625 234.2813 725.5156 C 235.1406 722.5156 236.8906 721 239.5156 721 C 242.1406 721 243.875 722.6406 244.7188 725.9219 C 245.5625 729.2031 246 735.8281 246 745.7969 C 246 753.5156 245.5313 758.8125 244.625 761.6719 L 244.625 761.6719 Z" fill="#ffffff"/>			<path d="M 263 771 L 270 771 L 270 746.8125 C 270 745.375 270.0625 744.1563 270.2188 743.1563 C 270.375 742.1719 270.6094 741.375 270.9375 740.75 C 271.25 740.1406 271.6719 739.7031 272.2031 739.4219 C 272.7188 739.1406 273.3594 739 274.125 739 C 275.5313 739 276.5156 739.5313 277.0938 740.5938 C 277.6719 741.6563 277.9688 743.4531 277.9688 745.9844 L 278 771 L 285 771 L 285 744.4219 C 285 740.5469 284.6406 737.9219 283.9375 736.5781 C 282.6563 734.2031 280.5156 733 277.5313 733 C 274.4531 733 271.9375 734.75 270 738.2344 L 270 734 L 263 734 L 263 771 L 263 771 Z" fill="#ffffff"/>			<path d="M 304.7188 766 C 301.5625 766 300 762 300 754 L 315.5781 754 L 315.5781 753.125 C 315.5781 739.7188 311.875 733 304.4844 733 C 300.6406 733 297.7656 734.6094 295.8594 737.8281 C 293.9531 741.0469 293 745.9844 293 752.6406 C 293 756.0156 293.2188 758.9063 293.6875 761.3438 C 294.1406 763.7813 294.8594 765.7813 295.8281 767.3594 C 296.7969 768.9531 298.0156 770.125 299.5 770.875 C 300.9688 771.6094 302.75 772 304.8125 772 C 311.75 772 315.4688 767.6719 316 759 L 309 759 C 309 763.6719 307.5625 766 304.7188 766 L 304.7188 766 ZM 300 749 C 300.2813 745.125 300.7188 742.5938 301.3125 741.375 C 301.9063 740.0313 302.9063 739.3438 304.3125 739.3438 C 305.6875 739.3438 306.6875 740.0313 307.3125 741.375 C 307.9063 742.5938 308.3438 745.125 308.625 749 L 300 749 L 300 749 Z" fill="#ffffff"/>		</g>		<g id="caption01" opacity="0">			<path d="M 311 62 L 319.4844 62 L 320.0156 59 L 314.5313 59 L 318.4063 37 L 315.4063 37 L 311 62 L 311 62 Z" fill="#ffffff"/>			<path d="M 332 45 L 331.6719 46.875 C 331.125 45.625 330.2188 45 328.9688 45 C 327.5938 45 326.4688 45.6719 325.5938 47.0156 C 324.7188 48.3594 324.0313 50.4688 323.5313 53.3125 C 323 56.3125 322.9219 58.5 323.3125 59.9063 C 323.7031 61.3125 324.5938 62 325.9688 62 C 326.6719 62 327.2656 61.875 327.75 61.6094 C 328.2344 61.3594 328.7813 60.7656 329.375 59.8594 L 329 62 L 332 62 L 335 45 L 332 45 L 332 45 ZM 327.7188 49.125 C 328.1875 48.2813 328.7813 47.8438 329.5313 47.8438 C 330.2188 47.8438 330.6406 48.2969 330.7969 49.1875 C 330.9219 50.1563 330.8125 51.6563 330.4688 53.6719 C 330.1094 55.6875 329.6875 57.1719 329.2188 58.125 C 328.7344 59.0313 328.1563 59.4844 327.4688 59.4844 C 326.7031 59.4844 326.25 59.0625 326.1094 58.1875 C 325.9688 57.3125 326.0938 55.7813 326.4844 53.5938 C 326.8594 51.4063 327.2813 49.9219 327.7188 49.125 L 327.7188 49.125 Z" fill="#ffffff"/>			<path d="M 347.7656 35 L 345.625 47.1563 C 345.4688 46.75 345.3125 46.4063 345.1406 46.125 C 344.9688 45.8438 344.7813 45.6406 344.5938 45.4844 C 344.2188 45.1719 343.6875 45 343.0313 45 C 342.3281 45 341.6875 45.1719 341.125 45.4844 C 340.5625 45.8125 340.0469 46.3125 339.6094 47 C 339.1719 47.6875 338.7656 48.5469 338.4219 49.5938 C 338.0781 50.6406 337.7813 51.8906 337.5313 53.3281 C 337 56.3281 336.9219 58.5156 337.3125 59.9063 C 337.7031 61.3125 338.5781 62 339.9531 62 C 340.6719 62 341.2656 61.875 341.75 61.6094 C 342.2344 61.3594 342.7813 60.7656 343.375 59.8594 L 343 62 L 346 62 L 350.7656 35 L 347.7656 35 L 347.7656 35 ZM 341.7188 49.125 C 342.1875 48.2813 342.7813 47.8438 343.5313 47.8438 C 344.2188 47.8438 344.6406 48.2969 344.7969 49.1875 C 344.9219 50.1563 344.8125 51.6563 344.4688 53.6719 C 344.1094 55.6875 343.6875 57.1719 343.2188 58.125 C 342.7344 59.0313 342.1563 59.4844 341.4688 59.4844 C 340.7031 59.4844 340.25 59.0625 340.1094 58.1875 C 339.9688 57.3125 340.0938 55.7813 340.4844 53.5938 C 340.8594 51.4063 341.2813 49.9219 341.7188 49.125 L 341.7188 49.125 Z" fill="#ffffff"/>			<path d="M 351 62 L 354 62 L 357 45 L 354 45 L 351 62 L 351 62 ZM 354.7188 38.5938 C 354.25 38.9844 353.9688 39.4531 353.875 39.9844 C 353.7813 40.5625 353.8906 41.0313 354.2031 41.4063 C 354.5156 41.8125 354.9688 42 355.5313 42 C 356.0781 42 356.5781 41.8125 357.0469 41.4219 C 357.5 41.0313 357.7813 40.5625 357.875 40 C 357.9688 39.4531 357.8594 38.9844 357.5469 38.5938 C 357.2188 38.2031 356.7813 38 356.25 38 C 355.7188 38 355.2031 38.2031 354.7188 38.5938 L 354.7188 38.5938 Z" fill="#ffffff"/>			<path d="M 363.625 59 C 362.2188 59 361.8125 57.3438 362.4063 54 L 369.4531 54 L 369.5313 53.625 C 370.5313 47.875 369.375 45 366.0313 45 C 364.3125 45 362.9063 45.7031 361.8438 47.1094 C 360.7813 48.5156 359.9844 50.6563 359.4844 53.5625 C 359.2188 55.0313 359.0938 56.2969 359.1094 57.3594 C 359.125 58.4219 359.2813 59.2969 359.5781 59.9844 C 359.875 60.6719 360.3125 61.1875 360.9063 61.5156 C 361.5 61.8438 362.2344 62 363.1406 62 C 366.1406 62 368.125 60 369.0625 56 L 366.0625 56 C 365.7031 58 364.8906 59 363.625 59 L 363.625 59 ZM 362.7656 52 C 363.1875 50.25 363.5938 49.1094 363.9688 48.5469 C 364.3438 47.9375 364.8438 47.625 365.4844 47.625 C 366.1094 47.625 366.5 47.9375 366.6719 48.5469 C 366.8281 49.1094 366.8281 50.25 366.6719 52 L 362.7656 52 L 362.7656 52 Z" fill="#ffffff"/>			<path d="M 378.5938 45 C 377.2344 45 376.0469 45.4063 375.0469 46.2188 C 374.0469 47.0625 373.4375 48.125 373.2188 49.4063 C 373.0469 50.375 373.1094 51.1875 373.4219 51.875 C 373.75 52.5313 374.4531 53.3438 375.5313 54.3125 C 375.8438 54.6094 376.0938 54.875 376.2969 55.1094 C 376.5 55.3438 376.6406 55.5469 376.7344 55.7188 C 376.9219 56.0781 376.9688 56.5 376.875 57 C 376.6406 58.3438 375.8281 59 374.4219 59 C 373.625 59 372.8438 58.6719 372.0625 58 L 371.5156 61.1406 C 372.3281 61.7188 373.1719 62 374.0625 62 C 375.5156 62 376.7813 61.5781 377.8438 60.7188 C 378.9063 59.8438 379.5781 58.6875 379.8438 57.25 C 380 56.2656 379.9375 55.4531 379.6563 54.7969 C 379.5156 54.4688 379.2969 54.1094 378.9844 53.7344 C 378.6719 53.3594 378.2656 52.9688 377.7813 52.5313 C 376.5625 51.4844 376.0156 50.5781 376.1563 49.7969 C 376.1875 49.5469 376.2813 49.3125 376.4219 49.0938 C 376.5625 48.875 376.7344 48.6875 376.9531 48.5313 C 377.1563 48.375 377.3906 48.2344 377.6406 48.1406 C 377.8906 48.0469 378.1563 48 378.4375 48 C 379.2656 48 380 48.2813 380.6563 48.8438 L 381.2031 45.7813 C 380.3906 45.2656 379.5313 45 378.5938 45 L 378.5938 45 Z" fill="#ffffff"/>			<path d="M 400 45 L 399.6719 46.875 C 399.125 45.625 398.2188 45 396.9688 45 C 395.5938 45 394.4688 45.6719 393.5938 47.0156 C 392.7188 48.3594 392.0313 50.4688 391.5313 53.3125 C 391 56.3125 390.9219 58.5 391.3125 59.9063 C 391.7031 61.3125 392.5938 62 393.9688 62 C 394.6719 62 395.2656 61.875 395.75 61.6094 C 396.2344 61.3594 396.7813 60.7656 397.375 59.8594 L 397 62 L 400 62 L 403 45 L 400 45 L 400 45 ZM 395.7188 49.125 C 396.1875 48.2813 396.7813 47.8438 397.5313 47.8438 C 398.2188 47.8438 398.6406 48.2969 398.7969 49.1875 C 398.9219 50.1563 398.8125 51.6563 398.4688 53.6719 C 398.1094 55.6875 397.6875 57.1719 397.2188 58.125 C 396.7344 59.0313 396.1563 59.4844 395.4688 59.4844 C 394.7031 59.4844 394.25 59.0625 394.1094 58.1875 C 393.9688 57.3125 394.0938 55.7813 394.4844 53.5938 C 394.8594 51.4063 395.2813 49.9219 395.7188 49.125 L 395.7188 49.125 Z" fill="#ffffff"/>			<path d="M 405 62 L 408 62 L 409.8594 51.4219 C 409.9688 50.7969 410.0938 50.2656 410.25 49.8281 C 410.4063 49.3906 410.5781 49.0469 410.7969 48.7656 C 411 48.5 411.25 48.3125 411.5313 48.1875 C 411.8125 48.0625 412.1406 48 412.5313 48 C 413.2188 48 413.6719 48.2344 413.8906 48.7031 C 414.0938 49.1719 414.1094 49.9531 413.9219 51.0469 L 412 62 L 415 62 L 417.0938 50.1094 C 417.4063 48.375 417.4375 47.2031 417.2188 46.5938 C 416.8125 45.5313 415.9063 45 414.5156 45 C 413.0781 45 411.7813 45.6406 410.6563 46.9063 L 411 45 L 408 45 L 405 62 L 405 62 Z" fill="#ffffff"/>			<path d="M 429.7656 35 L 427.625 47.1563 C 427.4688 46.75 427.3125 46.4063 427.1406 46.125 C 426.9688 45.8438 426.7813 45.6406 426.5938 45.4844 C 426.2188 45.1719 425.6875 45 425.0313 45 C 424.3281 45 423.6875 45.1719 423.125 45.4844 C 422.5625 45.8125 422.0469 46.3125 421.6094 47 C 421.1719 47.6875 420.7656 48.5469 420.4219 49.5938 C 420.0781 50.6406 419.7813 51.8906 419.5313 53.3281 C 419 56.3281 418.9219 58.5156 419.3125 59.9063 C 419.7031 61.3125 420.5781 62 421.9531 62 C 422.6719 62 423.2656 61.875 423.75 61.6094 C 424.2344 61.3594 424.7813 60.7656 425.375 59.8594 L 425 62 L 428 62 L 432.7656 35 L 429.7656 35 L 429.7656 35 ZM 423.7188 49.125 C 424.1875 48.2813 424.7813 47.8438 425.5313 47.8438 C 426.2188 47.8438 426.6406 48.2969 426.7969 49.1875 C 426.9219 50.1563 426.8125 51.6563 426.4688 53.6719 C 426.1094 55.6875 425.6875 57.1719 425.2188 58.125 C 424.7344 59.0313 424.1563 59.4844 423.4688 59.4844 C 422.7031 59.4844 422.25 59.0625 422.1094 58.1875 C 421.9688 57.3125 422.0938 55.7813 422.4844 53.5938 C 422.8594 51.4063 423.2813 49.9219 423.7188 49.125 L 423.7188 49.125 Z" fill="#ffffff"/>			<path d="M 449.6406 47 C 449.3281 46.1563 448.9688 45.6094 448.5938 45.3594 C 448.2188 45.125 447.6875 45 447.0156 45 C 445.5781 45 444.4219 45.6875 443.5781 47.0469 C 442.6875 48.4844 441.9844 50.7188 441.4531 53.7188 C 440.9531 56.5625 440.9063 58.6563 441.3281 60 C 441.7344 61.3438 442.6406 62 444.0313 62 C 445.3594 62 446.4844 61.25 447.4063 59.7188 L 446.7969 63.1094 C 446.5313 64.6406 446.2188 65.6563 445.8438 66.1875 C 445.4844 66.7188 444.9375 67 444.1875 67 C 442.8125 67 442.2969 66 442.6406 64 L 439.6563 64 L 439.5625 64.4844 C 439.3125 65.8594 439.5625 66.9688 440.2813 67.7813 C 440.9844 68.5938 442.0938 69 443.5938 69 C 445.875 69 447.5156 68.25 448.5469 66.7813 C 449.0938 65.9688 449.5469 64.5313 449.9219 62.4375 L 453 45 L 450 45 L 449.6406 47 L 449.6406 47 ZM 447.2188 58.4219 C 446.8125 59.2344 446.25 59.6406 445.5313 59.6406 C 444.7656 59.6406 444.2969 59.1875 444.125 58.2656 C 443.9844 57.2969 444.0938 55.75 444.4688 53.6406 C 444.8125 51.6719 445.2188 50.25 445.6875 49.3438 C 446.1563 48.4531 446.7188 48 447.375 48 C 448.7656 48 449.1094 50 448.4219 53.9688 C 448.0156 56.1875 447.625 57.6719 447.2188 58.4219 L 447.2188 58.4219 Z" fill="#ffffff"/>			<path d="M 459.625 59 C 458.2188 59 457.8125 57.3438 458.4063 54 L 465.4531 54 L 465.5313 53.625 C 466.5313 47.875 465.375 45 462.0313 45 C 460.3125 45 458.9063 45.7031 457.8438 47.1094 C 456.7813 48.5156 455.9844 50.6563 455.4844 53.5625 C 455.2188 55.0313 455.0938 56.2969 455.1094 57.3594 C 455.125 58.4219 455.2813 59.2969 455.5781 59.9844 C 455.875 60.6719 456.3125 61.1875 456.9063 61.5156 C 457.5 61.8438 458.2344 62 459.1406 62 C 462.1406 62 464.125 60 465.0625 56 L 462.0625 56 C 461.7031 58 460.8906 59 459.625 59 L 459.625 59 ZM 458.7656 52 C 459.1875 50.25 459.5938 49.1094 459.9688 48.5469 C 460.3438 47.9375 460.8438 47.625 461.4844 47.625 C 462.1094 47.625 462.5 47.9375 462.6719 48.5469 C 462.8281 49.1094 462.8281 50.25 462.6719 52 L 458.7656 52 L 458.7656 52 Z" fill="#ffffff"/>			<path d="M 468 62 L 471 62 L 472.8594 51.4219 C 472.9688 50.7969 473.0938 50.2656 473.25 49.8281 C 473.4063 49.3906 473.5781 49.0469 473.7969 48.7656 C 474 48.5 474.25 48.3125 474.5313 48.1875 C 474.8125 48.0625 475.1406 48 475.5313 48 C 476.2188 48 476.6719 48.2344 476.8906 48.7031 C 477.0938 49.1719 477.1094 49.9531 476.9219 51.0469 L 475 62 L 478 62 L 480.0938 50.1094 C 480.4063 48.375 480.4375 47.2031 480.2188 46.5938 C 479.8125 45.5313 478.9063 45 477.5156 45 C 476.0781 45 474.7813 45.6406 473.6563 46.9063 L 474 45 L 471 45 L 468 62 L 468 62 Z" fill="#ffffff"/>			<path d="M 485 45 L 483.3125 45 L 482.9531 47 L 484.6406 47 L 482 62 L 485 62 L 487.6406 47 L 489.3125 47 L 489.6719 45 L 488 45 L 488.7031 41 L 485.7031 41 L 485 45 L 485 45 Z" fill="#ffffff"/>			<path d="M 490 62 L 493 62 L 497.7656 35 L 494.7656 35 L 490 62 L 490 62 Z" fill="#ffffff"/>			<path d="M 502.625 59 C 501.2188 59 500.8125 57.3438 501.4063 54 L 508.4531 54 L 508.5313 53.625 C 509.5313 47.875 508.375 45 505.0313 45 C 503.3125 45 501.9063 45.7031 500.8438 47.1094 C 499.7813 48.5156 498.9844 50.6563 498.4844 53.5625 C 498.2188 55.0313 498.0938 56.2969 498.1094 57.3594 C 498.125 58.4219 498.2813 59.2969 498.5781 59.9844 C 498.875 60.6719 499.3125 61.1875 499.9063 61.5156 C 500.5 61.8438 501.2344 62 502.1406 62 C 505.1406 62 507.125 60 508.0625 56 L 505.0625 56 C 504.7031 58 503.8906 59 502.625 59 L 502.625 59 ZM 501.7656 52 C 502.1875 50.25 502.5938 49.1094 502.9688 48.5469 C 503.3438 47.9375 503.8438 47.625 504.4844 47.625 C 505.1094 47.625 505.5 47.9375 505.6719 48.5469 C 505.8281 49.1094 505.8281 50.25 505.6719 52 L 501.7656 52 L 501.7656 52 Z" fill="#ffffff"/>			<path d="M 511 62 L 514 62 L 515.9063 51.1563 C 516.1094 50.0156 516.4219 49.2031 516.8281 48.7188 C 517.2344 48.25 517.8125 48 518.5781 48 C 518.9219 48 519.2188 48.0625 519.4375 48.1719 C 519.6563 48.2813 519.8125 48.4531 519.9219 48.7031 C 520.0313 48.9531 520.0781 49.2656 520.0781 49.6719 C 520.0625 50.0781 520 50.5781 519.9063 51.1563 L 518 62 L 521 62 L 522.9063 51.1563 C 523.125 49.9375 523.375 49.1094 523.6719 48.6719 C 523.9688 48.2344 524.4375 48 525.0625 48 C 525.6094 48 525.9375 48.2188 526.0625 48.6563 C 526.1719 49.0938 526.125 49.9219 525.9063 51.1563 L 524 62 L 527 62 L 529.3438 48.6719 C 529.5625 47.4688 529.4219 46.5625 528.9531 45.9375 C 528.4688 45.3125 527.6719 45 526.5469 45 C 525.1094 45 523.8594 45.7813 522.7969 47.3438 C 522.5469 45.7813 521.7031 45 520.2344 45 C 518.8906 45 517.6875 45.6875 516.6406 47.0625 L 517 45 L 514 45 L 511 62 L 511 62 Z" fill="#ffffff"/>			<path d="M 536.625 59 C 535.2188 59 534.8125 57.3438 535.4063 54 L 542.4531 54 L 542.5313 53.625 C 543.5313 47.875 542.375 45 539.0313 45 C 537.3125 45 535.9063 45.7031 534.8438 47.1094 C 533.7813 48.5156 532.9844 50.6563 532.4844 53.5625 C 532.2188 55.0313 532.0938 56.2969 532.1094 57.3594 C 532.125 58.4219 532.2813 59.2969 532.5781 59.9844 C 532.875 60.6719 533.3125 61.1875 533.9063 61.5156 C 534.5 61.8438 535.2344 62 536.1406 62 C 539.1406 62 541.125 60 542.0625 56 L 539.0625 56 C 538.7031 58 537.8906 59 536.625 59 L 536.625 59 ZM 535.7656 52 C 536.1875 50.25 536.5938 49.1094 536.9688 48.5469 C 537.3438 47.9375 537.8438 47.625 538.4844 47.625 C 539.1094 47.625 539.5 47.9375 539.6719 48.5469 C 539.8281 49.1094 539.8281 50.25 539.6719 52 L 535.7656 52 L 535.7656 52 Z" fill="#ffffff"/>			<path d="M 545 62 L 548 62 L 549.8594 51.4219 C 549.9688 50.7969 550.0938 50.2656 550.25 49.8281 C 550.4063 49.3906 550.5781 49.0469 550.7969 48.7656 C 551 48.5 551.25 48.3125 551.5313 48.1875 C 551.8125 48.0625 552.1406 48 552.5313 48 C 553.2188 48 553.6719 48.2344 553.8906 48.7031 C 554.0938 49.1719 554.1094 49.9531 553.9219 51.0469 L 552 62 L 555 62 L 557.0938 50.1094 C 557.4063 48.375 557.4375 47.2031 557.2188 46.5938 C 556.8125 45.5313 555.9063 45 554.5156 45 C 553.0781 45 551.7813 45.6406 550.6563 46.9063 L 551 45 L 548 45 L 545 62 L 545 62 Z" fill="#ffffff"/>			<path d="M 559.1875 58.5781 C 558.7188 58.9844 558.4531 59.4531 558.3594 60 C 558.2969 60.2813 558.3125 60.5469 558.375 60.7969 C 558.4375 61.0469 558.5313 61.25 558.6875 61.4219 C 558.8438 61.6094 559.0313 61.75 559.25 61.8438 C 559.4688 61.9531 559.7344 62 560.0156 62 C 560.5313 62 561.0313 61.8125 561.5156 61.4375 C 561.9688 61.0469 562.25 60.5781 562.3438 60.0156 C 562.4375 59.4688 562.3281 59 562.0156 58.6094 C 561.6875 58.2031 561.2656 58 560.75 58 C 560.1719 58 559.6563 58.2031 559.1875 58.5781 L 559.1875 58.5781 ZM 561.4688 45.5781 C 561.0156 45.9688 560.7344 46.4375 560.6406 46.9844 C 560.5469 47.5469 560.6563 48.0156 560.9688 48.4219 C 561.2969 48.8125 561.75 49 562.3125 49 C 562.8438 49 563.3438 48.8125 563.8125 48.4219 C 564.2656 48.0313 564.5469 47.5469 564.6406 46.9844 C 564.7344 46.4531 564.625 46 564.3125 45.5938 C 563.9844 45.2031 563.5625 45 563.0469 45 C 562.4688 45 561.9375 45.2031 561.4688 45.5781 L 561.4688 45.5781 Z" fill="#ffffff"/>			<path d="M 578 45 L 576.3125 45 L 575.9531 47 L 577.6406 47 L 575 62 L 578 62 L 580.6406 47 L 582.3125 47 L 582.6719 45 L 581 45 L 581.7031 41 L 578.7031 41 L 578 45 L 578 45 Z" fill="#ffffff"/>			<path d="M 583 62 L 586 62 L 587.8594 51.4219 C 587.9688 50.7969 588.0938 50.2656 588.25 49.8281 C 588.4063 49.3906 588.5781 49.0469 588.7969 48.7656 C 589 48.5 589.25 48.3125 589.5313 48.1875 C 589.8125 48.0625 590.1406 48 590.5313 48 C 591.2188 48 591.6719 48.2344 591.8906 48.7031 C 592.0938 49.1719 592.1094 49.9531 591.9219 51.0469 L 590 62 L 593 62 L 595.0938 50.1094 C 595.4063 48.375 595.4375 47.2031 595.2188 46.5938 C 594.8125 45.5313 593.9063 45 592.5156 45 C 591.0781 45 589.7656 45.7344 588.6094 47.1875 L 590.7656 35 L 587.7656 35 L 583 62 L 583 62 Z" fill="#ffffff"/>			<path d="M 601.625 59 C 600.2188 59 599.8125 57.3438 600.4063 54 L 607.4531 54 L 607.5313 53.625 C 608.5313 47.875 607.375 45 604.0313 45 C 602.3125 45 600.9063 45.7031 599.8438 47.1094 C 598.7813 48.5156 597.9844 50.6563 597.4844 53.5625 C 597.2188 55.0313 597.0938 56.2969 597.1094 57.3594 C 597.125 58.4219 597.2813 59.2969 597.5781 59.9844 C 597.875 60.6719 598.3125 61.1875 598.9063 61.5156 C 599.5 61.8438 600.2344 62 601.1406 62 C 604.1406 62 606.125 60 607.0625 56 L 604.0625 56 C 603.7031 58 602.8906 59 601.625 59 L 601.625 59 ZM 600.7656 52 C 601.1875 50.25 601.5938 49.1094 601.9688 48.5469 C 602.3438 47.9375 602.8438 47.625 603.4844 47.625 C 604.1094 47.625 604.5 47.9375 604.6719 48.5469 C 604.8281 49.1094 604.8281 50.25 604.6719 52 L 600.7656 52 L 600.7656 52 Z" fill="#ffffff"/>			<path d="M 624.6719 45 C 623.0156 45 621.6875 45.7031 620.7188 47.1094 C 619.7344 48.5156 618.9844 50.7031 618.4688 53.6563 C 617.4844 59.2188 618.5313 62 621.6094 62 C 622.4375 62 623.3125 61.7813 624.2188 61.3281 L 624.7344 58.375 C 624.0781 58.7969 623.5313 59 623.0625 59 C 621.375 59 620.8594 57.125 621.5313 53.3438 C 622.1563 49.7813 623.3125 48 625.0156 48 C 625.6094 48 626.0781 48.2656 626.4219 48.7813 L 626.9844 45.6094 C 626.2656 45.2031 625.4844 45 624.6719 45 L 624.6719 45 Z" fill="#ffffff"/>			<path d="M 638.8594 49.7813 C 638.8438 48.7031 638.6875 47.8125 638.4063 47.0938 C 638.125 46.375 637.6875 45.8594 637.125 45.5156 C 636.5625 45.1719 635.8438 45 634.9844 45 C 631.6563 45 629.5 47.8438 628.5 53.5156 C 627.5 59.1719 628.6563 62 632 62 C 635.3281 62 637.4844 59.2188 638.4688 53.6406 C 638.7344 52.1563 638.8594 50.875 638.8594 49.7813 L 638.8594 49.7813 ZM 634.2969 57.7813 C 633.8594 58.5938 633.2656 59 632.5469 59 C 631.7969 59 631.3438 58.5938 631.1875 57.7656 C 631.0313 56.9688 631.125 55.5469 631.5 53.5 C 631.8438 51.4688 632.25 50.0469 632.6875 49.2344 C 633.1406 48.4219 633.7344 48 634.4844 48 C 635.2188 48 635.6563 48.4219 635.8125 49.25 C 635.9531 50.0625 635.8438 51.5156 635.4844 53.5938 C 635.1094 55.6406 634.7188 57.0313 634.2969 57.7813 L 634.2969 57.7813 Z" fill="#ffffff"/>			<path d="M 642 62 L 645 62 L 646.9063 51.1563 C 647.1094 50.0156 647.4219 49.2031 647.8281 48.7188 C 648.2344 48.25 648.8125 48 649.5781 48 C 649.9219 48 650.2188 48.0625 650.4375 48.1719 C 650.6563 48.2813 650.8125 48.4531 650.9219 48.7031 C 651.0313 48.9531 651.0781 49.2656 651.0781 49.6719 C 651.0625 50.0781 651 50.5781 650.9063 51.1563 L 649 62 L 652 62 L 653.9063 51.1563 C 654.125 49.9375 654.375 49.1094 654.6719 48.6719 C 654.9688 48.2344 655.4375 48 656.0625 48 C 656.6094 48 656.9375 48.2188 657.0625 48.6563 C 657.1719 49.0938 657.125 49.9219 656.9063 51.1563 L 655 62 L 658 62 L 660.3438 48.6719 C 660.5625 47.4688 660.4219 46.5625 659.9531 45.9375 C 659.4688 45.3125 658.6719 45 657.5469 45 C 656.1094 45 654.8594 45.7813 653.7969 47.3438 C 653.5469 45.7813 652.7031 45 651.2344 45 C 649.8906 45 648.6875 45.6875 647.6406 47.0625 L 648 45 L 645 45 L 642 62 L 642 62 Z" fill="#ffffff"/>			<path d="M 663 62 L 666 62 L 669 45 L 666 45 L 663 62 L 663 62 ZM 666.7188 38.5938 C 666.25 38.9844 665.9688 39.4531 665.875 39.9844 C 665.7813 40.5625 665.8906 41.0313 666.2031 41.4063 C 666.5156 41.8125 666.9688 42 667.5313 42 C 668.0781 42 668.5781 41.8125 669.0469 41.4219 C 669.5 41.0313 669.7813 40.5625 669.875 40 C 669.9688 39.4531 669.8594 38.9844 669.5469 38.5938 C 669.2188 38.2031 668.7813 38 668.25 38 C 667.7188 38 667.2031 38.2031 666.7188 38.5938 L 666.7188 38.5938 Z" fill="#ffffff"/>			<path d="M 677.6719 45 C 676.0156 45 674.6875 45.7031 673.7188 47.1094 C 672.7344 48.5156 671.9844 50.7031 671.4688 53.6563 C 670.4844 59.2188 671.5313 62 674.6094 62 C 675.4375 62 676.3125 61.7813 677.2188 61.3281 L 677.7344 58.375 C 677.0781 58.7969 676.5313 59 676.0625 59 C 674.375 59 673.8594 57.125 674.5313 53.3438 C 675.1563 49.7813 676.3125 48 678.0156 48 C 678.6094 48 679.0781 48.2656 679.4219 48.7813 L 679.9844 45.6094 C 679.2656 45.2031 678.4844 45 677.6719 45 L 677.6719 45 Z" fill="#ffffff"/>			<path d="M 313.7969 99.6563 L 309.7656 108 L 313 108 L 324.0469 84 L 320.9219 84 L 316.0156 95.625 L 315.6094 84 L 312.125 84 L 313.7969 99.6563 L 313.7969 99.6563 Z" fill="#ffffff"/>			<path d="M 334.8594 88.7813 C 334.8438 87.7031 334.6875 86.8125 334.4063 86.0938 C 334.125 85.375 333.6875 84.8594 333.125 84.5156 C 332.5625 84.1719 331.8438 84 330.9844 84 C 327.6563 84 325.5 86.8438 324.5 92.5156 C 323.5 98.1719 324.6563 101 328 101 C 331.3281 101 333.4844 98.2188 334.4688 92.6406 C 334.7344 91.1563 334.8594 89.875 334.8594 88.7813 L 334.8594 88.7813 ZM 330.2969 96.7813 C 329.8594 97.5938 329.2656 98 328.5469 98 C 327.7969 98 327.3438 97.5938 327.1875 96.7656 C 327.0313 95.9688 327.125 94.5469 327.5 92.5 C 327.8438 90.4688 328.25 89.0469 328.6875 88.2344 C 329.1406 87.4219 329.7344 87 330.4844 87 C 331.2188 87 331.6563 87.4219 331.8125 88.25 C 331.9531 89.0625 331.8438 90.5156 331.4844 92.5938 C 331.1094 94.6406 330.7188 96.0313 330.2969 96.7813 L 330.2969 96.7813 Z" fill="#ffffff"/>			<path d="M 339.0469 95.0625 C 338.6719 97.2031 338.7813 98.7344 339.375 99.6406 C 339.9688 100.5469 341.1563 101 342.9688 101 C 345.25 101 346.8906 100.2344 347.8906 98.7031 C 348.3594 97.9219 348.8125 96.3594 349.2344 94.0156 L 351 84 L 348 84 L 346.25 93.9531 L 346 95.2969 C 345.8125 96.3125 345.5469 97.0156 345.1875 97.4219 C 344.8125 97.8125 344.2656 98 343.5313 98 C 342.8125 98 342.3438 97.7813 342.125 97.3438 C 341.9063 96.9063 341.875 96.1719 342.0313 95.1406 L 344 84 L 341 84 L 339.0469 95.0625 L 339.0469 95.0625 Z" fill="#ffffff"/>			<path d="M 369 84 L 368.6719 85.875 C 368.125 84.625 367.2188 84 365.9688 84 C 364.5938 84 363.4688 84.6719 362.5938 86.0156 C 361.7188 87.3594 361.0313 89.4688 360.5313 92.3125 C 360 95.3125 359.9219 97.5 360.3125 98.9063 C 360.7031 100.3125 361.5938 101 362.9688 101 C 363.6719 101 364.2656 100.875 364.75 100.6094 C 365.2344 100.3594 365.7813 99.7656 366.375 98.8594 L 366 101 L 369 101 L 372 84 L 369 84 L 369 84 ZM 364.7188 88.125 C 365.1875 87.2813 365.7813 86.8438 366.5313 86.8438 C 367.2188 86.8438 367.6406 87.2969 367.7969 88.1875 C 367.9219 89.1563 367.8125 90.6563 367.4688 92.6719 C 367.1094 94.6875 366.6875 96.1719 366.2188 97.125 C 365.7344 98.0313 365.1563 98.4844 364.4688 98.4844 C 363.7031 98.4844 363.25 98.0625 363.1094 97.1875 C 362.9688 96.3125 363.0938 94.7813 363.4844 92.5938 C 363.8594 90.4063 364.2813 88.9219 364.7188 88.125 L 364.7188 88.125 Z" fill="#ffffff"/>			<path d="M 374 101 L 377 101 L 378.7813 90.9375 C 379.0156 89.5469 379.4219 88.5781 380 88.0156 C 380.5625 87.4531 381.3906 87.1563 382.5 87.1563 C 382.6563 87.1563 382.8281 87.1719 383.0469 87.2031 L 383.6094 84 C 382.7656 84 382.0625 84.125 381.5 84.375 C 380.9375 84.625 380.3125 85.2031 379.625 86.0781 L 380 84 L 377 84 L 374 101 L 374 101 Z" fill="#ffffff"/>			<path d="M 388.625 98 C 387.2188 98 386.8125 96.3438 387.4063 93 L 394.4531 93 L 394.5313 92.625 C 395.5313 86.875 394.375 84 391.0313 84 C 389.3125 84 387.9063 84.7031 386.8438 86.1094 C 385.7813 87.5156 384.9844 89.6563 384.4844 92.5625 C 384.2188 94.0313 384.0938 95.2969 384.1094 96.3594 C 384.125 97.4219 384.2813 98.2969 384.5781 98.9844 C 384.875 99.6719 385.3125 100.1875 385.9063 100.5156 C 386.5 100.8438 387.2344 101 388.1406 101 C 391.1406 101 393.125 99 394.0625 95 L 391.0625 95 C 390.7031 97 389.8906 98 388.625 98 L 388.625 98 ZM 387.7656 91 C 388.1875 89.25 388.5938 88.1094 388.9688 87.5469 C 389.3438 86.9375 389.8438 86.625 390.4844 86.625 C 391.1094 86.625 391.5 86.9375 391.6719 87.5469 C 391.8281 88.1094 391.8281 89.25 391.6719 91 L 387.7656 91 L 387.7656 91 Z" fill="#ffffff"/>			<path d="M 414 84 L 413.6719 85.875 C 413.125 84.625 412.2188 84 410.9688 84 C 409.5938 84 408.4688 84.6719 407.5938 86.0156 C 406.7188 87.3594 406.0313 89.4688 405.5313 92.3125 C 405 95.3125 404.9219 97.5 405.3125 98.9063 C 405.7031 100.3125 406.5938 101 407.9688 101 C 408.6719 101 409.2656 100.875 409.75 100.6094 C 410.2344 100.3594 410.7813 99.7656 411.375 98.8594 L 411 101 L 414 101 L 417 84 L 414 84 L 414 84 ZM 409.7188 88.125 C 410.1875 87.2813 410.7813 86.8438 411.5313 86.8438 C 412.2188 86.8438 412.6406 87.2969 412.7969 88.1875 C 412.9219 89.1563 412.8125 90.6563 412.4688 92.6719 C 412.1094 94.6875 411.6875 96.1719 411.2188 97.125 C 410.7344 98.0313 410.1563 98.4844 409.4688 98.4844 C 408.7031 98.4844 408.25 98.0625 408.1094 97.1875 C 407.9688 96.3125 408.0938 94.7813 408.4844 92.5938 C 408.8594 90.4063 409.2813 88.9219 409.7188 88.125 L 409.7188 88.125 Z" fill="#ffffff"/>			<path d="M 419 101 L 422 101 L 422.375 98.8594 C 422.6563 99.7656 422.9844 100.3594 423.375 100.6094 C 423.7656 100.875 424.3281 101 425.0469 101 C 426.4063 101 427.5313 100.3125 428.4063 98.9063 C 429.2813 97.5156 430 95.3281 430.5313 92.3281 C 430.7813 90.8906 430.9219 89.6406 430.9531 88.5938 C 430.9844 87.5469 430.8906 86.6875 430.6875 86 C 430.4844 85.3125 430.1563 84.8125 429.7188 84.4844 C 429.2656 84.1719 428.7031 84 428.0156 84 C 427.3281 84 426.75 84.1719 426.2813 84.4844 C 426.0469 84.6406 425.7969 84.8438 425.5156 85.125 C 425.2344 85.4063 424.9688 85.75 424.7031 86.1563 L 426.8438 74 L 423.7656 74 L 419 101 L 419 101 ZM 426.2188 97.2031 C 425.7344 98.0625 425.125 98.4844 424.3906 98.4844 C 423.6719 98.4844 423.2344 98.0625 423.1094 97.1875 C 422.9688 96.3125 423.0938 94.7969 423.4688 92.6719 C 423.8438 90.5469 424.25 89.0313 424.7031 88.1563 C 425.1406 87.2813 425.7344 86.8438 426.4531 86.8438 C 427.2188 86.8438 427.6719 87.2813 427.8125 88.1406 C 427.9688 88.9531 427.8594 90.4844 427.4531 92.75 C 427.0625 94.9219 426.6563 96.4063 426.2188 97.2031 L 426.2188 97.2031 Z" fill="#ffffff"/>			<path d="M 443.8594 88.7813 C 443.8438 87.7031 443.6875 86.8125 443.4063 86.0938 C 443.125 85.375 442.6875 84.8594 442.125 84.5156 C 441.5625 84.1719 440.8438 84 439.9844 84 C 436.6563 84 434.5 86.8438 433.5 92.5156 C 432.5 98.1719 433.6563 101 437 101 C 440.3281 101 442.4844 98.2188 443.4688 92.6406 C 443.7344 91.1563 443.8594 89.875 443.8594 88.7813 L 443.8594 88.7813 ZM 439.2969 96.7813 C 438.8594 97.5938 438.2656 98 437.5469 98 C 436.7969 98 436.3438 97.5938 436.1875 96.7656 C 436.0313 95.9688 436.125 94.5469 436.5 92.5 C 436.8438 90.4688 437.25 89.0469 437.6875 88.2344 C 438.1406 87.4219 438.7344 87 439.4844 87 C 440.2188 87 440.6563 87.4219 440.8125 88.25 C 440.9531 89.0625 440.8438 90.5156 440.4844 92.5938 C 440.1094 94.6406 439.7188 96.0313 439.2969 96.7813 L 439.2969 96.7813 Z" fill="#ffffff"/>			<path d="M 448.0469 95.0625 C 447.6719 97.2031 447.7813 98.7344 448.375 99.6406 C 448.9688 100.5469 450.1563 101 451.9688 101 C 454.25 101 455.8906 100.2344 456.8906 98.7031 C 457.3594 97.9219 457.8125 96.3594 458.2344 94.0156 L 460 84 L 457 84 L 455.25 93.9531 L 455 95.2969 C 454.8125 96.3125 454.5469 97.0156 454.1875 97.4219 C 453.8125 97.8125 453.2656 98 452.5313 98 C 451.8125 98 451.3438 97.7813 451.125 97.3438 C 450.9063 96.9063 450.875 96.1719 451.0313 95.1406 L 453 84 L 450 84 L 448.0469 95.0625 L 448.0469 95.0625 Z" fill="#ffffff"/>			<path d="M 464 84 L 462.3125 84 L 461.9531 86 L 463.6406 86 L 461 101 L 464 101 L 466.6406 86 L 468.3125 86 L 468.6719 84 L 467 84 L 467.7031 80 L 464.7031 80 L 464 84 L 464 84 Z" fill="#ffffff"/>			<path d="M 480 84 L 478.3125 84 L 477.9531 86 L 479.6406 86 L 477 101 L 480 101 L 482.6406 86 L 484.3125 86 L 484.6719 84 L 483 84 L 483.7031 80 L 480.7031 80 L 480 84 L 480 84 Z" fill="#ffffff"/>			<path d="M 495.8594 88.7813 C 495.8438 87.7031 495.6875 86.8125 495.4063 86.0938 C 495.125 85.375 494.6875 84.8594 494.125 84.5156 C 493.5625 84.1719 492.8438 84 491.9844 84 C 488.6563 84 486.5 86.8438 485.5 92.5156 C 484.5 98.1719 485.6563 101 489 101 C 492.3281 101 494.4844 98.2188 495.4688 92.6406 C 495.7344 91.1563 495.8594 89.875 495.8594 88.7813 L 495.8594 88.7813 ZM 491.2969 96.7813 C 490.8594 97.5938 490.2656 98 489.5469 98 C 488.7969 98 488.3438 97.5938 488.1875 96.7656 C 488.0313 95.9688 488.125 94.5469 488.5 92.5 C 488.8438 90.4688 489.25 89.0469 489.6875 88.2344 C 490.1406 87.4219 490.7344 87 491.4844 87 C 492.2188 87 492.6563 87.4219 492.8125 88.25 C 492.9531 89.0625 492.8438 90.5156 492.4844 92.5938 C 492.1094 94.6406 491.7188 96.0313 491.2969 96.7813 L 491.2969 96.7813 Z" fill="#ffffff"/>			<path d="M 507 101 L 510 101 L 511.7813 90.9375 C 512.0156 89.5469 512.4219 88.5781 513 88.0156 C 513.5625 87.4531 514.3906 87.1563 515.5 87.1563 C 515.6563 87.1563 515.8281 87.1719 516.0469 87.2031 L 516.6094 84 C 515.7656 84 515.0625 84.125 514.5 84.375 C 513.9375 84.625 513.3125 85.2031 512.625 86.0781 L 513 84 L 510 84 L 507 101 L 507 101 Z" fill="#ffffff"/>			<path d="M 521.625 98 C 520.2188 98 519.8125 96.3438 520.4063 93 L 527.4531 93 L 527.5313 92.625 C 528.5313 86.875 527.375 84 524.0313 84 C 522.3125 84 520.9063 84.7031 519.8438 86.1094 C 518.7813 87.5156 517.9844 89.6563 517.4844 92.5625 C 517.2188 94.0313 517.0938 95.2969 517.1094 96.3594 C 517.125 97.4219 517.2813 98.2969 517.5781 98.9844 C 517.875 99.6719 518.3125 100.1875 518.9063 100.5156 C 519.5 100.8438 520.2344 101 521.1406 101 C 524.1406 101 526.125 99 527.0625 95 L 524.0625 95 C 523.7031 97 522.8906 98 521.625 98 L 521.625 98 ZM 520.7656 91 C 521.1875 89.25 521.5938 88.1094 521.9688 87.5469 C 522.3438 86.9375 522.8438 86.625 523.4844 86.625 C 524.1094 86.625 524.5 86.9375 524.6719 87.5469 C 524.8281 88.1094 524.8281 89.25 524.6719 91 L 520.7656 91 L 520.7656 91 Z" fill="#ffffff"/>			<path d="M 539 84 L 538.6719 85.875 C 538.125 84.625 537.2188 84 535.9688 84 C 534.5938 84 533.4688 84.6719 532.5938 86.0156 C 531.7188 87.3594 531.0313 89.4688 530.5313 92.3125 C 530 95.3125 529.9219 97.5 530.3125 98.9063 C 530.7031 100.3125 531.5938 101 532.9688 101 C 533.6719 101 534.2656 100.875 534.75 100.6094 C 535.2344 100.3594 535.7813 99.7656 536.375 98.8594 L 536 101 L 539 101 L 542 84 L 539 84 L 539 84 ZM 534.7188 88.125 C 535.1875 87.2813 535.7813 86.8438 536.5313 86.8438 C 537.2188 86.8438 537.6406 87.2969 537.7969 88.1875 C 537.9219 89.1563 537.8125 90.6563 537.4688 92.6719 C 537.1094 94.6875 536.6875 96.1719 536.2188 97.125 C 535.7344 98.0313 535.1563 98.4844 534.4688 98.4844 C 533.7031 98.4844 533.25 98.0625 533.1094 97.1875 C 532.9688 96.3125 533.0938 94.7813 533.4844 92.5938 C 533.8594 90.4063 534.2813 88.9219 534.7188 88.125 L 534.7188 88.125 Z" fill="#ffffff"/>			<path d="M 554.7656 74 L 552.625 86.1563 C 552.4688 85.75 552.3125 85.4063 552.1406 85.125 C 551.9688 84.8438 551.7813 84.6406 551.5938 84.4844 C 551.2188 84.1719 550.6875 84 550.0313 84 C 549.3281 84 548.6875 84.1719 548.125 84.4844 C 547.5625 84.8125 547.0469 85.3125 546.6094 86 C 546.1719 86.6875 545.7656 87.5469 545.4219 88.5938 C 545.0781 89.6406 544.7813 90.8906 544.5313 92.3281 C 544 95.3281 543.9219 97.5156 544.3125 98.9063 C 544.7031 100.3125 545.5781 101 546.9531 101 C 547.6719 101 548.2656 100.875 548.75 100.6094 C 549.2344 100.3594 549.7813 99.7656 550.375 98.8594 L 550 101 L 553 101 L 557.7656 74 L 554.7656 74 L 554.7656 74 ZM 548.7188 88.125 C 549.1875 87.2813 549.7813 86.8438 550.5313 86.8438 C 551.2188 86.8438 551.6406 87.2969 551.7969 88.1875 C 551.9219 89.1563 551.8125 90.6563 551.4688 92.6719 C 551.1094 94.6875 550.6875 96.1719 550.2188 97.125 C 549.7344 98.0313 549.1563 98.4844 548.4688 98.4844 C 547.7031 98.4844 547.25 98.0625 547.1094 97.1875 C 546.9688 96.3125 547.0938 94.7813 547.4844 92.5938 C 547.8594 90.4063 548.2813 88.9219 548.7188 88.125 L 548.7188 88.125 Z" fill="#ffffff"/>			<path d="M 566 101 L 569 101 L 572 84 L 569 84 L 566 101 L 566 101 ZM 569.7188 77.5938 C 569.25 77.9844 568.9688 78.4531 568.875 78.9844 C 568.7813 79.5625 568.8906 80.0313 569.2031 80.4063 C 569.5156 80.8125 569.9688 81 570.5313 81 C 571.0781 81 571.5781 80.8125 572.0469 80.4219 C 572.5 80.0313 572.7813 79.5625 572.875 79 C 572.9688 78.4531 572.8594 77.9844 572.5469 77.5938 C 572.2188 77.2031 571.7813 77 571.25 77 C 570.7188 77 570.2031 77.2031 569.7188 77.5938 L 569.7188 77.5938 Z" fill="#ffffff"/>			<path d="M 580.5938 84 C 579.2344 84 578.0469 84.4063 577.0469 85.2188 C 576.0469 86.0625 575.4375 87.125 575.2188 88.4063 C 575.0469 89.375 575.1094 90.1875 575.4219 90.875 C 575.75 91.5313 576.4531 92.3438 577.5313 93.3125 C 577.8438 93.6094 578.0938 93.875 578.2969 94.1094 C 578.5 94.3438 578.6406 94.5469 578.7344 94.7188 C 578.9219 95.0781 578.9688 95.5 578.875 96 C 578.6406 97.3438 577.8281 98 576.4219 98 C 575.625 98 574.8438 97.6719 574.0625 97 L 573.5156 100.1406 C 574.3281 100.7188 575.1719 101 576.0625 101 C 577.5156 101 578.7813 100.5781 579.8438 99.7188 C 580.9063 98.8438 581.5781 97.6875 581.8438 96.25 C 582 95.2656 581.9375 94.4531 581.6563 93.7969 C 581.5156 93.4688 581.2969 93.1094 580.9844 92.7344 C 580.6719 92.3594 580.2656 91.9688 579.7813 91.5313 C 578.5625 90.4844 578.0156 89.5781 578.1563 88.7969 C 578.1875 88.5469 578.2813 88.3125 578.4219 88.0938 C 578.5625 87.875 578.7344 87.6875 578.9531 87.5313 C 579.1563 87.375 579.3906 87.2344 579.6406 87.1406 C 579.8906 87.0469 580.1563 87 580.4375 87 C 581.2656 87 582 87.2813 582.6563 87.8438 L 583.2031 84.7813 C 582.3906 84.2656 581.5313 84 580.5938 84 L 580.5938 84 Z" fill="#ffffff"/>			<path d="M 594.0938 86 L 595.6406 86 L 593 101 L 596 101 L 598.6406 86 L 601.2344 86 L 601.5938 84 L 599 84 L 599.8125 79.4219 L 600.0313 78.1094 C 600.1563 77.3594 600.3594 76.8125 600.6406 76.4844 C 600.9219 76.1719 601.3281 76 601.8594 76 C 602.2344 76 602.6406 76.1406 603.0938 76.3906 L 603.625 73.3906 C 602.875 73.1406 602.1875 73 601.5938 73 C 600.2344 73 599.2188 73.3906 598.5469 74.1719 C 597.8594 74.9531 597.3594 76.2969 597.0156 78.1875 L 596 84 L 594.4531 84 L 594.0938 86 L 594.0938 86 Z" fill="#ffffff"/>			<path d="M 602 101 L 605 101 L 608 84 L 605 84 L 602 101 L 602 101 ZM 605.7188 77.5938 C 605.25 77.9844 604.9688 78.4531 604.875 78.9844 C 604.7813 79.5625 604.8906 80.0313 605.2031 80.4063 C 605.5156 80.8125 605.9688 81 606.5313 81 C 607.0781 81 607.5781 80.8125 608.0469 80.4219 C 608.5 80.0313 608.7813 79.5625 608.875 79 C 608.9688 78.4531 608.8594 77.9844 608.5469 77.5938 C 608.2188 77.2031 607.7813 77 607.25 77 C 606.7188 77 606.2031 77.2031 605.7188 77.5938 L 605.7188 77.5938 Z" fill="#ffffff"/>			<path d="M 616.6719 84 C 615.0156 84 613.6875 84.7031 612.7188 86.1094 C 611.7344 87.5156 610.9844 89.7031 610.4688 92.6563 C 609.4844 98.2188 610.5313 101 613.6094 101 C 614.4375 101 615.3125 100.7813 616.2188 100.3281 L 616.7344 97.375 C 616.0781 97.7969 615.5313 98 615.0625 98 C 613.375 98 612.8594 96.125 613.5313 92.3438 C 614.1563 88.7813 615.3125 87 617.0156 87 C 617.6094 87 618.0781 87.2656 618.4219 87.7813 L 618.9844 84.6094 C 618.2656 84.2031 617.4844 84 616.6719 84 L 616.6719 84 Z" fill="#ffffff"/>			<path d="M 623 84 L 621.3125 84 L 620.9531 86 L 622.6406 86 L 620 101 L 623 101 L 625.6406 86 L 627.3125 86 L 627.6719 84 L 626 84 L 626.7031 80 L 623.7031 80 L 623 84 L 623 84 Z" fill="#ffffff"/>			<path d="M 628 101 L 631 101 L 634 84 L 631 84 L 628 101 L 628 101 ZM 631.7188 77.5938 C 631.25 77.9844 630.9688 78.4531 630.875 78.9844 C 630.7813 79.5625 630.8906 80.0313 631.2031 80.4063 C 631.5156 80.8125 631.9688 81 632.5313 81 C 633.0781 81 633.5781 80.8125 634.0469 80.4219 C 634.5 80.0313 634.7813 79.5625 634.875 79 C 634.9688 78.4531 634.8594 77.9844 634.5469 77.5938 C 634.2188 77.2031 633.7813 77 633.25 77 C 632.7188 77 632.2031 77.2031 631.7188 77.5938 L 631.7188 77.5938 Z" fill="#ffffff"/>			<path d="M 642.6719 84 C 641.0156 84 639.6875 84.7031 638.7188 86.1094 C 637.7344 87.5156 636.9844 89.7031 636.4688 92.6563 C 635.4844 98.2188 636.5313 101 639.6094 101 C 640.4375 101 641.3125 100.7813 642.2188 100.3281 L 642.7344 97.375 C 642.0781 97.7969 641.5313 98 641.0625 98 C 639.375 98 638.8594 96.125 639.5313 92.3438 C 640.1563 88.7813 641.3125 87 643.0156 87 C 643.6094 87 644.0781 87.2656 644.4219 87.7813 L 644.9844 84.6094 C 644.2656 84.2031 643.4844 84 642.6719 84 L 642.6719 84 Z" fill="#ffffff"/>			<path d="M 646 101 L 649 101 L 652 84 L 649 84 L 646 101 L 646 101 ZM 649.7188 77.5938 C 649.25 77.9844 648.9688 78.4531 648.875 78.9844 C 648.7813 79.5625 648.8906 80.0313 649.2031 80.4063 C 649.5156 80.8125 649.9688 81 650.5313 81 C 651.0781 81 651.5781 80.8125 652.0469 80.4219 C 652.5 80.0313 652.7813 79.5625 652.875 79 C 652.9688 78.4531 652.8594 77.9844 652.5469 77.5938 C 652.2188 77.2031 651.7813 77 651.25 77 C 650.7188 77 650.2031 77.2031 649.7188 77.5938 L 649.7188 77.5938 Z" fill="#ffffff"/>			<path d="M 664.8594 88.7813 C 664.8438 87.7031 664.6875 86.8125 664.4063 86.0938 C 664.125 85.375 663.6875 84.8594 663.125 84.5156 C 662.5625 84.1719 661.8438 84 660.9844 84 C 657.6563 84 655.5 86.8438 654.5 92.5156 C 653.5 98.1719 654.6563 101 658 101 C 661.3281 101 663.4844 98.2188 664.4688 92.6406 C 664.7344 91.1563 664.8594 89.875 664.8594 88.7813 L 664.8594 88.7813 ZM 660.2969 96.7813 C 659.8594 97.5938 659.2656 98 658.5469 98 C 657.7969 98 657.3438 97.5938 657.1875 96.7656 C 657.0313 95.9688 657.125 94.5469 657.5 92.5 C 657.8438 90.4688 658.25 89.0469 658.6875 88.2344 C 659.1406 87.4219 659.7344 87 660.4844 87 C 661.2188 87 661.6563 87.4219 661.8125 88.25 C 661.9531 89.0625 661.8438 90.5156 661.4844 92.5938 C 661.1094 94.6406 660.7188 96.0313 660.2969 96.7813 L 660.2969 96.7813 Z" fill="#ffffff"/>			<path d="M 669.0469 95.0625 C 668.6719 97.2031 668.7813 98.7344 669.375 99.6406 C 669.9688 100.5469 671.1563 101 672.9688 101 C 675.25 101 676.8906 100.2344 677.8906 98.7031 C 678.3594 97.9219 678.8125 96.3594 679.2344 94.0156 L 681 84 L 678 84 L 676.25 93.9531 L 676 95.2969 C 675.8125 96.3125 675.5469 97.0156 675.1875 97.4219 C 674.8125 97.8125 674.2656 98 673.5313 98 C 672.8125 98 672.3438 97.7813 672.125 97.3438 C 671.9063 96.9063 671.875 96.1719 672.0313 95.1406 L 674 84 L 671 84 L 669.0469 95.0625 L 669.0469 95.0625 Z" fill="#ffffff"/>			<path d="M 688.5938 84 C 687.2344 84 686.0469 84.4063 685.0469 85.2188 C 684.0469 86.0625 683.4375 87.125 683.2188 88.4063 C 683.0469 89.375 683.1094 90.1875 683.4219 90.875 C 683.75 91.5313 684.4531 92.3438 685.5313 93.3125 C 685.8438 93.6094 686.0938 93.875 686.2969 94.1094 C 686.5 94.3438 686.6406 94.5469 686.7344 94.7188 C 686.9219 95.0781 686.9688 95.5 686.875 96 C 686.6406 97.3438 685.8281 98 684.4219 98 C 683.625 98 682.8438 97.6719 682.0625 97 L 681.5156 100.1406 C 682.3281 100.7188 683.1719 101 684.0625 101 C 685.5156 101 686.7813 100.5781 687.8438 99.7188 C 688.9063 98.8438 689.5781 97.6875 689.8438 96.25 C 690 95.2656 689.9375 94.4531 689.6563 93.7969 C 689.5156 93.4688 689.2969 93.1094 688.9844 92.7344 C 688.6719 92.3594 688.2656 91.9688 687.7813 91.5313 C 686.5625 90.4844 686.0156 89.5781 686.1563 88.7969 C 686.1875 88.5469 686.2813 88.3125 686.4219 88.0938 C 686.5625 87.875 686.7344 87.6875 686.9531 87.5313 C 687.1563 87.375 687.3906 87.2344 687.6406 87.1406 C 687.8906 87.0469 688.1563 87 688.4375 87 C 689.2656 87 690 87.2813 690.6563 87.8438 L 691.2031 84.7813 C 690.3906 84.2656 689.5313 84 688.5938 84 L 688.5938 84 Z" fill="#ffffff"/>			<path d="M 693.1875 97.5781 C 692.7188 97.9844 692.4531 98.4531 692.3594 99 C 692.2969 99.2813 692.3125 99.5469 692.375 99.7969 C 692.4375 100.0469 692.5313 100.25 692.6875 100.4219 C 692.8438 100.6094 693.0313 100.75 693.25 100.8438 C 693.4688 100.9531 693.7344 101 694.0156 101 C 694.5313 101 695.0313 100.8125 695.5156 100.4375 C 695.9688 100.0469 696.25 99.5781 696.3438 99.0156 C 696.4375 98.4688 696.3281 98 696.0156 97.6094 C 695.6875 97.2031 695.2656 97 694.75 97 C 694.1719 97 693.6563 97.2031 693.1875 97.5781 L 693.1875 97.5781 Z" fill="#ffffff"/>		</g>		<g id="caption02" opacity="0">			<path d="M 505.0469 154.3438 C 505.0781 152.5469 504.875 151.1563 504.4375 150.1875 C 503.75 148.7344 502.4375 148 500.5156 148 C 498.3594 148 496.6563 148.9531 495.4219 150.8281 C 494.2031 152.7031 493.1875 155.9063 492.3906 160.4063 C 491.5 165.4688 491.3281 168.9844 491.8906 170.9688 C 492.4531 173 493.8438 174 496.0938 174 C 498.2188 174 499.8906 173.0625 501.1406 171.1719 C 502.375 169.2969 503.3906 166.1094 504.1875 161.625 C 504.75 158.4375 505.0313 156.0156 505.0469 154.3438 L 505.0469 154.3438 ZM 499.2344 169.0781 C 498.5781 170.3594 497.6719 171 496.5469 171 C 495.375 171 494.7031 170.3125 494.5156 168.9375 C 494.3594 167.5 494.6094 164.8906 495.2656 161.1406 C 495.9844 157.0781 496.6563 154.3594 497.2969 153.0156 C 497.9219 151.6719 498.8594 151 500.0781 151 C 501.2813 151 501.9531 151.7344 502.0781 153.1875 C 502.2031 154.6406 501.8906 157.5781 501.1094 162.0156 C 500.5 165.4531 499.875 167.8125 499.2344 169.0781 L 499.2344 169.0781 Z" fill="#ffffff"/>			<path d="M 507 174 L 510 174 L 511.8594 163.4219 C 511.9688 162.7969 512.0938 162.2656 512.25 161.8281 C 512.4063 161.3906 512.5781 161.0469 512.7969 160.7656 C 513 160.5 513.25 160.3125 513.5313 160.1875 C 513.8125 160.0625 514.1406 160 514.5313 160 C 515.2188 160 515.6719 160.2344 515.8906 160.7031 C 516.0938 161.1719 516.1094 161.9531 515.9219 163.0469 L 514 174 L 517 174 L 519.0938 162.1094 C 519.4063 160.375 519.4375 159.2031 519.2188 158.5938 C 518.8125 157.5313 517.9063 157 516.5156 157 C 515.0781 157 513.7813 157.6719 512.6406 158.9844 L 513 157 L 510 157 L 507 174 L 507 174 Z" fill="#ffffff"/>			<path d="M 522 174 L 525 174 L 529.9375 146 L 526.9375 146 L 522 174 L 522 174 Z" fill="#ffffff"/>			<path d="M 532.9375 172.6563 L 528.8281 181 L 532.1563 181 L 543.4219 157 L 540.2031 157 L 535.1406 168.9844 L 534.7188 157 L 531.1406 157 L 532.9375 172.6563 L 532.9375 172.6563 Z" fill="#ffffff"/>			<path d="M 555 157 L 553.2656 157 L 552.7344 160 L 554.4688 160 L 552 174 L 555 174 L 557.4688 160 L 559.2031 160 L 559.7344 157 L 558 157 L 558.875 152 L 555.875 152 L 555 157 L 555 157 Z" fill="#ffffff"/>			<path d="M 561 174 L 564 174 L 565.8594 163.4219 C 565.9688 162.7969 566.0938 162.2656 566.25 161.8281 C 566.4063 161.3906 566.5781 161.0469 566.7969 160.7656 C 567 160.5 567.25 160.3125 567.5313 160.1875 C 567.8125 160.0625 568.1406 160 568.5313 160 C 569.2188 160 569.6719 160.2344 569.8906 160.7031 C 570.0938 161.1719 570.1094 161.9531 569.9219 163.0469 L 568 174 L 571 174 L 573.0938 162.1094 C 573.4063 160.375 573.4375 159.2031 573.2188 158.5938 C 572.8125 157.5313 571.9063 157 570.5156 157 C 569.0781 157 567.7656 157.7656 566.5938 159.2656 L 568.9375 146 L 565.9375 146 L 561 174 L 561 174 Z" fill="#ffffff"/>			<path d="M 580.625 171 C 579.2188 171 578.8125 169.3438 579.4063 166 L 586.6563 166 L 586.7344 165.625 C 587.7344 159.875 586.5313 157 583.0938 157 C 581.3281 157 579.9063 157.7031 578.8438 159.1094 C 577.7813 160.5156 576.9844 162.6563 576.4844 165.5625 C 576.2188 167.0313 576.0938 168.2969 576.1094 169.3594 C 576.125 170.4219 576.2813 171.2969 576.5781 171.9844 C 576.875 172.6719 577.3125 173.1875 577.9063 173.5156 C 578.5 173.8438 579.2344 174 580.1406 174 C 583.1406 174 585.125 172 586.0625 168 L 583.0625 168 C 582.7031 170 581.8906 171 580.625 171 L 580.625 171 ZM 579.7656 164 C 580.2031 162.2031 580.625 161.0156 581 160.4531 C 581.3906 159.8281 581.9219 159.5 582.5781 159.5 C 583.2031 159.5 583.6094 159.8281 583.7969 160.4531 C 583.9531 161.0156 583.9531 162.2031 583.7813 164 L 579.7656 164 L 579.7656 164 Z" fill="#ffffff"/>			<path d="M 598 174 L 601 174 L 602.8594 163.4219 C 602.9688 162.7969 603.0938 162.2656 603.25 161.8281 C 603.4063 161.3906 603.5781 161.0469 603.7969 160.7656 C 604 160.5 604.25 160.3125 604.5313 160.1875 C 604.8125 160.0625 605.1406 160 605.5313 160 C 606.2188 160 606.6719 160.2344 606.8906 160.7031 C 607.0938 161.1719 607.1094 161.9531 606.9219 163.0469 L 605 174 L 608 174 L 610.0938 162.1094 C 610.4063 160.375 610.4375 159.2031 610.2188 158.5938 C 609.8125 157.5313 608.9063 157 607.5156 157 C 606.0781 157 604.7813 157.6719 603.6406 158.9844 L 604 157 L 601 157 L 598 174 L 598 174 Z" fill="#ffffff"/>			<path d="M 623 157 L 622.6563 158.9531 C 622 157.6563 620.9688 157 619.5313 157 C 617.9688 157 616.7031 157.6719 615.7344 159.0156 C 614.7656 160.3594 614.0313 162.4688 613.5313 165.3125 C 613 168.3125 612.9688 170.5 613.4531 171.9063 C 613.9375 173.3125 614.9688 174 616.5313 174 C 617.3438 174 618.0313 173.875 618.5781 173.6094 C 619.1094 173.3438 619.7188 172.7344 620.3906 171.7969 L 620 174 L 623 174 L 626 157 L 623 157 L 623 157 ZM 617.9063 160.7344 C 618.4531 159.8594 619.1875 159.4063 620.1094 159.4063 C 620.9688 159.4063 621.5156 159.875 621.7344 160.7969 C 621.9531 161.7969 621.875 163.3438 621.5156 165.4219 C 621.1406 167.4844 620.6719 169.0156 620.1094 170.0156 C 619.5469 170.9531 618.8438 171.4063 617.9844 171.4063 C 617.0313 171.4063 616.4531 170.9688 616.2344 170.0625 C 616.0313 169.1719 616.125 167.5938 616.5313 165.3281 C 616.9219 163.0938 617.375 161.5625 617.9063 160.7344 L 617.9063 160.7344 Z" fill="#ffffff"/>			<path d="M 627 174 L 630 174 L 631.9063 163.1563 C 632.1094 162.0156 632.4219 161.2031 632.8281 160.7188 C 633.2344 160.25 633.8125 160 634.5781 160 C 634.9219 160 635.2188 160.0625 635.4375 160.1719 C 635.6563 160.2813 635.8125 160.4531 635.9219 160.7031 C 636.0313 160.9531 636.0781 161.2656 636.0781 161.6719 C 636.0625 162.0781 636 162.5781 635.9063 163.1563 L 634 174 L 637 174 L 638.9063 163.1563 C 639.125 161.9375 639.4063 161.1094 639.7813 160.6719 C 640.1563 160.2344 640.7656 160 641.5938 160 C 642.3125 160 642.7813 160.2188 642.9688 160.6563 C 643.1406 161.0938 643.125 161.9219 642.9063 163.1563 L 641 174 L 644 174 L 646.3438 160.6719 C 646.5625 159.4688 646.4063 158.5625 645.875 157.9375 C 645.3438 157.3125 644.4844 157 643.2813 157 C 641.7344 157 640.4063 157.8125 639.2813 159.4063 C 639 157.8125 638.0625 157 636.4844 157 C 635.0313 157 633.75 157.7188 632.625 159.125 L 633 157 L 630 157 L 627 174 L 627 174 Z" fill="#ffffff"/>			<path d="M 653.625 171 C 652.2188 171 651.8125 169.3438 652.4063 166 L 659.6563 166 L 659.7344 165.625 C 660.7344 159.875 659.5313 157 656.0938 157 C 654.3281 157 652.9063 157.7031 651.8438 159.1094 C 650.7813 160.5156 649.9844 162.6563 649.4844 165.5625 C 649.2188 167.0313 649.0938 168.2969 649.1094 169.3594 C 649.125 170.4219 649.2813 171.2969 649.5781 171.9844 C 649.875 172.6719 650.3125 173.1875 650.9063 173.5156 C 651.5 173.8438 652.2344 174 653.1406 174 C 656.1406 174 658.125 172 659.0625 168 L 656.0625 168 C 655.7031 170 654.8906 171 653.625 171 L 653.625 171 ZM 652.7656 164 C 653.2031 162.2031 653.625 161.0156 654 160.4531 C 654.3906 159.8281 654.9219 159.5 655.5781 159.5 C 656.2031 159.5 656.6094 159.8281 656.7969 160.4531 C 656.9531 161.0156 656.9531 162.2031 656.7813 164 L 652.7656 164 L 652.7656 164 Z" fill="#ffffff"/>			<path d="M 669.625 157 C 668.25 157 667.0469 157.4063 666.0469 158.2188 C 665.0469 159.0625 664.4375 160.125 664.2188 161.4063 C 664.0469 162.375 664.1094 163.1875 664.4219 163.875 C 664.75 164.5313 665.4531 165.3438 666.5313 166.3125 C 666.8438 166.6094 667.0938 166.875 667.2969 167.1094 C 667.5 167.3438 667.6406 167.5469 667.7344 167.7188 C 667.9219 168.0781 667.9688 168.5 667.875 169 C 667.6406 170.3438 666.7969 171 665.3594 171 C 664.5313 171 663.7188 170.6563 662.9219 169.9688 L 662.375 173.1406 C 663.2031 173.7188 664.0781 174 665 174 C 666.5 174 667.7813 173.5781 668.8438 172.7188 C 669.9063 171.8438 670.5781 170.6875 670.8438 169.25 C 671 168.2656 670.9375 167.4531 670.6563 166.7969 C 670.5156 166.4688 670.2969 166.1094 669.9844 165.7344 C 669.6719 165.3594 669.2656 164.9688 668.7813 164.5313 C 667.5625 163.4844 667.0156 162.5781 667.1563 161.7969 C 667.1875 161.5469 667.2813 161.3125 667.4219 161.0938 C 667.5625 160.875 667.7344 160.6875 667.9531 160.5313 C 668.1719 160.375 668.4063 160.2344 668.6719 160.1406 C 668.9219 160.0469 669.2031 160 669.5 160 C 670.3438 160 671.0938 160.2969 671.7813 160.8594 L 672.3281 157.7813 C 671.5 157.2656 670.5938 157 669.625 157 L 669.625 157 Z" fill="#ffffff"/>			<path d="M 682 174 L 685 174 L 686.8594 163.4219 C 686.9688 162.7969 687.0938 162.2656 687.25 161.8281 C 687.4063 161.3906 687.5781 161.0469 687.7969 160.7656 C 688 160.5 688.25 160.3125 688.5313 160.1875 C 688.8125 160.0625 689.1406 160 689.5313 160 C 690.2188 160 690.6719 160.2344 690.8906 160.7031 C 691.0938 161.1719 691.1094 161.9531 690.9219 163.0469 L 689 174 L 692 174 L 694.0938 162.1094 C 694.4063 160.375 694.4375 159.2031 694.2188 158.5938 C 693.8125 157.5313 692.9063 157 691.5156 157 C 690.0781 157 688.7656 157.7656 687.5938 159.2656 L 689.9375 146 L 686.9375 146 L 682 174 L 682 174 Z" fill="#ffffff"/>			<path d="M 707 157 L 706.6563 158.9531 C 706 157.6563 704.9688 157 703.5313 157 C 701.9688 157 700.7031 157.6719 699.7344 159.0156 C 698.7656 160.3594 698.0313 162.4688 697.5313 165.3125 C 697 168.3125 696.9688 170.5 697.4531 171.9063 C 697.9375 173.3125 698.9688 174 700.5313 174 C 701.3438 174 702.0313 173.875 702.5781 173.6094 C 703.1094 173.3438 703.7188 172.7344 704.3906 171.7969 L 704 174 L 707 174 L 710 157 L 707 157 L 707 157 ZM 701.9063 160.7344 C 702.4531 159.8594 703.1875 159.4063 704.1094 159.4063 C 704.9688 159.4063 705.5156 159.875 705.7344 160.7969 C 705.9531 161.7969 705.875 163.3438 705.5156 165.4219 C 705.1406 167.4844 704.6719 169.0156 704.1094 170.0156 C 703.5469 170.9531 702.8438 171.4063 701.9844 171.4063 C 701.0313 171.4063 700.4531 170.9688 700.2344 170.0625 C 700.0313 169.1719 700.125 167.5938 700.5313 165.3281 C 700.9219 163.0938 701.375 161.5625 701.9063 160.7344 L 701.9063 160.7344 Z" fill="#ffffff"/>			<path d="M 714.7813 174 L 716.9219 174 L 724.4063 157 L 721.3281 157 L 719.2188 162.4531 C 718.4531 164.4219 717.9219 165.875 717.6094 166.8438 L 716.7656 169.4063 C 716.75 169.4688 716.6875 169.6563 716.5625 170 C 716.7031 168.5469 716.7969 167.2031 716.8438 165.9688 C 716.875 164.7344 716.875 163.5625 716.8125 162.4531 L 716.5313 157 L 713.1406 157 L 714.7813 174 L 714.7813 174 Z" fill="#ffffff"/>			<path d="M 728.625 171 C 727.2188 171 726.8125 169.3438 727.4063 166 L 734.6563 166 L 734.7344 165.625 C 735.7344 159.875 734.5313 157 731.0938 157 C 729.3281 157 727.9063 157.7031 726.8438 159.1094 C 725.7813 160.5156 724.9844 162.6563 724.4844 165.5625 C 724.2188 167.0313 724.0938 168.2969 724.1094 169.3594 C 724.125 170.4219 724.2813 171.2969 724.5781 171.9844 C 724.875 172.6719 725.3125 173.1875 725.9063 173.5156 C 726.5 173.8438 727.2344 174 728.1406 174 C 731.1406 174 733.125 172 734.0625 168 L 731.0625 168 C 730.7031 170 729.8906 171 728.625 171 L 728.625 171 ZM 727.7656 164 C 728.2031 162.2031 728.625 161.0156 729 160.4531 C 729.3906 159.8281 729.9219 159.5 730.5781 159.5 C 731.2031 159.5 731.6094 159.8281 731.7969 160.4531 C 731.9531 161.0156 731.9531 162.2031 731.7813 164 L 727.7656 164 L 727.7656 164 Z" fill="#ffffff"/>			<path d="M 490 215 L 493 215 L 494.7813 204.9375 C 495.0156 203.5469 495.4219 202.5781 496 202.0156 C 496.5781 201.4531 497.4375 201.1563 498.5938 201.1563 C 498.7344 201.1563 498.9219 201.1719 499.1563 201.2031 L 499.7188 198 C 498.8438 198 498.1094 198.1406 497.5313 198.3906 C 496.9531 198.6563 496.3125 199.2344 495.625 200.1406 L 496 198 L 493 198 L 490 215 L 490 215 Z" fill="#ffffff"/>			<path d="M 504.625 212 C 503.2188 212 502.8125 210.3438 503.4063 207 L 510.6563 207 L 510.7344 206.625 C 511.7344 200.875 510.5313 198 507.0938 198 C 505.3281 198 503.9063 198.7031 502.8438 200.1094 C 501.7813 201.5156 500.9844 203.6563 500.4844 206.5625 C 500.2188 208.0313 500.0938 209.2969 500.1094 210.3594 C 500.125 211.4219 500.2813 212.2969 500.5781 212.9844 C 500.875 213.6719 501.3125 214.1875 501.9063 214.5156 C 502.5 214.8438 503.2344 215 504.1406 215 C 507.1406 215 509.125 213 510.0625 209 L 507.0625 209 C 506.7031 211 505.8906 212 504.625 212 L 504.625 212 ZM 503.7656 205 C 504.2031 203.2031 504.625 202.0156 505 201.4531 C 505.3906 200.8281 505.9219 200.5 506.5781 200.5 C 507.2031 200.5 507.6094 200.8281 507.7969 201.4531 C 507.9531 202.0156 507.9531 203.2031 507.7813 205 L 503.7656 205 L 503.7656 205 Z" fill="#ffffff"/>			<path d="M 514 215 L 517 215 L 518.9063 204.1563 C 519.1094 203.0156 519.4219 202.2031 519.8281 201.7188 C 520.2344 201.25 520.8125 201 521.5781 201 C 521.9219 201 522.2188 201.0625 522.4375 201.1719 C 522.6563 201.2813 522.8125 201.4531 522.9219 201.7031 C 523.0313 201.9531 523.0781 202.2656 523.0781 202.6719 C 523.0625 203.0781 523 203.5781 522.9063 204.1563 L 521 215 L 524 215 L 525.9063 204.1563 C 526.125 202.9375 526.4063 202.1094 526.7813 201.6719 C 527.1563 201.2344 527.7656 201 528.5938 201 C 529.3125 201 529.7813 201.2188 529.9688 201.6563 C 530.1406 202.0938 530.125 202.9219 529.9063 204.1563 L 528 215 L 531 215 L 533.3438 201.6719 C 533.5625 200.4688 533.4063 199.5625 532.875 198.9375 C 532.3438 198.3125 531.4844 198 530.2813 198 C 528.7344 198 527.4063 198.8125 526.2813 200.4063 C 526 198.8125 525.0625 198 523.4844 198 C 522.0313 198 520.75 198.7188 519.625 200.125 L 520 198 L 517 198 L 514 215 L 514 215 Z" fill="#ffffff"/>			<path d="M 546 198 L 545.6563 199.9531 C 545 198.6563 543.9688 198 542.5313 198 C 540.9688 198 539.7031 198.6719 538.7344 200.0156 C 537.7656 201.3594 537.0313 203.4688 536.5313 206.3125 C 536 209.3125 535.9688 211.5 536.4531 212.9063 C 536.9375 214.3125 537.9688 215 539.5313 215 C 540.3438 215 541.0313 214.875 541.5781 214.6094 C 542.1094 214.3438 542.7188 213.7344 543.3906 212.7969 L 543 215 L 546 215 L 549 198 L 546 198 L 546 198 ZM 540.9063 201.7344 C 541.4531 200.8594 542.1875 200.4063 543.1094 200.4063 C 543.9688 200.4063 544.5156 200.875 544.7344 201.7969 C 544.9531 202.7969 544.875 204.3438 544.5156 206.4219 C 544.1406 208.4844 543.6719 210.0156 543.1094 211.0156 C 542.5469 211.9531 541.8438 212.4063 540.9844 212.4063 C 540.0313 212.4063 539.4531 211.9688 539.2344 211.0625 C 539.0313 210.1719 539.125 208.5938 539.5313 206.3281 C 539.9219 204.0938 540.375 202.5625 540.9063 201.7344 L 540.9063 201.7344 Z" fill="#ffffff"/>			<path d="M 550 215 L 553 215 L 556 198 L 553 198 L 550 215 L 550 215 ZM 553.7188 191.5938 C 553.25 191.9844 552.9688 192.4531 552.875 192.9844 C 552.7813 193.5625 552.8906 194.0313 553.2031 194.4063 C 553.5156 194.8125 553.9688 195 554.5313 195 C 555.0781 195 555.5781 194.8125 556.0469 194.4219 C 556.5 194.0313 556.7813 193.5625 556.875 193 C 556.9688 192.4531 556.8594 191.9844 556.5469 191.5938 C 556.2188 191.2031 555.7813 191 555.25 191 C 554.7188 191 554.2031 191.2031 553.7188 191.5938 L 553.7188 191.5938 Z" fill="#ffffff"/>			<path d="M 558 215 L 561 215 L 562.8594 204.4219 C 562.9688 203.7969 563.0938 203.2656 563.25 202.8281 C 563.4063 202.3906 563.5781 202.0469 563.7969 201.7656 C 564 201.5 564.25 201.3125 564.5313 201.1875 C 564.8125 201.0625 565.1406 201 565.5313 201 C 566.2188 201 566.6719 201.2344 566.8906 201.7031 C 567.0938 202.1719 567.1094 202.9531 566.9219 204.0469 L 565 215 L 568 215 L 570.0938 203.1094 C 570.4063 201.375 570.4375 200.2031 570.2188 199.5938 C 569.8125 198.5313 568.9063 198 567.5156 198 C 566.0781 198 564.7813 198.6719 563.6406 199.9844 L 564 198 L 561 198 L 558 215 L 558 215 Z" fill="#ffffff"/>			<path d="M 577.625 212 C 576.2188 212 575.8125 210.3438 576.4063 207 L 583.6563 207 L 583.7344 206.625 C 584.7344 200.875 583.5313 198 580.0938 198 C 578.3281 198 576.9063 198.7031 575.8438 200.1094 C 574.7813 201.5156 573.9844 203.6563 573.4844 206.5625 C 573.2188 208.0313 573.0938 209.2969 573.1094 210.3594 C 573.125 211.4219 573.2813 212.2969 573.5781 212.9844 C 573.875 213.6719 574.3125 214.1875 574.9063 214.5156 C 575.5 214.8438 576.2344 215 577.1406 215 C 580.1406 215 582.125 213 583.0625 209 L 580.0625 209 C 579.7031 211 578.8906 212 577.625 212 L 577.625 212 ZM 576.7656 205 C 577.2031 203.2031 577.625 202.0156 578 201.4531 C 578.3906 200.8281 578.9219 200.5 579.5781 200.5 C 580.2031 200.5 580.6094 200.8281 580.7969 201.4531 C 580.9531 202.0156 580.9531 203.2031 580.7813 205 L 576.7656 205 L 576.7656 205 Z" fill="#ffffff"/>			<path d="M 598.9375 187 L 596.6094 200.2344 C 596.4375 199.8125 596.25 199.4531 596.0469 199.1719 C 595.8438 198.8906 595.625 198.6563 595.4063 198.5 C 594.9688 198.1719 594.375 198 593.6094 198 C 592.7969 198 592.0781 198.1719 591.4375 198.4844 C 590.7969 198.8125 590.2344 199.3125 589.75 200 C 589.25 200.6875 588.8281 201.5469 588.4531 202.5938 C 588.0781 203.6406 587.7813 204.8906 587.5313 206.3281 C 587 209.3281 586.9688 211.5156 587.4531 212.9063 C 587.9375 214.3125 588.9531 215 590.5156 215 C 591.3438 215 592.0313 214.875 592.5781 214.6094 C 593.1094 214.3438 593.7188 213.7344 594.3906 212.7969 L 594 215 L 597 215 L 601.9375 187 L 598.9375 187 L 598.9375 187 ZM 591.9063 201.7344 C 592.4531 200.8594 593.1875 200.4063 594.1094 200.4063 C 594.9688 200.4063 595.5156 200.875 595.7344 201.7969 C 595.9531 202.7969 595.875 204.3438 595.5156 206.4219 C 595.1406 208.4844 594.6719 210.0156 594.1094 211.0156 C 593.5469 211.9531 592.8438 212.4063 591.9844 212.4063 C 591.0313 212.4063 590.4531 211.9688 590.2344 211.0625 C 590.0313 210.1719 590.125 208.5938 590.5313 206.3281 C 590.9219 204.0938 591.375 202.5625 591.9063 201.7344 L 591.9063 201.7344 Z" fill="#ffffff"/>			<path d="M 612 198 L 610.2656 198 L 609.7344 201 L 611.4688 201 L 609 215 L 612 215 L 614.4688 201 L 616.2031 201 L 616.7344 198 L 615 198 L 615.875 193 L 612.875 193 L 612 198 L 612 198 Z" fill="#ffffff"/>			<path d="M 618 215 L 621 215 L 622.8594 204.4219 C 622.9688 203.7969 623.0938 203.2656 623.25 202.8281 C 623.4063 202.3906 623.5781 202.0469 623.7969 201.7656 C 624 201.5 624.25 201.3125 624.5313 201.1875 C 624.8125 201.0625 625.1406 201 625.5313 201 C 626.2188 201 626.6719 201.2344 626.8906 201.7031 C 627.0938 202.1719 627.1094 202.9531 626.9219 204.0469 L 625 215 L 628 215 L 630.0938 203.1094 C 630.4063 201.375 630.4375 200.2031 630.2188 199.5938 C 629.8125 198.5313 628.9063 198 627.5156 198 C 626.0781 198 624.7656 198.7656 623.5938 200.2656 L 625.9375 187 L 622.9375 187 L 618 215 L 618 215 Z" fill="#ffffff"/>			<path d="M 637.625 212 C 636.2188 212 635.8125 210.3438 636.4063 207 L 643.6563 207 L 643.7344 206.625 C 644.7344 200.875 643.5313 198 640.0938 198 C 638.3281 198 636.9063 198.7031 635.8438 200.1094 C 634.7813 201.5156 633.9844 203.6563 633.4844 206.5625 C 633.2188 208.0313 633.0938 209.2969 633.1094 210.3594 C 633.125 211.4219 633.2813 212.2969 633.5781 212.9844 C 633.875 213.6719 634.3125 214.1875 634.9063 214.5156 C 635.5 214.8438 636.2344 215 637.1406 215 C 640.1406 215 642.125 213 643.0625 209 L 640.0625 209 C 639.7031 211 638.8906 212 637.625 212 L 637.625 212 ZM 636.7656 205 C 637.2031 203.2031 637.625 202.0156 638 201.4531 C 638.3906 200.8281 638.9219 200.5 639.5781 200.5 C 640.2031 200.5 640.6094 200.8281 640.7969 201.4531 C 640.9531 202.0156 640.9531 203.2031 640.7813 205 L 636.7656 205 L 636.7656 205 Z" fill="#ffffff"/>			<path d="M 661.625 198 C 660.25 198 659.0469 198.4063 658.0469 199.2188 C 657.0469 200.0625 656.4375 201.125 656.2188 202.4063 C 656.0469 203.375 656.1094 204.1875 656.4219 204.875 C 656.75 205.5313 657.4531 206.3438 658.5313 207.3125 C 658.8438 207.6094 659.0938 207.875 659.2969 208.1094 C 659.5 208.3438 659.6406 208.5469 659.7344 208.7188 C 659.9219 209.0781 659.9688 209.5 659.875 210 C 659.6406 211.3438 658.7969 212 657.3594 212 C 656.5313 212 655.7188 211.6563 654.9219 210.9688 L 654.375 214.1406 C 655.2031 214.7188 656.0781 215 657 215 C 658.5 215 659.7813 214.5781 660.8438 213.7188 C 661.9063 212.8438 662.5781 211.6875 662.8438 210.25 C 663 209.2656 662.9375 208.4531 662.6563 207.7969 C 662.5156 207.4688 662.2969 207.1094 661.9844 206.7344 C 661.6719 206.3594 661.2656 205.9688 660.7813 205.5313 C 659.5625 204.4844 659.0156 203.5781 659.1563 202.7969 C 659.1875 202.5469 659.2813 202.3125 659.4219 202.0938 C 659.5625 201.875 659.7344 201.6875 659.9531 201.5313 C 660.1719 201.375 660.4063 201.2344 660.6719 201.1406 C 660.9219 201.0469 661.2031 201 661.5 201 C 662.3438 201 663.0938 201.2969 663.7813 201.8594 L 664.3281 198.7813 C 663.5 198.2656 662.5938 198 661.625 198 L 661.625 198 Z" fill="#ffffff"/>			<path d="M 676 198 L 675.6563 199.9531 C 675 198.6563 673.9688 198 672.5313 198 C 670.9688 198 669.7031 198.6719 668.7344 200.0156 C 667.7656 201.3594 667.0313 203.4688 666.5313 206.3125 C 666 209.3125 665.9688 211.5 666.4531 212.9063 C 666.9375 214.3125 667.9688 215 669.5313 215 C 670.3438 215 671.0313 214.875 671.5781 214.6094 C 672.1094 214.3438 672.7188 213.7344 673.3906 212.7969 L 673 215 L 676 215 L 679 198 L 676 198 L 676 198 ZM 670.9063 201.7344 C 671.4531 200.8594 672.1875 200.4063 673.1094 200.4063 C 673.9688 200.4063 674.5156 200.875 674.7344 201.7969 C 674.9531 202.7969 674.875 204.3438 674.5156 206.4219 C 674.1406 208.4844 673.6719 210.0156 673.1094 211.0156 C 672.5469 211.9531 671.8438 212.4063 670.9844 212.4063 C 670.0313 212.4063 669.4531 211.9688 669.2344 211.0625 C 669.0313 210.1719 669.125 208.5938 669.5313 206.3281 C 669.9219 204.0938 670.375 202.5625 670.9063 201.7344 L 670.9063 201.7344 Z" fill="#ffffff"/>			<path d="M 680 215 L 683 215 L 684.9063 204.1563 C 685.1094 203.0156 685.4219 202.2031 685.8281 201.7188 C 686.2344 201.25 686.8125 201 687.5781 201 C 687.9219 201 688.2188 201.0625 688.4375 201.1719 C 688.6563 201.2813 688.8125 201.4531 688.9219 201.7031 C 689.0313 201.9531 689.0781 202.2656 689.0781 202.6719 C 689.0625 203.0781 689 203.5781 688.9063 204.1563 L 687 215 L 690 215 L 691.9063 204.1563 C 692.125 202.9375 692.4063 202.1094 692.7813 201.6719 C 693.1563 201.2344 693.7656 201 694.5938 201 C 695.3125 201 695.7813 201.2188 695.9688 201.6563 C 696.1406 202.0938 696.125 202.9219 695.9063 204.1563 L 694 215 L 697 215 L 699.3438 201.6719 C 699.5625 200.4688 699.4063 199.5625 698.875 198.9375 C 698.3438 198.3125 697.4844 198 696.2813 198 C 694.7344 198 693.4063 198.8125 692.2813 200.4063 C 692 198.8125 691.0625 198 689.4844 198 C 688.0313 198 686.75 198.7188 685.625 200.125 L 686 198 L 683 198 L 680 215 L 680 215 Z" fill="#ffffff"/>			<path d="M 706.625 212 C 705.2188 212 704.8125 210.3438 705.4063 207 L 712.6563 207 L 712.7344 206.625 C 713.7344 200.875 712.5313 198 709.0938 198 C 707.3281 198 705.9063 198.7031 704.8438 200.1094 C 703.7813 201.5156 702.9844 203.6563 702.4844 206.5625 C 702.2188 208.0313 702.0938 209.2969 702.1094 210.3594 C 702.125 211.4219 702.2813 212.2969 702.5781 212.9844 C 702.875 213.6719 703.3125 214.1875 703.9063 214.5156 C 704.5 214.8438 705.2344 215 706.1406 215 C 709.1406 215 711.125 213 712.0625 209 L 709.0625 209 C 708.7031 211 707.8906 212 706.625 212 L 706.625 212 ZM 705.7656 205 C 706.2031 203.2031 706.625 202.0156 707 201.4531 C 707.3906 200.8281 707.9219 200.5 708.5781 200.5 C 709.2031 200.5 709.6094 200.8281 709.7969 201.4531 C 709.9531 202.0156 709.9531 203.2031 709.7813 205 L 705.7656 205 L 705.7656 205 Z" fill="#ffffff"/>			<path d="M 717.1875 211.5781 C 716.7188 211.9844 716.4531 212.4531 716.3594 213 C 716.2969 213.2813 716.3125 213.5469 716.375 213.7969 C 716.4375 214.0469 716.5313 214.25 716.6875 214.4219 C 716.8438 214.6094 717.0313 214.75 717.25 214.8438 C 717.4688 214.9531 717.7344 215 718.0156 215 C 718.5313 215 719.0313 214.8125 719.5156 214.4375 C 719.9688 214.0469 720.25 213.5781 720.3438 213.0156 C 720.4375 212.4688 720.3281 212 720.0156 211.6094 C 719.6875 211.2031 719.2656 211 718.75 211 C 718.1719 211 717.6563 211.2031 717.1875 211.5781 L 717.1875 211.5781 Z" fill="#ffffff"/>		</g>	</g></g>	<script type="text/javascript" xlink:href="https://s0.2mdn.net/ads/studio/cached_libs/tweenmax_1.19.1_92cf05aba6ca4ea5cbc62b5a7cb924e3_min.js" xlink:actuate="onLoad" xlink:show="other" xlink:type="simple" /><script type="text/javascript"><![CDATA[// Define timeline without setting itvar svgTimeLine// Start Animationfunction startAnimation(){  // set timeLine  svgTimeLine = new TimelineMax  // Define container ID  var svgContainerID = document.getElementById('svgContainer');    svgTimeLine.set([svgContainerID],{autoAlpha:1})  svgTimeLine.set("#caption01,#bubble01,#caption02,#bubble02",{x:50})  svgTimeLine.set("#Julie,#Morris,#hand",{scale:1.04, transformOrigin:"center center"})  svgTimeLine.to("#Julie,#Morris,#hand",3,{scale:1, transformOrigin:"center center"})  svgTimeLine.to("#caption01,#bubble01",0.5,{x:0, autoAlpha:1},0.1)  svgTimeLine.to("#caption02,#bubble02",0.5,{x:0, autoAlpha:1},0.3)  svgTimeLine.to("#title",0.5,{autoAlpha:1},0.5)    // Get duration for each path  // Animate the stroke-dashoffset to 0 to give the appearance of being written.  // We are using this technique for Browser compatibility and to avoid using the gsap DrawSVG plugin.}window.addEventListener('load',function(){	startAnimation()},false);]]></script></svg>