<?xml version="1.0" standalone="no"?><!-- Generator: Adobe Fireworks CS5, Export SVG Extension by Aaron Beall (http://fireworks.abeall.com) . Version: 0.6.1  --><!DOCTYPE svg PUBLIC "-//W3C//DTD SVG 1.1//EN" "http://www.w3.org/Graphics/SVG/1.1/DTD/svg11.dtd"><svg id="morris_ch02p08-Page%201" viewBox="0 0 800 800" style="background-color:#ffffff" version="1.1"	xmlns="http://www.w3.org/2000/svg" xmlns:xlink="http://www.w3.org/1999/xlink" xml:space="preserve"	x="0px" y="0px" width="800px" height="800px">	<defs>		<radialGradient id="gradient1" cx="33.3334%" cy="16.4179%" r="45.1967%">			<stop stop-color="#c8a078" stop-opacity="1" offset="0%"/>			<stop stop-color="#ffcc99" stop-opacity="1" offset="100%"/>		</radialGradient>		<linearGradient id="gradient2" x1="50%" y1="0%" x2="50%" y2="100%">			<stop stop-color="#0b0f18" stop-opacity="1" offset="0%"/>			<stop stop-color="#111325" stop-opacity="1" offset="100%"/>		</linearGradient>		<linearGradient id="gradient3" x1="54.4163%" y1="-21.8661%" x2="54.4163%" y2="31.4695%">			<stop stop-color="#000000" stop-opacity="1" offset="0%"/>			<stop stop-color="#ffffff" stop-opacity="1" offset="100%"/>		</linearGradient>	</defs>	<g id="Background">		<rect x="0" y="0" width="800" height="800" fill="#000000"/>		<g>			<path d="M 366.5 261 L 367.014 301.3463 L 372.5907 261.3824 L 368.0339 301.4749 L 378.5853 262.5237 L 369.0296 301.73 L 384.3893 264.4059 L 369.9854 302.1077 L 389.9113 266.9991 L 370.8863 302.602 L 395.0639 270.2627 L 371.718 303.205 L 399.7662 274.145 L 372.4673 303.9073 L 403.9438 278.5849 L 373.1226 304.6979 L 407.5309 283.5124 L 373.6734 305.5641 L 410.4709 288.8497 L 374.1111 306.4925 L 412.7174 294.5127 L 374.4288 307.4682 L 414.2351 300.412 L 374.6214 308.476 L 415 306.4547 L 374.686 309.5 L 415 312.5453 L 374.6214 310.524 L 414.2351 318.588 L 374.4288 311.5318 L 412.7174 324.4873 L 374.1111 312.5075 L 410.4709 330.1503 L 373.6734 313.4359 L 407.5309 335.4876 L 373.1226 314.3021 L 403.9438 340.4151 L 372.4673 315.0927 L 399.7662 344.855 L 371.718 315.795 L 395.0639 348.7373 L 370.8863 316.398 L 389.9113 352.0009 L 369.9854 316.8923 L 384.3893 354.5942 L 369.0296 317.27 L 378.5853 356.4763 L 368.0339 317.5251 L 372.5907 357.6176 L 367.014 317.6537 L 366.5 358 L 365.986 317.6537 L 360.4093 357.6176 L 364.9661 317.5251 L 354.4147 356.4763 L 363.9704 317.27 L 348.6107 354.5942 L 363.0146 316.8923 L 343.0888 352.0009 L 362.1137 316.398 L 337.9361 348.7373 L 361.282 315.795 L 333.2338 344.855 L 360.5327 315.0927 L 329.0562 340.4151 L 359.8774 314.3021 L 325.4691 335.4876 L 359.3266 313.4359 L 322.5291 330.1503 L 358.8889 312.5075 L 320.2826 324.4873 L 358.5712 311.5318 L 318.7649 318.588 L 358.3786 310.524 L 318 312.5453 L 358.314 309.5 L 318 306.4547 L 358.3786 308.476 L 318.7649 300.412 L 358.5712 307.4682 L 320.2826 294.5127 L 358.8889 306.4925 L 322.5291 288.8497 L 359.3266 305.5641 L 325.4691 283.5124 L 359.8774 304.6979 L 329.0562 278.5849 L 360.5327 303.9073 L 333.2338 274.145 L 361.282 303.205 L 337.9361 270.2627 L 362.1137 302.602 L 343.0888 266.9991 L 363.0146 302.1077 L 348.6107 264.4059 L 363.9704 301.73 L 354.4147 262.5237 L 364.9661 301.4749 L 360.4093 261.3824 L 365.986 301.3463 L 366.5 261 Z" fill="#999999"/>		</g>	</g>	<g id="furniture">		<rect x="113.7944" y="629.2253" width="24.5955" height="36.0438" fill="#cccccc"/>		<rect x="611.8529" y="628.3463" width="24.5955" height="36.0438" fill="#cccccc"/>		<rect x="175.0079" y="606.3524" width="24.5955" height="36.0438" fill="#cccccc"/>		<rect x="552.2208" y="607.2315" width="24.5955" height="36.0438" fill="#cccccc"/>		<path d="M 115.5512 525.4897 L 656.6519 525.4897 L 680.0224 592.7947 L 74 586.8666 L 115.5512 525.4897 Z" fill="#2b345d"/>		<path d="M 76.9012 587.907 L 680.3689 587.907 L 655.7734 636.2585 L 97.983 636.2585 L 76.9012 587.907 Z" fill="#45527c"/>		<path d="M 89.4292 383.7749 L 678.1458 305.8819 L 655.7734 529.0062 L 114.6728 529.0062 L 89.4292 383.7749 Z" fill="#45527c"/>	</g>	<g id="baby%20morris">		<rect x="104" y="83" width="187.5789" height="187" stroke="#666666" stroke-width="2" fill="none" rx="14.96" ry="14.96"/>		<rect x="115.2894" y="91.6574" width="164.9999" height="165.3564" fill="#8358c3" rx="13.2" ry="13.2"/>		<g>			<path d="M 126.9589 177.2237 C 126.9589 177.2237 130.8487 188.6942 126.9589 193.7412 C 126.9589 193.7412 137.0266 194.6589 135.1961 182.3854 L 126.9589 177.2237 Z" fill="#ff0000"/>			<path id="Ellipse" d="M 115.2895 154.512 C 115.2895 130.5654 136.6484 111.1534 162.9968 111.1534 C 189.3451 111.1534 210.704 130.5654 210.704 154.512 C 210.704 178.4586 189.3451 197.8707 162.9968 197.8707 C 136.6484 197.8707 115.2895 178.4586 115.2895 154.512 Z" fill="#ff0000"/>			<path d="M 129.0182 135.9297 C 129.0182 135.9297 109.1115 156.8061 120.4377 175.159 L 120.4377 170.6854 L 123.8699 178.9442 L 124.5564 176.1913 L 133.1368 187.8913 C 133.1368 187.8913 144.3486 151.3002 144.463 150.0385 C 144.5774 148.7767 129.0182 135.9297 129.0182 135.9297 Z" fill="#ff0000"/>			<path d="M 125.2428 172.7502 C 125.2428 172.7502 133.1368 176.0766 134.8529 206.1294 C 134.8529 206.1294 122.6115 223.3352 145.8359 237.444 L 191.1406 223.6793 L 225.4624 220.2382 L 238.1615 216.1088 C 238.1615 216.1088 235.6445 204.5236 239.1911 203.7206 C 242.7377 202.9176 239.5343 202.6882 239.5343 202.6882 C 239.5343 202.6882 245.4835 182.5001 227.8649 179.9766 C 227.8649 179.9766 218.7819 171.3141 214.676 154.3168 C 214.6092 154.04 214.5436 153.7609 214.4794 153.4796 C 210.4752 135.9297 125.2428 172.7502 125.2428 172.7502 Z" fill="#ff0000"/>			<path d="M 189.0813 199.2471 L 198.005 214.3882 L 180.8441 222.3029 L 173.2933 207.85 L 189.0813 199.2471 Z" fill="url(#gradient1)"/>			<path id="Ellipse2" d="M 137.5986 192.8809 C 137.5986 189.7451 139.7499 187.203 142.4037 187.203 C 145.0575 187.203 147.2087 189.7451 147.2087 192.8809 C 147.2087 196.0168 145.0575 198.5589 142.4037 198.5589 C 139.7499 198.5589 137.5986 196.0168 137.5986 192.8809 Z" fill="#dcb084"/>			<path id="Ellipse3" d="M 194.5728 189.7839 C 194.5728 186.648 196.7241 184.106 199.3779 184.106 C 202.0316 184.106 204.1829 186.648 204.1829 189.7839 C 204.1829 192.9198 202.0316 195.4618 199.3779 195.4618 C 196.7241 195.4618 194.5728 192.9198 194.5728 189.7839 Z" fill="#dcb084"/>			<path id="Ellipse4" d="M 123.1835 161.2223 C 123.1835 135.4702 144.0046 114.5945 169.6895 114.5945 C 195.3744 114.5945 216.1955 135.4702 216.1955 161.2223 C 216.1955 186.9744 176.0835 210.7177 169.0603 210.7177 C 160.3209 210.7177 123.1835 186.9744 123.1835 161.2223 Z" stroke="#eabb8c" stroke-width="1" fill="#ffcc99"/>			<g>				<path id="Ellipse5" d="M 133.0305 171.3805 C 133.4993 169.1048 142.3626 164.8646 149.6348 167.641 C 156.9071 170.4174 161.2635 176.5928 159.3652 181.4345 C 157.467 186.2762 150.0331 187.9504 142.7609 185.174 C 135.4886 182.3976 131.9825 176.4675 133.0305 171.3805 Z" fill="#000000"/>				<path id="Ellipse6" d="M 135.963 172.5642 C 136.3632 170.5161 143.9295 166.6999 150.1375 169.1986 C 156.3455 171.6974 160.0643 177.2553 158.4439 181.6128 C 156.8234 185.9703 150.4774 187.4771 144.2694 184.9783 C 138.0614 182.4796 135.0684 177.1425 135.963 172.5642 Z" fill="#ffffff"/>				<path d="M 139.7531 167.0592 C 139.7531 167.0592 134.054 168.5981 132.1908 166.0699 C 130.3276 163.5418 131.2044 166.3997 131.2044 166.3997 C 131.2044 166.3997 132.0567 173.7506 133.0848 176.0155 C 133.2226 176.319 133.3635 176.5312 133.506 176.6221 C 134.7116 177.3916 133.6156 171.0163 139.7531 167.0592 Z" fill="#000000"/>			</g>			<g>				<path id="Ellipse7" d="M 200.1923 171.3805 C 199.7235 169.1048 190.8602 164.8646 183.588 167.641 C 176.3157 170.4174 171.9594 176.5928 173.8576 181.4345 C 175.7558 186.2762 183.1897 187.9504 190.4619 185.174 C 197.7342 182.3976 201.2404 176.4675 200.1923 171.3805 Z" fill="#000000"/>				<path id="Ellipse8" d="M 197.2598 172.5642 C 196.8596 170.5161 189.2934 166.6999 183.0854 169.1986 C 176.8774 171.6974 173.1585 177.2553 174.7789 181.6128 C 176.3994 185.9703 182.7454 187.4771 188.9534 184.9783 C 195.1614 182.4796 198.1544 177.1425 197.2598 172.5642 Z" fill="#ffffff"/>				<path d="M 193.4697 167.0592 C 193.4697 167.0592 199.1688 168.5981 201.032 166.0699 C 202.8952 163.5418 202.0184 166.3997 202.0184 166.3997 C 202.0184 166.3997 201.1662 173.7506 200.138 176.0155 C 200.0002 176.319 199.8593 176.5312 199.7168 176.6221 C 198.5112 177.3916 199.6073 171.0163 193.4697 167.0592 Z" fill="#000000"/>			</g>			<path d="M 162.3103 198.0726 C 162.3103 200.8118 164.4616 203.0324 167.1154 203.0324 C 169.7692 203.0324 171.9204 200.8118 171.9204 198.0726 C 171.9204 197.7687 171.8939 197.4712 171.8432 197.1824 C 171.4369 199.4968 169.4747 201.252 167.1154 201.252 C 164.756 201.252 162.7939 199.4968 162.3875 197.1824 C 162.3368 197.4712 162.3103 197.7687 162.3103 198.0726 Z" fill="#ff0000"/>			<path id="Ellipse9" d="M 142.3835 179.2602 C 142.3835 175.2535 146.1372 172.0056 150.7678 172.0056 C 155.3984 172.0056 159.1521 175.2535 159.1521 179.2602 C 159.1521 183.2668 155.3984 186.5148 150.7678 186.5148 C 146.1372 186.5148 142.3835 183.2668 142.3835 179.2602 Z" fill="#000000"/>			<path id="Ellipse10" d="M 179.2088 178.6007 C 179.2088 174.594 182.9625 171.346 187.5931 171.346 C 192.2237 171.346 195.9774 174.594 195.9774 178.6007 C 195.9774 182.6073 192.2237 185.8553 187.5931 185.8553 C 182.9625 185.8553 179.2088 182.6073 179.2088 178.6007 Z" fill="#000000"/>			<path d="M 121.8106 160.7897 C 121.8106 165.2175 122.8952 169.5047 124.7435 173.5749 L 125.3314 173.3433 C 124.5099 170.3965 123.2189 160.6129 123.2189 160.6129 L 123.9231 154.6013 L 125.3314 154.6013 L 128.1481 150.3579 L 129.5565 154.2477 L 131.6689 151.4187 L 131.6689 156.3695 L 138.0065 151.4187 L 136.5981 157.0767 L 143.6398 150.3579 L 143.2877 158.4912 L 149.6252 152.4796 L 147.5127 159.9057 L 158.4273 152.126 L 155.6106 159.1985 L 162.3002 153.1868 L 161.9481 159.9057 L 168.2856 154.2477 L 168.2856 159.1985 L 174.6231 151.4187 L 175.3273 155.6622 L 180.2564 151.4187 L 178.496 157.4303 L 186.946 151.0651 L 185.1856 156.3695 L 197.1564 148.9434 L 193.6356 156.7231 L 203.1418 150.3579 L 200.3252 157.4303 L 209.8314 153.5405 L 208.4231 158.8448 L 214.0564 157.0767 L 213.3523 160.6129 C 216.0516 163.324 211.9439 176.8795 211.9439 176.8795 L 212.7397 176.3173 C 215.5166 171.4478 217.2252 166.2242 217.2252 160.7897 C 217.2252 134.3262 195.8662 112.8739 169.5179 112.8739 C 143.1696 112.8739 121.8106 134.3262 121.8106 160.7897 Z" fill="#ff0000"/>			<path d="M 125.9292 162.6288 C 125.9292 162.6288 146.3146 155.9237 152.233 158.0122 L 150.589 159.9908 C 150.589 159.9908 145.657 157.4626 125.9292 162.6288 Z" fill="#000000"/>			<path d="M 198.6914 164.9802 C 198.6914 164.9802 178.306 158.2751 172.3877 160.3636 L 174.0316 162.3421 C 174.0316 162.3421 178.9636 159.814 198.6914 164.9802 Z" fill="#000000"/>			<path d="M 162.3103 190.3001 C 162.3103 190.3001 166.4289 188.2354 169.8611 189.956 " stroke="#dcb084" stroke-width="2" fill="none"/>			<path d="M 195.9457 120.7886 C 195.9457 120.7886 210.2464 129.5062 211.3905 132.8327 L 209.6744 133.1768 L 214.8227 137.6503 L 213.1066 138.6826 L 217.5684 146.2532 L 215.1659 145.9091 L 218.5981 152.7914 L 214.4794 151.0708 C 214.4794 151.0708 197.6618 139.3709 196.6321 136.9621 C 195.6025 134.5532 195.9457 120.7886 195.9457 120.7886 Z" fill="#ff0000"/>			<path d="M 144.1198 240.1969 C 144.1198 240.1969 144.8062 233.1999 148.5816 231.2499 L 189.0813 212.6676 L 227.8649 208.1941 C 227.8649 208.1941 234.0429 207.9647 239.8776 212.6676 L 249.1445 238.4763 L 151.3273 244.6705 L 144.1198 240.1969 Z" fill="#ffcc99"/>			<path d="M 144.1198 240.1969 L 145.4926 253.2734 L 252.119 253.044 L 239.8776 212.6676 C 234.0429 207.9647 227.8649 208.1941 227.8649 208.1941 L 209.5817 210.3036 C 210.09 211.6591 210.3608 213.0862 210.3608 214.5603 C 210.3608 223.3977 200.6033 230.5617 188.5665 230.5617 C 180.0885 230.5617 172.7422 227.0072 169.1386 221.8177 L 148.5816 231.2499 C 144.8062 233.1999 144.1198 240.1969 144.1198 240.1969 Z" fill="#000000"/>			<path d="M 156.1324 217.4853 C 156.1324 217.4853 153.7299 228.1529 156.8188 235.7234 C 156.8188 235.7234 161.0519 242.3763 163.34 242.2616 C 163.34 242.2616 148.4672 242.6057 141.0308 235.3793 L 156.1324 217.4853 Z" fill="#ff0000"/>			<path d="M 160.251 205.7853 C 160.251 205.7853 157.8485 216.4529 160.9374 224.0235 C 160.9374 224.0235 165.1705 230.6764 167.4586 230.5617 C 167.4586 230.5617 152.5858 230.9058 145.1494 223.6793 L 160.251 205.7853 Z" fill="#ff0000"/>			<path id="Ellipse11" d="M 141.0308 173.6104 C 141.0308 171.995 142.4138 170.6854 144.1198 170.6854 C 145.8258 170.6854 147.2087 171.995 147.2087 173.6104 C 147.2087 175.2259 145.8258 176.5354 144.1198 176.5354 C 142.4138 176.5354 141.0308 175.2259 141.0308 173.6104 Z" fill="#ffffff"/>			<path id="Ellipse12" d="M 178.0983 174.2987 C 178.0983 172.6832 179.4813 171.3737 181.1873 171.3737 C 182.8933 171.3737 184.2763 172.6832 184.2763 174.2987 C 184.2763 175.9141 182.8933 177.2237 181.1873 177.2237 C 179.4813 177.2237 178.0983 175.9141 178.0983 174.2987 Z" fill="#ffffff"/>			<path d="M 217.2252 163.1149 C 217.2252 163.1149 227.4073 176.5354 232.67 172.7502 C 232.67 172.7502 232.2124 186.1707 225.1192 186.5148 L 218.2548 175.159 L 217.2252 163.1149 Z" fill="#ff0000"/>			<path d="M 224.0895 206.8177 C 224.0895 206.8177 237.475 220.1235 232.67 225.3999 C 232.67 225.3999 240.2208 220.5823 237.1318 210.2588 L 230.9539 199.5912 L 224.0895 206.8177 Z" fill="#ff0000"/>			<path d="M 213.1066 199.5912 C 213.1066 199.5912 226.4921 212.897 221.687 218.1735 C 221.687 218.1735 229.2378 213.3559 226.1488 203.0324 L 219.9709 192.3648 L 213.1066 199.5912 Z" fill="#ff0000"/>			<path d="M 206.7433 229.2662 C 206.7433 239.2203 212.0474 248.0097 220.1443 253.2734 L 255.4064 253.2734 C 263.5034 248.0097 268.8081 239.2203 268.8081 229.2662 C 268.8081 213.1564 254.9146 200.0973 237.7757 200.0973 C 220.6368 200.0973 206.7433 213.1564 206.7433 229.2662 Z" fill="#ffcc00"/>			<path id="Ellipse13" d="M 209.8466 224.3676 C 209.8466 209.9795 222.2514 198.3159 237.554 198.3159 C 252.8566 198.3159 265.2615 209.9795 265.2615 224.3676 C 265.2615 238.7557 252.8566 250.4192 237.554 250.4192 C 222.2514 250.4192 209.8466 238.7557 209.8466 224.3676 Z" fill="#ffffff"/>			<path id="Ellipse14" d="M 201.0803 191.8182 C 201.0803 173.4949 216.9585 158.6414 236.5459 158.6414 C 256.1332 158.6414 272.0114 173.4949 272.0114 191.8182 C 272.0114 210.1415 256.1332 224.9951 236.5459 224.9951 C 216.9585 224.9951 201.0803 210.1415 201.0803 191.8182 Z" fill="#ffcc00"/>			<path d="M 202.7535 183.1749 C 202.7535 183.1749 193.1482 188.3703 194.3304 193.4174 L 203.6401 197.4253 L 202.7535 183.1749 Z" fill="#ffcc00"/>			<path d="M 270.0372 180.5029 C 270.0372 180.5029 279.6425 185.6984 278.4603 190.7454 L 269.1505 194.7534 L 270.0372 180.5029 Z" fill="#ffcc00"/>			<path d="M 202.3101 191.1907 C 202.3101 191.1907 195.8081 189.8548 194.7737 193.4174 C 194.7737 193.4174 201.128 196.0893 201.8668 198.7613 C 201.8668 198.7613 200.8324 192.8236 202.3101 191.1907 Z" fill="#9d6b36"/>			<path d="M 271.468 188.5188 C 271.468 188.5188 277.97 187.1828 279.0044 190.7454 C 279.0044 190.7454 272.6501 193.4174 271.9113 196.0893 C 271.9113 196.0893 272.9457 190.1516 271.468 188.5188 Z" fill="#9d6b36"/>			<path id="Ellipse15" d="M 264.3749 176.9403 C 264.3749 176.9403 264.5733 176.9403 264.8182 176.9403 C 265.063 176.9403 265.2615 176.9403 265.2615 176.9403 C 265.2615 176.9403 265.063 176.9403 264.8182 176.9403 C 264.5733 176.9403 264.3749 176.9403 264.3749 176.9403 Z" stroke="#000000" stroke-width="1" fill="#ffffff"/>			<path d="M 196.9753 230.9058 C 196.9753 238.0328 213.4372 239.5087 237.1318 239.5087 C 260.8264 239.5087 277.2883 235.2798 277.2883 228.1529 C 277.2883 224.2987 273.6672 216.2366 264.7609 213.872 C 261.7109 221.8906 250.9891 230.9058 237.3034 230.9058 C 223.5711 230.9058 212.0678 224.9034 209.0652 216.8434 C 199.9781 219.2096 196.9753 227.0068 196.9753 230.9058 Z" stroke="#ffcc00" stroke-width="1" fill="#ffffff"/>			<path d="M 196.6321 230.9058 C 196.6321 238.0328 199.8561 239.9853 223.5507 239.9853 C 225.9837 239.9853 228.3402 239.9405 230.6107 239.8528 C 234.2492 237.2131 251.2712 231.6031 255.494 225.3999 C 250.4142 228.1539 244.1934 230.9058 236.9602 230.9058 C 223.2278 230.9058 213.5351 223.6526 210.5324 215.5926 C 201.4453 217.9588 196.6321 227.0068 196.6321 230.9058 Z" stroke="#ffcc00" stroke-width="1" fill="#ffffff"/>			<path d="M 213.1066 221.9588 L 215.5091 222.3029 L 215.5091 221.6147 L 211.0473 215.7647 L 209.3312 216.4529 L 213.1066 221.9588 Z" fill="#ffffff"/>			<path d="M 262.1867 220.2382 L 259.7842 220.5823 L 259.7842 219.8941 L 264.246 214.0441 L 265.9621 214.7323 L 262.1867 220.2382 Z" fill="#ffffff"/>			<path d="M 267.5523 224.3676 C 267.5523 224.3676 266.0078 220.5823 258.9719 220.5823 C 258.9719 220.5823 250.9062 223.6793 251.0779 227.1205 C 251.0779 227.1205 261.7176 225.9161 263.0905 227.8087 C 263.0905 227.8087 268.582 227.9808 267.5523 224.3676 Z" stroke="#ffcc00" stroke-width="1" fill="#ffffff"/>			<path d="M 210.0176 226.0882 C 210.0176 226.0882 211.5621 222.3029 218.5981 222.3029 C 218.5981 222.3029 226.6637 225.3999 226.4921 228.8411 C 226.4921 228.8411 215.8523 227.6367 214.4794 229.5293 C 214.4794 229.5293 208.9879 229.7014 210.0176 226.0882 Z" stroke="#ffcc00" stroke-width="1" fill="#ffffff"/>			<rect x="301.3136" y="241.6659" width="0.6864" height="0.6882" fill="#000000"/>			<path d="M 208.0559 211.5796 C 208.796 212.5118 209.5878 213.4057 210.4261 214.2592 C 209.5198 215.812 208.7497 217.8811 209.6744 219.55 L 212.7771 216.4392 C 212.9298 216.5683 213.0836 216.6962 213.2387 216.8228 C 212.4667 218.3018 211.9345 220.1187 212.7634 221.6147 L 215.7065 218.6638 C 215.8952 218.7923 216.0846 218.9191 216.2762 219.0441 C 215.7487 220.3347 215.5189 221.7699 216.1955 222.9911 L 218.6907 220.4894 C 223.9343 223.3539 230.0352 224.9951 236.5459 224.9951 C 242.8898 224.9951 248.845 223.4362 253.9975 220.7062 L 257.3066 224.0235 C 258.163 222.478 257.5663 220.5895 256.7536 219.0854 L 257.0161 218.9133 L 260.7388 222.647 C 261.7516 220.819 260.7316 218.5119 259.7258 216.9278 L 260.124 216.6009 L 260.0523 216.797 L 263.8277 220.5823 C 264.9418 218.5718 263.5969 215.9809 262.5162 214.4106 C 263.7153 213.2048 264.8196 211.9159 265.8182 210.5531 L 241.4223 211.6353 L 229.4527 197.3848 L 208.0559 211.5796 Z" fill="#ffcc00"/>			<path d="M 208.0559 210.8914 C 208.796 211.8236 209.5878 212.7175 210.4261 213.5709 C 209.5198 215.1238 208.7497 217.1929 209.6744 218.8617 L 212.7771 215.7509 C 212.9298 215.88 213.0836 216.008 213.2387 216.1346 C 212.4667 217.6135 211.9345 219.4305 212.7634 220.9264 L 215.7065 217.9756 C 215.8952 218.1041 216.0846 218.2308 216.2762 218.3559 C 215.7487 219.6464 215.5189 221.0817 216.1955 222.3029 L 218.6907 219.8011 C 223.9343 222.6657 230.0352 224.3068 236.5459 224.3068 C 242.8898 224.3068 248.845 222.748 253.9975 220.0179 L 257.3066 223.3352 C 258.163 221.7897 257.5663 219.9012 256.7536 218.3972 L 257.0161 218.2251 L 260.7388 221.9588 C 261.7516 220.1308 260.7316 217.8237 259.7258 216.2396 L 260.124 215.9126 L 260.0523 216.1088 L 263.8277 219.8941 C 264.9418 217.8836 263.5969 215.2926 262.5162 213.7223 C 263.7153 212.5166 264.8196 211.2276 265.8182 209.8649 L 241.4223 210.9471 L 229.4527 196.6966 L 208.0559 210.8914 Z" stroke="#ffcc00" stroke-width="1" fill="#ffffff"/>			<path d="M 222.2595 208.5585 C 222.2595 210.0342 223.4504 211.2305 224.9194 211.2305 C 226.3885 211.2305 227.5793 210.0342 227.5793 208.5585 C 227.5793 208.4528 227.5735 208.3492 227.5616 208.2467 L 223.2947 206.4432 C 222.6645 206.9318 222.2595 207.6969 222.2595 208.5585 Z" fill="#000000"/>			<path d="M 248.8587 209.0038 C 248.8587 210.4795 247.6678 211.6758 246.1988 211.6758 C 244.7297 211.6758 243.5388 210.4795 243.5388 209.0038 C 243.5388 208.8982 243.5447 208.7945 243.5566 208.6921 L 247.8235 206.8885 C 248.4537 207.3771 248.8587 208.1423 248.8587 209.0038 Z" fill="#000000"/>			<path d="M 232.4559 213.2749 L 239.549 213.2749 C 239.549 213.2749 237.3324 215.9469 236.0024 216.3922 C 236.0024 216.3922 233.3425 216.0953 232.4559 213.2749 Z" fill="#000000"/>			<path d="M 224.4761 202.3239 L 228.466 209.0038 L 229.7959 208.1131 L 224.4761 202.3239 Z" fill="#000000"/>			<path d="M 241.7656 208.1131 L 242.6522 209.0038 L 246.6421 203.6599 L 241.7656 208.1131 Z" fill="#000000"/>			<path d="M 239.5343 221.6147 C 239.4352 220.0801 237.9363 218.8617 236.1022 218.8617 C 234.2681 218.8617 232.7691 220.0801 232.67 221.6147 L 233.4309 221.6147 C 233.4811 220.4448 234.615 219.5095 236.0067 219.5095 C 237.3984 219.5095 238.5323 220.4448 238.5825 221.6147 L 239.5343 221.6147 Z" fill="#000000"/>			<path d="M 248.458 172.7502 C 248.458 172.7502 256.352 166.2119 264.9325 168.2766 L 261.8435 171.0296 C 261.8435 171.0296 270.7672 168.6207 272.14 171.0296 L 267.6782 173.7825 C 267.6782 173.7825 274.5426 174.8149 275.229 176.1913 L 265.2757 181.3531 L 248.458 172.7502 Z" fill="#ffcc00"/>			<path d="M 236.3479 153.138 C 235.2113 153.0116 222.8352 157.8142 221.1935 155.4129 C 221.1935 155.4129 216.7734 161.8585 233.317 160.3419 C 233.317 160.3419 237.4845 153.2644 236.3479 153.138 Z" fill="#dcb084"/>			<path d="M 225.8175 170.4848 L 230.1277 156.0026 C 230.8831 153.4648 235.2762 152.4762 239.9268 153.7824 L 248.1794 156.1004 C 252.7825 157.3934 255.9302 160.4781 255.2232 163.0021 L 251.1891 177.4039 C 250.4665 179.9834 246.0931 181.0558 241.4068 179.7872 L 233.0047 177.5128 C 228.2693 176.231 225.0454 173.079 225.8175 170.4848 Z" fill="#ffcc99"/>			<path d="M 231.4227 177.0247 L 237.2319 159.3308 L 232.9382 178.1621 L 231.4227 177.0247 Z" fill="#d5aa80"/>			<path d="M 240.1365 178.9204 L 246.3246 160.5947 L 241.652 180.0579 L 240.1365 178.9204 Z" fill="#d5aa80"/>		</g>		<path opacity="0.1216" d="M 104 181.3611 L 104 253.3085 C 104 261.5708 110.7184 268.2685 119.0063 268.2685 L 276.5726 268.2685 C 284.8605 268.2685 291.5789 261.5708 291.5789 253.3085 L 291.5789 154.956 C 276.5986 153.1963 260.8835 152.2593 244.6842 152.2593 C 188.4657 152.2593 138.0782 163.5371 104 181.3611 Z" fill="#ffffff"/>	</g>	<g id="Morris">		<path id="Ellipse16" opacity="0.3294" d="M 128.7738 563.083 C 128.7738 553.4995 188.5262 545.7307 262.2367 545.7307 C 335.9471 545.7307 395.6995 553.4995 395.6995 563.083 C 395.6995 572.6666 335.9471 580.4354 262.2367 580.4354 C 188.5262 580.4354 128.7738 572.6666 128.7738 563.083 Z" fill="url(#gradient2)"/>		<g>			<path id="Ellipse17" d="M 127.2053 515.4108 C 127.2053 481.4924 165.657 450.5159 213.0909 450.5159 C 260.5248 450.5159 298.9765 478.0115 298.9765 511.9299 C 298.9765 545.8483 260.5248 573.3439 213.0909 573.3439 C 165.657 573.3439 127.2053 562.901 127.2053 515.4108 Z" fill="#ffcc00"/>			<path id="Ellipse18" d="M 192.4286 522.1241 C 192.4286 491.9133 218.063 467.4234 249.6856 467.4234 C 281.3083 467.4234 306.9427 491.9133 306.9427 522.1241 C 306.9427 552.3349 293.4998 571.8521 251.1793 571.8521 C 205.8606 571.8521 192.4286 552.3349 192.4286 522.1241 Z" fill="#ffffff"/>			<path d="M 237.8757 568.6719 C 242.108 569.131 246.7002 569.3657 251.6772 569.3657 C 293.9977 569.3657 307.4406 549.8485 307.4406 519.6378 C 307.4406 489.4269 281.8062 464.937 250.1835 464.937 C 247.1056 464.937 244.0833 465.169 241.1369 465.6158 C 267.0654 470.8357 286.5294 492.8163 286.5294 519.1404 C 286.5294 547.5901 274.6082 566.5574 237.8757 568.6719 Z" fill="#cccccc"/>			<g>				<path d="M 231.2638 451.5104 C 231.2638 451.5104 218.8166 453.9969 210.3525 469.9099 C 210.3525 469.9099 215.8293 480.3527 223.7955 479.8554 L 231.2638 451.5104 Z" fill="#c8a000"/>				<path d="M 212.3441 470.4071 C 212.3441 470.4071 219.1485 466.9261 220.8082 470.4071 L 226.2849 473.3908 L 223.2976 477.8663 C 223.2976 477.8663 216.4931 477.8663 212.3441 470.4071 Z" fill="#564500"/>			</g>			<g>				<path d="M 322.8751 454.9915 C 322.8751 454.9915 335.3224 457.4778 343.7864 473.3908 C 343.7864 473.3908 338.3097 483.8336 330.3434 483.3364 L 322.8751 454.9915 Z" fill="#c8a000"/>				<path d="M 341.7949 473.8881 C 341.7949 473.8881 334.9904 470.4071 333.3307 473.8881 L 327.854 476.8717 L 330.8413 481.3472 C 330.8413 481.3472 337.6458 481.3472 341.7949 473.8881 Z" fill="#564500"/>			</g>			<path id="Ellipse19" d="M 222.3018 476.8717 C 221.306 438.5812 246.6842 424.6574 277.0695 424.6574 C 307.4547 424.6574 331.8371 442.0622 332.335 476.8717 C 332.6964 502.1363 307.7036 522.6214 277.3184 522.6214 C 246.9332 522.6214 222.9587 502.1304 222.3018 476.8717 Z" fill="#ffcc00"/>			<path d="M 229.215 499.0901 C 229.0119 500.421 228.4794 505.3499 231.2638 507.7031 L 232.2596 506.2112 C 232.2596 506.2112 232.2596 511.184 235.2469 511.6812 L 235.7448 508.2003 C 235.7448 508.2003 236.2427 512.1786 238.7321 513.1731 L 238.7321 509.4807 C 248.6619 517.6067 262.2858 522.6214 277.3184 522.6214 C 290.5519 522.6214 302.6921 518.7345 312.183 512.2606 L 312.1842 518.6431 C 314.6736 517.6486 315.1715 513.6703 315.1715 513.6703 L 315.6694 517.1513 C 318.6567 516.654 318.6567 511.6812 318.6567 511.6812 L 319.6525 513.1731 C 322.8888 510.438 321.6441 504.222 321.6441 504.222 L 321.2769 504.3837 C 321.5046 504.1325 321.73 503.8804 321.9515 503.6254 L 315.9047 500.2438 L 286.0315 499.7465 L 265.1202 472.3962 L 244.7068 495.271 L 228.7943 498.4486 L 229.215 499.0901 Z" stroke="#999999" stroke-width="2" fill="#ffffff"/>			<path d="M 252.673 500.5717 C 252.673 501.1418 252.7479 501.6977 252.8892 502.233 C 253.8138 498.7304 257.6008 496.1071 262.1328 496.1071 C 266.6649 496.1071 270.4519 498.7304 271.3765 502.233 C 271.5178 501.6977 271.5927 501.1418 271.5927 500.5717 C 271.5927 496.271 267.3574 492.7846 262.1328 492.7846 C 256.9083 492.7846 252.673 496.271 252.673 500.5717 Z" fill="#000000"/>			<path d="M 290.0145 500.5717 C 290.0145 501.1418 290.0895 501.6977 290.2308 502.233 C 291.1554 498.7304 294.9424 496.1071 299.4744 496.1071 C 304.0064 496.1071 307.7935 498.7304 308.718 502.233 C 308.8594 501.6977 308.9343 501.1418 308.9343 500.5717 C 308.9343 496.271 304.699 492.7846 299.4744 492.7846 C 294.2498 492.7846 290.0145 496.271 290.0145 500.5717 Z" fill="#000000"/>			<path d="M 269.6077 512.0559 C 269.8427 517.749 278.9578 522.2937 280.501 522.2937 C 282.1935 522.2937 291.1593 517.749 291.3943 512.0559 L 269.6077 512.0559 Z" fill="#000000"/>			<rect x="210.3525" y="543.0098" width="147.3746" height="30.8313" fill="#ffcc00"/>			<path d="M 247.6941 528.0915 L 267.6096 528.0915 C 267.6096 528.0915 279.5589 530.5779 275.5758 553.95 C 275.5758 553.95 259.6434 561.9065 251.6772 553.95 L 251.6772 540.5234 L 246.2004 541.0208 L 247.6941 528.0915 Z" fill="#ffffff"/>			<path d="M 285.5336 427.1438 C 285.5336 427.1438 295.4913 421.6737 307.4406 424.1601 L 301.9639 427.6411 L 316.9005 427.1438 L 319.39 428.1383 L 307.4406 434.6029 L 287.0272 437.5866 L 285.5336 427.1438 Z" fill="#ffcc00"/>			<path d="M 176.994 465.9315 C 176.994 465.9315 167.0363 460.4615 155.087 462.9478 L 160.5638 466.4289 L 145.6271 465.9315 L 143.1377 466.9261 L 155.087 473.3908 L 175.5004 476.3744 L 176.994 465.9315 Z" fill="#ffcc00"/>			<path d="M 162.5553 475.3799 C 162.5553 475.3799 152.5975 469.9099 140.6482 472.3962 L 146.125 475.8771 L 131.1884 475.3799 L 128.6989 476.3744 L 140.6482 482.8391 L 161.0616 485.8227 L 162.5553 475.3799 Z" fill="#ffcc00"/>			<path d="M 159.0701 484.3309 C 159.0701 484.3309 149.1123 478.8608 137.163 481.3472 L 142.6398 484.8282 L 127.7032 484.3309 L 125.2137 485.3255 L 137.163 491.7901 L 157.5764 494.7738 L 159.0701 484.3309 Z" fill="#ffcc00"/>			<path d="M 243.711 529.086 L 268.1075 529.086 C 268.1075 529.086 273.8332 526.351 275.5758 542.5126 L 277.0695 542.5126 C 277.0695 542.5126 278.3142 526.8483 268.6054 527.0969 L 242.2173 527.0969 L 243.711 529.086 Z" fill="#cccccc"/>			<path d="M 356.2336 543.0098 C 356.2336 543.0098 382.1238 539.0316 395.5667 555.9391 C 409.0097 572.8466 395.0688 557.9282 395.0688 557.9282 C 395.0688 557.9282 384.1153 551.4636 382.6217 556.9337 C 382.6217 556.9337 395.0688 561.4092 395.5667 566.8792 C 395.5667 566.8792 383.6175 558.4255 381.6259 563.8956 C 381.6259 563.8956 392.5794 566.382 393.0773 572.3493 L 355.7357 573.8411 L 356.2336 543.0098 Z" fill="#ffcc00"/>			<path d="M 193.4243 542.0153 L 216.3271 544.0044 L 222.3018 561.9065 C 222.3018 561.9065 212.3441 567.3765 210.3525 567.3765 C 208.361 567.3765 193.4243 564.8901 193.4243 564.8901 L 193.4243 542.0153 Z" fill="#ffcc00"/>			<path d="M 320.6894 573.8411 L 356.2336 573.8411 L 358.2252 573.8411 L 358.2252 573.7616 L 393.5752 572.3493 C 393.0773 566.382 382.1238 563.8956 382.1238 563.8956 C 384.1153 558.4255 396.0647 566.8792 396.0647 566.8792 C 395.5667 561.4092 383.1195 556.9337 383.1195 556.9337 C 384.6132 551.4636 395.5667 557.9282 395.5667 557.9282 C 395.5667 557.9282 409.5076 572.8466 396.0647 555.9391 C 382.6217 539.0316 356.7315 543.0098 356.7315 543.0098 L 323.2336 543.0098 C 320.7534 549.0125 319.39 555.5556 319.39 562.4037 C 319.39 566.3314 319.8391 570.1586 320.6894 573.8411 Z" stroke="#999999" stroke-width="2" fill="#ffffff"/>			<path d="M 306.4449 530.5779 L 326.3604 530.5779 C 326.3604 530.5779 338.3097 533.0642 334.3266 556.4364 C 334.3266 556.4364 318.3941 564.3928 310.4279 556.4364 L 310.4279 543.0098 L 304.9512 543.5071 L 306.4449 530.5779 Z" stroke="#999999" stroke-width="2" fill="#ffffff"/>			<path d="M 140.6482 524.1132 C 140.6482 534.6044 172.4022 544.1758 203.3821 545.9935 C 203.1711 545.1729 195.1564 543.8262 194.8931 542.6493 C 166.6696 540.9615 144.2144 533.0389 140.6557 523.78 C 140.6505 523.8907 140.6482 524.0021 140.6482 524.1132 Z" fill="#c8a000"/>			<path d="M 307.4406 517.6486 C 307.4406 517.6486 308.6854 537.5398 305.947 542.5126 L 303.4575 543.0098 C 303.4575 543.0098 305.947 540.7721 307.4406 517.6486 Z" fill="#cccccc"/>		</g>	</g>	<g id="NJ">		<path d="M 573.4402 394 C 573.4402 394 646.8479 449.1142 657 466.968 C 657 466.968 644.5051 496.4658 601.5538 552.3561 L 582.8115 539.1598 C 582.8115 539.1598 626.5436 487.9269 621.858 468.5205 C 621.858 468.5205 564.069 418.0639 557.0406 425.0502 C 557.0406 425.0502 564.85 394.7762 573.4402 394 Z" fill="#ffffcc"/>		<path d="M 402.6427 645.0684 C 402.6427 668.7332 408.113 690.9144 417.6669 710 L 466.1609 710 C 451.7841 694.8447 442.7587 672.9718 442.7587 648.6509 C 442.7587 602.897 474.7072 565.8072 514.1189 565.8072 C 553.5306 565.8072 585.4791 602.897 585.4791 648.6509 C 585.4791 672.9718 576.4537 694.8447 562.0768 710 L 610.5709 710 C 620.1248 690.9144 625.5952 668.7332 625.5952 645.0684 C 625.5952 573.5934 575.6863 515.6531 514.1189 515.6531 C 452.5515 515.6531 402.6427 573.5934 402.6427 645.0684 Z" fill="#ffffcc"/>		<path d="M 381.8132 706.1439 C 381.8132 707.4457 381.8738 708.7321 381.9945 710 L 417.6669 710 L 452.6064 710 L 466.1609 710 C 458.4506 701.8721 452.2782 691.8113 448.213 680.4778 C 446.7781 680.6932 445.3094 680.8745 443.8117 681.0215 C 437.312 673.2487 427.8433 668.3542 417.3005 668.3542 C 397.7011 668.3542 381.8132 685.2729 381.8132 706.1439 Z" fill="#000000"/>		<path d="M 646.683 706.1439 C 646.683 707.4457 646.6224 708.7321 646.5017 710 L 610.8293 710 L 575.8898 710 L 562.3353 710 C 570.0457 701.8721 576.218 691.8113 580.2833 680.4778 C 581.7181 680.6932 583.1868 680.8745 584.6845 681.0215 C 591.1842 673.2487 600.653 668.3542 611.1957 668.3542 C 630.795 668.3542 646.683 685.2729 646.683 706.1439 Z" fill="#000000"/>		<path d="M 582.3932 622.0812 L 624.0522 615.9114 L 585.4791 637.5056 L 582.3932 622.0812 Z" fill="#a1a181"/>		<path d="M 472.9466 289.4618 C 472.9466 289.4618 459.3799 265.9206 436.0311 270.9518 L 439.9213 279.6431 C 439.9213 279.6431 415.8097 273.697 415.6053 279.2308 L 429.2686 290.11 L 417.2337 301.6012 C 417.2337 301.6012 445.5401 300.1834 448.8277 307.7653 L 472.9466 289.4618 Z" fill="#000000"/>		<rect x="355.3906" y="391.8784" width="106.6545" height="25.83" fill="#ffffcc"/>		<path id="Ellipse20" d="M 576.4296 353.7089 C 577.0225 345.0089 583.5222 338.3775 590.9473 338.8969 C 598.3724 339.4163 603.9109 346.8899 603.3181 355.5898 C 602.7252 364.2899 596.2255 370.9213 588.8003 370.4019 C 581.3751 369.8825 575.8367 362.4089 576.4296 353.7089 Z" stroke="#cfcfa6" stroke-width="1" fill="#cfcfa6"/>		<path id="Ellipse21" d="M 425.9064 342.4073 C 426.4993 333.7073 432.9991 327.0758 440.4242 327.5952 C 447.8493 328.1147 453.3878 335.5883 452.795 344.2882 C 452.202 352.9882 445.7023 359.6197 438.2772 359.1003 C 430.852 358.5809 425.3136 351.1073 425.9064 342.4073 Z" stroke="#cfcfa6" stroke-width="1" fill="#cfcfa6"/>		<path d="M 451.2162 389.2306 C 451.2162 389.2306 463.6739 484.1189 442.073 541.189 C 442.073 541.189 559.2494 560.3838 580.8503 535.7048 C 580.8503 535.7048 564.364 465.781 574.6786 391.4871 C 574.6786 391.4871 500.3612 365.2371 451.2162 389.2306 Z" fill="url(#gradient3)"/>		<path id="Ellipse22" d="M 473.254 396.8321 C 469.5743 376.1204 485.9435 355.9282 509.8163 351.7307 C 533.6891 347.5333 556.0242 360.9204 559.704 381.632 C 563.3837 402.3437 547.0145 422.5359 523.1417 426.7333 C 499.2688 430.9308 476.9337 417.5437 473.254 396.8321 Z" fill="#333333"/>		<path id="Ellipse23" d="M 472.7156 393.8016 C 469.0359 373.09 485.4051 352.8977 509.2779 348.7003 C 533.1508 344.5029 555.4858 357.89 559.1656 378.6017 C 562.8453 399.3133 546.4761 419.5055 522.6033 423.7029 C 498.7304 427.9004 476.3953 414.5133 472.7156 393.8016 Z" fill="#cfcfa6"/>		<g>			<path d="M 536.4365 447.7246 L 540.6883 455.432 L 544.94 447.7246 L 546.6962 439.121 L 543.4612 440.7341 L 540.6883 435.4465 L 537.9154 440.7341 L 534.6804 439.121 L 536.4365 447.7246 Z" fill="#ff0000"/>			<path d="M 542.8705 449.9597 L 538.756 457.7149 L 547.7361 456.7866 L 556.0777 453.3482 L 552.8541 451.6589 L 555.7961 446.4299 L 549.6838 447.1924 L 549.2104 443.6637 L 542.8705 449.9597 Z" fill="#ff0000"/>			<path d="M 538.7167 450.4438 L 542.8312 458.199 L 533.8511 457.2707 L 525.5095 453.8323 L 528.7332 452.143 L 525.7911 446.914 L 531.9035 447.6765 L 532.3769 444.1478 L 538.7167 450.4438 Z" fill="#ff0000"/>			<path d="M 532.8318 456.6867 L 531.0757 460.182 L 540.9656 459.3753 L 550.1161 460.0923 L 548.1751 456.6867 L 532.8318 456.6867 Z" fill="#ff0000"/>			<rect x="540.3349" y="459.0359" width="1.6638" height="7.2593" fill="#ff0000"/>		</g>		<path d="M 515.5546 438.1527 C 513.8322 438.1527 512.2786 438.8846 511.19 440.055 L 509 444 L 514 448 L 509 454 L 511.675 458.28 C 514.4412 456.4297 521.7281 450.9208 521.5179 444.3895 L 521.5179 444.1297 C 521.5179 440.8287 518.8481 438.1527 515.5546 438.1527 Z" fill="#ff0000"/>		<rect x="485.9607" y="446.1764" width="4.6517" height="16.7656" fill="#ff0000"/>		<rect x="485.9607" y="438.7995" width="3.9872" height="4.0237" fill="#ff0000"/>		<path d="M 554.22 311.3696 C 553.8234 313.794 553.7968 316.3222 554.1924 318.8848 C 556.228 332.071 568.6619 341.1787 581.9649 339.2276 C 582.254 339.1853 582.5409 339.1371 582.826 339.0851 C 568.9399 336.2895 557.4694 325.6337 554.22 311.3696 Z" fill="#000000"/>		<path d="M 554.2725 310.6012 C 553.8758 313.0255 553.8492 315.5538 554.2448 318.1163 C 556.2804 331.3026 568.7143 340.4102 582.0172 338.4593 C 582.3063 338.4168 582.5932 338.3687 582.8784 338.3167 C 568.9923 335.521 557.5219 324.8653 554.2725 310.6012 Z" fill="#000000"/>		<path id="Ellipse24" d="M 430.3844 310.6793 C 433.6236 263.1477 474.7717 227.3115 522.2926 230.6358 C 569.8135 233.96 605.7099 275.1856 602.4707 322.7172 C 599.2314 370.2489 558.0834 406.085 510.5625 402.7608 C 463.0415 399.4366 427.1452 358.2109 430.3844 310.6793 Z" stroke="#cfcfa6" stroke-width="1" fill="#ffffcc"/>		<path id="Ellipse25" d="M 517.2922 337.9909 C 518.3767 322.0763 532.3259 310.0896 548.4492 311.2175 C 564.5723 312.3454 576.7631 326.1606 575.6786 342.0752 C 574.5941 357.9898 560.6448 369.9765 544.5217 368.8486 C 528.3984 367.7208 516.2076 353.9055 517.2922 337.9909 Z" stroke="#000000" stroke-width="1" fill="#ffffff"/>		<path id="Ellipse26" d="M 451.2233 333.3692 C 452.3079 317.4546 466.2571 305.4679 482.3803 306.5958 C 498.5035 307.7236 510.6943 321.5389 509.6097 337.4535 C 508.5252 353.3681 494.576 365.3548 478.4528 364.2269 C 462.3296 363.0991 450.1388 349.2838 451.2233 333.3692 Z" stroke="#000000" stroke-width="1" fill="#ffffff"/>		<path d="M 451.548 336.463 C 450.9839 344.7386 457.2338 351.9163 465.5075 352.4951 C 473.7813 353.0739 480.9454 346.8345 481.5093 338.5589 C 481.6991 335.775 481.1168 333.1146 479.9467 330.7886 L 455.0649 327.7885 C 453.0662 330.1451 451.7744 333.1407 451.548 336.463 Z" fill="#000000"/>		<path d="M 516.8853 339.9818 C 516.3212 348.2574 522.571 355.4351 530.8447 356.0139 C 539.1185 356.5926 546.2827 350.3533 546.8466 342.0777 C 547.0364 339.2938 546.454 336.6334 545.2839 334.3073 L 520.4021 331.3073 C 518.4034 333.6638 517.1116 336.6595 516.8853 339.9818 Z" fill="#000000"/>		<rect x="509.9329" y="337.8912" width="7.3331" height="6.631" fill="#000000"/>		<path d="M 535.5655 318.5128 C 535.1688 320.9371 535.1423 323.4653 535.5378 326.0279 C 537.5734 339.2142 550.0074 348.3219 563.3102 346.3708 C 563.5994 346.3284 563.8863 346.2803 564.1714 346.2283 C 550.2853 343.4326 538.8149 332.7769 535.5655 318.5128 Z" fill="#000000"/>		<path d="M 438.9582 333.2038 C 441.2404 334.1332 443.7026 334.7217 446.2879 334.9026 C 459.5914 335.8332 471.1226 325.6277 472.044 312.1075 C 472.064 311.8137 472.078 311.5208 472.0877 311.2288 C 466.4093 324.2667 453.5717 333.1801 438.9582 333.2038 Z" fill="#000000"/>		<path d="M 453.5592 625.9373 C 463.1389 593.3036 483.5378 576.6042 514.8904 576.6042 C 545.9362 576.6042 566.4064 594.573 576.2216 626.7085 C 590.6453 624.2493 621.6478 618.1877 634.0812 614.369 C 621.343 559.1741 576.2065 513.8517 514.8904 511.7971 C 445.8445 509.4834 414.1014 560.6207 401.8712 616.6827 C 414.4103 620.2413 439.1715 623.7191 453.5592 625.9373 Z" fill="#000000"/>		<path d="M 459.7309 512.5682 C 459.7309 512.5682 474.2128 494.2372 519.9656 486.5898 L 519.7829 492.2125 C 519.7829 492.2125 500.0038 486.185 459.7309 512.5682 Z" fill="#666666"/>		<path d="M 395.3583 338.5148 L 411.1807 332.0573 L 411.7667 321.4904 L 386.5681 321.4904 L 395.3583 338.5148 Z" fill="#cfcfa6"/>		<path d="M 354.7019 337.5018 L 378.9744 337.5018 L 371.0497 418.1272 L 341.6972 418.4797 L 354.7019 337.5018 Z" fill="#ffffcc"/>		<path d="M 427.8832 311.6694 C 427.4771 317.647 427.6679 323.5302 428.4034 329.2572 L 438.1241 313.4514 L 441.7064 292.5619 C 441.7064 292.5619 457.2241 308.4424 466.6422 305.1956 C 466.6422 305.1956 457.2224 289.1735 472.0755 285.6015 C 472.0755 285.6015 496.7346 285.5278 496.7839 301.5168 C 496.7839 301.5168 524.1973 304.9508 527.1011 289.7032 C 527.1011 289.7032 541.9785 283.3957 545.4709 301.8707 C 545.4709 301.8707 567.6682 309.7335 566.5335 283.5804 C 566.5335 283.5804 584.8929 301.6025 583.0322 317.1469 L 594.4012 312.7168 L 599.567 341.7929 L 592.0914 354.4527 C 592.0914 354.4527 596.3683 351.4937 601.2933 348.0656 C 603.9586 340.5463 605.6542 332.5396 606.2217 324.1844 C 609.5706 274.8832 572.3635 232.1163 523.116 228.6603 C 503.6524 227.2944 485.2214 232.2734 469.8403 241.8388 C 446.3036 256.476 429.9085 281.8531 427.8832 311.6694 Z" fill="#000000"/>		<path d="M 485.0175 269.3702 C 485.0175 269.3702 471.4508 245.8291 448.102 250.8603 L 451.9922 259.5515 C 451.9922 259.5515 427.8806 253.6055 427.6762 259.1393 L 441.3394 270.0185 L 429.3046 281.5097 C 429.3046 281.5097 457.611 280.0919 460.8986 287.6738 L 485.0175 269.3702 Z" fill="#000000"/>		<path d="M 510.653 250.8001 C 510.653 250.8001 497.0863 227.2589 473.7375 232.2902 L 477.6277 240.9814 C 477.6277 240.9814 453.5162 235.0353 453.3118 240.5691 L 466.975 251.4483 L 454.9402 262.9395 C 454.9402 262.9395 483.2466 261.5217 486.5341 269.1036 L 510.653 250.8001 Z" fill="#000000"/>		<path d="M 500.2575 444.1297 C 500.2575 444.9426 500.4206 445.7178 500.7139 446.4243 L 500.2575 446.4684 C 500.2575 446.4684 506.7393 458.6822 510.6284 458.9421 C 510.6284 458.9421 511.0293 458.7119 511.675 458.28 L 509 454 L 514 448 L 509 444 L 511.19 440.055 C 511.0842 440.1688 510.9845 440.2866 510.8877 440.4084 C 509.7952 439.0337 508.1107 438.1527 506.2208 438.1527 C 502.9273 438.1527 500.2575 440.8287 500.2575 444.1297 Z" fill="#ff0000"/>		<path d="M 504.3929 359.9386 C 504.3369 365.7506 507.7389 370.542 511.9916 370.6408 C 515.7555 370.7282 518.9248 367.1096 519.6424 362.2475 C 518.2426 365.1102 515.8394 366.9709 513.1279 366.908 C 508.8752 366.8092 505.4731 362.0178 505.5292 356.2058 C 505.5356 355.5377 505.5868 354.886 505.68 354.2545 C 504.8842 355.8818 504.4132 357.8323 504.3929 359.9386 Z" fill="#333333"/>		<path d="M 354.1815 306.9984 L 354.1815 319.3264 L 354.1815 339.286 L 394.0305 339.286 L 398.5956 322.2617 L 426.2613 322.2617 C 430.4688 322.2617 433.8795 318.8449 433.8795 314.6301 C 433.8795 310.4152 430.4688 306.9984 426.2613 306.9984 L 403.9927 306.9984 L 398.1326 306.9984 L 371.4179 306.9984 L 372.4179 288.1482 C 372.4179 283.9333 367.0072 280.5166 362.7997 280.5166 C 358.5923 280.5166 354.1815 283.9333 354.1815 288.1482 L 354.1815 306.9984 Z" fill="#ffffcc"/>		<path d="M 578.1259 533.726 L 554.6979 531.3973 C 554.6979 531.3973 536.7365 536.8311 545.3267 557.0137 L 577.3449 564 C 577.3449 564 573.4402 549.2512 605.4585 551.5799 C 605.4585 551.5799 590.6207 531.3973 578.1259 533.726 Z" fill="#ffffcc"/>		<path d="M 501 388 C 501 388.6849 501.0894 389.3538 501.26 390 C 502.4644 385.4355 507.7106 382 514 382 C 520.2894 382 525.5355 385.4355 526.74 390 C 526.9105 389.3538 527 388.6849 527 388 C 527 382.4771 521.1798 378 514 378 C 506.8202 378 501 382.4771 501 388 Z" fill="#000000"/>		<path d="M 575 337 L 602 341 L 600 344 L 575 340 L 575 337 Z" fill="#000000"/>		<path d="M 431 323 L 452 324 L 453 327 L 431 326 L 431 323 Z" fill="#000000"/>	</g>	<g id="text%20box">	</g></svg>