<?xml version="1.0" standalone="no"?><!-- Generator: Adobe Fireworks CS5, Export SVG Extension by Aaron Beall (http://fireworks.abeall.com) . Version: 0.6.1  --><!DOCTYPE svg PUBLIC "-//W3C//DTD SVG 1.1//EN" "http://www.w3.org/Graphics/SVG/1.1/DTD/svg11.dtd"><svg id="morris_ch02p06-Page%201" viewBox="0 0 800 800" style="background-color:#ffffff" version="1.1"	xmlns="http://www.w3.org/2000/svg" xmlns:xlink="http://www.w3.org/1999/xlink" xml:space="preserve"	x="0px" y="0px" width="800px" height="800px">	<defs>		<radialGradient id="gradient1" cx="-23.9044%" cy="101.5936%" r="97.3998%">			<stop stop-color="#666666" stop-opacity="1" offset="0%"/>			<stop stop-color="#000000" stop-opacity="1" offset="100%"/>		</radialGradient>		<radialGradient id="gradient2" cx="-23.9044%" cy="101.5936%" r="97.3998%">			<stop stop-color="#666666" stop-opacity="1" offset="0%"/>			<stop stop-color="#000000" stop-opacity="1" offset="100%"/>		</radialGradient>	</defs>	<g id="Layer%201">		<rect x="0" y="0" width="800" height="800" fill="#000000"/>		<path d="M 0 0 L 0 708.63 C 32.5577 743.4351 68.819 774.1469 108.085 800 L 715.91 800 C 745.7807 780.3328 773.9139 757.8536 800 732.9 L 800 0 L 0 0 Z" fill="#ffffcc"/>		<path id="Ellipse" d="M 47 482.5 C 47 426.9947 99.3819 382 164 382 C 228.6182 382 281 426.9947 281 482.5 C 281 538.0053 228.6182 583 164 583 C 99.3819 583 47 538.0053 47 482.5 Z" fill="#0033ff"/>		<path id="Ellipse2" d="M 12 388 C 12 295.215 87.1153 220 179.7773 220 C 272.4394 220 347.5547 295.215 347.5547 388 C 347.5547 480.785 272.4394 556 179.7773 556 C 87.1153 556 12 480.785 12 388 Z" stroke="#666666" stroke-width="2" fill="#ffffff"/>		<path id="Ellipse3" d="M 21.3312 387.9283 C 21.3312 300.0451 92.4781 228.8038 180.2449 228.8038 C 268.0116 228.8038 339.1584 300.0451 339.1584 387.9283 C 339.1584 475.8115 268.0116 547.0529 180.2449 547.0529 C 92.4781 547.0529 21.3312 475.8115 21.3312 387.9283 Z" fill="url(#gradient1)"/>		<path opacity="0.4118" visibility="hidden" d="M 333.2714 393.6739 C 333.508 390.122 333.626 386.5403 333.626 382.9283 C 333.626 295.0451 262.4791 223.8038 174.7124 223.8038 C 88.4035 223.8038 18.1653 292.6955 15.8557 378.5603 C 63.112 402.2073 124.8676 416.5283 192.4398 416.5283 C 244.0703 416.5283 292.3062 408.1668 333.2714 393.6739 Z" fill="#333333"/>		<path id="Ellipse4" d="M 32.2599 323.9698 C 32.2599 297.3598 53.8024 275.7887 80.3772 275.7887 C 106.952 275.7887 128.4945 297.3598 128.4945 323.9698 C 128.4945 350.5799 106.952 372.1509 80.3772 372.1509 C 53.8024 372.1509 32.2599 350.5799 32.2599 323.9698 Z" fill="#ffffff"/>		<path id="Ellipse5" d="M 151.2868 392.4377 C 151.2868 379.1327 162.0581 368.3472 175.3455 368.3472 C 188.6329 368.3472 199.4041 379.1327 199.4041 392.4377 C 199.4041 405.7427 188.6329 416.5283 175.3455 416.5283 C 162.0581 416.5283 151.2868 405.7427 151.2868 392.4377 Z" fill="#f2f2f2"/>		<path id="Ellipse6" d="M 452 396 C 452 303.215 527.1153 228 619.7773 228 C 712.4394 228 787.5547 303.215 787.5547 396 C 787.5547 488.785 712.4394 564 619.7773 564 C 527.1153 564 452 488.785 452 396 Z" stroke="#666666" stroke-width="2" fill="#ffffff"/>		<path id="Ellipse7" d="M 458.3312 390.9283 C 458.3312 303.0451 529.4781 231.8038 617.2449 231.8038 C 705.0116 231.8038 776.1584 303.0451 776.1584 390.9283 C 776.1584 478.8115 705.0116 550.0529 617.2449 550.0529 C 529.4781 550.0529 458.3312 478.8115 458.3312 390.9283 Z" fill="url(#gradient2)"/>		<path opacity="0.0902" d="M 775.2714 417.6739 C 775.5079 414.122 775.626 410.5403 775.626 406.9283 C 775.626 319.0451 704.4791 247.8038 616.7124 247.8038 C 530.4036 247.8038 460.1653 316.6955 457.8557 402.5603 C 505.1119 426.2073 566.8677 440.5283 634.4398 440.5283 C 686.0703 440.5283 734.3062 432.1668 775.2714 417.6739 Z" fill="#ffffff"/>		<path opacity="0.0902" d="M 338.2714 407.6739 C 338.5079 404.122 338.626 400.5403 338.626 396.9283 C 338.626 309.0451 267.4791 237.8038 179.7124 237.8038 C 93.4036 237.8038 23.1653 306.6955 20.8557 392.5603 C 68.1119 416.2073 129.8677 430.5283 197.4398 430.5283 C 249.0703 430.5283 297.3062 422.1668 338.2714 407.6739 Z" fill="#ffffff"/>		<path id="Ellipse8" d="M 472.2599 331.9698 C 472.2599 305.3598 493.8024 283.7887 520.3772 283.7887 C 546.952 283.7887 568.4944 305.3598 568.4944 331.9698 C 568.4944 358.5799 546.952 380.1509 520.3772 380.1509 C 493.8024 380.1509 472.2599 358.5799 472.2599 331.9698 Z" fill="#ffffff"/>		<path id="Ellipse9" d="M 591.2869 400.4377 C 591.2869 387.1327 602.0581 376.3472 615.3455 376.3472 C 628.6329 376.3472 639.4041 387.1327 639.4041 400.4377 C 639.4041 413.7427 628.6329 424.5283 615.3455 424.5283 C 602.0581 424.5283 591.2869 413.7427 591.2869 400.4377 Z" fill="#ffffff"/>		<path d="M 387 639 C 387 639 476.923 635.0769 505 577 C 505 577 423.0769 636.6154 385 627 L 281 570 C 281 570 351.6923 636 387 639 Z" fill="#666666"/>		<path d="M 354.4746 736.0657 C 352.0731 747.5396 354.8774 759.2575 361.6374 769.8848 C 378.8322 758.389 404.611 753.9451 431.4716 759.6754 C 458.2291 765.3835 479.7534 779.8469 490.6384 797.1735 C 500.9185 790.2466 508.0731 780.7657 510.4747 769.4252 C 516.8376 739.3776 487.3813 707.4549 444.4367 698.0952 C 401.2257 688.6774 360.8376 705.6647 354.4746 736.0657 Z" fill="#000000"/>		<path d="M -9 222 C -9 222 60.9231 281.5385 212 171 C 212 171 123.5385 342 -9 222 Z" fill="#000000"/>		<path d="M 804 235 C 804 235 734.0769 294.5385 583 184 C 583 184 671.4615 355 804 235 Z" fill="#000000"/>		<path id="Ellipse10" d="M 116 580.5 C 116 566.9689 129.4312 556 146 556 C 162.5688 556 176 566.9689 176 580.5 C 176 594.0311 162.5688 605 146 605 C 129.4312 605 116 594.0311 116 580.5 Z" fill="#0033ff"/>		<rect x="-1" y="-72" width="800" height="224" fill="#000000" rx="26.88" ry="26.88"/>		<g>			<path d="M 326.5 66 L 326.9063 66 C 329.2813 66 331.2969 67.0469 332.9844 69.1094 C 334.6563 71.1719 335.5 73.6719 335.5 76.5938 C 335.5 79.5313 334.6563 82.0469 332.9844 84.1094 C 331.2969 86.1719 329.2813 87.2031 326.9063 87.2031 L 326.5 87.2031 L 326.5 66 L 326.5 66 ZM 337.1875 88.8594 C 340.7188 85.5625 342.5 81.5781 342.5 76.8906 C 342.5 72.2344 340.9063 68.2656 337.7344 64.9531 C 334.5469 61.6563 330.7188 60 326.2188 60 L 319.5 60 L 319.5 103 L 326.5 103 L 326.5 93.7656 L 326.9531 93.7656 C 328.5313 93.7656 330.0313 93.5313 331.4531 93.0625 L 335.6719 103 L 342.0313 103 L 335.5 90.25 C 336.0781 89.8281 336.6406 89.3594 337.1875 88.8594 L 337.1875 88.8594 Z" fill="#ffffff"/>			<path d="M 351.5 103 L 358.5 103 L 358.5 60 L 351.5 60 L 351.5 103 L 351.5 103 Z" fill="#ffffff"/>			<path d="M 389.1875 96.3125 C 387.0938 96.3125 385.1406 95.9375 383.2969 95.1563 C 381.4531 94.3906 379.8594 93.3281 378.5 91.9688 C 377.125 90.625 376.0625 89.0313 375.2813 87.2031 C 374.5 85.375 374.1094 83.4063 374.1094 81.3125 C 374.1094 79.2344 374.5 77.2813 375.2813 75.4531 C 376.0625 73.625 377.125 72.0313 378.5 70.6719 C 379.8594 69.3281 381.4531 68.2656 383.2969 67.5 C 385.1406 66.7344 387.0938 66.3438 389.1875 66.3438 C 391.25 66.3438 393.2031 66.7344 395.0469 67.4844 C 395.8438 67.8281 396.6094 68.2188 397.3438 68.6563 L 397.3438 61.0781 C 394.7969 60.0781 392.0781 59.5781 389.1875 59.5781 C 386.0938 59.5781 383.2188 60.1563 380.5469 61.2813 C 377.8594 62.4219 375.5156 63.9688 373.5156 65.9219 C 371.5 67.875 369.9063 70.1875 368.75 72.8438 C 367.5938 75.5156 367.0156 78.3438 367.0156 81.3125 C 367.0156 84.3281 367.5938 87.1563 368.75 89.7813 C 369.9063 92.4063 371.5 94.7031 373.5156 96.6563 C 375.5156 98.6094 377.8594 100.1563 380.5469 101.2969 C 383.2188 102.4375 386.0938 103 389.1875 103 C 392.0781 103 394.7969 102.5 397.3438 101.4688 L 397.3438 82.375 L 387.1719 82.375 L 387.1719 88.9375 L 391.7188 88.9375 L 391.7188 96.1094 C 390.8906 96.25 390.0469 96.3125 389.1875 96.3125 L 389.1875 96.3125 Z" fill="#ffffff"/>			<path d="M 433.5 60 L 426.5 60 L 426.5 82 L 413.5 82 L 413.5 60 L 406.5 60 L 406.5 103 L 413.5 103 L 413.5 89 L 426.5 89 L 426.5 103 L 433.5 103 L 433.5 60 L 433.5 60 Z" fill="#ffffff"/>			<path d="M 442.7188 67 L 453.5 67 L 453.5 103 L 460.5 103 L 460.5 67 L 471.2813 67 L 471.2813 60 L 442.7188 60 L 442.7188 67 L 442.7188 67 Z" fill="#ffffff"/>			<path d="M 498.9375 78.125 C 501.8594 76.3125 503.2188 73.1875 503 68.7188 C 503 63.5938 501.125 60.3125 497.375 58.9063 C 495.6406 58.2813 493.8906 57.9688 492.125 57.9688 C 490.0156 57.9688 488 58.4219 486.0625 59.3125 C 482.5938 61 480.3594 64.125 479.3281 68.6875 L 484.6875 71.0938 C 486.8281 67.3438 489.2188 65.4688 491.875 65.4688 C 494.5313 65.4688 496.0469 66.75 496.4375 69.3125 C 496.3906 71.75 494.8906 74.125 491.9375 76.4219 C 488.9688 78.7188 487.5 81.9375 487.5 86.0938 L 487.5 90.7813 L 495.5 90.7813 C 494.875 84.1563 496.0156 79.9375 498.9375 78.125 L 498.9375 78.125 ZM 488.5 96 L 488.5 103 L 494.5 103 L 494.5 96 L 488.5 96 L 488.5 96 Z" fill="#ffffff"/>		</g>		<path d="M 720 144 L 724 228 L 778 124 L 720 144 Z" fill="#000000"/>		<rect x="348" y="360" width="104" height="28" fill="#000000"/>		<rect x="-1" y="366" width="17" height="16" fill="#000000"/>		<rect x="782" y="356" width="17" height="20" fill="#000000"/>	</g></svg>