<?xml version="1.0" standalone="no"?><!-- Generator: Adobe Fireworks CS5, Export SVG Extension by Aaron Beall (http://fireworks.abeall.com) . Version: 0.6.1  --><!DOCTYPE svg PUBLIC "-//W3C//DTD SVG 1.1//EN" "http://www.w3.org/Graphics/SVG/1.1/DTD/svg11.dtd"><svg id="morris_ch02p07-Page%201" viewBox="0 0 800 800" style="background-color:#ffffff" version="1.1"	xmlns="http://www.w3.org/2000/svg" xmlns:xlink="http://www.w3.org/1999/xlink" xml:space="preserve"	x="0px" y="0px" width="800px" height="800px">	<g id="Layer%201">		<rect x="0" y="0" width="800" height="800" fill="#0d111d"/>		<path d="M 0 283.665 L 0 800 L 800 800 L 800 200.11 L 0 283.665 Z" fill="#45527c"/>		<rect x="0" y="650" width="800" height="150" fill="#2b345d"/>		<path d="M 517.5 563 C 502.8643 563 491 574.8643 491 589.5 C 491 604.1357 502.8643 616 517.5 616 L 615.51 616 C 616.6298 619.2478 618.1209 622.4363 620 625.5 C 632.7027 646.2109 658.222 653.3743 677 641.5 C 695.778 629.6257 700.7027 603.2109 688 582.5 C 676.2419 563.3293 653.5044 555.7667 635.295 564.165 C 632.831 563.408 630.2122 563 627.5 563 L 517.5 563 Z" fill="#ffffff"/>		<path id="Ellipse" d="M -0.1052 627.0363 C -0.1052 526.6317 113.7077 434.936 254.107 434.936 C 394.5064 434.936 508.3193 516.3276 508.3193 616.732 C 508.3193 717.1365 394.5064 798.528 254.107 798.528 C 113.7077 798.528 -0.1052 767.6153 -0.1052 627.0363 Z" fill="#ffcc00"/>		<path id="Ellipse2" d="M 187.9487 643.9087 C 187.9487 554.4796 263.824 481.985 357.4236 481.985 C 451.0231 481.985 526.8984 554.4796 526.8984 643.9087 C 526.8984 733.3378 487.1087 791.1121 361.8447 791.1121 C 227.7061 791.1121 187.9487 733.3378 187.9487 643.9087 Z" fill="#ffffff"/>		<path d="M 326.4675 788.6983 C 338.9946 790.0573 352.587 790.7519 367.3184 790.7519 C 492.5824 790.7519 532.3721 732.9777 532.3721 643.5485 C 532.3721 554.1193 456.4968 481.625 362.8972 481.625 C 353.7868 481.625 344.8413 482.3118 336.1203 483.6341 C 412.8658 499.0861 470.477 564.1526 470.477 642.0765 C 470.477 726.2925 435.1916 782.4389 326.4675 788.6983 Z" fill="#cccccc"/>		<rect x="246.0018" y="708.7334" width="436.2137" height="91.2666" fill="#ffcc00"/>		<path d="M 356.5289 664.5731 L 415.4767 664.5731 C 415.4767 664.5731 450.8453 671.9332 439.0557 741.1188 C 439.0557 741.1188 391.8975 764.6713 368.3184 741.1188 L 368.3184 701.3738 L 352.1077 702.846 L 356.5289 664.5731 Z" fill="#ffffff"/>		<path d="M 147.2642 480.569 C 147.2642 480.569 117.7904 464.3767 82.4217 471.7367 L 98.6323 482.0411 L 54.4214 480.569 L 47.053 483.5131 L 82.4217 502.6495 L 142.8432 511.4817 L 147.2642 480.569 Z" fill="#ffcc00"/>		<path d="M 104.5271 508.5376 C 104.5271 508.5376 75.0532 492.3454 39.6845 499.7054 L 55.8952 510.0096 L 11.6843 508.5376 L 4.3159 511.4817 L 39.6845 530.6181 L 100.106 539.4503 L 104.5271 508.5376 Z" fill="#ffcc00"/>		<path d="M 94.2112 535.0342 C 94.2112 535.0342 64.7373 518.8418 29.3686 526.202 L 45.5793 536.5062 L 1.3684 535.0342 L -6 537.9783 L 29.3686 557.1147 L 89.7901 565.9469 L 94.2112 535.0342 Z" fill="#ffcc00"/>		<path d="M 344.7393 667.517 L 416.9503 667.517 C 416.9503 667.517 433.8978 659.421 439.0557 707.2622 L 443.4768 707.2622 C 443.4768 707.2622 447.161 660.8931 418.424 661.6291 L 340.3181 661.6291 L 344.7393 667.517 Z" fill="#cccccc"/>		<path d="M 677.7941 708.7341 C 677.7941 708.7341 754.4263 696.9578 794.2161 747.007 C 834.0057 797.0559 792.7424 752.8949 792.7424 752.8949 C 792.7424 752.8949 760.321 733.7586 755.9 749.9509 C 755.9 749.9509 792.7424 763.1993 794.2161 779.3915 C 794.2161 779.3915 758.8475 754.367 752.9526 770.5595 C 752.9526 770.5595 785.374 777.9196 786.8476 795.5839 L 676.3206 800 L 677.7941 708.7341 Z" fill="#ffcc00"/>		<path d="M 195.8961 705.7899 L 263.686 711.678 L 281.3704 764.6713 C 281.3704 764.6713 251.8965 780.8636 246.0018 780.8636 C 240.107 780.8636 195.8961 773.5035 195.8961 773.5035 L 195.8961 705.7899 Z" fill="#ffcc00"/>		<path d="M 572.5872 800 L 677.7941 800 L 683.689 800 L 683.689 799.7645 L 788.3213 795.5839 C 786.8476 777.9196 754.4263 770.5595 754.4263 770.5595 C 760.321 754.367 795.6899 779.3915 795.6899 779.3915 C 794.2161 763.1993 757.3736 749.9509 757.3736 749.9509 C 761.7949 733.7586 794.2161 752.8949 794.2161 752.8949 C 794.2161 752.8949 835.4796 797.0559 795.6899 747.007 C 755.9 696.9578 679.2678 708.7341 679.2678 708.7341 L 580.1177 708.7341 C 572.7765 726.5031 568.7408 745.8716 568.7408 766.1433 C 568.7408 777.7698 570.0703 789.0992 572.5872 800 Z" fill="#ffffff"/>		<path d="M 39.6845 652.7966 C 39.6845 683.8525 133.6727 712.1855 225.37 717.5662 C 224.7455 715.137 201.0228 711.1508 200.2436 707.6667 C 116.705 702.6705 50.2398 679.2183 39.7066 651.8105 C 39.6911 652.1382 39.6845 652.4678 39.6845 652.7966 Z" fill="#c8a000"/>		<path d="M 533.3721 633.6603 C 533.3721 633.6603 537.0564 692.5417 528.951 707.2622 L 521.5825 708.7341 C 521.5825 708.7341 528.951 702.1099 533.3721 633.6603 Z" fill="#cccccc"/>		<path id="Ellipse3" d="M 653 607.5 C 648.0294 590.1028 652.5065 573.5376 663 570.5 C 673.4935 567.4624 686.0294 579.1028 691 596.5 C 695.9706 613.8972 691.4935 630.4624 681 633.5 C 670.5065 636.5376 657.9706 624.8972 653 607.5 Z" fill="#cccccc"/>		<path d="M 630 568 C 630 568 613 587 619 604 L 629 605 C 629 605 621 602 630 568 Z" fill="#cccccc"/>	</g>	<g id="head">		<path d="M 578.586 310.2178 C 578.586 310.2178 556.2613 243.2935 524.9353 231.0043 C 524.9353 231.0043 490.915 239.1079 484.3803 271.7143 " fill="#ffcc00"/>		<path d="M 294.1432 353.4161 C 294.1432 353.4161 297.2234 282.9315 323.9669 262.5044 C 323.9669 262.5044 358.9035 260.9441 374.1445 290.4989 " fill="#ffcc00"/>		<path d="M 270.4517 472.9814 C 265.3754 483.9538 246.2711 526.8358 248.8574 545.3017 L 273.7859 525.1289 L 263.182 568.3131 L 293.5547 547.3774 L 292.6924 580.8567 L 328.2769 565.0281 C 366.3917 594.9387 418.5533 609.9201 473.3145 602.2457 C 524.9022 595.0161 568.749 569.0892 597.4248 533.3054 L 638.3942 539.0808 L 628.3678 507.1274 L 663.3228 518.9081 L 641.2632 480.3015 L 670.7738 492.8449 C 668.4605 476.328 644.0898 445.7979 633.3229 432.986 C 633.2726 426.4498 632.7974 419.856 631.8698 413.2329 C 619.2165 322.8879 527.7153 261.0368 427.4933 275.0821 C 327.2716 289.1274 256.2851 373.75 268.9384 464.095 C 269.3576 467.0876 269.8618 470.0531 270.4517 472.9814 Z" fill="#cccccc"/>		<path d="M 269.4804 466.0464 C 264.4041 477.0189 245.2998 519.9008 247.8861 538.3668 L 272.8146 518.194 L 262.2107 561.3782 L 292.5835 540.4425 L 291.7212 573.9218 L 327.3056 558.0932 C 365.4204 588.0037 417.582 602.9852 472.3433 595.3108 C 523.9309 588.0812 567.7776 562.1543 596.4536 526.3705 L 637.423 532.1459 L 627.3965 500.1925 L 662.3516 511.9731 L 640.2919 473.3665 L 669.8026 485.91 C 667.4892 469.3931 643.1185 438.863 632.3516 426.0511 C 632.3013 419.5149 631.8262 412.921 630.8986 406.298 C 618.2452 315.9529 526.744 254.1018 426.522 268.1472 C 326.3004 282.1925 255.3138 366.8151 267.9672 457.1601 C 268.3863 460.1527 268.8905 463.1182 269.4804 466.0464 Z" fill="#ffcc00"/>		<path d="M 269.4804 466.0464 C 264.4041 477.0189 245.2998 519.9008 247.8861 538.3668 L 272.8146 518.194 L 262.2107 561.3782 L 292.5835 540.4425 L 291.7212 573.9218 L 327.3056 558.0932 C 365.4204 588.0037 417.582 602.9852 472.3433 595.3108 C 523.9309 588.0812 567.7776 562.1543 596.4536 526.3705 L 637.423 532.1459 L 627.3965 500.1925 L 662.3516 511.9731 L 640.2919 473.3665 L 669.8026 485.91 C 667.4892 469.3931 643.1185 438.863 632.3516 426.0511 L 632.3412 425.3853 L 570 406 L 496 414 L 422 356 L 266.8108 445.8635 C 267.0511 449.6165 267.4381 453.3823 267.9672 457.1601 C 268.3863 460.1527 268.8905 463.1182 269.4804 466.0464 Z" fill="#ffffff"/>		<path d="M 360.2963 284.0999 C 360.2963 284.0999 348.2446 264.1058 335.771 267.5218 C 335.771 267.5218 312.8861 289.0761 317.2391 320.1568 " fill="#ffffff"/>		<path d="M 502.2978 267.5353 C 502.2978 267.5353 508.3925 244.9981 521.3242 244.8538 C 521.3242 244.8538 549.2498 259.2874 553.6028 290.3679 " fill="#ffffff"/>		<g>			<path d="M 397.1739 405.2126 C 395.5923 393.9194 404.465 383.3416 416.9933 381.5858 C 429.5211 379.8302 440.9586 387.5616 442.5403 398.8548 C 444.1219 410.1479 435.2488 420.7257 422.721 422.4814 C 410.1927 424.2371 398.7556 416.5057 397.1739 405.2126 Z" fill="#000000"/>			<path opacity="0.6588" d="M 418.5736 420.7442 C 420.4364 420.9079 422.358 420.8643 424.3064 420.5912 C 436.8344 418.8355 445.7076 408.2578 444.1259 396.9646 C 443.8799 395.2083 443.3951 393.5382 442.7058 391.9765 C 440.843 391.8128 438.9211 391.8563 436.9724 392.1294 C 424.445 393.885 415.5715 404.463 417.1532 415.7561 C 417.3991 417.5124 417.8839 419.1825 418.5736 420.7442 Z" fill="#666666"/>			<path d="M 401.7011 397.9065 C 401.1317 393.8409 404.3264 390.0328 408.8363 389.4008 C 413.3467 388.7687 417.4641 391.5521 418.0335 395.6176 C 418.6029 399.683 415.4086 403.491 410.8983 404.1231 C 406.3883 404.7552 402.2705 401.9719 401.7011 397.9065 Z" fill="#ffffff"/>		</g>		<g>			<path d="M 529.1138 386.4167 C 527.5321 375.1236 536.4052 364.5459 548.933 362.7902 C 561.4604 361.0346 572.8986 368.7658 574.4803 380.059 C 576.062 391.3521 567.188 401.93 554.6606 403.6856 C 542.1328 405.4413 530.6954 397.7099 529.1138 386.4167 Z" fill="#000000"/>			<path opacity="0.6588" d="M 548.9278 403.8386 C 550.79 404.0023 552.712 403.9587 554.6606 403.6856 C 567.1888 401.9299 576.062 391.3521 574.4803 380.059 C 574.2343 378.3027 573.7492 376.6325 573.0598 375.0707 C 571.1967 374.9073 569.2756 374.9506 567.327 375.2237 C 554.7988 376.9794 545.9255 387.5573 547.5072 398.8503 C 547.7532 400.6067 548.2383 402.2768 548.9278 403.8386 Z" fill="#666666"/>			<path d="M 533.4118 377.4748 C 532.8424 373.4093 536.0365 369.6013 540.5472 368.9691 C 545.0572 368.3371 549.1745 371.1205 549.7439 375.1859 C 550.3133 379.2516 547.1192 383.0595 542.6092 383.6915 C 538.0984 384.3237 533.9812 381.5404 533.4118 377.4748 Z" fill="#ffffff"/>		</g>		<path d="M 469.9123 440.5344 C 472.4498 454.0915 498.27 461.5792 502.3833 461.0027 C 506.8944 460.3705 529.2659 446.1291 527.9818 432.3964 L 469.9123 440.5344 Z" fill="#000000"/>		<path d="M 467.1268 446.4572 L 376.3758 445.8318 " stroke="#cccccc" stroke-width="6" fill="none"/>		<path d="M 479.6849 460.4132 L 377.8537 486.3596 " stroke="#cccccc" stroke-width="6" fill="none"/>		<path d="M 530.9696 435.1373 L 610.567 408.9711 " stroke="#cccccc" stroke-width="6" fill="none"/>		<path d="M 533.9352 445.4341 L 647.6076 451.1867 " stroke="#cccccc" stroke-width="6" fill="none"/>		<path id="Ellipse4" d="M 499.3221 522.4863 C 498.0193 513.1846 503.3975 504.7426 511.3348 503.6302 C 519.2722 502.5179 526.7625 509.1564 528.0652 518.4581 C 529.368 527.7598 523.9898 536.2018 516.0524 537.3141 C 508.1151 538.4265 500.6248 531.788 499.3221 522.4863 Z" fill="#000000"/>	</g>	<g id="Text">		<path opacity="0.4392" d="M 69.2 20 C 61.9097 20 56 25.9097 56 33.2 L 56 72.8 C 56 80.0903 61.9097 86 69.2 86 L 81.955 86 L 188 354 L 116.145 86 L 430 86 L 430 107 L 164.4 107 C 156.447 107 150 113.447 150 121.4 L 150 164.6 C 150 172.553 156.447 179 164.4 179 L 476 179 L 476 204 L 245 204 C 240.5817 204 237 207.5817 237 212 L 237 236 C 237 240.4183 240.5817 244 245 244 L 775 244 C 779.4183 244 783 240.4183 783 236 L 783 212 C 783 207.5817 779.4183 204 775 204 L 490 204 L 490 179 L 717.6 179 C 725.553 179 732 172.553 732 164.6 L 732 121.4 C 732 113.447 725.553 107 717.6 107 L 444 107 L 444 86 L 670.8 86 C 678.0903 86 684 80.0903 684 72.8 L 684 33.2 C 684 25.9097 678.0903 20 670.8 20 L 69.2 20 Z" fill="#000000"/>		<g>			<path d="M 90.5 61 L 93.5 61 L 93.5 42 L 90.5 42 L 90.5 61 L 90.5 61 Z" fill="#ffffff"/>			<path d="M 98.0313 46.6094 L 98.0313 47 L 99.5156 47 L 102.1563 40.3906 L 102.1563 40 L 99.5156 40 L 98.0313 46.6094 L 98.0313 46.6094 Z" fill="#ffffff"/>			<path d="M 108.875 45.7969 L 106.0313 41.4531 L 106.0313 61 L 108.875 61 L 108.875 51.0156 L 113.0781 57.4688 L 117.2969 51.0156 L 117.2969 61 L 120.1406 61 L 120.1406 41.4531 L 117.2969 45.7969 L 113.0781 52.2656 L 108.875 45.7969 L 108.875 45.7969 Z" fill="#ffffff"/>			<path d="M 134.0313 41.4531 L 134.0313 61 L 136.875 61 L 136.875 50.0938 L 145.5313 61.8281 L 145.5313 42.2031 L 142.6875 42.2031 L 142.6875 53.2031 L 134.0313 41.4531 L 134.0313 41.4531 Z" fill="#ffffff"/>			<path d="M 167.4688 47.9375 C 166.9688 46.7813 166.2813 45.7813 165.4063 44.9375 C 164.5313 44.0938 163.5156 43.4219 162.3594 42.9219 C 161.2031 42.4375 159.9531 42.1875 158.6406 42.1875 C 157.2969 42.1875 156.0469 42.4375 154.8906 42.9219 C 153.7344 43.4219 152.7188 44.0938 151.8438 44.9375 C 150.9688 45.7813 150.2813 46.7813 149.7813 47.9375 C 149.2813 49.0938 149.0313 50.3125 149.0313 51.6094 C 149.0313 52.9219 149.2813 54.1406 149.7813 55.2656 C 150.2813 56.4063 150.9688 57.4063 151.8438 58.25 C 152.7188 59.0938 153.7344 59.7656 154.8906 60.2656 C 156.0469 60.7656 157.2969 61 158.6406 61 C 159.9531 61 161.2031 60.7656 162.3594 60.2656 C 163.5156 59.7656 164.5313 59.0938 165.4063 58.25 C 166.2813 57.4063 166.9688 56.4063 167.4688 55.2656 C 167.9688 54.1406 168.2344 52.9219 168.2344 51.6094 C 168.2344 50.3125 167.9688 49.0938 167.4688 47.9375 L 167.4688 47.9375 ZM 152.5938 49.0625 C 152.9375 48.2813 153.4063 47.5938 154 47 C 154.5938 46.4063 155.2813 45.9531 156.0781 45.625 C 156.875 45.2969 157.7344 45.125 158.6406 45.125 C 159.5313 45.125 160.375 45.2969 161.1719 45.625 C 161.9531 45.9531 162.6406 46.4063 163.2344 47 C 163.8281 47.5938 164.2813 48.2813 164.625 49.0625 C 164.9688 49.8594 165.1406 50.7031 165.1406 51.6094 C 165.1406 52.5156 164.9688 53.375 164.625 54.1563 C 164.2813 54.9531 163.8281 55.6406 163.2344 56.2344 C 162.6406 56.8281 161.9531 57.2813 161.1719 57.6094 C 160.375 57.9531 159.5313 58.1094 158.6406 58.1094 C 157.7344 58.1094 156.875 57.9531 156.0781 57.6094 C 155.2813 57.2813 154.5938 56.8281 154 56.2344 C 153.4063 55.6406 152.9375 54.9531 152.5938 54.1563 C 152.25 53.375 152.0938 52.5156 152.0938 51.6094 C 152.0938 50.7031 152.25 49.8594 152.5938 49.0625 L 152.5938 49.0625 Z" fill="#ffffff"/>			<path d="M 169.8281 45 L 174.5 45 L 174.5 61 L 177.5 61 L 177.5 45 L 182.1719 45 L 182.1719 42 L 169.8281 42 L 169.8281 45 L 169.8281 45 Z" fill="#ffffff"/>			<path d="M 195.5 61 L 198.5 61 L 198.5 55 L 204.3125 55 L 204.3125 52 L 198.5 52 L 198.5 45 L 204.3125 45 L 204.3125 42 L 195.5 42 L 195.5 61 L 195.5 61 Z" fill="#ffffff"/>			<path d="M 226.4688 47.9375 C 225.9688 46.7813 225.2813 45.7813 224.4063 44.9375 C 223.5313 44.0938 222.5156 43.4219 221.3594 42.9219 C 220.2031 42.4375 218.9531 42.1875 217.6406 42.1875 C 216.2969 42.1875 215.0469 42.4375 213.8906 42.9219 C 212.7344 43.4219 211.7188 44.0938 210.8438 44.9375 C 209.9688 45.7813 209.2813 46.7813 208.7813 47.9375 C 208.2813 49.0938 208.0313 50.3125 208.0313 51.6094 C 208.0313 52.9219 208.2813 54.1406 208.7813 55.2656 C 209.2813 56.4063 209.9688 57.4063 210.8438 58.25 C 211.7188 59.0938 212.7344 59.7656 213.8906 60.2656 C 215.0469 60.7656 216.2969 61 217.6406 61 C 218.9531 61 220.2031 60.7656 221.3594 60.2656 C 222.5156 59.7656 223.5313 59.0938 224.4063 58.25 C 225.2813 57.4063 225.9688 56.4063 226.4688 55.2656 C 226.9688 54.1406 227.2344 52.9219 227.2344 51.6094 C 227.2344 50.3125 226.9688 49.0938 226.4688 47.9375 L 226.4688 47.9375 ZM 211.5938 49.0625 C 211.9375 48.2813 212.4063 47.5938 213 47 C 213.5938 46.4063 214.2813 45.9531 215.0781 45.625 C 215.875 45.2969 216.7344 45.125 217.6406 45.125 C 218.5313 45.125 219.375 45.2969 220.1719 45.625 C 220.9531 45.9531 221.6406 46.4063 222.2344 47 C 222.8281 47.5938 223.2813 48.2813 223.625 49.0625 C 223.9688 49.8594 224.1406 50.7031 224.1406 51.6094 C 224.1406 52.5156 223.9688 53.375 223.625 54.1563 C 223.2813 54.9531 222.8281 55.6406 222.2344 56.2344 C 221.6406 56.8281 220.9531 57.2813 220.1719 57.6094 C 219.375 57.9531 218.5313 58.1094 217.6406 58.1094 C 216.7344 58.1094 215.875 57.9531 215.0781 57.6094 C 214.2813 57.2813 213.5938 56.8281 213 56.2344 C 212.4063 55.6406 211.9375 54.9531 211.5938 54.1563 C 211.25 53.375 211.0938 52.5156 211.0938 51.6094 C 211.0938 50.7031 211.25 49.8594 211.5938 49.0625 L 211.5938 49.0625 Z" fill="#ffffff"/>			<path d="M 231.0313 61 L 240.375 61 L 240.375 58.1563 L 233.875 58.1563 L 233.875 42.3125 L 231.0313 42.3125 L 231.0313 61 L 231.0313 61 Z" fill="#ffffff"/>			<path d="M 244.0313 61 L 253.375 61 L 253.375 58.1563 L 246.875 58.1563 L 246.875 42.3125 L 244.0313 42.3125 L 244.0313 61 L 244.0313 61 Z" fill="#ffffff"/>			<path d="M 273.4688 47.9375 C 272.9688 46.7813 272.2813 45.7813 271.4063 44.9375 C 270.5313 44.0938 269.5156 43.4219 268.3594 42.9219 C 267.2031 42.4375 265.9531 42.1875 264.6406 42.1875 C 263.2969 42.1875 262.0469 42.4375 260.8906 42.9219 C 259.7344 43.4219 258.7188 44.0938 257.8438 44.9375 C 256.9688 45.7813 256.2813 46.7813 255.7813 47.9375 C 255.2813 49.0938 255.0313 50.3125 255.0313 51.6094 C 255.0313 52.9219 255.2813 54.1406 255.7813 55.2656 C 256.2813 56.4063 256.9688 57.4063 257.8438 58.25 C 258.7188 59.0938 259.7344 59.7656 260.8906 60.2656 C 262.0469 60.7656 263.2969 61 264.6406 61 C 265.9531 61 267.2031 60.7656 268.3594 60.2656 C 269.5156 59.7656 270.5313 59.0938 271.4063 58.25 C 272.2813 57.4063 272.9688 56.4063 273.4688 55.2656 C 273.9688 54.1406 274.2344 52.9219 274.2344 51.6094 C 274.2344 50.3125 273.9688 49.0938 273.4688 47.9375 L 273.4688 47.9375 ZM 258.5938 49.0625 C 258.9375 48.2813 259.4063 47.5938 260 47 C 260.5938 46.4063 261.2813 45.9531 262.0781 45.625 C 262.875 45.2969 263.7344 45.125 264.6406 45.125 C 265.5313 45.125 266.375 45.2969 267.1719 45.625 C 267.9531 45.9531 268.6406 46.4063 269.2344 47 C 269.8281 47.5938 270.2813 48.2813 270.625 49.0625 C 270.9688 49.8594 271.1406 50.7031 271.1406 51.6094 C 271.1406 52.5156 270.9688 53.375 270.625 54.1563 C 270.2813 54.9531 269.8281 55.6406 269.2344 56.2344 C 268.6406 56.8281 267.9531 57.2813 267.1719 57.6094 C 266.375 57.9531 265.5313 58.1094 264.6406 58.1094 C 263.7344 58.1094 262.875 57.9531 262.0781 57.6094 C 261.2813 57.2813 260.5938 56.8281 260 56.2344 C 259.4063 55.6406 258.9375 54.9531 258.5938 54.1563 C 258.25 53.375 258.0938 52.5156 258.0938 51.6094 C 258.0938 50.7031 258.25 49.8594 258.5938 49.0625 L 258.5938 49.0625 Z" fill="#ffffff"/>			<path d="M 276.0313 42.2188 L 282.2969 61.8125 L 285.8125 50.8125 L 289.3281 61.8125 L 295.5938 42.2188 L 292.6094 42.2188 L 289.3281 52.5 L 285.8125 41.4688 L 282.2969 52.5 L 279 42.2188 L 276.0313 42.2188 L 276.0313 42.2188 Z" fill="#ffffff"/>			<path d="M 298.5 61 L 301.5 61 L 301.5 42 L 298.5 42 L 298.5 61 L 298.5 61 Z" fill="#ffffff"/>			<path d="M 306.0313 41.4531 L 306.0313 61 L 308.875 61 L 308.875 50.0938 L 317.5313 61.8281 L 317.5313 42.2031 L 314.6875 42.2031 L 314.6875 53.2031 L 306.0313 41.4531 L 306.0313 41.4531 Z" fill="#ffffff"/>			<path d="M 330.6406 58.1094 C 329.7344 58.1094 328.875 57.9531 328.0781 57.6094 C 327.2813 57.2813 326.5938 56.8281 326 56.2344 C 325.4063 55.6406 324.9375 54.9531 324.5938 54.1563 C 324.25 53.375 324.0938 52.5156 324.0938 51.6094 C 324.0938 50.7031 324.25 49.8594 324.5938 49.0625 C 324.9375 48.2813 325.4063 47.5938 326 47 C 326.5938 46.4063 327.2813 45.9531 328.0781 45.625 C 328.875 45.2969 329.7344 45.125 330.6406 45.125 C 331.5313 45.125 332.375 45.2969 333.1719 45.6094 C 333.5156 45.7656 333.8438 45.9375 334.1563 46.125 L 334.1563 42.8281 C 333.0625 42.4063 331.8906 42.1875 330.6406 42.1875 C 329.2969 42.1875 328.0469 42.4375 326.8906 42.9219 C 325.7344 43.4219 324.7188 44.0938 323.8438 44.9375 C 322.9688 45.7813 322.2813 46.7813 321.7813 47.9375 C 321.2813 49.0938 321.0313 50.3125 321.0313 51.6094 C 321.0313 52.9219 321.2813 54.1406 321.7813 55.2656 C 322.2813 56.4063 322.9688 57.4063 323.8438 58.25 C 324.7188 59.0938 325.7344 59.7656 326.8906 60.2656 C 328.0469 60.7656 329.2969 61 330.6406 61 C 331.8906 61 333.0625 60.7813 334.1563 60.3438 L 334.1563 52.0625 L 329.7656 52.0625 L 329.7656 54.9063 L 331.7188 54.9063 L 331.7188 58.0156 C 331.3594 58.0781 331 58.1094 330.6406 58.1094 L 330.6406 58.1094 Z" fill="#ffffff"/>			<path d="M 353.5 56.125 L 353.5 61 L 356.5 61 L 356.5 56.125 L 361.4063 42 L 358.3906 42 L 355 52.7344 L 351.6094 42 L 348.6094 42 L 353.5 56.125 L 353.5 56.125 Z" fill="#ffffff"/>			<path d="M 380.4688 47.9375 C 379.9688 46.7813 379.2813 45.7813 378.4063 44.9375 C 377.5313 44.0938 376.5156 43.4219 375.3594 42.9219 C 374.2031 42.4375 372.9531 42.1875 371.6406 42.1875 C 370.2969 42.1875 369.0469 42.4375 367.8906 42.9219 C 366.7344 43.4219 365.7188 44.0938 364.8438 44.9375 C 363.9688 45.7813 363.2813 46.7813 362.7813 47.9375 C 362.2813 49.0938 362.0313 50.3125 362.0313 51.6094 C 362.0313 52.9219 362.2813 54.1406 362.7813 55.2656 C 363.2813 56.4063 363.9688 57.4063 364.8438 58.25 C 365.7188 59.0938 366.7344 59.7656 367.8906 60.2656 C 369.0469 60.7656 370.2969 61 371.6406 61 C 372.9531 61 374.2031 60.7656 375.3594 60.2656 C 376.5156 59.7656 377.5313 59.0938 378.4063 58.25 C 379.2813 57.4063 379.9688 56.4063 380.4688 55.2656 C 380.9688 54.1406 381.2344 52.9219 381.2344 51.6094 C 381.2344 50.3125 380.9688 49.0938 380.4688 47.9375 L 380.4688 47.9375 ZM 365.5938 49.0625 C 365.9375 48.2813 366.4063 47.5938 367 47 C 367.5938 46.4063 368.2813 45.9531 369.0781 45.625 C 369.875 45.2969 370.7344 45.125 371.6406 45.125 C 372.5313 45.125 373.375 45.2969 374.1719 45.625 C 374.9531 45.9531 375.6406 46.4063 376.2344 47 C 376.8281 47.5938 377.2813 48.2813 377.625 49.0625 C 377.9688 49.8594 378.1406 50.7031 378.1406 51.6094 C 378.1406 52.5156 377.9688 53.375 377.625 54.1563 C 377.2813 54.9531 376.8281 55.6406 376.2344 56.2344 C 375.6406 56.8281 374.9531 57.2813 374.1719 57.6094 C 373.375 57.9531 372.5313 58.1094 371.6406 58.1094 C 370.7344 58.1094 369.875 57.9531 369.0781 57.6094 C 368.2813 57.2813 367.5938 56.8281 367 56.2344 C 366.4063 55.6406 365.9375 54.9531 365.5938 54.1563 C 365.25 53.375 365.0938 52.5156 365.0938 51.6094 C 365.0938 50.7031 365.25 49.8594 365.5938 49.0625 L 365.5938 49.0625 Z" fill="#ffffff"/>			<path d="M 391.9063 57.1563 C 391.5156 57.7188 391.0469 58 390.5 58 C 389.9375 58 389.4688 57.7188 389.0781 57.1563 C 388.6875 56.5938 388.5 55.9219 388.5 55.1406 L 388.5 42 L 385.5 42 L 385.5 55.2344 C 385.5 56.8281 385.9844 58.1875 386.9688 59.3125 C 387.9375 60.4375 389.125 61 390.5 61 C 391.875 61 393.0625 60.4375 394.0313 59.3125 C 395 58.1875 395.5 56.8281 395.5 55.2344 L 395.5 42 L 392.5 42 L 392.5 55.1406 C 392.5 55.9219 392.2969 56.5938 391.9063 57.1563 L 391.9063 57.1563 Z" fill="#ffffff"/>			<path d="M 403.5 45 L 403.6719 45 C 404.7344 45 405.625 45.4531 406.375 46.3594 C 407.125 47.2656 407.5 48.3438 407.5 49.6094 C 407.5 50.875 407.125 51.9531 406.375 52.8594 C 405.625 53.7656 404.7344 54.2031 403.6719 54.2031 L 403.5 54.2031 L 403.5 45 L 403.5 45 ZM 408.2188 54.75 C 409.7344 53.2969 410.5 51.5313 410.5 49.4688 C 410.5 47.4063 409.7969 45.6563 408.4219 44.1875 C 407.0469 42.7344 405.375 42 403.4219 42 L 400.5 42 L 400.5 61 L 403.5 61 L 403.5 57 L 403.7031 57 C 404.3906 57 405.0469 56.9063 405.6719 56.7031 L 407.5156 61 L 410.2969 61 L 407.5 55.3594 C 407.75 55.1719 407.9844 54.9688 408.2188 54.75 L 408.2188 54.75 Z" fill="#ffffff"/>			<path d="M 424.0313 61 L 433.375 61 L 433.375 58.1563 L 426.875 58.1563 L 426.875 42.3125 L 424.0313 42.3125 L 424.0313 61 L 424.0313 61 Z" fill="#ffffff"/>			<path d="M 453.4688 47.9375 C 452.9688 46.7813 452.2813 45.7813 451.4063 44.9375 C 450.5313 44.0938 449.5156 43.4219 448.3594 42.9219 C 447.2031 42.4375 445.9531 42.1875 444.6406 42.1875 C 443.2969 42.1875 442.0469 42.4375 440.8906 42.9219 C 439.7344 43.4219 438.7188 44.0938 437.8438 44.9375 C 436.9688 45.7813 436.2813 46.7813 435.7813 47.9375 C 435.2813 49.0938 435.0313 50.3125 435.0313 51.6094 C 435.0313 52.9219 435.2813 54.1406 435.7813 55.2656 C 436.2813 56.4063 436.9688 57.4063 437.8438 58.25 C 438.7188 59.0938 439.7344 59.7656 440.8906 60.2656 C 442.0469 60.7656 443.2969 61 444.6406 61 C 445.9531 61 447.2031 60.7656 448.3594 60.2656 C 449.5156 59.7656 450.5313 59.0938 451.4063 58.25 C 452.2813 57.4063 452.9688 56.4063 453.4688 55.2656 C 453.9688 54.1406 454.2344 52.9219 454.2344 51.6094 C 454.2344 50.3125 453.9688 49.0938 453.4688 47.9375 L 453.4688 47.9375 ZM 438.5938 49.0625 C 438.9375 48.2813 439.4063 47.5938 440 47 C 440.5938 46.4063 441.2813 45.9531 442.0781 45.625 C 442.875 45.2969 443.7344 45.125 444.6406 45.125 C 445.5313 45.125 446.375 45.2969 447.1719 45.625 C 447.9531 45.9531 448.6406 46.4063 449.2344 47 C 449.8281 47.5938 450.2813 48.2813 450.625 49.0625 C 450.9688 49.8594 451.1406 50.7031 451.1406 51.6094 C 451.1406 52.5156 450.9688 53.375 450.625 54.1563 C 450.2813 54.9531 449.8281 55.6406 449.2344 56.2344 C 448.6406 56.8281 447.9531 57.2813 447.1719 57.6094 C 446.375 57.9531 445.5313 58.1094 444.6406 58.1094 C 443.7344 58.1094 442.875 57.9531 442.0781 57.6094 C 441.2813 57.2813 440.5938 56.8281 440 56.2344 C 439.4063 55.6406 438.9375 54.9531 438.5938 54.1563 C 438.25 53.375 438.0938 52.5156 438.0938 51.6094 C 438.0938 50.7031 438.25 49.8594 438.5938 49.0625 L 438.5938 49.0625 Z" fill="#ffffff"/>			<path d="M 467.6406 58.1094 C 466.7344 58.1094 465.875 57.9531 465.0781 57.6094 C 464.2813 57.2813 463.5938 56.8281 463 56.2344 C 462.4063 55.6406 461.9375 54.9531 461.5938 54.1563 C 461.25 53.375 461.0938 52.5156 461.0938 51.6094 C 461.0938 50.7031 461.25 49.8594 461.5938 49.0625 C 461.9375 48.2813 462.4063 47.5938 463 47 C 463.5938 46.4063 464.2813 45.9531 465.0781 45.625 C 465.875 45.2969 466.7344 45.125 467.6406 45.125 C 468.5313 45.125 469.375 45.2969 470.1719 45.6094 C 470.5156 45.7656 470.8438 45.9375 471.1563 46.125 L 471.1563 42.8281 C 470.0625 42.4063 468.8906 42.1875 467.6406 42.1875 C 466.2969 42.1875 465.0469 42.4375 463.8906 42.9219 C 462.7344 43.4219 461.7188 44.0938 460.8438 44.9375 C 459.9688 45.7813 459.2813 46.7813 458.7813 47.9375 C 458.2813 49.0938 458.0313 50.3125 458.0313 51.6094 C 458.0313 52.9219 458.2813 54.1406 458.7813 55.2656 C 459.2813 56.4063 459.9688 57.4063 460.8438 58.25 C 461.7188 59.0938 462.7344 59.7656 463.8906 60.2656 C 465.0469 60.7656 466.2969 61 467.6406 61 C 468.8906 61 470.0625 60.7813 471.1563 60.3438 L 471.1563 52.0625 L 466.7656 52.0625 L 466.7656 54.9063 L 468.7188 54.9063 L 468.7188 58.0156 C 468.3594 58.0781 468 58.1094 467.6406 58.1094 L 467.6406 58.1094 Z" fill="#ffffff"/>			<path d="M 474.5 61 L 477.5 61 L 477.5 42 L 474.5 42 L 474.5 61 L 474.5 61 Z" fill="#ffffff"/>			<path d="M 494.1719 57.5938 C 493.375 57.9375 492.5313 58.1094 491.6406 58.1094 C 490.7344 58.1094 489.875 57.9531 489.0781 57.6094 C 488.2813 57.2813 487.5938 56.8281 487 56.2344 C 486.4063 55.6406 485.9375 54.9531 485.5938 54.1563 C 485.25 53.375 485.0938 52.5156 485.0938 51.6094 C 485.0938 50.7031 485.25 49.8594 485.5938 49.0625 C 485.9375 48.2813 486.4063 47.5938 487 47 C 487.5938 46.4063 488.2813 45.9531 489.0781 45.625 C 489.875 45.2969 490.7344 45.125 491.6406 45.125 C 492.5313 45.125 493.375 45.2969 494.1719 45.6094 C 494.5156 45.7656 494.8438 45.9375 495.1563 46.125 L 495.1563 42.8281 C 494.0625 42.4063 492.8906 42.1875 491.6406 42.1875 C 490.2969 42.1875 489.0469 42.4375 487.8906 42.9219 C 486.7344 43.4219 485.7188 44.0938 484.8438 44.9375 C 483.9688 45.7813 483.2813 46.7813 482.7813 47.9375 C 482.2813 49.0938 482.0313 50.3125 482.0313 51.6094 C 482.0313 52.9219 482.2813 54.1406 482.7813 55.2656 C 483.2813 56.4063 483.9688 57.4063 484.8438 58.25 C 485.7188 59.0938 486.7344 59.7656 487.8906 60.2656 C 489.0469 60.7656 490.2969 61 491.6406 61 C 492.8906 61 494.0625 60.7813 495.1563 60.3438 L 495.1563 57.0938 C 494.8438 57.2813 494.5156 57.4531 494.1719 57.5938 L 494.1719 57.5938 Z" fill="#ffffff"/>			<path d="M 527.4688 47.9375 C 526.9688 46.7813 526.2813 45.7813 525.4063 44.9375 C 524.5313 44.0938 523.5156 43.4219 522.3594 42.9219 C 521.2031 42.4375 519.9531 42.1875 518.6406 42.1875 C 517.2969 42.1875 516.0469 42.4375 514.8906 42.9219 C 513.7344 43.4219 512.7188 44.0938 511.8438 44.9375 C 510.9688 45.7813 510.2813 46.7813 509.7813 47.9375 C 509.2813 49.0938 509.0313 50.3125 509.0313 51.6094 C 509.0313 52.9219 509.2813 54.1406 509.7813 55.2656 C 510.2813 56.4063 510.9688 57.4063 511.8438 58.25 C 512.7188 59.0938 513.7344 59.7656 514.8906 60.2656 C 516.0469 60.7656 517.2969 61 518.6406 61 C 519.9531 61 521.2031 60.7656 522.3594 60.2656 C 523.5156 59.7656 524.5313 59.0938 525.4063 58.25 C 526.2813 57.4063 526.9688 56.4063 527.4688 55.2656 C 527.9688 54.1406 528.2344 52.9219 528.2344 51.6094 C 528.2344 50.3125 527.9688 49.0938 527.4688 47.9375 L 527.4688 47.9375 ZM 512.5938 49.0625 C 512.9375 48.2813 513.4063 47.5938 514 47 C 514.5938 46.4063 515.2813 45.9531 516.0781 45.625 C 516.875 45.2969 517.7344 45.125 518.6406 45.125 C 519.5313 45.125 520.375 45.2969 521.1719 45.625 C 521.9531 45.9531 522.6406 46.4063 523.2344 47 C 523.8281 47.5938 524.2813 48.2813 524.625 49.0625 C 524.9688 49.8594 525.1406 50.7031 525.1406 51.6094 C 525.1406 52.5156 524.9688 53.375 524.625 54.1563 C 524.2813 54.9531 523.8281 55.6406 523.2344 56.2344 C 522.6406 56.8281 521.9531 57.2813 521.1719 57.6094 C 520.375 57.9531 519.5313 58.1094 518.6406 58.1094 C 517.7344 58.1094 516.875 57.9531 516.0781 57.6094 C 515.2813 57.2813 514.5938 56.8281 514 56.2344 C 513.4063 55.6406 512.9375 54.9531 512.5938 54.1563 C 512.25 53.375 512.0938 52.5156 512.0938 51.6094 C 512.0938 50.7031 512.25 49.8594 512.5938 49.0625 L 512.5938 49.0625 Z" fill="#ffffff"/>			<path d="M 532.0313 61 L 541.375 61 L 541.375 58.1563 L 534.875 58.1563 L 534.875 42.3125 L 532.0313 42.3125 L 532.0313 61 L 532.0313 61 Z" fill="#ffffff"/>			<path d="M 548.7344 61 C 551.1406 61 553.2031 60.0781 554.9219 58.2188 C 556.6406 56.3594 557.5 54.125 557.5 51.5 C 557.5 48.875 556.6406 46.6406 554.9219 44.7813 C 553.2031 42.9375 551.1406 42 548.7344 42 L 545.5 42 L 545.5 61 L 548.7344 61 L 548.7344 61 ZM 549 45 C 550.5156 45 551.8125 45.6406 552.8906 46.9063 C 553.9531 48.1875 554.5 49.7188 554.5 51.5 C 554.5 53.2969 553.9531 54.8281 552.8906 56.0938 C 551.8125 57.375 550.5156 58 549 58 L 548.5 58 L 548.5 45 L 549 45 L 549 45 Z" fill="#ffffff"/>			<path d="M 578.4375 60.5938 C 579.1563 60.3125 579.7969 59.9063 580.3594 59.375 C 580.9219 58.8594 581.3594 58.2656 581.6719 57.5938 C 581.9844 56.9219 582.1406 56.2188 582.1406 55.4688 C 582.1094 54.6563 581.9844 53.9531 581.7344 53.3594 C 581.4844 52.7656 581.1406 52.2813 580.7344 51.8906 C 580.3125 51.5 579.8906 51.1875 579.4688 50.9375 C 579.0313 50.6875 578.4844 50.4063 577.8125 50.0781 C 576.8125 49.625 576.0938 49.2188 575.6563 48.8438 C 575.2188 48.4844 574.9844 47.9844 574.9688 47.3594 C 574.9688 46.7188 575.2344 46.1563 575.7969 45.6563 C 576.3438 45.1563 577.0156 44.9063 577.8125 44.8906 C 578.1563 44.8906 578.5 44.9375 578.8125 45.0313 C 579.125 45.125 579.4063 45.25 579.6563 45.375 C 579.8906 45.5 580.0781 45.5938 580.2188 45.6563 C 580.3438 45.7188 580.5938 45.8594 580.9531 46.0781 L 580.9531 43.1563 C 580.3594 42.7969 579.8281 42.5469 579.3594 42.4063 C 578.8906 42.2656 578.375 42.1875 577.8125 42.1563 C 577.0625 42.1563 576.3438 42.2969 575.6563 42.5469 C 574.9688 42.7969 574.375 43.1563 573.8438 43.625 C 573.3125 44.0938 572.875 44.625 572.5625 45.2344 C 572.25 45.8438 572.0781 46.5 572.0469 47.2188 C 572.0469 47.9375 572.1563 48.5781 572.4063 49.1094 C 572.6563 49.6563 572.9688 50.125 573.375 50.5 C 573.7813 50.8906 574.1875 51.2188 574.625 51.4844 C 575.0625 51.75 575.5938 52.0469 576.2188 52.3594 C 577.25 52.8906 578 53.3438 578.4531 53.75 C 578.9063 54.1563 579.1406 54.6875 579.1406 55.3438 C 579.1406 56.1406 578.8594 56.8281 578.3281 57.4063 C 577.7969 57.9844 577.1094 58.2656 576.2813 58.2656 C 575.875 58.2656 575.4531 58.2031 575.0469 58.0781 C 574.625 57.9531 574.25 57.7969 573.9063 57.6094 C 573.5625 57.4219 573.2656 57.25 573.0313 57.0781 C 572.7969 56.9219 572.4688 56.6094 572.0313 56.1406 L 572.0313 59.625 C 572.7344 60.1563 573.3906 60.5313 574.0156 60.7344 C 574.6406 60.9375 575.3594 61.0313 576.1719 61.0313 C 576.9531 61.0313 577.7188 60.8906 578.4375 60.5938 L 578.4375 60.5938 Z" fill="#ffffff"/>			<path d="M 589.7031 57 C 591.5781 57 593.1719 56.2813 594.5 54.8125 C 595.8281 53.3438 596.5 51.5781 596.5 49.5 C 596.5 47.4375 595.7969 45.6719 594.4219 44.2031 C 593.0469 42.7344 591.375 42 589.4219 42 L 586.5 42 L 586.5 61 L 589.5 61 L 589.5 57 L 589.7031 57 L 589.7031 57 ZM 589.5 45 L 589.6719 45 C 590.7344 45 591.625 45.4531 592.375 46.3281 C 593.125 47.2031 593.5 48.2656 593.5 49.5 C 593.5 50.75 593.125 51.8125 592.375 52.6875 C 591.625 53.5625 590.7344 54 589.6719 54 L 589.5 54 L 589.5 45 L 589.5 45 Z" fill="#ffffff"/>			<path d="M 618.4688 47.9375 C 617.9688 46.7813 617.2813 45.7813 616.4063 44.9375 C 615.5313 44.0938 614.5156 43.4219 613.3594 42.9219 C 612.2031 42.4375 610.9531 42.1875 609.6406 42.1875 C 608.2969 42.1875 607.0469 42.4375 605.8906 42.9219 C 604.7344 43.4219 603.7188 44.0938 602.8438 44.9375 C 601.9688 45.7813 601.2813 46.7813 600.7813 47.9375 C 600.2813 49.0938 600.0313 50.3125 600.0313 51.6094 C 600.0313 52.9219 600.2813 54.1406 600.7813 55.2656 C 601.2813 56.4063 601.9688 57.4063 602.8438 58.25 C 603.7188 59.0938 604.7344 59.7656 605.8906 60.2656 C 607.0469 60.7656 608.2969 61 609.6406 61 C 610.9531 61 612.2031 60.7656 613.3594 60.2656 C 614.5156 59.7656 615.5313 59.0938 616.4063 58.25 C 617.2813 57.4063 617.9688 56.4063 618.4688 55.2656 C 618.9688 54.1406 619.2344 52.9219 619.2344 51.6094 C 619.2344 50.3125 618.9688 49.0938 618.4688 47.9375 L 618.4688 47.9375 ZM 603.5938 49.0625 C 603.9375 48.2813 604.4063 47.5938 605 47 C 605.5938 46.4063 606.2813 45.9531 607.0781 45.625 C 607.875 45.2969 608.7344 45.125 609.6406 45.125 C 610.5313 45.125 611.375 45.2969 612.1719 45.625 C 612.9531 45.9531 613.6406 46.4063 614.2344 47 C 614.8281 47.5938 615.2813 48.2813 615.625 49.0625 C 615.9688 49.8594 616.1406 50.7031 616.1406 51.6094 C 616.1406 52.5156 615.9688 53.375 615.625 54.1563 C 615.2813 54.9531 614.8281 55.6406 614.2344 56.2344 C 613.6406 56.8281 612.9531 57.2813 612.1719 57.6094 C 611.375 57.9531 610.5313 58.1094 609.6406 58.1094 C 608.7344 58.1094 607.875 57.9531 607.0781 57.6094 C 606.2813 57.2813 605.5938 56.8281 605 56.2344 C 604.4063 55.6406 603.9375 54.9531 603.5938 54.1563 C 603.25 53.375 603.0938 52.5156 603.0938 51.6094 C 603.0938 50.7031 603.25 49.8594 603.5938 49.0625 L 603.5938 49.0625 Z" fill="#ffffff"/>			<path d="M 626.5 45 L 626.6719 45 C 627.7344 45 628.625 45.4531 629.375 46.3594 C 630.125 47.2656 630.5 48.3438 630.5 49.6094 C 630.5 50.875 630.125 51.9531 629.375 52.8594 C 628.625 53.7656 627.7344 54.2031 626.6719 54.2031 L 626.5 54.2031 L 626.5 45 L 626.5 45 ZM 631.2188 54.75 C 632.7344 53.2969 633.5 51.5313 633.5 49.4688 C 633.5 47.4063 632.7969 45.6563 631.4219 44.1875 C 630.0469 42.7344 628.375 42 626.4219 42 L 623.5 42 L 623.5 61 L 626.5 61 L 626.5 57 L 626.7031 57 C 627.3906 57 628.0469 56.9063 628.6719 56.7031 L 630.5156 61 L 633.2969 61 L 630.5 55.3594 C 630.75 55.1719 630.9844 54.9688 631.2188 54.75 L 631.2188 54.75 Z" fill="#ffffff"/>			<path d="M 635.8281 45 L 640.5 45 L 640.5 61 L 643.5 61 L 643.5 45 L 648.1719 45 L 648.1719 42 L 635.8281 42 L 635.8281 45 L 635.8281 45 Z" fill="#ffffff"/>		</g>		<g>			<path d="M 272.5625 230.4688 L 273.5469 233.0625 L 276.5938 233.0625 L 269.0625 213.4688 L 261.5313 233.0625 L 264.5781 233.0625 L 265.5781 230.4688 L 272.5625 230.4688 L 272.5625 230.4688 ZM 269.0625 221.3906 L 271.4688 227.625 L 266.6719 227.625 L 269.0625 221.3906 L 269.0625 221.3906 Z" fill="#ffffff"/>			<path d="M 280.5313 213.4531 L 280.5313 233 L 283.375 233 L 283.375 222.0938 L 292.0313 233.8281 L 292.0313 214.2031 L 289.1875 214.2031 L 289.1875 225.2031 L 280.5313 213.4531 L 280.5313 213.4531 Z" fill="#ffffff"/>			<path d="M 299.2344 233 C 301.6406 233 303.7031 232.0781 305.4219 230.2188 C 307.1406 228.3594 308 226.125 308 223.5 C 308 220.875 307.1406 218.6406 305.4219 216.7813 C 303.7031 214.9375 301.6406 214 299.2344 214 L 296 214 L 296 233 L 299.2344 233 L 299.2344 233 ZM 299.5 217 C 301.0156 217 302.3125 217.6406 303.3906 218.9063 C 304.4531 220.1875 305 221.7188 305 223.5 C 305 225.2969 304.4531 226.8281 303.3906 228.0938 C 302.3125 229.375 301.0156 230 299.5 230 L 299 230 L 299 217 L 299.5 217 L 299.5 217 Z" fill="#ffffff"/>			<path d="M 328 228.125 L 328 233 L 331 233 L 331 228.125 L 335.9063 214 L 332.8906 214 L 329.5 224.7344 L 326.1094 214 L 323.1094 214 L 328 228.125 L 328 228.125 Z" fill="#ffffff"/>			<path d="M 354.9688 219.9375 C 354.4688 218.7813 353.7813 217.7813 352.9063 216.9375 C 352.0313 216.0938 351.0156 215.4219 349.8594 214.9219 C 348.7031 214.4375 347.4531 214.1875 346.1406 214.1875 C 344.7969 214.1875 343.5469 214.4375 342.3906 214.9219 C 341.2344 215.4219 340.2188 216.0938 339.3438 216.9375 C 338.4688 217.7813 337.7813 218.7813 337.2813 219.9375 C 336.7813 221.0938 336.5313 222.3125 336.5313 223.6094 C 336.5313 224.9219 336.7813 226.1406 337.2813 227.2656 C 337.7813 228.4063 338.4688 229.4063 339.3438 230.25 C 340.2188 231.0938 341.2344 231.7656 342.3906 232.2656 C 343.5469 232.7656 344.7969 233 346.1406 233 C 347.4531 233 348.7031 232.7656 349.8594 232.2656 C 351.0156 231.7656 352.0313 231.0938 352.9063 230.25 C 353.7813 229.4063 354.4688 228.4063 354.9688 227.2656 C 355.4688 226.1406 355.7344 224.9219 355.7344 223.6094 C 355.7344 222.3125 355.4688 221.0938 354.9688 219.9375 L 354.9688 219.9375 ZM 340.0938 221.0625 C 340.4375 220.2813 340.9063 219.5938 341.5 219 C 342.0938 218.4063 342.7813 217.9531 343.5781 217.625 C 344.375 217.2969 345.2344 217.125 346.1406 217.125 C 347.0313 217.125 347.875 217.2969 348.6719 217.625 C 349.4531 217.9531 350.1406 218.4063 350.7344 219 C 351.3281 219.5938 351.7813 220.2813 352.125 221.0625 C 352.4688 221.8594 352.6406 222.7031 352.6406 223.6094 C 352.6406 224.5156 352.4688 225.375 352.125 226.1563 C 351.7813 226.9531 351.3281 227.6406 350.7344 228.2344 C 350.1406 228.8281 349.4531 229.2813 348.6719 229.6094 C 347.875 229.9531 347.0313 230.1094 346.1406 230.1094 C 345.2344 230.1094 344.375 229.9531 343.5781 229.6094 C 342.7813 229.2813 342.0938 228.8281 341.5 228.2344 C 340.9063 227.6406 340.4375 226.9531 340.0938 226.1563 C 339.75 225.375 339.5938 224.5156 339.5938 223.6094 C 339.5938 222.7031 339.75 221.8594 340.0938 221.0625 L 340.0938 221.0625 Z" fill="#ffffff"/>			<path d="M 366.4063 229.1563 C 366.0156 229.7188 365.5469 230 365 230 C 364.4375 230 363.9688 229.7188 363.5781 229.1563 C 363.1875 228.5938 363 227.9219 363 227.1406 L 363 214 L 360 214 L 360 227.2344 C 360 228.8281 360.4844 230.1875 361.4688 231.3125 C 362.4375 232.4375 363.625 233 365 233 C 366.375 233 367.5625 232.4375 368.5313 231.3125 C 369.5 230.1875 370 228.8281 370 227.2344 L 370 214 L 367 214 L 367 227.1406 C 367 227.9219 366.7969 228.5938 366.4063 229.1563 L 366.4063 229.1563 Z" fill="#ffffff"/>			<path d="M 384.3281 217 L 389 217 L 389 233 L 392 233 L 392 217 L 396.6719 217 L 396.6719 214 L 384.3281 214 L 384.3281 217 L 384.3281 217 Z" fill="#ffffff"/>			<path d="M 412 214 L 409 214 L 409 224 L 404 224 L 404 214 L 401 214 L 401 233 L 404 233 L 404 227 L 409 227 L 409 233 L 412 233 L 412 214 L 412 214 Z" fill="#ffffff"/>			<path d="M 416 233 L 419 233 L 419 214 L 416 214 L 416 233 L 416 233 Z" fill="#ffffff"/>			<path d="M 423.5313 213.4531 L 423.5313 233 L 426.375 233 L 426.375 222.0938 L 435.0313 233.8281 L 435.0313 214.2031 L 432.1875 214.2031 L 432.1875 225.2031 L 423.5313 213.4531 L 423.5313 213.4531 Z" fill="#ffffff"/>			<path d="M 446.2813 214 L 441 223.1719 L 441 214 L 438 214 L 438 232.9688 L 441 233 L 441 228.8906 L 443.4375 224.6875 L 446.25 233 L 449.2813 233 L 445.3281 221.375 L 449.5781 214 L 446.2813 214 L 446.2813 214 Z" fill="#ffffff"/>			<path d="M 463.3281 217 L 468 217 L 468 233 L 471 233 L 471 217 L 475.6719 217 L 475.6719 214 L 463.3281 214 L 463.3281 217 L 463.3281 217 Z" fill="#ffffff"/>			<path d="M 491 214 L 488 214 L 488 224 L 483 224 L 483 214 L 480 214 L 480 233 L 483 233 L 483 227 L 488 227 L 488 233 L 491 233 L 491 214 L 491 214 Z" fill="#ffffff"/>			<path d="M 506.5625 230.4688 L 507.5469 233.0625 L 510.5938 233.0625 L 503.0625 213.4688 L 495.5313 233.0625 L 498.5781 233.0625 L 499.5781 230.4688 L 506.5625 230.4688 L 506.5625 230.4688 ZM 503.0625 221.3906 L 505.4688 227.625 L 500.6719 227.625 L 503.0625 221.3906 L 503.0625 221.3906 Z" fill="#ffffff"/>			<path d="M 509.3281 217 L 514 217 L 514 233 L 517 233 L 517 217 L 521.6719 217 L 521.6719 214 L 509.3281 214 L 509.3281 217 L 509.3281 217 Z" fill="#ffffff"/>			<path d="M 525.5313 218.6094 L 525.5313 219 L 527.0156 219 L 529.6563 212.3906 L 529.6563 212 L 527.0156 212 L 525.5313 218.6094 L 525.5313 218.6094 Z" fill="#ffffff"/>			<path d="M 539.9375 232.5938 C 540.6563 232.3125 541.2969 231.9063 541.8594 231.375 C 542.4219 230.8594 542.8594 230.2656 543.1719 229.5938 C 543.4844 228.9219 543.6406 228.2188 543.6406 227.4688 C 543.6094 226.6563 543.4844 225.9531 543.2344 225.3594 C 542.9844 224.7656 542.6406 224.2813 542.2344 223.8906 C 541.8125 223.5 541.3906 223.1875 540.9688 222.9375 C 540.5313 222.6875 539.9844 222.4063 539.3125 222.0781 C 538.3125 221.625 537.5938 221.2188 537.1563 220.8438 C 536.7188 220.4844 536.4844 219.9844 536.4688 219.3594 C 536.4688 218.7188 536.7344 218.1563 537.2969 217.6563 C 537.8438 217.1563 538.5156 216.9063 539.3125 216.8906 C 539.6563 216.8906 540 216.9375 540.3125 217.0313 C 540.625 217.125 540.9063 217.25 541.1563 217.375 C 541.3906 217.5 541.5781 217.5938 541.7188 217.6563 C 541.8438 217.7188 542.0938 217.8594 542.4531 218.0781 L 542.4531 215.1563 C 541.8594 214.7969 541.3281 214.5469 540.8594 214.4063 C 540.3906 214.2656 539.875 214.1875 539.3125 214.1563 C 538.5625 214.1563 537.8438 214.2969 537.1563 214.5469 C 536.4688 214.7969 535.875 215.1563 535.3438 215.625 C 534.8125 216.0938 534.375 216.625 534.0625 217.2344 C 533.75 217.8438 533.5781 218.5 533.5469 219.2188 C 533.5469 219.9375 533.6563 220.5781 533.9063 221.1094 C 534.1563 221.6563 534.4688 222.125 534.875 222.5 C 535.2813 222.8906 535.6875 223.2188 536.125 223.4844 C 536.5625 223.75 537.0938 224.0469 537.7188 224.3594 C 538.75 224.8906 539.5 225.3438 539.9531 225.75 C 540.4063 226.1563 540.6406 226.6875 540.6406 227.3438 C 540.6406 228.1406 540.3594 228.8281 539.8281 229.4063 C 539.2969 229.9844 538.6094 230.2656 537.7813 230.2656 C 537.375 230.2656 536.9531 230.2031 536.5469 230.0781 C 536.125 229.9531 535.75 229.7969 535.4063 229.6094 C 535.0625 229.4219 534.7656 229.25 534.5313 229.0781 C 534.2969 228.9219 533.9688 228.6094 533.5313 228.1406 L 533.5313 231.625 C 534.2344 232.1563 534.8906 232.5313 535.5156 232.7344 C 536.1406 232.9375 536.8594 233.0313 537.6719 233.0313 C 538.4531 233.0313 539.2188 232.8906 539.9375 232.5938 L 539.9375 232.5938 Z" fill="#ffffff"/>			<path d="M 568.5625 230.4688 L 569.5469 233.0625 L 572.5938 233.0625 L 565.0625 213.4688 L 557.5313 233.0625 L 560.5781 233.0625 L 561.5781 230.4688 L 568.5625 230.4688 L 568.5625 230.4688 ZM 565.0625 221.3906 L 567.4688 227.625 L 562.6719 227.625 L 565.0625 221.3906 L 565.0625 221.3906 Z" fill="#ffffff"/>			<path d="M 596.1406 230.1094 C 595.2344 230.1094 594.375 229.9531 593.5781 229.6094 C 592.7813 229.2813 592.0938 228.8281 591.5 228.2344 C 590.9063 227.6406 590.4375 226.9531 590.0938 226.1563 C 589.75 225.375 589.5938 224.5156 589.5938 223.6094 C 589.5938 222.7031 589.75 221.8594 590.0938 221.0625 C 590.4375 220.2813 590.9063 219.5938 591.5 219 C 592.0938 218.4063 592.7813 217.9531 593.5781 217.625 C 594.375 217.2969 595.2344 217.125 596.1406 217.125 C 597.0313 217.125 597.875 217.2969 598.6719 217.6094 C 599.0156 217.7656 599.3438 217.9375 599.6563 218.125 L 599.6563 214.8281 C 598.5625 214.4063 597.3906 214.1875 596.1406 214.1875 C 594.7969 214.1875 593.5469 214.4375 592.3906 214.9219 C 591.2344 215.4219 590.2188 216.0938 589.3438 216.9375 C 588.4688 217.7813 587.7813 218.7813 587.2813 219.9375 C 586.7813 221.0938 586.5313 222.3125 586.5313 223.6094 C 586.5313 224.9219 586.7813 226.1406 587.2813 227.2656 C 587.7813 228.4063 588.4688 229.4063 589.3438 230.25 C 590.2188 231.0938 591.2344 231.7656 592.3906 232.2656 C 593.5469 232.7656 594.7969 233 596.1406 233 C 597.3906 233 598.5625 232.7813 599.6563 232.3438 L 599.6563 224.0625 L 595.2656 224.0625 L 595.2656 226.9063 L 597.2188 226.9063 L 597.2188 230.0156 C 596.8594 230.0781 596.5 230.1094 596.1406 230.1094 L 596.1406 230.1094 Z" fill="#ffffff"/>			<path d="M 621.9688 219.9375 C 621.4688 218.7813 620.7813 217.7813 619.9063 216.9375 C 619.0313 216.0938 618.0156 215.4219 616.8594 214.9219 C 615.7031 214.4375 614.4531 214.1875 613.1406 214.1875 C 611.7969 214.1875 610.5469 214.4375 609.3906 214.9219 C 608.2344 215.4219 607.2188 216.0938 606.3438 216.9375 C 605.4688 217.7813 604.7813 218.7813 604.2813 219.9375 C 603.7813 221.0938 603.5313 222.3125 603.5313 223.6094 C 603.5313 224.9219 603.7813 226.1406 604.2813 227.2656 C 604.7813 228.4063 605.4688 229.4063 606.3438 230.25 C 607.2188 231.0938 608.2344 231.7656 609.3906 232.2656 C 610.5469 232.7656 611.7969 233 613.1406 233 C 614.4531 233 615.7031 232.7656 616.8594 232.2656 C 618.0156 231.7656 619.0313 231.0938 619.9063 230.25 C 620.7813 229.4063 621.4688 228.4063 621.9688 227.2656 C 622.4688 226.1406 622.7344 224.9219 622.7344 223.6094 C 622.7344 222.3125 622.4688 221.0938 621.9688 219.9375 L 621.9688 219.9375 ZM 607.0938 221.0625 C 607.4375 220.2813 607.9063 219.5938 608.5 219 C 609.0938 218.4063 609.7813 217.9531 610.5781 217.625 C 611.375 217.2969 612.2344 217.125 613.1406 217.125 C 614.0313 217.125 614.875 217.2969 615.6719 217.625 C 616.4531 217.9531 617.1406 218.4063 617.7344 219 C 618.3281 219.5938 618.7813 220.2813 619.125 221.0625 C 619.4688 221.8594 619.6406 222.7031 619.6406 223.6094 C 619.6406 224.5156 619.4688 225.375 619.125 226.1563 C 618.7813 226.9531 618.3281 227.6406 617.7344 228.2344 C 617.1406 228.8281 616.4531 229.2813 615.6719 229.6094 C 614.875 229.9531 614.0313 230.1094 613.1406 230.1094 C 612.2344 230.1094 611.375 229.9531 610.5781 229.6094 C 609.7813 229.2813 609.0938 228.8281 608.5 228.2344 C 607.9063 227.6406 607.4375 226.9531 607.0938 226.1563 C 606.75 225.375 606.5938 224.5156 606.5938 223.6094 C 606.5938 222.7031 606.75 221.8594 607.0938 221.0625 L 607.0938 221.0625 Z" fill="#ffffff"/>			<path d="M 644.9688 219.9375 C 644.4688 218.7813 643.7813 217.7813 642.9063 216.9375 C 642.0313 216.0938 641.0156 215.4219 639.8594 214.9219 C 638.7031 214.4375 637.4531 214.1875 636.1406 214.1875 C 634.7969 214.1875 633.5469 214.4375 632.3906 214.9219 C 631.2344 215.4219 630.2188 216.0938 629.3438 216.9375 C 628.4688 217.7813 627.7813 218.7813 627.2813 219.9375 C 626.7813 221.0938 626.5313 222.3125 626.5313 223.6094 C 626.5313 224.9219 626.7813 226.1406 627.2813 227.2656 C 627.7813 228.4063 628.4688 229.4063 629.3438 230.25 C 630.2188 231.0938 631.2344 231.7656 632.3906 232.2656 C 633.5469 232.7656 634.7969 233 636.1406 233 C 637.4531 233 638.7031 232.7656 639.8594 232.2656 C 641.0156 231.7656 642.0313 231.0938 642.9063 230.25 C 643.7813 229.4063 644.4688 228.4063 644.9688 227.2656 C 645.4688 226.1406 645.7344 224.9219 645.7344 223.6094 C 645.7344 222.3125 645.4688 221.0938 644.9688 219.9375 L 644.9688 219.9375 ZM 630.0938 221.0625 C 630.4375 220.2813 630.9063 219.5938 631.5 219 C 632.0938 218.4063 632.7813 217.9531 633.5781 217.625 C 634.375 217.2969 635.2344 217.125 636.1406 217.125 C 637.0313 217.125 637.875 217.2969 638.6719 217.625 C 639.4531 217.9531 640.1406 218.4063 640.7344 219 C 641.3281 219.5938 641.7813 220.2813 642.125 221.0625 C 642.4688 221.8594 642.6406 222.7031 642.6406 223.6094 C 642.6406 224.5156 642.4688 225.375 642.125 226.1563 C 641.7813 226.9531 641.3281 227.6406 640.7344 228.2344 C 640.1406 228.8281 639.4531 229.2813 638.6719 229.6094 C 637.875 229.9531 637.0313 230.1094 636.1406 230.1094 C 635.2344 230.1094 634.375 229.9531 633.5781 229.6094 C 632.7813 229.2813 632.0938 228.8281 631.5 228.2344 C 630.9063 227.6406 630.4375 226.9531 630.0938 226.1563 C 629.75 225.375 629.5938 224.5156 629.5938 223.6094 C 629.5938 222.7031 629.75 221.8594 630.0938 221.0625 L 630.0938 221.0625 Z" fill="#ffffff"/>			<path d="M 653.2344 233 C 655.6406 233 657.7031 232.0781 659.4219 230.2188 C 661.1406 228.3594 662 226.125 662 223.5 C 662 220.875 661.1406 218.6406 659.4219 216.7813 C 657.7031 214.9375 655.6406 214 653.2344 214 L 650 214 L 650 233 L 653.2344 233 L 653.2344 233 ZM 653.5 217 C 655.0156 217 656.3125 217.6406 657.3906 218.9063 C 658.4531 220.1875 659 221.7188 659 223.5 C 659 225.2969 658.4531 226.8281 657.3906 228.0938 C 656.3125 229.375 655.0156 230 653.5 230 L 653 230 L 653 217 L 653.5 217 L 653.5 217 Z" fill="#ffffff"/>			<path d="M 682.9375 232.5938 C 683.6563 232.3125 684.2969 231.9063 684.8594 231.375 C 685.4219 230.8594 685.8594 230.2656 686.1719 229.5938 C 686.4844 228.9219 686.6406 228.2188 686.6406 227.4688 C 686.6094 226.6563 686.4844 225.9531 686.2344 225.3594 C 685.9844 224.7656 685.6406 224.2813 685.2344 223.8906 C 684.8125 223.5 684.3906 223.1875 683.9688 222.9375 C 683.5313 222.6875 682.9844 222.4063 682.3125 222.0781 C 681.3125 221.625 680.5938 221.2188 680.1563 220.8438 C 679.7188 220.4844 679.4844 219.9844 679.4688 219.3594 C 679.4688 218.7188 679.7344 218.1563 680.2969 217.6563 C 680.8438 217.1563 681.5156 216.9063 682.3125 216.8906 C 682.6563 216.8906 683 216.9375 683.3125 217.0313 C 683.625 217.125 683.9063 217.25 684.1563 217.375 C 684.3906 217.5 684.5781 217.5938 684.7188 217.6563 C 684.8438 217.7188 685.0938 217.8594 685.4531 218.0781 L 685.4531 215.1563 C 684.8594 214.7969 684.3281 214.5469 683.8594 214.4063 C 683.3906 214.2656 682.875 214.1875 682.3125 214.1563 C 681.5625 214.1563 680.8438 214.2969 680.1563 214.5469 C 679.4688 214.7969 678.875 215.1563 678.3438 215.625 C 677.8125 216.0938 677.375 216.625 677.0625 217.2344 C 676.75 217.8438 676.5781 218.5 676.5469 219.2188 C 676.5469 219.9375 676.6563 220.5781 676.9063 221.1094 C 677.1563 221.6563 677.4688 222.125 677.875 222.5 C 678.2813 222.8906 678.6875 223.2188 679.125 223.4844 C 679.5625 223.75 680.0938 224.0469 680.7188 224.3594 C 681.75 224.8906 682.5 225.3438 682.9531 225.75 C 683.4063 226.1563 683.6406 226.6875 683.6406 227.3438 C 683.6406 228.1406 683.3594 228.8281 682.8281 229.4063 C 682.2969 229.9844 681.6094 230.2656 680.7813 230.2656 C 680.375 230.2656 679.9531 230.2031 679.5469 230.0781 C 679.125 229.9531 678.75 229.7969 678.4063 229.6094 C 678.0625 229.4219 677.7656 229.25 677.5313 229.0781 C 677.2969 228.9219 676.9688 228.6094 676.5313 228.1406 L 676.5313 231.625 C 677.2344 232.1563 677.8906 232.5313 678.5156 232.7344 C 679.1406 232.9375 679.8594 233.0313 680.6719 233.0313 C 681.4531 233.0313 682.2188 232.8906 682.9375 232.5938 L 682.9375 232.5938 Z" fill="#ffffff"/>			<path d="M 690 233 L 693 233 L 693 214 L 690 214 L 690 233 L 690 233 Z" fill="#ffffff"/>			<path d="M 707.1406 230.1094 C 706.2344 230.1094 705.375 229.9531 704.5781 229.6094 C 703.7813 229.2813 703.0938 228.8281 702.5 228.2344 C 701.9063 227.6406 701.4375 226.9531 701.0938 226.1563 C 700.75 225.375 700.5938 224.5156 700.5938 223.6094 C 700.5938 222.7031 700.75 221.8594 701.0938 221.0625 C 701.4375 220.2813 701.9063 219.5938 702.5 219 C 703.0938 218.4063 703.7813 217.9531 704.5781 217.625 C 705.375 217.2969 706.2344 217.125 707.1406 217.125 C 708.0313 217.125 708.875 217.2969 709.6719 217.6094 C 710.0156 217.7656 710.3438 217.9375 710.6563 218.125 L 710.6563 214.8281 C 709.5625 214.4063 708.3906 214.1875 707.1406 214.1875 C 705.7969 214.1875 704.5469 214.4375 703.3906 214.9219 C 702.2344 215.4219 701.2188 216.0938 700.3438 216.9375 C 699.4688 217.7813 698.7813 218.7813 698.2813 219.9375 C 697.7813 221.0938 697.5313 222.3125 697.5313 223.6094 C 697.5313 224.9219 697.7813 226.1406 698.2813 227.2656 C 698.7813 228.4063 699.4688 229.4063 700.3438 230.25 C 701.2188 231.0938 702.2344 231.7656 703.3906 232.2656 C 704.5469 232.7656 705.7969 233 707.1406 233 C 708.3906 233 709.5625 232.7813 710.6563 232.3438 L 710.6563 224.0625 L 706.2656 224.0625 L 706.2656 226.9063 L 708.2188 226.9063 L 708.2188 230.0156 C 707.8594 230.0781 707.5 230.1094 707.1406 230.1094 L 707.1406 230.1094 Z" fill="#ffffff"/>			<path d="M 714.5313 213.4531 L 714.5313 233 L 717.375 233 L 717.375 222.0938 L 726.0313 233.8281 L 726.0313 214.2031 L 723.1875 214.2031 L 723.1875 225.2031 L 714.5313 213.4531 L 714.5313 213.4531 Z" fill="#ffffff"/>			<path d="M 737.5156 222.2188 C 738.7656 221.4375 739.3438 220.0781 739.25 218.1406 C 739.25 215.9219 738.4375 214.5156 736.8125 213.8906 C 736.0938 213.625 735.3906 213.4844 734.7344 213.4844 C 733.9375 213.4844 733.1563 213.6875 732.375 214.0781 C 730.875 214.7969 729.9063 216.1563 729.4688 218.1406 L 731.7813 219.1719 C 732.6875 217.5469 733.6563 216.7344 734.6563 216.7344 C 735.6563 216.7344 736.2344 217.2969 736.4063 218.4063 C 736.3906 219.4688 735.8125 220.4844 734.6875 221.4844 C 733.5625 222.4844 733 223.875 733 225.6719 L 733 227.7031 L 736 227.7031 C 735.7656 224.8281 736.2656 223 737.5156 222.2188 L 737.5156 222.2188 ZM 733 230 L 733 233 L 736 233 L 736 230 L 733 230 L 733 230 Z" fill="#ffffff"/>		</g>		<g>			<path d="M 181.9844 135.3281 C 182.7969 135.7813 183.6875 136 184.6563 136 C 186.2188 136 187.5938 135.4375 188.75 134.3125 C 189.9063 133.1875 190.5 131.8281 190.5 130.2344 L 190.5 117 L 187.5 117 L 187.5 130.1406 C 187.5 130.9219 187.2188 131.5938 186.6719 132.1563 C 186.1094 132.7188 185.4375 133 184.6563 133 C 183.8594 133 182.9688 132.7188 181.9844 132.125 L 181.9844 135.3281 L 181.9844 135.3281 Z" fill="#ffffff"/>			<path d="M 200.9063 132.1563 C 200.5156 132.7188 200.0469 133 199.5 133 C 198.9375 133 198.4688 132.7188 198.0781 132.1563 C 197.6875 131.5938 197.5 130.9219 197.5 130.1406 L 197.5 117 L 194.5 117 L 194.5 130.2344 C 194.5 131.8281 194.9844 133.1875 195.9688 134.3125 C 196.9375 135.4375 198.125 136 199.5 136 C 200.875 136 202.0625 135.4375 203.0313 134.3125 C 204 133.1875 204.5 131.8281 204.5 130.2344 L 204.5 117 L 201.5 117 L 201.5 130.1406 C 201.5 130.9219 201.2969 131.5938 200.9063 132.1563 L 200.9063 132.1563 Z" fill="#ffffff"/>			<path d="M 209.0313 136 L 218.375 136 L 218.375 133.1563 L 211.875 133.1563 L 211.875 117.3125 L 209.0313 117.3125 L 209.0313 136 L 209.0313 136 Z" fill="#ffffff"/>			<path d="M 221.5 136 L 224.5 136 L 224.5 117 L 221.5 117 L 221.5 136 L 221.5 136 Z" fill="#ffffff"/>			<path d="M 228.5 136 L 237.3125 136 L 237.3125 133 L 231.5 133 L 231.5 130 L 237.3125 130 L 237.3125 127 L 231.5 127 L 231.5 120 L 237.3125 120 L 237.3125 117 L 228.5 117 L 228.5 136 L 228.5 136 Z" fill="#ffffff"/>			<path d="M 262.0625 133.4688 L 263.0469 136.0625 L 266.0938 136.0625 L 258.5625 116.4688 L 251.0313 136.0625 L 254.0781 136.0625 L 255.0781 133.4688 L 262.0625 133.4688 L 262.0625 133.4688 ZM 258.5625 124.3906 L 260.9688 130.625 L 256.1719 130.625 L 258.5625 124.3906 L 258.5625 124.3906 Z" fill="#ffffff"/>			<path d="M 276.4375 135.5938 C 277.1563 135.3125 277.7969 134.9063 278.3594 134.375 C 278.9219 133.8594 279.3594 133.2656 279.6719 132.5938 C 279.9844 131.9219 280.1406 131.2188 280.1406 130.4688 C 280.1094 129.6563 279.9844 128.9531 279.7344 128.3594 C 279.4844 127.7656 279.1406 127.2813 278.7344 126.8906 C 278.3125 126.5 277.8906 126.1875 277.4688 125.9375 C 277.0313 125.6875 276.4844 125.4063 275.8125 125.0781 C 274.8125 124.625 274.0938 124.2188 273.6563 123.8438 C 273.2188 123.4844 272.9844 122.9844 272.9688 122.3594 C 272.9688 121.7188 273.2344 121.1563 273.7969 120.6563 C 274.3438 120.1563 275.0156 119.9063 275.8125 119.8906 C 276.1563 119.8906 276.5 119.9375 276.8125 120.0313 C 277.125 120.125 277.4063 120.25 277.6563 120.375 C 277.8906 120.5 278.0781 120.5938 278.2188 120.6563 C 278.3438 120.7188 278.5938 120.8594 278.9531 121.0781 L 278.9531 118.1563 C 278.3594 117.7969 277.8281 117.5469 277.3594 117.4063 C 276.8906 117.2656 276.375 117.1875 275.8125 117.1563 C 275.0625 117.1563 274.3438 117.2969 273.6563 117.5469 C 272.9688 117.7969 272.375 118.1563 271.8438 118.625 C 271.3125 119.0938 270.875 119.625 270.5625 120.2344 C 270.25 120.8438 270.0781 121.5 270.0469 122.2188 C 270.0469 122.9375 270.1563 123.5781 270.4063 124.1094 C 270.6563 124.6563 270.9688 125.125 271.375 125.5 C 271.7813 125.8906 272.1875 126.2188 272.625 126.4844 C 273.0625 126.75 273.5938 127.0469 274.2188 127.3594 C 275.25 127.8906 276 128.3438 276.4531 128.75 C 276.9063 129.1563 277.1406 129.6875 277.1406 130.3438 C 277.1406 131.1406 276.8594 131.8281 276.3281 132.4063 C 275.7969 132.9844 275.1094 133.2656 274.2813 133.2656 C 273.875 133.2656 273.4531 133.2031 273.0469 133.0781 C 272.625 132.9531 272.25 132.7969 271.9063 132.6094 C 271.5625 132.4219 271.2656 132.25 271.0313 132.0781 C 270.7969 131.9219 270.4688 131.6094 270.0313 131.1406 L 270.0313 134.625 C 270.7344 135.1563 271.3906 135.5313 272.0156 135.7344 C 272.6406 135.9375 273.3594 136.0313 274.1719 136.0313 C 274.9531 136.0313 275.7188 135.8906 276.4375 135.5938 L 276.4375 135.5938 Z" fill="#ffffff"/>			<path d="M 291.7813 117 L 286.5 126.1719 L 286.5 117 L 283.5 117 L 283.5 135.9688 L 286.5 136 L 286.5 131.8906 L 288.9375 127.6875 L 291.75 136 L 294.7813 136 L 290.8281 124.375 L 295.0781 117 L 291.7813 117 L 291.7813 117 Z" fill="#ffffff"/>			<path d="M 298.5 136 L 307.3125 136 L 307.3125 133 L 301.5 133 L 301.5 130 L 307.3125 130 L 307.3125 127 L 301.5 127 L 301.5 120 L 307.3125 120 L 307.3125 117 L 298.5 117 L 298.5 136 L 298.5 136 Z" fill="#ffffff"/>			<path d="M 314.7344 136 C 317.1406 136 319.2031 135.0781 320.9219 133.2188 C 322.6406 131.3594 323.5 129.125 323.5 126.5 C 323.5 123.875 322.6406 121.6406 320.9219 119.7813 C 319.2031 117.9375 317.1406 117 314.7344 117 L 311.5 117 L 311.5 136 L 314.7344 136 L 314.7344 136 ZM 315 120 C 316.5156 120 317.8125 120.6406 318.8906 121.9063 C 319.9531 123.1875 320.5 124.7188 320.5 126.5 C 320.5 128.2969 319.9531 129.8281 318.8906 131.0938 C 317.8125 132.375 316.5156 133 315 133 L 314.5 133 L 314.5 120 L 315 120 L 315 120 Z" fill="#ffffff"/>			<path d="M 343.5 131.125 L 343.5 136 L 346.5 136 L 346.5 131.125 L 351.4063 117 L 348.3906 117 L 345 127.7344 L 341.6094 117 L 338.6094 117 L 343.5 131.125 L 343.5 131.125 Z" fill="#ffffff"/>			<path d="M 370.4688 122.9375 C 369.9688 121.7813 369.2813 120.7813 368.4063 119.9375 C 367.5313 119.0938 366.5156 118.4219 365.3594 117.9219 C 364.2031 117.4375 362.9531 117.1875 361.6406 117.1875 C 360.2969 117.1875 359.0469 117.4375 357.8906 117.9219 C 356.7344 118.4219 355.7188 119.0938 354.8438 119.9375 C 353.9688 120.7813 353.2813 121.7813 352.7813 122.9375 C 352.2813 124.0938 352.0313 125.3125 352.0313 126.6094 C 352.0313 127.9219 352.2813 129.1406 352.7813 130.2656 C 353.2813 131.4063 353.9688 132.4063 354.8438 133.25 C 355.7188 134.0938 356.7344 134.7656 357.8906 135.2656 C 359.0469 135.7656 360.2969 136 361.6406 136 C 362.9531 136 364.2031 135.7656 365.3594 135.2656 C 366.5156 134.7656 367.5313 134.0938 368.4063 133.25 C 369.2813 132.4063 369.9688 131.4063 370.4688 130.2656 C 370.9688 129.1406 371.2344 127.9219 371.2344 126.6094 C 371.2344 125.3125 370.9688 124.0938 370.4688 122.9375 L 370.4688 122.9375 ZM 355.5938 124.0625 C 355.9375 123.2813 356.4063 122.5938 357 122 C 357.5938 121.4063 358.2813 120.9531 359.0781 120.625 C 359.875 120.2969 360.7344 120.125 361.6406 120.125 C 362.5313 120.125 363.375 120.2969 364.1719 120.625 C 364.9531 120.9531 365.6406 121.4063 366.2344 122 C 366.8281 122.5938 367.2813 123.2813 367.625 124.0625 C 367.9688 124.8594 368.1406 125.7031 368.1406 126.6094 C 368.1406 127.5156 367.9688 128.375 367.625 129.1563 C 367.2813 129.9531 366.8281 130.6406 366.2344 131.2344 C 365.6406 131.8281 364.9531 132.2813 364.1719 132.6094 C 363.375 132.9531 362.5313 133.1094 361.6406 133.1094 C 360.7344 133.1094 359.875 132.9531 359.0781 132.6094 C 358.2813 132.2813 357.5938 131.8281 357 131.2344 C 356.4063 130.6406 355.9375 129.9531 355.5938 129.1563 C 355.25 128.375 355.0938 127.5156 355.0938 126.6094 C 355.0938 125.7031 355.25 124.8594 355.5938 124.0625 L 355.5938 124.0625 Z" fill="#ffffff"/>			<path d="M 381.9063 132.1563 C 381.5156 132.7188 381.0469 133 380.5 133 C 379.9375 133 379.4688 132.7188 379.0781 132.1563 C 378.6875 131.5938 378.5 130.9219 378.5 130.1406 L 378.5 117 L 375.5 117 L 375.5 130.2344 C 375.5 131.8281 375.9844 133.1875 376.9688 134.3125 C 377.9375 135.4375 379.125 136 380.5 136 C 381.875 136 383.0625 135.4375 384.0313 134.3125 C 385 133.1875 385.5 131.8281 385.5 130.2344 L 385.5 117 L 382.5 117 L 382.5 130.1406 C 382.5 130.9219 382.2969 131.5938 381.9063 132.1563 L 381.9063 132.1563 Z" fill="#ffffff"/>			<path d="M 399.8281 120 L 404.5 120 L 404.5 136 L 407.5 136 L 407.5 120 L 412.1719 120 L 412.1719 117 L 399.8281 117 L 399.8281 120 L 399.8281 120 Z" fill="#ffffff"/>			<path d="M 432.4688 122.9375 C 431.9688 121.7813 431.2813 120.7813 430.4063 119.9375 C 429.5313 119.0938 428.5156 118.4219 427.3594 117.9219 C 426.2031 117.4375 424.9531 117.1875 423.6406 117.1875 C 422.2969 117.1875 421.0469 117.4375 419.8906 117.9219 C 418.7344 118.4219 417.7188 119.0938 416.8438 119.9375 C 415.9688 120.7813 415.2813 121.7813 414.7813 122.9375 C 414.2813 124.0938 414.0313 125.3125 414.0313 126.6094 C 414.0313 127.9219 414.2813 129.1406 414.7813 130.2656 C 415.2813 131.4063 415.9688 132.4063 416.8438 133.25 C 417.7188 134.0938 418.7344 134.7656 419.8906 135.2656 C 421.0469 135.7656 422.2969 136 423.6406 136 C 424.9531 136 426.2031 135.7656 427.3594 135.2656 C 428.5156 134.7656 429.5313 134.0938 430.4063 133.25 C 431.2813 132.4063 431.9688 131.4063 432.4688 130.2656 C 432.9688 129.1406 433.2344 127.9219 433.2344 126.6094 C 433.2344 125.3125 432.9688 124.0938 432.4688 122.9375 L 432.4688 122.9375 ZM 417.5938 124.0625 C 417.9375 123.2813 418.4063 122.5938 419 122 C 419.5938 121.4063 420.2813 120.9531 421.0781 120.625 C 421.875 120.2969 422.7344 120.125 423.6406 120.125 C 424.5313 120.125 425.375 120.2969 426.1719 120.625 C 426.9531 120.9531 427.6406 121.4063 428.2344 122 C 428.8281 122.5938 429.2813 123.2813 429.625 124.0625 C 429.9688 124.8594 430.1406 125.7031 430.1406 126.6094 C 430.1406 127.5156 429.9688 128.375 429.625 129.1563 C 429.2813 129.9531 428.8281 130.6406 428.2344 131.2344 C 427.6406 131.8281 426.9531 132.2813 426.1719 132.6094 C 425.375 132.9531 424.5313 133.1094 423.6406 133.1094 C 422.7344 133.1094 421.875 132.9531 421.0781 132.6094 C 420.2813 132.2813 419.5938 131.8281 419 131.2344 C 418.4063 130.6406 417.9375 129.9531 417.5938 129.1563 C 417.25 128.375 417.0938 127.5156 417.0938 126.6094 C 417.0938 125.7031 417.25 124.8594 417.5938 124.0625 L 417.5938 124.0625 Z" fill="#ffffff"/>			<path d="M 450.5 120 L 451.9844 120 C 452.3906 120 452.7344 120.2031 453.0156 120.5781 C 453.2969 120.9688 453.4375 121.4375 453.4375 121.9844 C 453.4375 122.5625 453.2969 123.0469 453.0156 123.4219 C 452.7344 123.8125 452.3906 124 451.9844 124 L 450.5 124 L 450.5 120 L 450.5 120 ZM 452.9219 136 C 454.4531 136 455.7656 135.4688 456.8594 134.375 C 457.9531 133.2813 458.5 131.9688 458.5 130.4219 C 458.5 128.8906 457.9531 127.5625 456.875 126.4688 C 456.1875 125.8125 455.4375 125.3438 454.625 125.0781 C 455.2031 124.1719 455.5 123.0625 455.5 121.75 C 455.5 120.4375 455.1094 119.3281 454.3281 118.3906 C 453.5469 117.4688 452.6094 117 451.5156 117 L 447.5 117 L 447.5 136 L 452.9219 136 L 452.9219 136 ZM 452.9219 127 C 453.625 127 454.2344 127.2969 454.7344 127.8906 C 455.2344 128.4844 455.5 129.1875 455.5 130 C 455.5 130.8281 455.2344 131.5313 454.7344 132.125 C 454.2344 132.7188 453.625 133 452.9219 133 L 450.5 133 L 450.5 131.0469 L 450.5 127 L 452.9219 127 L 452.9219 127 Z" fill="#ffffff"/>			<path d="M 461.5 136 L 470.3125 136 L 470.3125 133 L 464.5 133 L 464.5 130 L 470.3125 130 L 470.3125 127 L 464.5 127 L 464.5 120 L 470.3125 120 L 470.3125 117 L 461.5 117 L 461.5 136 L 461.5 136 Z" fill="#ffffff"/>			<path d="M 483.5 136 L 486.5 136 L 486.5 117 L 483.5 117 L 483.5 136 L 483.5 136 Z" fill="#ffffff"/>			<path d="M 491.0313 116.4531 L 491.0313 136 L 493.875 136 L 493.875 125.0938 L 502.5313 136.8281 L 502.5313 117.2031 L 499.6875 117.2031 L 499.6875 128.2031 L 491.0313 116.4531 L 491.0313 116.4531 Z" fill="#ffffff"/>			<path d="M 515.8281 120 L 520.5 120 L 520.5 136 L 523.5 136 L 523.5 120 L 528.1719 120 L 528.1719 117 L 515.8281 117 L 515.8281 120 L 515.8281 120 Z" fill="#ffffff"/>			<path d="M 543.5 117 L 540.5 117 L 540.5 127 L 535.5 127 L 535.5 117 L 532.5 117 L 532.5 136 L 535.5 136 L 535.5 130 L 540.5 130 L 540.5 136 L 543.5 136 L 543.5 117 L 543.5 117 Z" fill="#ffffff"/>			<path d="M 547.5 136 L 556.3125 136 L 556.3125 133 L 550.5 133 L 550.5 130 L 556.3125 130 L 556.3125 127 L 550.5 127 L 550.5 120 L 556.3125 120 L 556.3125 117 L 547.5 117 L 547.5 136 L 547.5 136 Z" fill="#ffffff"/>			<path d="M 588.4688 122.9375 C 587.9688 121.7813 587.2813 120.7813 586.4063 119.9375 C 585.5313 119.0938 584.5156 118.4219 583.3594 117.9219 C 582.2031 117.4375 580.9531 117.1875 579.6406 117.1875 C 578.2969 117.1875 577.0469 117.4375 575.8906 117.9219 C 574.7344 118.4219 573.7188 119.0938 572.8438 119.9375 C 571.9688 120.7813 571.2813 121.7813 570.7813 122.9375 C 570.2813 124.0938 570.0313 125.3125 570.0313 126.6094 C 570.0313 127.9219 570.2813 129.1406 570.7813 130.2656 C 571.2813 131.4063 571.9688 132.4063 572.8438 133.25 C 573.7188 134.0938 574.7344 134.7656 575.8906 135.2656 C 577.0469 135.7656 578.2969 136 579.6406 136 C 580.9531 136 582.2031 135.7656 583.3594 135.2656 C 584.5156 134.7656 585.5313 134.0938 586.4063 133.25 C 587.2813 132.4063 587.9688 131.4063 588.4688 130.2656 C 588.9688 129.1406 589.2344 127.9219 589.2344 126.6094 C 589.2344 125.3125 588.9688 124.0938 588.4688 122.9375 L 588.4688 122.9375 ZM 573.5938 124.0625 C 573.9375 123.2813 574.4063 122.5938 575 122 C 575.5938 121.4063 576.2813 120.9531 577.0781 120.625 C 577.875 120.2969 578.7344 120.125 579.6406 120.125 C 580.5313 120.125 581.375 120.2969 582.1719 120.625 C 582.9531 120.9531 583.6406 121.4063 584.2344 122 C 584.8281 122.5938 585.2813 123.2813 585.625 124.0625 C 585.9688 124.8594 586.1406 125.7031 586.1406 126.6094 C 586.1406 127.5156 585.9688 128.375 585.625 129.1563 C 585.2813 129.9531 584.8281 130.6406 584.2344 131.2344 C 583.6406 131.8281 582.9531 132.2813 582.1719 132.6094 C 581.375 132.9531 580.5313 133.1094 579.6406 133.1094 C 578.7344 133.1094 577.875 132.9531 577.0781 132.6094 C 576.2813 132.2813 575.5938 131.8281 575 131.2344 C 574.4063 130.6406 573.9375 129.9531 573.5938 129.1563 C 573.25 128.375 573.0938 127.5156 573.0938 126.6094 C 573.0938 125.7031 573.25 124.8594 573.5938 124.0625 L 573.5938 124.0625 Z" fill="#ffffff"/>			<path d="M 593.0313 116.4531 L 593.0313 136 L 595.875 136 L 595.875 125.0938 L 604.5313 136.8281 L 604.5313 117.2031 L 601.6875 117.2031 L 601.6875 128.2031 L 593.0313 116.4531 L 593.0313 116.4531 Z" fill="#ffffff"/>			<path d="M 607.5 136 L 616.3125 136 L 616.3125 133 L 610.5 133 L 610.5 130 L 616.3125 130 L 616.3125 127 L 610.5 127 L 610.5 120 L 616.3125 120 L 616.3125 117 L 607.5 117 L 607.5 136 L 607.5 136 Z" fill="#ffffff"/>			<path d="M 633.7031 132 C 635.5781 132 637.1719 131.2813 638.5 129.8125 C 639.8281 128.3438 640.5 126.5781 640.5 124.5 C 640.5 122.4375 639.7969 120.6719 638.4219 119.2031 C 637.0469 117.7344 635.375 117 633.4219 117 L 630.5 117 L 630.5 136 L 633.5 136 L 633.5 132 L 633.7031 132 L 633.7031 132 ZM 633.5 120 L 633.6719 120 C 634.7344 120 635.625 120.4531 636.375 121.3281 C 637.125 122.2031 637.5 123.2656 637.5 124.5 C 637.5 125.75 637.125 126.8125 636.375 127.6875 C 635.625 128.5625 634.7344 129 633.6719 129 L 633.5 129 L 633.5 120 L 633.5 120 Z" fill="#ffffff"/>			<path d="M 644.0313 136 L 653.375 136 L 653.375 133.1563 L 646.875 133.1563 L 646.875 117.3125 L 644.0313 117.3125 L 644.0313 136 L 644.0313 136 Z" fill="#ffffff"/>			<path d="M 668.0625 133.4688 L 669.0469 136.0625 L 672.0938 136.0625 L 664.5625 116.4688 L 657.0313 136.0625 L 660.0781 136.0625 L 661.0781 133.4688 L 668.0625 133.4688 L 668.0625 133.4688 ZM 664.5625 124.3906 L 666.9688 130.625 L 662.1719 130.625 L 664.5625 124.3906 L 664.5625 124.3906 Z" fill="#ffffff"/>			<path d="M 685.1719 132.5938 C 684.375 132.9375 683.5313 133.1094 682.6406 133.1094 C 681.7344 133.1094 680.875 132.9531 680.0781 132.6094 C 679.2813 132.2813 678.5938 131.8281 678 131.2344 C 677.4063 130.6406 676.9375 129.9531 676.5938 129.1563 C 676.25 128.375 676.0938 127.5156 676.0938 126.6094 C 676.0938 125.7031 676.25 124.8594 676.5938 124.0625 C 676.9375 123.2813 677.4063 122.5938 678 122 C 678.5938 121.4063 679.2813 120.9531 680.0781 120.625 C 680.875 120.2969 681.7344 120.125 682.6406 120.125 C 683.5313 120.125 684.375 120.2969 685.1719 120.6094 C 685.5156 120.7656 685.8438 120.9375 686.1563 121.125 L 686.1563 117.8281 C 685.0625 117.4063 683.8906 117.1875 682.6406 117.1875 C 681.2969 117.1875 680.0469 117.4375 678.8906 117.9219 C 677.7344 118.4219 676.7188 119.0938 675.8438 119.9375 C 674.9688 120.7813 674.2813 121.7813 673.7813 122.9375 C 673.2813 124.0938 673.0313 125.3125 673.0313 126.6094 C 673.0313 127.9219 673.2813 129.1406 673.7813 130.2656 C 674.2813 131.4063 674.9688 132.4063 675.8438 133.25 C 676.7188 134.0938 677.7344 134.7656 678.8906 135.2656 C 680.0469 135.7656 681.2969 136 682.6406 136 C 683.8906 136 685.0625 135.7813 686.1563 135.3438 L 686.1563 132.0938 C 685.8438 132.2813 685.5156 132.4531 685.1719 132.5938 L 685.1719 132.5938 Z" fill="#ffffff"/>			<path d="M 689.5 136 L 698.3125 136 L 698.3125 133 L 692.5 133 L 692.5 130 L 698.3125 130 L 698.3125 127 L 692.5 127 L 692.5 120 L 698.3125 120 L 698.3125 117 L 689.5 117 L 689.5 136 L 689.5 136 Z" fill="#ffffff"/>			<path d="M 226.0313 148.2188 L 232.2969 167.8125 L 235.8125 156.8125 L 239.3281 167.8125 L 245.5938 148.2188 L 242.6094 148.2188 L 239.3281 158.5 L 235.8125 147.4688 L 232.2969 158.5 L 229 148.2188 L 226.0313 148.2188 L 226.0313 148.2188 Z" fill="#ffffff"/>			<path d="M 260.5 148 L 257.5 148 L 257.5 158 L 252.5 158 L 252.5 148 L 249.5 148 L 249.5 167 L 252.5 167 L 252.5 161 L 257.5 161 L 257.5 167 L 260.5 167 L 260.5 148 L 260.5 148 Z" fill="#ffffff"/>			<path d="M 264.5 167 L 273.3125 167 L 273.3125 164 L 267.5 164 L 267.5 161 L 273.3125 161 L 273.3125 158 L 267.5 158 L 267.5 151 L 273.3125 151 L 273.3125 148 L 264.5 148 L 264.5 167 L 264.5 167 Z" fill="#ffffff"/>			<path d="M 280.5 151 L 280.6719 151 C 281.7344 151 282.625 151.4531 283.375 152.3594 C 284.125 153.2656 284.5 154.3438 284.5 155.6094 C 284.5 156.875 284.125 157.9531 283.375 158.8594 C 282.625 159.7656 281.7344 160.2031 280.6719 160.2031 L 280.5 160.2031 L 280.5 151 L 280.5 151 ZM 285.2188 160.75 C 286.7344 159.2969 287.5 157.5313 287.5 155.4688 C 287.5 153.4063 286.7969 151.6563 285.4219 150.1875 C 284.0469 148.7344 282.375 148 280.4219 148 L 277.5 148 L 277.5 167 L 280.5 167 L 280.5 163 L 280.7031 163 C 281.3906 163 282.0469 162.9063 282.6719 162.7031 L 284.5156 167 L 287.2969 167 L 284.5 161.3594 C 284.75 161.1719 284.9844 160.9688 285.2188 160.75 L 285.2188 160.75 Z" fill="#ffffff"/>			<path d="M 290.5 167 L 299.3125 167 L 299.3125 164 L 293.5 164 L 293.5 161 L 299.3125 161 L 299.3125 158 L 293.5 158 L 293.5 151 L 299.3125 151 L 299.3125 148 L 290.5 148 L 290.5 167 L 290.5 167 Z" fill="#ffffff"/>			<path d="M 319.4375 166.5938 C 320.1563 166.3125 320.7969 165.9063 321.3594 165.375 C 321.9219 164.8594 322.3594 164.2656 322.6719 163.5938 C 322.9844 162.9219 323.1406 162.2188 323.1406 161.4688 C 323.1094 160.6563 322.9844 159.9531 322.7344 159.3594 C 322.4844 158.7656 322.1406 158.2813 321.7344 157.8906 C 321.3125 157.5 320.8906 157.1875 320.4688 156.9375 C 320.0313 156.6875 319.4844 156.4063 318.8125 156.0781 C 317.8125 155.625 317.0938 155.2188 316.6563 154.8438 C 316.2188 154.4844 315.9844 153.9844 315.9688 153.3594 C 315.9688 152.7188 316.2344 152.1563 316.7969 151.6563 C 317.3438 151.1563 318.0156 150.9063 318.8125 150.8906 C 319.1563 150.8906 319.5 150.9375 319.8125 151.0313 C 320.125 151.125 320.4063 151.25 320.6563 151.375 C 320.8906 151.5 321.0781 151.5938 321.2188 151.6563 C 321.3438 151.7188 321.5938 151.8594 321.9531 152.0781 L 321.9531 149.1563 C 321.3594 148.7969 320.8281 148.5469 320.3594 148.4063 C 319.8906 148.2656 319.375 148.1875 318.8125 148.1563 C 318.0625 148.1563 317.3438 148.2969 316.6563 148.5469 C 315.9688 148.7969 315.375 149.1563 314.8438 149.625 C 314.3125 150.0938 313.875 150.625 313.5625 151.2344 C 313.25 151.8438 313.0781 152.5 313.0469 153.2188 C 313.0469 153.9375 313.1563 154.5781 313.4063 155.1094 C 313.6563 155.6563 313.9688 156.125 314.375 156.5 C 314.7813 156.8906 315.1875 157.2188 315.625 157.4844 C 316.0625 157.75 316.5938 158.0469 317.2188 158.3594 C 318.25 158.8906 319 159.3438 319.4531 159.75 C 319.9063 160.1563 320.1406 160.6875 320.1406 161.3438 C 320.1406 162.1406 319.8594 162.8281 319.3281 163.4063 C 318.7969 163.9844 318.1094 164.2656 317.2813 164.2656 C 316.875 164.2656 316.4531 164.2031 316.0469 164.0781 C 315.625 163.9531 315.25 163.7969 314.9063 163.6094 C 314.5625 163.4219 314.2656 163.25 314.0313 163.0781 C 313.7969 162.9219 313.4688 162.6094 313.0313 162.1406 L 313.0313 165.625 C 313.7344 166.1563 314.3906 166.5313 315.0156 166.7344 C 315.6406 166.9375 316.3594 167.0313 317.1719 167.0313 C 317.9531 167.0313 318.7188 166.8906 319.4375 166.5938 L 319.4375 166.5938 Z" fill="#ffffff"/>			<path d="M 338.5 148 L 335.5 148 L 335.5 158 L 330.5 158 L 330.5 148 L 327.5 148 L 327.5 167 L 330.5 167 L 330.5 161 L 335.5 161 L 335.5 167 L 338.5 167 L 338.5 148 L 338.5 148 Z" fill="#ffffff"/>			<path d="M 342.5 167 L 351.3125 167 L 351.3125 164 L 345.5 164 L 345.5 161 L 351.3125 161 L 351.3125 158 L 345.5 158 L 345.5 151 L 351.3125 151 L 351.3125 148 L 342.5 148 L 342.5 167 L 342.5 167 Z" fill="#ffffff"/>			<path d="M 372.7813 148 L 367.5 157.1719 L 367.5 148 L 364.5 148 L 364.5 166.9688 L 367.5 167 L 367.5 162.8906 L 369.9375 158.6875 L 372.75 167 L 375.7813 167 L 371.8281 155.375 L 376.0781 148 L 372.7813 148 L 372.7813 148 Z" fill="#ffffff"/>			<path d="M 380.0313 147.4531 L 380.0313 167 L 382.875 167 L 382.875 156.0938 L 391.5313 167.8281 L 391.5313 148.2031 L 388.6875 148.2031 L 388.6875 159.2031 L 380.0313 147.4531 L 380.0313 147.4531 Z" fill="#ffffff"/>			<path d="M 413.4688 153.9375 C 412.9688 152.7813 412.2813 151.7813 411.4063 150.9375 C 410.5313 150.0938 409.5156 149.4219 408.3594 148.9219 C 407.2031 148.4375 405.9531 148.1875 404.6406 148.1875 C 403.2969 148.1875 402.0469 148.4375 400.8906 148.9219 C 399.7344 149.4219 398.7188 150.0938 397.8438 150.9375 C 396.9688 151.7813 396.2813 152.7813 395.7813 153.9375 C 395.2813 155.0938 395.0313 156.3125 395.0313 157.6094 C 395.0313 158.9219 395.2813 160.1406 395.7813 161.2656 C 396.2813 162.4063 396.9688 163.4063 397.8438 164.25 C 398.7188 165.0938 399.7344 165.7656 400.8906 166.2656 C 402.0469 166.7656 403.2969 167 404.6406 167 C 405.9531 167 407.2031 166.7656 408.3594 166.2656 C 409.5156 165.7656 410.5313 165.0938 411.4063 164.25 C 412.2813 163.4063 412.9688 162.4063 413.4688 161.2656 C 413.9688 160.1406 414.2344 158.9219 414.2344 157.6094 C 414.2344 156.3125 413.9688 155.0938 413.4688 153.9375 L 413.4688 153.9375 ZM 398.5938 155.0625 C 398.9375 154.2813 399.4063 153.5938 400 153 C 400.5938 152.4063 401.2813 151.9531 402.0781 151.625 C 402.875 151.2969 403.7344 151.125 404.6406 151.125 C 405.5313 151.125 406.375 151.2969 407.1719 151.625 C 407.9531 151.9531 408.6406 152.4063 409.2344 153 C 409.8281 153.5938 410.2813 154.2813 410.625 155.0625 C 410.9688 155.8594 411.1406 156.7031 411.1406 157.6094 C 411.1406 158.5156 410.9688 159.375 410.625 160.1563 C 410.2813 160.9531 409.8281 161.6406 409.2344 162.2344 C 408.6406 162.8281 407.9531 163.2813 407.1719 163.6094 C 406.375 163.9531 405.5313 164.1094 404.6406 164.1094 C 403.7344 164.1094 402.875 163.9531 402.0781 163.6094 C 401.2813 163.2813 400.5938 162.8281 400 162.2344 C 399.4063 161.6406 398.9375 160.9531 398.5938 160.1563 C 398.25 159.375 398.0938 158.5156 398.0938 157.6094 C 398.0938 156.7031 398.25 155.8594 398.5938 155.0625 L 398.5938 155.0625 Z" fill="#ffffff"/>			<path d="M 416.0313 148.2188 L 422.2969 167.8125 L 425.8125 156.8125 L 429.3281 167.8125 L 435.5938 148.2188 L 432.6094 148.2188 L 429.3281 158.5 L 425.8125 147.4688 L 422.2969 158.5 L 419 148.2188 L 416.0313 148.2188 L 416.0313 148.2188 Z" fill="#ffffff"/>			<path d="M 444.4375 166.5938 C 445.1563 166.3125 445.7969 165.9063 446.3594 165.375 C 446.9219 164.8594 447.3594 164.2656 447.6719 163.5938 C 447.9844 162.9219 448.1406 162.2188 448.1406 161.4688 C 448.1094 160.6563 447.9844 159.9531 447.7344 159.3594 C 447.4844 158.7656 447.1406 158.2813 446.7344 157.8906 C 446.3125 157.5 445.8906 157.1875 445.4688 156.9375 C 445.0313 156.6875 444.4844 156.4063 443.8125 156.0781 C 442.8125 155.625 442.0938 155.2188 441.6563 154.8438 C 441.2188 154.4844 440.9844 153.9844 440.9688 153.3594 C 440.9688 152.7188 441.2344 152.1563 441.7969 151.6563 C 442.3438 151.1563 443.0156 150.9063 443.8125 150.8906 C 444.1563 150.8906 444.5 150.9375 444.8125 151.0313 C 445.125 151.125 445.4063 151.25 445.6563 151.375 C 445.8906 151.5 446.0781 151.5938 446.2188 151.6563 C 446.3438 151.7188 446.5938 151.8594 446.9531 152.0781 L 446.9531 149.1563 C 446.3594 148.7969 445.8281 148.5469 445.3594 148.4063 C 444.8906 148.2656 444.375 148.1875 443.8125 148.1563 C 443.0625 148.1563 442.3438 148.2969 441.6563 148.5469 C 440.9688 148.7969 440.375 149.1563 439.8438 149.625 C 439.3125 150.0938 438.875 150.625 438.5625 151.2344 C 438.25 151.8438 438.0781 152.5 438.0469 153.2188 C 438.0469 153.9375 438.1563 154.5781 438.4063 155.1094 C 438.6563 155.6563 438.9688 156.125 439.375 156.5 C 439.7813 156.8906 440.1875 157.2188 440.625 157.4844 C 441.0625 157.75 441.5938 158.0469 442.2188 158.3594 C 443.25 158.8906 444 159.3438 444.4531 159.75 C 444.9063 160.1563 445.1406 160.6875 445.1406 161.3438 C 445.1406 162.1406 444.8594 162.8281 444.3281 163.4063 C 443.7969 163.9844 443.1094 164.2656 442.2813 164.2656 C 441.875 164.2656 441.4531 164.2031 441.0469 164.0781 C 440.625 163.9531 440.25 163.7969 439.9063 163.6094 C 439.5625 163.4219 439.2656 163.25 439.0313 163.0781 C 438.7969 162.9219 438.4688 162.6094 438.0313 162.1406 L 438.0313 165.625 C 438.7344 166.1563 439.3906 166.5313 440.0156 166.7344 C 440.6406 166.9375 441.3594 167.0313 442.1719 167.0313 C 442.9531 167.0313 443.7188 166.8906 444.4375 166.5938 L 444.4375 166.5938 Z" fill="#ffffff"/>			<path d="M 468.4375 166.5938 C 469.1563 166.3125 469.7969 165.9063 470.3594 165.375 C 470.9219 164.8594 471.3594 164.2656 471.6719 163.5938 C 471.9844 162.9219 472.1406 162.2188 472.1406 161.4688 C 472.1094 160.6563 471.9844 159.9531 471.7344 159.3594 C 471.4844 158.7656 471.1406 158.2813 470.7344 157.8906 C 470.3125 157.5 469.8906 157.1875 469.4688 156.9375 C 469.0313 156.6875 468.4844 156.4063 467.8125 156.0781 C 466.8125 155.625 466.0938 155.2188 465.6563 154.8438 C 465.2188 154.4844 464.9844 153.9844 464.9688 153.3594 C 464.9688 152.7188 465.2344 152.1563 465.7969 151.6563 C 466.3438 151.1563 467.0156 150.9063 467.8125 150.8906 C 468.1563 150.8906 468.5 150.9375 468.8125 151.0313 C 469.125 151.125 469.4063 151.25 469.6563 151.375 C 469.8906 151.5 470.0781 151.5938 470.2188 151.6563 C 470.3438 151.7188 470.5938 151.8594 470.9531 152.0781 L 470.9531 149.1563 C 470.3594 148.7969 469.8281 148.5469 469.3594 148.4063 C 468.8906 148.2656 468.375 148.1875 467.8125 148.1563 C 467.0625 148.1563 466.3438 148.2969 465.6563 148.5469 C 464.9688 148.7969 464.375 149.1563 463.8438 149.625 C 463.3125 150.0938 462.875 150.625 462.5625 151.2344 C 462.25 151.8438 462.0781 152.5 462.0469 153.2188 C 462.0469 153.9375 462.1563 154.5781 462.4063 155.1094 C 462.6563 155.6563 462.9688 156.125 463.375 156.5 C 463.7813 156.8906 464.1875 157.2188 464.625 157.4844 C 465.0625 157.75 465.5938 158.0469 466.2188 158.3594 C 467.25 158.8906 468 159.3438 468.4531 159.75 C 468.9063 160.1563 469.1406 160.6875 469.1406 161.3438 C 469.1406 162.1406 468.8594 162.8281 468.3281 163.4063 C 467.7969 163.9844 467.1094 164.2656 466.2813 164.2656 C 465.875 164.2656 465.4531 164.2031 465.0469 164.0781 C 464.625 163.9531 464.25 163.7969 463.9063 163.6094 C 463.5625 163.4219 463.2656 163.25 463.0313 163.0781 C 462.7969 162.9219 462.4688 162.6094 462.0313 162.1406 L 462.0313 165.625 C 462.7344 166.1563 463.3906 166.5313 464.0156 166.7344 C 464.6406 166.9375 465.3594 167.0313 466.1719 167.0313 C 466.9531 167.0313 467.7188 166.8906 468.4375 166.5938 L 468.4375 166.5938 Z" fill="#ffffff"/>			<path d="M 487.5 148 L 484.5 148 L 484.5 158 L 479.5 158 L 479.5 148 L 476.5 148 L 476.5 167 L 479.5 167 L 479.5 161 L 484.5 161 L 484.5 167 L 487.5 167 L 487.5 148 L 487.5 148 Z" fill="#ffffff"/>			<path d="M 491.5 167 L 500.3125 167 L 500.3125 164 L 494.5 164 L 494.5 161 L 500.3125 161 L 500.3125 158 L 494.5 158 L 494.5 151 L 500.3125 151 L 500.3125 148 L 491.5 148 L 491.5 167 L 491.5 167 Z" fill="#ffffff"/>			<path d="M 514.0313 148.2188 L 520.2969 167.8125 L 523.8125 156.8125 L 527.3281 167.8125 L 533.5938 148.2188 L 530.6094 148.2188 L 527.3281 158.5 L 523.8125 147.4688 L 520.2969 158.5 L 517 148.2188 L 514.0313 148.2188 L 514.0313 148.2188 Z" fill="#ffffff"/>			<path d="M 553.4688 153.9375 C 552.9688 152.7813 552.2813 151.7813 551.4063 150.9375 C 550.5313 150.0938 549.5156 149.4219 548.3594 148.9219 C 547.2031 148.4375 545.9531 148.1875 544.6406 148.1875 C 543.2969 148.1875 542.0469 148.4375 540.8906 148.9219 C 539.7344 149.4219 538.7188 150.0938 537.8438 150.9375 C 536.9688 151.7813 536.2813 152.7813 535.7813 153.9375 C 535.2813 155.0938 535.0313 156.3125 535.0313 157.6094 C 535.0313 158.9219 535.2813 160.1406 535.7813 161.2656 C 536.2813 162.4063 536.9688 163.4063 537.8438 164.25 C 538.7188 165.0938 539.7344 165.7656 540.8906 166.2656 C 542.0469 166.7656 543.2969 167 544.6406 167 C 545.9531 167 547.2031 166.7656 548.3594 166.2656 C 549.5156 165.7656 550.5313 165.0938 551.4063 164.25 C 552.2813 163.4063 552.9688 162.4063 553.4688 161.2656 C 553.9688 160.1406 554.2344 158.9219 554.2344 157.6094 C 554.2344 156.3125 553.9688 155.0938 553.4688 153.9375 L 553.4688 153.9375 ZM 538.5938 155.0625 C 538.9375 154.2813 539.4063 153.5938 540 153 C 540.5938 152.4063 541.2813 151.9531 542.0781 151.625 C 542.875 151.2969 543.7344 151.125 544.6406 151.125 C 545.5313 151.125 546.375 151.2969 547.1719 151.625 C 547.9531 151.9531 548.6406 152.4063 549.2344 153 C 549.8281 153.5938 550.2813 154.2813 550.625 155.0625 C 550.9688 155.8594 551.1406 156.7031 551.1406 157.6094 C 551.1406 158.5156 550.9688 159.375 550.625 160.1563 C 550.2813 160.9531 549.8281 161.6406 549.2344 162.2344 C 548.6406 162.8281 547.9531 163.2813 547.1719 163.6094 C 546.375 163.9531 545.5313 164.1094 544.6406 164.1094 C 543.7344 164.1094 542.875 163.9531 542.0781 163.6094 C 541.2813 163.2813 540.5938 162.8281 540 162.2344 C 539.4063 161.6406 538.9375 160.9531 538.5938 160.1563 C 538.25 159.375 538.0938 158.5156 538.0938 157.6094 C 538.0938 156.7031 538.25 155.8594 538.5938 155.0625 L 538.5938 155.0625 Z" fill="#ffffff"/>			<path d="M 558.0313 147.4531 L 558.0313 167 L 560.875 167 L 560.875 156.0938 L 569.5313 167.8281 L 569.5313 148.2031 L 566.6875 148.2031 L 566.6875 159.2031 L 558.0313 147.4531 L 558.0313 147.4531 Z" fill="#ffffff"/>			<path d="M 573.0313 152.6094 L 573.0313 153 L 574.5156 153 L 577.1563 146.3906 L 577.1563 146 L 574.5156 146 L 573.0313 152.6094 L 573.0313 152.6094 Z" fill="#ffffff"/>			<path d="M 580.8281 151 L 585.5 151 L 585.5 167 L 588.5 167 L 588.5 151 L 593.1719 151 L 593.1719 148 L 580.8281 148 L 580.8281 151 L 580.8281 151 Z" fill="#ffffff"/>			<path d="M 610.5 151 L 611.9844 151 C 612.3906 151 612.7344 151.2031 613.0156 151.5781 C 613.2969 151.9688 613.4375 152.4375 613.4375 152.9844 C 613.4375 153.5625 613.2969 154.0469 613.0156 154.4219 C 612.7344 154.8125 612.3906 155 611.9844 155 L 610.5 155 L 610.5 151 L 610.5 151 ZM 612.9219 167 C 614.4531 167 615.7656 166.4688 616.8594 165.375 C 617.9531 164.2813 618.5 162.9688 618.5 161.4219 C 618.5 159.8906 617.9531 158.5625 616.875 157.4688 C 616.1875 156.8125 615.4375 156.3438 614.625 156.0781 C 615.2031 155.1719 615.5 154.0625 615.5 152.75 C 615.5 151.4375 615.1094 150.3281 614.3281 149.3906 C 613.5469 148.4688 612.6094 148 611.5156 148 L 607.5 148 L 607.5 167 L 612.9219 167 L 612.9219 167 ZM 612.9219 158 C 613.625 158 614.2344 158.2969 614.7344 158.8906 C 615.2344 159.4844 615.5 160.1875 615.5 161 C 615.5 161.8281 615.2344 162.5313 614.7344 163.125 C 614.2344 163.7188 613.625 164 612.9219 164 L 610.5 164 L 610.5 162.0469 L 610.5 158 L 612.9219 158 L 612.9219 158 Z" fill="#ffffff"/>			<path d="M 621.5 167 L 630.3125 167 L 630.3125 164 L 624.5 164 L 624.5 161 L 630.3125 161 L 630.3125 158 L 624.5 158 L 624.5 151 L 630.3125 151 L 630.3125 148 L 621.5 148 L 621.5 167 L 621.5 167 Z" fill="#ffffff"/>			<path d="M 634.5 167 L 636.5 167 L 636.5 164 L 634.5 164 L 634.5 167 L 634.5 167 Z" fill="#ffffff"/>			<path d="M 640.5 167 L 642.5 167 L 642.5 164 L 640.5 164 L 640.5 167 L 640.5 167 Z" fill="#ffffff"/>			<path d="M 646.5 167 L 648.5 167 L 648.5 164 L 646.5 164 L 646.5 167 L 646.5 167 Z" fill="#ffffff"/>			<path d="M 652.5 167 L 654.5 167 L 654.5 164 L 652.5 164 L 652.5 167 L 652.5 167 Z" fill="#ffffff"/>		</g>		<path d="M 69.2 20 C 61.9097 20 56 25.9097 56 33.2 L 56 72.8 C 56 80.0903 61.9097 86 69.2 86 L 81.955 86 L 188 354 L 116.145 86 L 430 86 L 430 107 L 164.4 107 C 156.447 107 150 113.447 150 121.4 L 150 164.6 C 150 172.553 156.447 179 164.4 179 L 476 179 L 476 204 L 245 204 C 240.5817 204 237 207.5817 237 212 L 237 236 C 237 240.4183 240.5817 244 245 244 L 775 244 C 779.4183 244 783 240.4183 783 236 L 783 212 C 783 207.5817 779.4183 204 775 204 L 490 204 L 490 179 L 717.6 179 C 725.553 179 732 172.553 732 164.6 L 732 121.4 C 732 113.447 725.553 107 717.6 107 L 444 107 L 444 86 L 670.8 86 C 678.0903 86 684 80.0903 684 72.8 L 684 33.2 C 684 25.9097 678.0903 20 670.8 20 L 69.2 20 Z" stroke="#ffffff" stroke-width="2" fill="none"/>	</g></svg>