<?xml version="1.0" standalone="no"?><!-- Generator: Adobe Fireworks CS5, Export SVG Extension by Aaron Beall (http://fireworks.abeall.com) . Version: 0.6.1  --><!DOCTYPE svg PUBLIC "-//W3C//DTD SVG 1.1//EN" "http://www.w3.org/Graphics/SVG/1.1/DTD/svg11.dtd"><svg id="morris_ch02p09-Page%201" viewBox="0 0 800 800" style="background-color:#ffffff" version="1.1"	xmlns="http://www.w3.org/2000/svg" xmlns:xlink="http://www.w3.org/1999/xlink" xml:space="preserve"	x="0px" y="0px" width="800px" height="800px">	<defs>		<radialGradient id="gradient1" cx="33.3334%" cy="16.4179%" r="45.1967%">			<stop stop-color="#c8a078" stop-opacity="1" offset="0%"/>			<stop stop-color="#ffcc99" stop-opacity="1" offset="100%"/>		</radialGradient>		<linearGradient id="gradient2" x1="50%" y1="0%" x2="50%" y2="100%">			<stop stop-color="#0b0f18" stop-opacity="1" offset="0%"/>			<stop stop-color="#111325" stop-opacity="1" offset="100%"/>		</linearGradient>		<linearGradient id="gradient3" x1="54.4163%" y1="-21.8661%" x2="54.4163%" y2="31.4695%">			<stop stop-color="#000000" stop-opacity="1" offset="0%"/>			<stop stop-color="#ffffff" stop-opacity="1" offset="100%"/>		</linearGradient>	</defs>	<g id="Background">		<rect x="0" y="0" width="800" height="800" fill="#000000"/>	</g>	<g id="furniture">		<rect x="113.7944" y="629.2253" width="24.5955" height="36.0438" fill="#cccccc"/>		<rect x="611.8529" y="628.3463" width="24.5955" height="36.0438" fill="#cccccc"/>		<rect x="175.0079" y="606.3524" width="24.5955" height="36.0438" fill="#cccccc"/>		<rect x="552.2208" y="607.2315" width="24.5955" height="36.0438" fill="#cccccc"/>		<path d="M 115.5512 525.4897 L 656.6519 525.4897 L 680.0224 592.7947 L 74 586.8666 L 115.5512 525.4897 Z" fill="#2b345d"/>		<path d="M 76.9012 587.907 L 680.3689 587.907 L 655.7734 636.2585 L 97.983 636.2585 L 76.9012 587.907 Z" fill="#45527c"/>		<path d="M 89.4292 383.7749 L 678.1458 305.8819 L 655.7734 529.0062 L 114.6728 529.0062 L 89.4292 383.7749 Z" fill="#45527c"/>		<path opacity="0.3686" d="M 517.1222 173.0814 C 517.1222 173.0814 507.8351 243.1709 502.795 277.6 C 503.613 244.1277 506.1682 177.7896 506.1682 177.7896 C 506.1682 177.7896 501.1901 253.0185 498.62 283.56 C 496.8821 254.1285 494.0256 183.6697 494.0256 183.6697 C 494.0256 183.6697 494.7867 246.3598 494.735 278.225 C 491.1123 247.5913 484.9789 188.5889 484.9789 188.5889 C 484.9789 188.5889 490.0487 256.305 491.645 284.5 C 486.2775 257.6995 474.8934 194.7865 474.8934 194.7865 C 474.8934 194.7865 483.2741 250.4089 487.265 279.615 C 480.0992 251.8498 467.4383 199.7871 467.4383 199.7871 C 467.4383 199.7871 480.2731 260.3735 485.24 286.145 C 476.9919 261.9904 459.0813 206.1438 459.0813 206.1438 C 459.0813 206.1438 473.1776 255.1602 480.42 281.695 C 470.455 256.7593 452.9549 211.146 452.9549 211.146 C 452.9549 211.146 471.7753 265.0531 479.445 288.4 C 468.9403 266.8448 446.0519 217.5597 446.0519 217.5597 C 446.0519 217.5597 464.3924 260.475 474.23 284.38 C 462.0775 262.192 441.0395 222.5175 441.0395 222.5175 C 441.0395 222.5175 464.451 270.1991 474.27 291.17 C 462.0224 272.1292 435.3651 228.9245 435.3651 228.9245 C 435.3651 228.9245 456.8087 266.2605 468.7 287.61 C 454.8612 268.0649 431.2928 233.8142 431.2928 233.8142 C 431.2928 233.8142 458.2159 275.7083 469.73 294.38 C 456.1593 277.7485 426.6642 240.1776 426.6642 240.1776 C 426.6642 240.1776 450.3555 272.4243 463.855 291.31 C 448.7393 274.2929 423.3929 244.9903 423.3929 244.9903 C 423.3929 244.9903 452.9706 281.4861 465.81 297.95 C 451.257 283.6148 419.663 251.291 419.663 251.291 C 419.663 251.291 444.9481 278.8994 459.69 295.42 C 443.6319 280.8151 417.0818 256.0277 417.0818 256.0277 C 417.0818 256.0277 448.6307 287.4744 462.495 301.825 C 447.2355 289.6745 414.1333 262.259 414.1333 262.259 C 414.1333 262.259 440.5261 285.6319 456.21 299.885 C 439.4831 287.5826 412.1548 266.927 412.1548 266.927 C 412.1548 266.927 445.1302 293.6237 459.775 305.95 C 444.0332 295.8811 409.8951 273.0906 409.8951 273.0906 C 409.8951 273.0906 437.0318 292.5683 453.41 304.645 C 436.2397 294.5457 408.451 277.7013 408.451 277.7013 C 408.451 277.7013 442.3993 299.894 457.625 310.275 C 441.5841 302.1973 406.8082 283.8047 406.8082 283.8047 C 406.8082 283.8047 434.4234 299.6645 451.29 309.645 C 433.8643 301.6636 405.8463 288.3722 405.8463 288.3722 C 405.8463 288.3722 440.3891 306.2741 456.03 314.775 C 439.8422 308.6135 404.7659 294.4266 404.7659 294.4266 C 404.7659 294.4266 432.6635 306.8893 449.845 314.84 C 432.3237 308.9073 404.2477 298.9669 404.2477 298.9669 C 404.2477 298.9669 439.0701 312.7357 454.985 319.405 C 438.7807 315.1029 403.6901 304.9865 403.6901 304.9865 C 403.6901 304.9865 431.7085 314.204 449.055 320.175 C 431.5781 316.2396 403.5885 309.5165 403.5885 309.5165 C 403.5885 309.5165 438.4109 319.2818 454.475 324.15 C 438.3705 321.6693 403.5277 315.5175 403.5277 315.5175 C 403.5277 315.5175 431.5377 321.5811 448.915 325.605 C 431.6107 323.6341 403.8261 320.0549 403.8261 320.0549 C 403.8261 320.0549 438.4026 325.9008 454.5 328.98 C 438.6051 328.3027 404.2479 326.0548 404.2479 326.0548 C 404.2479 326.0548 432.1221 329.0044 449.405 331.095 C 432.3962 331.0751 404.9393 330.618 404.9393 330.618 C 404.9393 330.618 439.0329 332.5867 455.05 333.87 C 439.4744 334.9974 405.8407 336.6356 405.8407 336.6356 C 405.8407 336.6356 433.4546 336.4481 450.52 336.6 C 433.9308 338.5369 406.9271 341.2432 406.9271 341.2432 C 406.9271 341.2432 440.3203 339.3331 456.14 338.795 C 440.9995 341.7482 408.3164 347.298 408.3164 347.298 C 408.3164 347.298 435.5142 343.892 452.235 342.08 C 436.1966 345.9987 409.8089 351.9691 409.8089 351.9691 C 409.8089 351.9691 442.2696 346.1332 457.765 343.73 C 443.188 348.5487 411.7057 358.0815 411.7057 358.0815 C 411.7057 358.0815 438.3058 351.3264 454.545 347.505 C 439.2019 353.45 413.6247 362.8352 413.6247 362.8352 C 413.6247 362.8352 444.9111 352.9699 459.94 348.64 C 446.0732 355.3818 416.0608 369.0258 416.0608 369.0258 C 416.0608 369.0258 441.8311 358.7417 457.435 352.845 C 442.951 360.8799 418.4365 373.8813 418.4365 373.8813 C 418.4365 373.8813 448.2704 359.8301 462.67 353.495 C 449.6845 362.2344 421.4569 380.1709 421.4569 380.1709 C 421.4569 380.1709 446.1084 366.1187 460.9 358.06 C 447.4651 368.2677 424.3309 385.1472 424.3309 385.1472 C 424.3309 385.1472 452.3852 366.6797 465.965 358.245 C 454.0631 369.0717 427.9957 391.5564 427.9957 391.5564 C 427.9957 391.5564 451.1638 373.4534 464.935 363.125 C 452.773 375.607 431.422 396.6714 431.422 396.6714 C 431.422 396.6714 457.2948 373.4931 469.83 362.85 C 459.2524 375.866 435.8088 403.2197 435.8088 403.2197 C 435.8088 403.2197 457.0327 380.7269 469.535 368 C 458.9128 382.8766 439.856 408.4899 439.856 408.4899 C 439.856 408.4899 463.041 380.2176 474.265 367.245 C 465.2983 382.5626 445.0629 415.1944 445.0629 415.1944 C 445.0629 415.1944 463.7712 387.9243 474.705 372.65 C 465.9432 390.0585 449.8169 420.6335 449.8169 420.6335 C 449.8169 420.6335 469.6643 386.8021 479.26 371.37 C 472.2456 389.1063 455.9665 427.5071 455.9665 427.5071 C 455.9665 427.5071 471.4484 395.0137 480.45 377.025 C 473.9358 397.1169 461.5331 433.1233 461.5331 433.1233 C 461.5331 433.1233 477.2047 393.1806 484.795 375.155 C 480.1381 395.4262 468.7771 440.172 468.7771 440.172 C 468.7771 440.172 480.1378 401.959 486.765 381.075 C 482.9671 404.0113 475.2861 445.9658 475.2861 445.9658 C 475.2861 445.9658 485.7073 399.2648 490.845 378.515 C 489.0242 401.4269 483.8111 453.1835 483.8111 453.1835 C 483.8111 453.1835 489.9351 408.7025 493.65 384.735 C 493.1352 410.6777 491.4193 459.1421 491.4193 459.1421 C 491.4193 459.1421 495.2074 404.9663 497.365 381.375 C 498.9416 407.0109 501.4522 466.5037 501.4522 466.5037 C 501.4522 466.5037 500.9395 415.1541 501.09 387.92 C 504.5414 417.0186 510.3476 472.5937 510.3476 472.5937 C 510.3476 472.5937 505.7353 410.1679 504.295 383.645 C 509.9209 412.0497 522.1613 480.0444 522.1613 480.0444 C 522.1613 480.0444 513.2687 421.2006 509.07 390.54 C 517.3044 422.91 532.5645 486.201 532.5645 486.201 C 532.5645 486.201 517.3092 414.7325 511.555 385.235 C 521.9779 416.3916 546.4808 493.6399 546.4808 493.6399 C 546.4808 493.6399 527.0226 426.682 517.54 392.485 C 531.5224 428.1779 558.6435 499.75 558.6435 499.75 C 558.6435 499.75 529.9424 418.5095 519.055 386.065 C 535.1188 419.8683 575.0304 507.0059 575.0304 507.0059 C 575.0304 507.0059 542.2815 431.3835 526.42 393.63 C 547.2686 432.5891 589.2238 512.8845 589.2238 512.8845 C 589.2238 512.8845 543.6143 421.3066 526.675 386.05 C 549.3085 422.2659 608.4785 519.6815 608.4785 519.6815 C 608.4785 519.6815 559.0918 435.0102 535.6 393.825 C 564.5742 435.8253 624.9685 525.0396 624.9685 525.0396 C 624.9685 525.0396 558.2688 422.9004 534.275 385.115 C 564.4658 423.3363 647.4753 530.9507 647.4753 530.9507 C 647.4753 530.9507 577.4204 437.2096 544.92 392.935 C 583.376 437.5046 666.4653 535.3533 666.4653 535.3533 C 666.4653 535.3533 573.8018 423.037 541.705 383.21 C 580.4447 422.7985 692.5072 539.7424 692.5072 539.7424 C 692.5072 539.7424 597.0918 437.5295 554.15 390.815 C 603.4467 437.143 714.0355 542.5624 714.0355 542.5624 C 714.0355 542.5624 590.0014 421.396 548.78 380.28 C 596.9696 420.3066 743.6329 544.5273 743.6329 544.5273 C 743.6329 544.5273 617.7495 435.4395 563.02 387.345 C 624.3473 434.1811 767.403 544.9142 767.403 544.9142 C 767.403 544.9142 606.5257 417.6346 555.31 376.315 C 613.6045 415.5015 800.0531 543.2604 800.0531 543.2604 C 800.0531 543.2604 638.7402 430.3696 571.19 382.455 C 645.3052 428.035 825.187 540.1574 825.187 540.1574 C 825.187 540.1574 622.8231 411.3772 561.085 371.32 C 629.6727 408.0153 859.5131 533.469 859.5131 533.469 C 859.5131 533.469 659.0389 421.7545 578.28 376.125 C 665.1463 418.1632 884.2802 525.7512 884.2802 525.7512 C 884.2802 525.7512 638.0784 402.3021 565.89 365.355 C 644.2165 397.5797 917.6938 512.6531 917.6938 512.6531 C 917.6938 512.6531 677.2181 409.2071 583.905 368.445 C 682.2958 404.2664 939.3656 499.4534 939.3656 499.4534 C 939.3656 499.4534 651.1891 390.2137 569.51 358.51 C 656.0141 384.1214 968.0118 479.1353 968.0118 479.1353 C 968.0118 479.1353 691.5129 392.6811 587.705 359.6 C 694.9118 386.4684 983.1257 460.3538 983.1257 460.3538 C 983.1257 460.3538 660.8578 375.2123 571.76 350.935 C 663.7463 367.9358 1002.4945 433.2547 1002.4945 433.2547 C 1002.4945 433.2547 700.1192 372.6827 589.415 349.88 C 701.2696 365.5071 1007.7515 410.0372 1007.7515 410.0372 C 1007.7515 410.0372 665.8294 357.8262 572.5 342.835 C 666.306 349.7799 1014.0961 378.2894 1014.0961 378.2894 C 1014.0961 378.2894 701.6535 350.3818 588.89 339.675 C 700.2655 342.7689 1007.6939 353.0649 1007.6939 353.0649 C 1007.6939 353.0649 665.238 339.0305 571.645 334.45 C 663.1522 330.8037 999.6558 320.1822 999.6558 320.1822 C 999.6558 320.1822 695.6709 327.4362 586.155 329.405 C 691.8648 320.0113 982.2396 295.9975 982.2396 295.9975 C 982.2396 295.9975 658.9606 320.1183 569.205 326.06 C 654.5604 312.3336 961.5524 265.7534 961.5524 265.7534 C 961.5524 265.7534 682.8781 305.6318 581.395 319.495 C 677.1481 298.9495 936.0016 245.2196 936.0016 245.2196 C 936.0016 245.2196 647.6579 302.3736 565.265 317.935 C 641.501 295.531 906.6609 220.393 906.6609 220.393 C 906.6609 220.393 664.8962 286.4045 574.92 310.295 C 657.9286 280.8232 876.8479 204.9366 876.8479 204.9366 C 876.8479 204.9366 632.5702 286.8098 559.995 310.34 C 625.3366 281.1979 843.4352 186.7165 843.4352 186.7165 C 843.4352 186.7165 643.7159 270.6101 567.11 302.085 C 636.1845 266.2657 812.8795 176.5145 812.8795 176.5145 C 812.8795 176.5145 615.1223 273.9962 553.615 303.485 C 607.4398 269.6946 779.1807 164.708 779.1807 164.708 C 779.1807 164.708 621.1798 258.4851 558.355 295.03 C 613.6167 255.3419 750.3254 159.1044 750.3254 159.1044 C 750.3254 159.1044 596.6104 264.1022 546.38 297.53 C 588.9609 261.041 718.79 152.7288 718.79 152.7288 C 718.79 152.7288 598.6984 249.8385 549.02 289.21 C 591.4592 247.7636 692.9405 150.7309 692.9405 150.7309 C 692.9405 150.7309 578.0443 257.0276 538.555 292.595 C 570.7468 255.0573 664.7947 148.5579 664.7947 148.5579 C 664.7947 148.5579 577.2081 244.2503 539.43 284.635 C 570.496 243.0752 642.4038 149.177 642.4038 149.177 C 642.4038 149.177 560.1271 252.488 530.395 288.725 C 553.3635 251.4322 618.0208 150.0588 618.0208 150.0588 C 618.0208 150.0588 557.2227 241.2293 529.835 281.265 C 551.1317 240.7869 599.0276 152.4694 599.0276 152.4694 C 599.0276 152.4694 543.2995 250.1537 522.135 285.935 C 537.1532 249.8411 578.2886 155.4707 578.2886 155.4707 C 578.2886 155.4707 538.9819 240.3053 520.44 279.03 C 533.5364 240.4468 562.3795 159.0467 562.3795 159.0467 C 562.3795 159.0467 527.8088 249.6751 513.98 284.19 C 522.2996 249.9545 544.9333 163.4625 544.9333 163.4625 C 544.9333 163.4625 522.535 241.0654 511.39 277.84 C 517.7194 241.6657 531.7045 167.7574 531.7045 167.7574 C 531.7045 167.7574 513.7676 250.7254 506.1 283.425 C 508.8776 251.4709 517.1222 173.0814 517.1222 173.0814 Z" fill="#ffffff"/>	</g>	<g id="baby%20morris">		<rect x="104" y="83" width="187.5789" height="187" stroke="#666666" stroke-width="2" fill="none" rx="14.96" ry="14.96"/>		<rect x="115.2894" y="91.6574" width="164.9999" height="165.3564" fill="#8358c3" rx="13.2" ry="13.2"/>		<g>			<path d="M 126.9589 177.2237 C 126.9589 177.2237 130.8487 188.6942 126.9589 193.7412 C 126.9589 193.7412 137.0266 194.6589 135.1961 182.3854 L 126.9589 177.2237 Z" fill="#ff0000"/>			<path id="Ellipse" d="M 115.2895 154.512 C 115.2895 130.5654 136.6484 111.1534 162.9968 111.1534 C 189.3451 111.1534 210.704 130.5654 210.704 154.512 C 210.704 178.4586 189.3451 197.8707 162.9968 197.8707 C 136.6484 197.8707 115.2895 178.4586 115.2895 154.512 Z" fill="#ff0000"/>			<path d="M 129.0182 135.9297 C 129.0182 135.9297 109.1115 156.8061 120.4377 175.159 L 120.4377 170.6854 L 123.8699 178.9442 L 124.5564 176.1913 L 133.1368 187.8913 C 133.1368 187.8913 144.3486 151.3002 144.463 150.0385 C 144.5774 148.7767 129.0182 135.9297 129.0182 135.9297 Z" fill="#ff0000"/>			<path d="M 125.2428 172.7502 C 125.2428 172.7502 133.1368 176.0766 134.8529 206.1294 C 134.8529 206.1294 122.6115 223.3352 145.8359 237.444 L 191.1406 223.6793 L 225.4624 220.2382 L 238.1615 216.1088 C 238.1615 216.1088 235.6445 204.5236 239.1911 203.7206 C 242.7377 202.9176 239.5343 202.6882 239.5343 202.6882 C 239.5343 202.6882 245.4835 182.5001 227.8649 179.9766 C 227.8649 179.9766 218.7819 171.3141 214.676 154.3168 C 214.6092 154.04 214.5436 153.7609 214.4794 153.4796 C 210.4752 135.9297 125.2428 172.7502 125.2428 172.7502 Z" fill="#ff0000"/>			<path d="M 189.0813 199.2471 L 198.005 214.3882 L 180.8441 222.3029 L 173.2933 207.85 L 189.0813 199.2471 Z" fill="url(#gradient1)"/>			<path id="Ellipse2" d="M 137.5986 192.8809 C 137.5986 189.7451 139.7499 187.203 142.4037 187.203 C 145.0575 187.203 147.2087 189.7451 147.2087 192.8809 C 147.2087 196.0168 145.0575 198.5589 142.4037 198.5589 C 139.7499 198.5589 137.5986 196.0168 137.5986 192.8809 Z" fill="#dcb084"/>			<path id="Ellipse3" d="M 194.5728 189.7839 C 194.5728 186.648 196.7241 184.106 199.3779 184.106 C 202.0316 184.106 204.1829 186.648 204.1829 189.7839 C 204.1829 192.9198 202.0316 195.4618 199.3779 195.4618 C 196.7241 195.4618 194.5728 192.9198 194.5728 189.7839 Z" fill="#dcb084"/>			<path id="Ellipse4" d="M 123.1835 161.2223 C 123.1835 135.4702 144.0046 114.5945 169.6895 114.5945 C 195.3744 114.5945 216.1955 135.4702 216.1955 161.2223 C 216.1955 186.9744 176.0835 210.7177 169.0603 210.7177 C 160.3209 210.7177 123.1835 186.9744 123.1835 161.2223 Z" stroke="#eabb8c" stroke-width="1" fill="#ffcc99"/>			<g>				<path id="Ellipse5" d="M 133.0305 171.3805 C 133.4993 169.1048 142.3626 164.8646 149.6348 167.641 C 156.9071 170.4174 161.2635 176.5928 159.3652 181.4345 C 157.467 186.2762 150.0331 187.9504 142.7609 185.174 C 135.4886 182.3976 131.9825 176.4675 133.0305 171.3805 Z" fill="#000000"/>				<path id="Ellipse6" d="M 135.963 172.5642 C 136.3632 170.5161 143.9295 166.6999 150.1375 169.1986 C 156.3455 171.6974 160.0643 177.2553 158.4439 181.6128 C 156.8234 185.9703 150.4774 187.4771 144.2694 184.9783 C 138.0614 182.4796 135.0684 177.1425 135.963 172.5642 Z" fill="#ffffff"/>				<path d="M 139.7531 167.0592 C 139.7531 167.0592 134.054 168.5981 132.1908 166.0699 C 130.3276 163.5418 131.2044 166.3997 131.2044 166.3997 C 131.2044 166.3997 132.0567 173.7506 133.0848 176.0155 C 133.2226 176.319 133.3635 176.5312 133.506 176.6221 C 134.7116 177.3916 133.6156 171.0163 139.7531 167.0592 Z" fill="#000000"/>			</g>			<g>				<path id="Ellipse7" d="M 200.1923 171.3805 C 199.7235 169.1048 190.8602 164.8646 183.588 167.641 C 176.3157 170.4174 171.9594 176.5928 173.8576 181.4345 C 175.7558 186.2762 183.1897 187.9504 190.4619 185.174 C 197.7342 182.3976 201.2404 176.4675 200.1923 171.3805 Z" fill="#000000"/>				<path id="Ellipse8" d="M 197.2598 172.5642 C 196.8596 170.5161 189.2934 166.6999 183.0854 169.1986 C 176.8774 171.6974 173.1585 177.2553 174.7789 181.6128 C 176.3994 185.9703 182.7454 187.4771 188.9534 184.9783 C 195.1614 182.4796 198.1544 177.1425 197.2598 172.5642 Z" fill="#ffffff"/>				<path d="M 193.4697 167.0592 C 193.4697 167.0592 199.1688 168.5981 201.032 166.0699 C 202.8952 163.5418 202.0184 166.3997 202.0184 166.3997 C 202.0184 166.3997 201.1662 173.7506 200.138 176.0155 C 200.0002 176.319 199.8593 176.5312 199.7168 176.6221 C 198.5112 177.3916 199.6073 171.0163 193.4697 167.0592 Z" fill="#000000"/>			</g>			<path d="M 162.3103 198.0726 C 162.3103 200.8118 164.4616 203.0324 167.1154 203.0324 C 169.7692 203.0324 171.9204 200.8118 171.9204 198.0726 C 171.9204 197.7687 171.8939 197.4712 171.8432 197.1824 C 171.4369 199.4968 169.4747 201.252 167.1154 201.252 C 164.756 201.252 162.7939 199.4968 162.3875 197.1824 C 162.3368 197.4712 162.3103 197.7687 162.3103 198.0726 Z" fill="#ff0000"/>			<path id="Ellipse9" d="M 142.3835 179.2602 C 142.3835 175.2535 146.1372 172.0056 150.7678 172.0056 C 155.3984 172.0056 159.1521 175.2535 159.1521 179.2602 C 159.1521 183.2668 155.3984 186.5148 150.7678 186.5148 C 146.1372 186.5148 142.3835 183.2668 142.3835 179.2602 Z" fill="#000000"/>			<path id="Ellipse10" d="M 179.2088 178.6007 C 179.2088 174.594 182.9625 171.346 187.5931 171.346 C 192.2237 171.346 195.9774 174.594 195.9774 178.6007 C 195.9774 182.6073 192.2237 185.8553 187.5931 185.8553 C 182.9625 185.8553 179.2088 182.6073 179.2088 178.6007 Z" fill="#000000"/>			<path d="M 121.8106 160.7897 C 121.8106 165.2175 122.8952 169.5047 124.7435 173.5749 L 125.3314 173.3433 C 124.5099 170.3965 123.2189 160.6129 123.2189 160.6129 L 123.9231 154.6013 L 125.3314 154.6013 L 128.1481 150.3579 L 129.5565 154.2477 L 131.6689 151.4187 L 131.6689 156.3695 L 138.0065 151.4187 L 136.5981 157.0767 L 143.6398 150.3579 L 143.2877 158.4912 L 149.6252 152.4796 L 147.5127 159.9057 L 158.4273 152.126 L 155.6106 159.1985 L 162.3002 153.1868 L 161.9481 159.9057 L 168.2856 154.2477 L 168.2856 159.1985 L 174.6231 151.4187 L 175.3273 155.6622 L 180.2564 151.4187 L 178.496 157.4303 L 186.946 151.0651 L 185.1856 156.3695 L 197.1564 148.9434 L 193.6356 156.7231 L 203.1418 150.3579 L 200.3252 157.4303 L 209.8314 153.5405 L 208.4231 158.8448 L 214.0564 157.0767 L 213.3523 160.6129 C 216.0516 163.324 211.9439 176.8795 211.9439 176.8795 L 212.7397 176.3173 C 215.5166 171.4478 217.2252 166.2242 217.2252 160.7897 C 217.2252 134.3262 195.8662 112.8739 169.5179 112.8739 C 143.1696 112.8739 121.8106 134.3262 121.8106 160.7897 Z" fill="#ff0000"/>			<path d="M 125.9292 162.6288 C 125.9292 162.6288 146.3146 155.9237 152.233 158.0122 L 150.589 159.9908 C 150.589 159.9908 145.657 157.4626 125.9292 162.6288 Z" fill="#000000"/>			<path d="M 198.6914 164.9802 C 198.6914 164.9802 178.306 158.2751 172.3877 160.3636 L 174.0316 162.3421 C 174.0316 162.3421 178.9636 159.814 198.6914 164.9802 Z" fill="#000000"/>			<path d="M 162.3103 190.3001 C 162.3103 190.3001 166.4289 188.2354 169.8611 189.956 " stroke="#dcb084" stroke-width="2" fill="none"/>			<path d="M 195.9457 120.7886 C 195.9457 120.7886 210.2464 129.5062 211.3905 132.8327 L 209.6744 133.1768 L 214.8227 137.6503 L 213.1066 138.6826 L 217.5684 146.2532 L 215.1659 145.9091 L 218.5981 152.7914 L 214.4794 151.0708 C 214.4794 151.0708 197.6618 139.3709 196.6321 136.9621 C 195.6025 134.5532 195.9457 120.7886 195.9457 120.7886 Z" fill="#ff0000"/>			<path d="M 144.1198 240.1969 C 144.1198 240.1969 144.8062 233.1999 148.5816 231.2499 L 189.0813 212.6676 L 227.8649 208.1941 C 227.8649 208.1941 234.0429 207.9647 239.8776 212.6676 L 249.1445 238.4763 L 151.3273 244.6705 L 144.1198 240.1969 Z" fill="#ffcc99"/>			<path d="M 144.1198 240.1969 L 145.4926 253.2734 L 252.119 253.044 L 239.8776 212.6676 C 234.0429 207.9647 227.8649 208.1941 227.8649 208.1941 L 209.5817 210.3036 C 210.09 211.6591 210.3608 213.0862 210.3608 214.5603 C 210.3608 223.3977 200.6033 230.5617 188.5665 230.5617 C 180.0885 230.5617 172.7422 227.0072 169.1386 221.8177 L 148.5816 231.2499 C 144.8062 233.1999 144.1198 240.1969 144.1198 240.1969 Z" fill="#000000"/>			<path d="M 156.1324 217.4853 C 156.1324 217.4853 153.7299 228.1529 156.8188 235.7234 C 156.8188 235.7234 161.0519 242.3763 163.34 242.2616 C 163.34 242.2616 148.4672 242.6057 141.0308 235.3793 L 156.1324 217.4853 Z" fill="#ff0000"/>			<path d="M 160.251 205.7853 C 160.251 205.7853 157.8485 216.4529 160.9374 224.0235 C 160.9374 224.0235 165.1705 230.6764 167.4586 230.5617 C 167.4586 230.5617 152.5858 230.9058 145.1494 223.6793 L 160.251 205.7853 Z" fill="#ff0000"/>			<path id="Ellipse11" d="M 141.0308 173.6104 C 141.0308 171.995 142.4138 170.6854 144.1198 170.6854 C 145.8258 170.6854 147.2087 171.995 147.2087 173.6104 C 147.2087 175.2259 145.8258 176.5354 144.1198 176.5354 C 142.4138 176.5354 141.0308 175.2259 141.0308 173.6104 Z" fill="#ffffff"/>			<path id="Ellipse12" d="M 178.0983 174.2987 C 178.0983 172.6832 179.4813 171.3737 181.1873 171.3737 C 182.8933 171.3737 184.2763 172.6832 184.2763 174.2987 C 184.2763 175.9141 182.8933 177.2237 181.1873 177.2237 C 179.4813 177.2237 178.0983 175.9141 178.0983 174.2987 Z" fill="#ffffff"/>			<path d="M 217.2252 163.1149 C 217.2252 163.1149 227.4073 176.5354 232.67 172.7502 C 232.67 172.7502 232.2124 186.1707 225.1192 186.5148 L 218.2548 175.159 L 217.2252 163.1149 Z" fill="#ff0000"/>			<path d="M 224.0895 206.8177 C 224.0895 206.8177 237.475 220.1235 232.67 225.3999 C 232.67 225.3999 240.2208 220.5823 237.1318 210.2588 L 230.9539 199.5912 L 224.0895 206.8177 Z" fill="#ff0000"/>			<path d="M 213.1066 199.5912 C 213.1066 199.5912 226.4921 212.897 221.687 218.1735 C 221.687 218.1735 229.2378 213.3559 226.1488 203.0324 L 219.9709 192.3648 L 213.1066 199.5912 Z" fill="#ff0000"/>			<path d="M 206.7433 229.2662 C 206.7433 239.2203 212.0474 248.0097 220.1443 253.2734 L 255.4064 253.2734 C 263.5034 248.0097 268.8081 239.2203 268.8081 229.2662 C 268.8081 213.1564 254.9146 200.0973 237.7757 200.0973 C 220.6368 200.0973 206.7433 213.1564 206.7433 229.2662 Z" fill="#ffcc00"/>			<path id="Ellipse13" d="M 209.8466 224.3676 C 209.8466 209.9795 222.2514 198.3159 237.554 198.3159 C 252.8566 198.3159 265.2615 209.9795 265.2615 224.3676 C 265.2615 238.7557 252.8566 250.4192 237.554 250.4192 C 222.2514 250.4192 209.8466 238.7557 209.8466 224.3676 Z" fill="#ffffff"/>			<path id="Ellipse14" d="M 201.0803 191.8182 C 201.0803 173.4949 216.9585 158.6414 236.5459 158.6414 C 256.1332 158.6414 272.0114 173.4949 272.0114 191.8182 C 272.0114 210.1415 256.1332 224.9951 236.5459 224.9951 C 216.9585 224.9951 201.0803 210.1415 201.0803 191.8182 Z" fill="#ffcc00"/>			<path d="M 202.7535 183.1749 C 202.7535 183.1749 193.1482 188.3703 194.3304 193.4174 L 203.6401 197.4253 L 202.7535 183.1749 Z" fill="#ffcc00"/>			<path d="M 270.0372 180.5029 C 270.0372 180.5029 279.6425 185.6984 278.4603 190.7454 L 269.1505 194.7534 L 270.0372 180.5029 Z" fill="#ffcc00"/>			<path d="M 202.3101 191.1907 C 202.3101 191.1907 195.8081 189.8548 194.7737 193.4174 C 194.7737 193.4174 201.128 196.0893 201.8668 198.7613 C 201.8668 198.7613 200.8324 192.8236 202.3101 191.1907 Z" fill="#9d6b36"/>			<path d="M 271.468 188.5188 C 271.468 188.5188 277.97 187.1828 279.0044 190.7454 C 279.0044 190.7454 272.6501 193.4174 271.9113 196.0893 C 271.9113 196.0893 272.9457 190.1516 271.468 188.5188 Z" fill="#9d6b36"/>			<path id="Ellipse15" d="M 264.3749 176.9403 C 264.3749 176.9403 264.5733 176.9403 264.8182 176.9403 C 265.063 176.9403 265.2615 176.9403 265.2615 176.9403 C 265.2615 176.9403 265.063 176.9403 264.8182 176.9403 C 264.5733 176.9403 264.3749 176.9403 264.3749 176.9403 Z" stroke="#000000" stroke-width="1" fill="#ffffff"/>			<path d="M 196.9753 230.9058 C 196.9753 238.0328 213.4372 239.5087 237.1318 239.5087 C 260.8264 239.5087 277.2883 235.2798 277.2883 228.1529 C 277.2883 224.2987 273.6672 216.2366 264.7609 213.872 C 261.7109 221.8906 250.9891 230.9058 237.3034 230.9058 C 223.5711 230.9058 212.0678 224.9034 209.0652 216.8434 C 199.9781 219.2096 196.9753 227.0068 196.9753 230.9058 Z" stroke="#ffcc00" stroke-width="1" fill="#ffffff"/>			<path d="M 196.6321 230.9058 C 196.6321 238.0328 199.8561 239.9853 223.5507 239.9853 C 225.9837 239.9853 228.3402 239.9405 230.6107 239.8528 C 234.2492 237.2131 251.2712 231.6031 255.494 225.3999 C 250.4142 228.1539 244.1934 230.9058 236.9602 230.9058 C 223.2278 230.9058 213.5351 223.6526 210.5324 215.5926 C 201.4453 217.9588 196.6321 227.0068 196.6321 230.9058 Z" stroke="#ffcc00" stroke-width="1" fill="#ffffff"/>			<path d="M 213.1066 221.9588 L 215.5091 222.3029 L 215.5091 221.6147 L 211.0473 215.7647 L 209.3312 216.4529 L 213.1066 221.9588 Z" fill="#ffffff"/>			<path d="M 262.1867 220.2382 L 259.7842 220.5823 L 259.7842 219.8941 L 264.246 214.0441 L 265.9621 214.7323 L 262.1867 220.2382 Z" fill="#ffffff"/>			<path d="M 267.5523 224.3676 C 267.5523 224.3676 266.0078 220.5823 258.9719 220.5823 C 258.9719 220.5823 250.9062 223.6793 251.0779 227.1205 C 251.0779 227.1205 261.7176 225.9161 263.0905 227.8087 C 263.0905 227.8087 268.582 227.9808 267.5523 224.3676 Z" stroke="#ffcc00" stroke-width="1" fill="#ffffff"/>			<path d="M 210.0176 226.0882 C 210.0176 226.0882 211.5621 222.3029 218.5981 222.3029 C 218.5981 222.3029 226.6637 225.3999 226.4921 228.8411 C 226.4921 228.8411 215.8523 227.6367 214.4794 229.5293 C 214.4794 229.5293 208.9879 229.7014 210.0176 226.0882 Z" stroke="#ffcc00" stroke-width="1" fill="#ffffff"/>			<rect x="301.3136" y="241.6659" width="0.6864" height="0.6882" fill="#000000"/>			<path d="M 208.0559 211.5796 C 208.796 212.5118 209.5878 213.4057 210.4261 214.2592 C 209.5198 215.812 208.7497 217.8811 209.6744 219.55 L 212.7771 216.4392 C 212.9298 216.5683 213.0836 216.6962 213.2387 216.8228 C 212.4667 218.3018 211.9345 220.1187 212.7634 221.6147 L 215.7065 218.6638 C 215.8952 218.7923 216.0846 218.9191 216.2762 219.0441 C 215.7487 220.3347 215.5189 221.7699 216.1955 222.9911 L 218.6907 220.4894 C 223.9343 223.3539 230.0352 224.9951 236.5459 224.9951 C 242.8898 224.9951 248.845 223.4362 253.9975 220.7062 L 257.3066 224.0235 C 258.163 222.478 257.5663 220.5895 256.7536 219.0854 L 257.0161 218.9133 L 260.7388 222.647 C 261.7516 220.819 260.7316 218.5119 259.7258 216.9278 L 260.124 216.6009 L 260.0523 216.797 L 263.8277 220.5823 C 264.9418 218.5718 263.5969 215.9809 262.5162 214.4106 C 263.7153 213.2048 264.8196 211.9159 265.8182 210.5531 L 241.4223 211.6353 L 229.4527 197.3848 L 208.0559 211.5796 Z" fill="#ffcc00"/>			<path d="M 208.0559 210.8914 C 208.796 211.8236 209.5878 212.7175 210.4261 213.5709 C 209.5198 215.1238 208.7497 217.1929 209.6744 218.8617 L 212.7771 215.7509 C 212.9298 215.88 213.0836 216.008 213.2387 216.1346 C 212.4667 217.6135 211.9345 219.4305 212.7634 220.9264 L 215.7065 217.9756 C 215.8952 218.1041 216.0846 218.2308 216.2762 218.3559 C 215.7487 219.6464 215.5189 221.0817 216.1955 222.3029 L 218.6907 219.8011 C 223.9343 222.6657 230.0352 224.3068 236.5459 224.3068 C 242.8898 224.3068 248.845 222.748 253.9975 220.0179 L 257.3066 223.3352 C 258.163 221.7897 257.5663 219.9012 256.7536 218.3972 L 257.0161 218.2251 L 260.7388 221.9588 C 261.7516 220.1308 260.7316 217.8237 259.7258 216.2396 L 260.124 215.9126 L 260.0523 216.1088 L 263.8277 219.8941 C 264.9418 217.8836 263.5969 215.2926 262.5162 213.7223 C 263.7153 212.5166 264.8196 211.2276 265.8182 209.8649 L 241.4223 210.9471 L 229.4527 196.6966 L 208.0559 210.8914 Z" stroke="#ffcc00" stroke-width="1" fill="#ffffff"/>			<path d="M 222.2595 208.5585 C 222.2595 210.0342 223.4504 211.2305 224.9194 211.2305 C 226.3885 211.2305 227.5793 210.0342 227.5793 208.5585 C 227.5793 208.4528 227.5735 208.3492 227.5616 208.2467 L 223.2947 206.4432 C 222.6645 206.9318 222.2595 207.6969 222.2595 208.5585 Z" fill="#000000"/>			<path d="M 248.8587 209.0038 C 248.8587 210.4795 247.6678 211.6758 246.1988 211.6758 C 244.7297 211.6758 243.5388 210.4795 243.5388 209.0038 C 243.5388 208.8982 243.5447 208.7945 243.5566 208.6921 L 247.8235 206.8885 C 248.4537 207.3771 248.8587 208.1423 248.8587 209.0038 Z" fill="#000000"/>			<path d="M 232.4559 213.2749 L 239.549 213.2749 C 239.549 213.2749 237.3324 215.9469 236.0024 216.3922 C 236.0024 216.3922 233.3425 216.0953 232.4559 213.2749 Z" fill="#000000"/>			<path d="M 224.4761 202.3239 L 228.466 209.0038 L 229.7959 208.1131 L 224.4761 202.3239 Z" fill="#000000"/>			<path d="M 241.7656 208.1131 L 242.6522 209.0038 L 246.6421 203.6599 L 241.7656 208.1131 Z" fill="#000000"/>			<path d="M 239.5343 221.6147 C 239.4352 220.0801 237.9363 218.8617 236.1022 218.8617 C 234.2681 218.8617 232.7691 220.0801 232.67 221.6147 L 233.4309 221.6147 C 233.4811 220.4448 234.615 219.5095 236.0067 219.5095 C 237.3984 219.5095 238.5323 220.4448 238.5825 221.6147 L 239.5343 221.6147 Z" fill="#000000"/>			<path d="M 248.458 172.7502 C 248.458 172.7502 256.352 166.2119 264.9325 168.2766 L 261.8435 171.0296 C 261.8435 171.0296 270.7672 168.6207 272.14 171.0296 L 267.6782 173.7825 C 267.6782 173.7825 274.5426 174.8149 275.229 176.1913 L 265.2757 181.3531 L 248.458 172.7502 Z" fill="#ffcc00"/>			<path d="M 236.3479 153.138 C 235.2113 153.0116 222.8352 157.8142 221.1935 155.4129 C 221.1935 155.4129 216.7734 161.8585 233.317 160.3419 C 233.317 160.3419 237.4845 153.2644 236.3479 153.138 Z" fill="#dcb084"/>			<path d="M 225.8175 170.4848 L 230.1277 156.0026 C 230.8831 153.4648 235.2762 152.4762 239.9268 153.7824 L 248.1794 156.1004 C 252.7825 157.3934 255.9302 160.4781 255.2232 163.0021 L 251.1891 177.4039 C 250.4665 179.9834 246.0931 181.0558 241.4068 179.7872 L 233.0047 177.5128 C 228.2693 176.231 225.0454 173.079 225.8175 170.4848 Z" fill="#ffcc99"/>			<path d="M 231.4227 177.0247 L 237.2319 159.3308 L 232.9382 178.1621 L 231.4227 177.0247 Z" fill="#d5aa80"/>			<path d="M 240.1365 178.9204 L 246.3246 160.5947 L 241.652 180.0579 L 240.1365 178.9204 Z" fill="#d5aa80"/>		</g>		<path opacity="0.1216" d="M 104 181.3611 L 104 253.3085 C 104 261.5708 110.7184 268.2685 119.0063 268.2685 L 276.5726 268.2685 C 284.8605 268.2685 291.5789 261.5708 291.5789 253.3085 L 291.5789 154.956 C 276.5986 153.1963 260.8835 152.2593 244.6842 152.2593 C 188.4657 152.2593 138.0782 163.5371 104 181.3611 Z" fill="#ffffff"/>	</g>	<g id="Morris">		<path id="Ellipse16" opacity="0.3294" d="M 128.7738 563.083 C 128.7738 553.4995 188.5262 545.7307 262.2367 545.7307 C 335.9471 545.7307 395.6995 553.4995 395.6995 563.083 C 395.6995 572.6666 335.9471 580.4354 262.2367 580.4354 C 188.5262 580.4354 128.7738 572.6666 128.7738 563.083 Z" fill="url(#gradient2)"/>		<g>			<path id="Ellipse17" d="M 127.2053 515.4108 C 127.2053 481.4924 165.657 450.5159 213.0909 450.5159 C 260.5248 450.5159 298.9765 478.0115 298.9765 511.9299 C 298.9765 545.8483 260.5248 573.3439 213.0909 573.3439 C 165.657 573.3439 127.2053 562.901 127.2053 515.4108 Z" fill="#ffcc00"/>			<path id="Ellipse18" d="M 192.4286 522.1241 C 192.4286 491.9133 218.063 467.4234 249.6856 467.4234 C 281.3083 467.4234 306.9427 491.9133 306.9427 522.1241 C 306.9427 552.3349 293.4998 571.8521 251.1793 571.8521 C 205.8606 571.8521 192.4286 552.3349 192.4286 522.1241 Z" fill="#ffffff"/>			<path d="M 237.8757 568.6719 C 242.108 569.131 246.7002 569.3657 251.6772 569.3657 C 293.9977 569.3657 307.4406 549.8485 307.4406 519.6378 C 307.4406 489.4269 281.8062 464.937 250.1835 464.937 C 247.1056 464.937 244.0833 465.169 241.1369 465.6158 C 267.0654 470.8357 286.5294 492.8163 286.5294 519.1404 C 286.5294 547.5901 274.6082 566.5574 237.8757 568.6719 Z" fill="#cccccc"/>			<g>				<path d="M 231.2638 451.5104 C 231.2638 451.5104 218.8166 453.9969 210.3525 469.9099 C 210.3525 469.9099 215.8293 480.3527 223.7955 479.8554 L 231.2638 451.5104 Z" fill="#c8a000"/>				<path d="M 212.3441 470.4071 C 212.3441 470.4071 219.1485 466.9261 220.8082 470.4071 L 226.2849 473.3908 L 223.2976 477.8663 C 223.2976 477.8663 216.4931 477.8663 212.3441 470.4071 Z" fill="#564500"/>			</g>			<g>				<path d="M 322.8751 454.9915 C 322.8751 454.9915 335.3224 457.4778 343.7864 473.3908 C 343.7864 473.3908 338.3097 483.8336 330.3434 483.3364 L 322.8751 454.9915 Z" fill="#c8a000"/>				<path d="M 341.7949 473.8881 C 341.7949 473.8881 334.9904 470.4071 333.3307 473.8881 L 327.854 476.8717 L 330.8413 481.3472 C 330.8413 481.3472 337.6458 481.3472 341.7949 473.8881 Z" fill="#564500"/>			</g>			<path id="Ellipse19" d="M 222.3018 476.8717 C 221.306 438.5812 246.6842 424.6574 277.0695 424.6574 C 307.4547 424.6574 331.8371 442.0622 332.335 476.8717 C 332.6964 502.1363 307.7036 522.6214 277.3184 522.6214 C 246.9332 522.6214 222.9587 502.1304 222.3018 476.8717 Z" fill="#ffcc00"/>			<path d="M 229.215 499.0901 C 229.0119 500.421 228.4794 505.3499 231.2638 507.7031 L 232.2596 506.2112 C 232.2596 506.2112 232.2596 511.184 235.2469 511.6812 L 235.7448 508.2003 C 235.7448 508.2003 236.2427 512.1786 238.7321 513.1731 L 238.7321 509.4807 C 248.6619 517.6067 262.2858 522.6214 277.3184 522.6214 C 290.5519 522.6214 302.6921 518.7345 312.183 512.2606 L 312.1842 518.6431 C 314.6736 517.6486 315.1715 513.6703 315.1715 513.6703 L 315.6694 517.1513 C 318.6567 516.654 318.6567 511.6812 318.6567 511.6812 L 319.6525 513.1731 C 322.8888 510.438 321.6441 504.222 321.6441 504.222 L 321.2769 504.3837 C 321.5046 504.1325 321.73 503.8804 321.9515 503.6254 L 315.9047 500.2438 L 286.0315 499.7465 L 265.1202 472.3962 L 244.7068 495.271 L 228.7943 498.4486 L 229.215 499.0901 Z" stroke="#999999" stroke-width="2" fill="#ffffff"/>			<path d="M 252.673 500.5717 C 252.673 501.1418 252.7479 501.6977 252.8892 502.233 C 253.8138 498.7304 257.6008 496.1071 262.1328 496.1071 C 266.6649 496.1071 270.4519 498.7304 271.3765 502.233 C 271.5178 501.6977 271.5927 501.1418 271.5927 500.5717 C 271.5927 496.271 267.3574 492.7846 262.1328 492.7846 C 256.9083 492.7846 252.673 496.271 252.673 500.5717 Z" fill="#000000"/>			<path d="M 290.0145 500.5717 C 290.0145 501.1418 290.0895 501.6977 290.2308 502.233 C 291.1554 498.7304 294.9424 496.1071 299.4744 496.1071 C 304.0064 496.1071 307.7935 498.7304 308.718 502.233 C 308.8594 501.6977 308.9343 501.1418 308.9343 500.5717 C 308.9343 496.271 304.699 492.7846 299.4744 492.7846 C 294.2498 492.7846 290.0145 496.271 290.0145 500.5717 Z" fill="#000000"/>			<path d="M 269.6077 512.0559 C 269.8427 517.749 278.9578 522.2937 280.501 522.2937 C 282.1935 522.2937 291.1593 517.749 291.3943 512.0559 L 269.6077 512.0559 Z" fill="#000000"/>			<rect x="210.3525" y="543.0098" width="147.3746" height="30.8313" fill="#ffcc00"/>			<path d="M 247.6941 528.0915 L 267.6096 528.0915 C 267.6096 528.0915 279.5589 530.5779 275.5758 553.95 C 275.5758 553.95 259.6434 561.9065 251.6772 553.95 L 251.6772 540.5234 L 246.2004 541.0208 L 247.6941 528.0915 Z" fill="#ffffff"/>			<path d="M 285.5336 427.1438 C 285.5336 427.1438 295.4913 421.6737 307.4406 424.1601 L 301.9639 427.6411 L 316.9005 427.1438 L 319.39 428.1383 L 307.4406 434.6029 L 287.0272 437.5866 L 285.5336 427.1438 Z" fill="#ffcc00"/>			<path d="M 176.994 465.9315 C 176.994 465.9315 167.0363 460.4615 155.087 462.9478 L 160.5638 466.4289 L 145.6271 465.9315 L 143.1377 466.9261 L 155.087 473.3908 L 175.5004 476.3744 L 176.994 465.9315 Z" fill="#ffcc00"/>			<path d="M 162.5553 475.3799 C 162.5553 475.3799 152.5975 469.9099 140.6482 472.3962 L 146.125 475.8771 L 131.1884 475.3799 L 128.6989 476.3744 L 140.6482 482.8391 L 161.0616 485.8227 L 162.5553 475.3799 Z" fill="#ffcc00"/>			<path d="M 159.0701 484.3309 C 159.0701 484.3309 149.1123 478.8608 137.163 481.3472 L 142.6398 484.8282 L 127.7032 484.3309 L 125.2137 485.3255 L 137.163 491.7901 L 157.5764 494.7738 L 159.0701 484.3309 Z" fill="#ffcc00"/>			<path d="M 243.711 529.086 L 268.1075 529.086 C 268.1075 529.086 273.8332 526.351 275.5758 542.5126 L 277.0695 542.5126 C 277.0695 542.5126 278.3142 526.8483 268.6054 527.0969 L 242.2173 527.0969 L 243.711 529.086 Z" fill="#cccccc"/>			<path d="M 356.2336 543.0098 C 356.2336 543.0098 382.1238 539.0316 395.5667 555.9391 C 409.0097 572.8466 395.0688 557.9282 395.0688 557.9282 C 395.0688 557.9282 384.1153 551.4636 382.6217 556.9337 C 382.6217 556.9337 395.0688 561.4092 395.5667 566.8792 C 395.5667 566.8792 383.6175 558.4255 381.6259 563.8956 C 381.6259 563.8956 392.5794 566.382 393.0773 572.3493 L 355.7357 573.8411 L 356.2336 543.0098 Z" fill="#ffcc00"/>			<path d="M 193.4243 542.0153 L 216.3271 544.0044 L 222.3018 561.9065 C 222.3018 561.9065 212.3441 567.3765 210.3525 567.3765 C 208.361 567.3765 193.4243 564.8901 193.4243 564.8901 L 193.4243 542.0153 Z" fill="#ffcc00"/>			<path d="M 320.6894 573.8411 L 356.2336 573.8411 L 358.2252 573.8411 L 358.2252 573.7616 L 393.5752 572.3493 C 393.0773 566.382 382.1238 563.8956 382.1238 563.8956 C 384.1153 558.4255 396.0647 566.8792 396.0647 566.8792 C 395.5667 561.4092 383.1195 556.9337 383.1195 556.9337 C 384.6132 551.4636 395.5667 557.9282 395.5667 557.9282 C 395.5667 557.9282 409.5076 572.8466 396.0647 555.9391 C 382.6217 539.0316 356.7315 543.0098 356.7315 543.0098 L 323.2336 543.0098 C 320.7534 549.0125 319.39 555.5556 319.39 562.4037 C 319.39 566.3314 319.8391 570.1586 320.6894 573.8411 Z" stroke="#999999" stroke-width="2" fill="#ffffff"/>			<path d="M 306.4449 530.5779 L 326.3604 530.5779 C 326.3604 530.5779 338.3097 533.0642 334.3266 556.4364 C 334.3266 556.4364 318.3941 564.3928 310.4279 556.4364 L 310.4279 543.0098 L 304.9512 543.5071 L 306.4449 530.5779 Z" stroke="#999999" stroke-width="2" fill="#ffffff"/>			<path d="M 140.6482 524.1132 C 140.6482 534.6044 172.4022 544.1758 203.3821 545.9935 C 203.1711 545.1729 195.1564 543.8262 194.8931 542.6493 C 166.6696 540.9615 144.2144 533.0389 140.6557 523.78 C 140.6505 523.8907 140.6482 524.0021 140.6482 524.1132 Z" fill="#c8a000"/>			<path d="M 307.4406 517.6486 C 307.4406 517.6486 308.6854 537.5398 305.947 542.5126 L 303.4575 543.0098 C 303.4575 543.0098 305.947 540.7721 307.4406 517.6486 Z" fill="#cccccc"/>		</g>	</g>	<g id="NJ">		<path d="M 402.6427 645.0684 C 402.6427 668.7332 408.113 690.9144 417.6669 710 L 466.1609 710 C 451.7841 694.8447 442.7587 672.9718 442.7587 648.6509 C 442.7587 602.897 474.7072 565.8072 514.1189 565.8072 C 553.5306 565.8072 585.4791 602.897 585.4791 648.6509 C 585.4791 672.9718 576.4537 694.8447 562.0768 710 L 610.5709 710 C 620.1248 690.9144 625.5952 668.7332 625.5952 645.0684 C 625.5952 573.5934 575.6863 515.6531 514.1189 515.6531 C 452.5515 515.6531 402.6427 573.5934 402.6427 645.0684 Z" fill="#ffffcc"/>		<path d="M 381.8132 706.1439 C 381.8132 707.4457 381.8738 708.7321 381.9945 710 L 417.6669 710 L 452.6064 710 L 466.1609 710 C 458.4506 701.8721 452.2782 691.8113 448.213 680.4778 C 446.7781 680.6932 445.3094 680.8745 443.8117 681.0215 C 437.312 673.2487 427.8433 668.3542 417.3005 668.3542 C 397.7011 668.3542 381.8132 685.2729 381.8132 706.1439 Z" fill="#000000"/>		<path d="M 646.683 706.1439 C 646.683 707.4457 646.6224 708.7321 646.5017 710 L 610.8293 710 L 575.8898 710 L 562.3353 710 C 570.0457 701.8721 576.218 691.8113 580.2833 680.4778 C 581.7181 680.6932 583.1868 680.8745 584.6845 681.0215 C 591.1842 673.2487 600.653 668.3542 611.1957 668.3542 C 630.795 668.3542 646.683 685.2729 646.683 706.1439 Z" fill="#000000"/>		<path d="M 582.3932 622.0812 L 624.0522 615.9114 L 585.4791 637.5056 L 582.3932 622.0812 Z" fill="#a1a181"/>		<path d="M 488.2749 286.6015 C 488.2749 286.6015 479.0174 261.0085 455.1021 261.9225 L 457.4165 271.1771 C 457.4165 271.1771 434.6727 261.1227 433.5012 266.5498 L 445.0731 279.6605 L 431.1868 288.9151 C 431.1868 288.9151 459.3594 292.4284 461.2738 300.4834 L 488.2749 286.6015 Z" fill="#000000"/>		<rect x="355.3906" y="391.8784" width="106.6545" height="25.83" fill="#ffffcc"/>		<path d="M 573.5928 391.893 L 611.3944 457.4465 L 620.652 472.0996 C 620.652 472.0996 623.795 492.1228 599.8225 475.1845 L 565.8782 426.5978 L 573.5928 391.893 Z" stroke="#666666" stroke-width="1" fill="#ffffcc"/>		<path id="Ellipse20" d="M 579.1002 367.9829 C 581.2099 359.4978 588.7841 354.0797 596.0179 355.8811 C 603.2518 357.6826 607.4056 366.0213 605.2959 374.5065 C 603.1862 382.9917 595.612 388.4097 588.3781 386.6082 C 581.1443 384.8068 576.9905 376.4681 579.1002 367.9829 Z" stroke="#cfcfa6" stroke-width="1" fill="#cfcfa6"/>		<path id="Ellipse21" d="M 432.5905 330.7015 C 434.7002 322.2164 442.2744 316.7983 449.5082 318.5998 C 456.7421 320.4012 460.8959 328.7399 458.7862 337.2251 C 456.6765 345.7103 449.1023 351.1283 441.8684 349.3269 C 434.6346 347.5254 430.4808 339.1867 432.5905 330.7015 Z" stroke="#cfcfa6" stroke-width="1" fill="#cfcfa6"/>		<path d="M 451.2162 389.2306 C 451.2162 389.2306 463.6739 484.1189 442.073 541.189 C 442.073 541.189 559.2494 560.3838 580.8503 535.7048 C 580.8503 535.7048 564.364 465.781 574.6786 391.4871 C 574.6786 391.4871 500.3612 365.2371 451.2162 389.2306 Z" fill="url(#gradient3)"/>		<path id="Ellipse22" d="M 469.7599 392.6439 C 469.7599 371.56 489.4471 354.4686 513.7332 354.4686 C 538.0193 354.4686 557.7065 371.56 557.7065 392.6439 C 557.7065 413.7278 538.0193 430.8192 513.7332 430.8192 C 489.4471 430.8192 469.7599 413.7278 469.7599 392.6439 Z" fill="#333333"/>		<path id="Ellipse23" d="M 469.7599 389.5591 C 469.7599 368.4752 489.4471 351.3838 513.7332 351.3838 C 538.0193 351.3838 557.7065 368.4752 557.7065 389.5591 C 557.7065 410.6429 538.0193 427.7343 513.7332 427.7343 C 489.4471 427.7343 469.7599 410.6429 469.7599 389.5591 Z" fill="#cfcfa6"/>		<g>			<path d="M 536.4365 447.7246 L 540.6883 455.432 L 544.94 447.7246 L 546.6962 439.121 L 543.4612 440.7341 L 540.6883 435.4465 L 537.9154 440.7341 L 534.6804 439.121 L 536.4365 447.7246 Z" fill="#ff0000"/>			<path d="M 542.8705 449.9597 L 538.756 457.7149 L 547.7361 456.7866 L 556.0777 453.3482 L 552.8541 451.6589 L 555.7961 446.4299 L 549.6838 447.1924 L 549.2104 443.6637 L 542.8705 449.9597 Z" fill="#ff0000"/>			<path d="M 538.7167 450.4438 L 542.8312 458.199 L 533.8511 457.2707 L 525.5095 453.8323 L 528.7332 452.143 L 525.7911 446.914 L 531.9035 447.6765 L 532.3769 444.1478 L 538.7167 450.4438 Z" fill="#ff0000"/>			<path d="M 532.8318 456.6867 L 531.0757 460.182 L 540.9656 459.3753 L 550.1161 460.0923 L 548.1751 456.6867 L 532.8318 456.6867 Z" fill="#ff0000"/>			<rect x="540.3349" y="459.0359" width="1.6638" height="7.2593" fill="#ff0000"/>		</g>		<path d="M 516.5546 438.1527 C 514.8322 438.1527 513.2786 438.8846 512.19 440.055 L 510 444 L 515 448 L 510 454 L 512.675 458.28 C 515.4412 456.4297 522.7281 450.9208 522.5179 444.3895 L 522.5179 444.1297 C 522.5179 440.8287 519.8481 438.1527 516.5546 438.1527 Z" fill="#ff0000"/>		<rect x="485.9607" y="446.1764" width="4.6517" height="16.7656" fill="#ff0000"/>		<rect x="485.9607" y="438.7995" width="3.9872" height="4.0237" fill="#ff0000"/>		<path d="M 564.6112 322.3335 C 563.795 324.6578 563.3257 327.1489 563.2668 329.7472 C 562.9637 343.1171 573.6335 354.2657 587.0988 354.6487 C 587.3914 354.657 587.6829 354.6593 587.9733 354.6573 C 574.7647 349.4876 565.3167 336.9781 564.6112 322.3335 Z" fill="#000000"/>		<path d="M 564.7976 321.584 C 563.9814 323.9084 563.512 326.3995 563.4531 328.9977 C 563.1501 342.3676 573.8199 353.5162 587.2851 353.8992 C 587.5778 353.9075 587.8692 353.9099 588.1596 353.9079 C 574.951 348.7382 565.5031 336.2287 564.7976 321.584 Z" fill="#000000"/>		<path id="Ellipse24" d="M 442.5688 300.1589 C 454.0949 253.8009 500.9682 225.5675 547.2648 237.0968 C 593.5613 248.6261 621.7476 295.5517 610.2214 341.9097 C 598.6953 388.2676 551.822 416.5011 505.5254 404.9717 C 459.2288 393.4424 431.0426 346.5168 442.5688 300.1589 Z" stroke="#cfcfa6" stroke-width="1" fill="#ffffcc"/>		<path id="Ellipse25" d="M 523.5162 342.2031 C 527.3754 326.6814 543.2371 317.27 558.9449 321.1817 C 574.6526 325.0935 584.2575 340.8469 580.3983 356.3685 C 576.5391 371.8902 560.6774 381.3016 544.9697 377.3899 C 529.2618 373.4781 519.657 357.7248 523.5162 342.2031 Z" stroke="#000000" stroke-width="1" fill="#ffffff"/>		<path id="Ellipse26" d="M 459.1495 326.1738 C 463.0088 310.6521 478.8705 301.2407 494.5782 305.1524 C 510.286 309.0641 519.8909 324.8175 516.0317 340.3392 C 512.1725 355.8609 496.3108 365.2723 480.603 361.3605 C 464.8952 357.4488 455.2903 341.6954 459.1495 326.1738 Z" stroke="#000000" stroke-width="1" fill="#ffffff"/>		<path d="M 487.0753 331.1825 C 485.0684 339.2537 489.9759 347.4238 498.0364 349.4312 C 506.097 351.4385 514.2579 346.5228 516.2647 338.4516 C 516.9398 335.7364 516.8317 333.0092 516.085 330.51 L 492.065 323.23 C 489.6803 325.2093 487.8809 327.9422 487.0753 331.1825 Z" fill="#000000"/>		<path d="M 552.0753 345.1825 C 550.0684 353.2537 554.9759 361.4238 563.0364 363.4312 C 571.097 365.4385 579.2579 360.5228 581.2647 352.4516 C 581.9398 349.7364 581.8317 347.0092 581.085 344.51 L 557.065 337.23 C 554.6803 339.2093 552.8809 341.9422 552.0753 345.1825 Z" fill="#000000"/>		<rect x="515.1963" y="340.9002" width="8.2267" height="7.673" fill="#000000"/>		<path id="Ellipse27" d="M 539.1914 392.6439 C 539.1914 389.4494 541.7818 386.8598 544.9774 386.8598 C 548.1729 386.8598 550.7634 389.4494 550.7634 392.6439 C 550.7634 395.8384 548.1729 398.428 544.9774 398.428 C 541.7818 398.428 539.1914 395.8384 539.1914 392.6439 Z" fill="#000000"/>		<path d="M 576.3007 321.3794 C 574.8421 323.4608 573.6767 325.7911 572.8795 328.3267 C 568.8557 341.1234 575.7158 354.5615 588.182 358.7416 C 588.4542 358.8328 588.7271 358.9182 589.0002 358.9994 C 578.1219 350.4452 572.7784 335.9213 576.3007 321.3794 Z" fill="#000000"/>		<path d="M 470.119 325.8994 C 472.2075 327.213 474.5333 328.2213 477.0519 328.8485 C 490.0127 332.0761 503.1769 324.0033 506.4554 310.817 C 506.5267 310.5304 506.5918 310.2437 506.6526 309.9571 C 498.7657 321.8417 484.5393 328.4124 470.119 325.8994 Z" fill="#000000"/>		<path d="M 453.5592 625.9373 C 463.1389 593.3036 483.5378 576.6042 514.8904 576.6042 C 545.9362 576.6042 566.4064 594.573 576.2216 626.7085 C 590.6453 624.2493 621.6478 618.1877 634.0812 614.369 C 621.343 559.1741 576.2065 513.8517 514.8904 511.7971 C 445.8445 509.4834 414.1014 560.6207 401.8712 616.6827 C 414.4103 620.2413 439.1715 623.7191 453.5592 625.9373 Z" fill="#000000"/>		<path d="M 459.7309 512.5682 C 459.7309 512.5682 474.2128 494.2372 519.9656 486.5898 L 519.7829 492.2125 C 519.7829 492.2125 500.0038 486.185 459.7309 512.5682 Z" fill="#666666"/>		<path d="M 604.1369 468.5572 L 638.0812 402.2325 L 661.9965 416.1144 L 621.8805 476.2694 L 604.1369 468.5572 Z" fill="#ffffcc"/>		<path d="M 395.3583 338.5148 L 411.1807 332.0573 L 411.7667 321.4904 L 386.5681 321.4904 L 395.3583 338.5148 Z" fill="#cfcfa6"/>		<path d="M 354.7019 337.5018 L 378.9744 337.5018 L 371.0497 418.1272 L 341.6972 418.4797 L 354.7019 337.5018 Z" fill="#ffffcc"/>		<path d="M 354.1815 306.9984 L 354.1815 319.3264 L 354.1815 339.286 L 394.0305 339.286 L 398.5956 322.2617 L 426.2613 322.2617 C 430.4688 322.2617 433.8795 318.8449 433.8795 314.6301 C 433.8795 310.4152 430.4688 306.9984 426.2613 306.9984 L 403.9927 306.9984 L 398.1326 306.9984 L 371.4179 306.9984 L 381.4179 291.1482 C 381.4179 286.9333 376.0072 283.5166 371.7997 283.5166 C 367.5923 283.5166 363.1815 286.9333 363.1815 291.1482 L 354.1815 306.9984 Z" fill="#ffffcc"/>		<path d="M 439.9278 300.7021 C 438.4796 306.5324 437.6366 312.3729 437.3585 318.1539 L 449.7181 304.2386 L 456.9132 284.2396 C 456.9132 284.2396 469.4381 302.6091 479.2981 301.0388 C 479.2981 301.0388 472.8136 283.5877 488.0922 282.6396 C 488.0922 282.6396 512.4312 286.8469 509.6776 302.6387 C 509.6776 302.6387 536.1189 310.7864 541.6559 296.239 C 541.6559 296.239 557.4378 292.5948 557.645 311.4383 C 557.645 311.4383 578.1645 323.0526 581.6288 297.039 C 581.6288 297.039 596.5817 318.0157 592.0217 333.0372 L 604.0137 330.6374 L 604.0137 360.236 L 594.4202 371.4354 C 594.4202 371.4354 599.1579 369.2569 604.6172 366.7276 C 608.5644 359.7676 611.6404 352.1583 613.6647 344.009 C 625.6091 295.9232 596.4 247.2487 548.4233 235.2897 C 529.4619 230.5632 510.4072 232.2792 493.5573 239.0519 C 467.773 249.4158 447.1516 271.6208 439.9278 300.7021 Z" fill="#000000"/>		<path d="M 503.7042 268.8635 C 503.7042 268.8635 494.4466 243.2705 470.5313 244.1845 L 472.8457 253.4391 C 472.8457 253.4391 450.1019 243.3847 448.9304 248.8118 L 460.5023 261.9225 L 446.616 271.1771 C 446.616 271.1771 474.7887 274.6904 476.703 282.7454 L 503.7042 268.8635 Z" fill="#000000"/>		<path d="M 532.2482 254.9815 C 532.2482 254.9815 522.9907 229.3885 499.0754 230.3026 L 501.3898 239.5572 C 501.3898 239.5572 478.646 229.5028 477.4745 234.9299 L 489.0464 248.0406 L 475.1601 257.2952 C 475.1601 257.2952 503.3328 260.8085 505.2471 268.8635 L 532.2482 254.9815 Z" fill="#000000"/>		<path d="M 498.2575 444.1297 C 498.2575 444.9426 498.4206 445.7178 498.7139 446.4243 L 498.2575 446.4684 C 498.2575 446.4684 504.7393 458.6822 508.6284 458.9421 C 508.6284 458.9421 509.0293 458.7119 509.675 458.28 L 507 454 L 512 448 L 507 444 L 509.19 440.055 C 509.0842 440.1688 508.9845 440.2866 508.8877 440.4084 C 507.7952 439.0337 506.1107 438.1527 504.2208 438.1527 C 500.9273 438.1527 498.2575 440.8287 498.2575 444.1297 Z" fill="#ff0000"/>		<path id="Ellipse28" d="M 635 411 C 635 403.2679 641.0441 397 648.5 397 C 655.9559 397 662 403.2679 662 411 C 662 418.7321 655.9559 425 648.5 425 C 641.0441 425 635 418.7321 635 411 Z" fill="#d6d6ac"/>		<path d="M 661.5886 389.0299 L 670.4484 401.4336 C 674.6142 407.2658 674.6401 414.3021 670.5062 417.1499 L 660.1561 421.544 C 656.0222 424.3918 649.2941 421.9726 645.1283 416.1404 L 636.9626 405.9945 C 632.7968 400.1623 632.7709 393.126 636.9048 390.2782 L 646.5608 383.6263 C 650.6947 380.7785 657.4227 383.1978 661.5886 389.0299 Z" fill="#ffffcc"/>		<path d="M 675.6002 371.3517 L 675.6002 371.3517 C 677.644 374.213 677.3714 377.8617 674.9913 379.5014 L 651.5966 395.6177 C 649.2165 397.2574 645.6302 396.267 643.5864 393.4056 L 643.5864 393.4056 C 641.5426 390.5442 641.8152 386.8955 644.1953 385.2559 L 667.59 369.1396 C 669.9701 367.4999 673.5563 368.4903 675.6002 371.3517 Z" fill="#ffffcc"/>		<path d="M 689.0746 385.7149 L 689.0746 385.7149 C 690.6085 388.9277 689.7496 392.5417 687.1563 393.7873 L 661.6663 406.0304 C 659.0729 407.276 655.7274 405.6813 654.1935 402.4686 L 654.1935 402.4686 C 652.6597 399.2559 653.5186 395.6418 656.1119 394.3962 L 681.6019 382.1532 C 684.1953 380.9076 687.5408 382.5022 689.0746 385.7149 Z" fill="#ffffcc"/>		<path d="M 696.2119 403.9951 L 696.2119 403.9951 C 697.4619 407.1728 696.2733 410.4883 693.5391 411.3731 L 666.2798 420.1947 C 663.4669 421.105 660.298 419.1477 659.2188 415.8519 L 659.2188 415.8519 C 658.1508 412.5901 659.5403 409.2571 662.3062 408.379 L 689.1157 399.8677 C 691.8055 399.0137 694.9747 400.8496 696.2119 403.9951 Z" fill="#ffffcc"/>		<path d="M 637.3407 376.5947 L 645.1792 393.4141 C 646.8243 396.9441 645.2469 401.2 641.6561 402.9203 L 641.6561 402.9203 C 638.0652 404.6406 633.8208 403.1736 632.1757 399.6437 L 624.3373 382.8243 C 622.6922 379.2944 624.2695 375.0384 627.8604 373.3181 L 627.8604 373.3181 C 631.4512 371.5978 635.6956 373.0648 637.3407 376.5947 Z" fill="#ffffcc"/>		<path d="M 506.9445 361.6296 C 505.8705 367.3571 508.3868 372.6774 512.5648 373.513 C 516.2625 374.2525 520.0233 371.2306 521.5833 366.5555 C 519.7007 369.1385 517.0038 370.5582 514.34 370.0254 C 510.162 369.1898 507.6457 363.8695 508.7196 358.1421 C 508.843 357.4837 509.0078 356.8493 509.2103 356.2421 C 508.1401 357.7103 507.3336 359.5539 506.9445 361.6296 Z" fill="#333333"/>		<path d="M 440 317 L 464 315 L 462 319 L 439 320 L 440 317 Z" fill="#000000"/>		<path d="M 580 347 C 580 347 603.3333 359.6667 604 360 C 604.6667 360.3333 602 364 602 364 L 580 350 L 580 347 Z" fill="#000000"/>	</g>	<g id="text%20box">		<path opacity="0.3882" d="M 616.4 258 C 606.7901 258 599 265.7901 599 275.4 L 599 327.6 C 599 328.7972 599.1197 329.9658 599.35 331.095 L 581 370 L 606.32 341.785 C 609.164 343.8092 612.6435 345 616.4 345 L 760.6 345 C 770.2099 345 778 337.2099 778 327.6 L 778 275.4 C 778 265.7901 770.2099 258 760.6 258 L 616.4 258 Z" fill="#000000"/>		<path d="M 616.4 258 C 606.7901 258 599 265.7901 599 275.4 L 599 327.6 C 599 328.7972 599.1197 329.9658 599.35 331.095 L 581 370 L 606.32 341.785 C 609.164 343.8092 612.6435 345 616.4 345 L 760.6 345 C 770.2099 345 778 337.2099 778 327.6 L 778 275.4 C 778 265.7901 770.2099 258 760.6 258 L 616.4 258 Z" stroke="#ffffff" stroke-width="2" fill="none"/>		<path id="Ellipse29" d="M 615 300 C 615 288.4019 624.4019 279 636 279 C 647.5981 279 657 288.4019 657 300 C 657 311.5981 647.5981 321 636 321 C 624.4019 321 615 311.5981 615 300 Z" fill="#ff0000"/>		<path id="Ellipse30" d="M 642 282.5 C 642 274.4918 648.4918 268 656.5 268 C 664.5082 268 671 274.4918 671 282.5 C 671 290.5082 664.5082 297 656.5 297 C 648.4918 297 642 290.5082 642 282.5 Z" fill="#ff0000"/>		<path id="Ellipse31" d="M 644 325 C 644 316.1633 651.1633 309 660 309 C 668.8367 309 676 316.1633 676 325 C 676 333.8367 668.8367 341 660 341 C 651.1633 341 644 333.8367 644 325 Z" fill="#ff0000"/>		<path id="Ellipse32" d="M 649 306 C 649 297.7156 655.7156 291 664 291 C 672.2844 291 679 297.7156 679 306 C 679 314.2844 672.2844 321 664 321 C 655.7156 321 649 314.2844 649 306 Z" fill="#ff0000"/>		<path id="Ellipse33" d="M 664 291.5 C 664 288.4624 669.5964 286 676.5 286 C 683.4036 286 689 288.4624 689 291.5 C 689 294.5376 683.4036 297 676.5 297 C 669.5964 297 664 294.5376 664 291.5 Z" fill="#ff0000"/>		<path id="Ellipse34" d="M 634 332 C 634 330.8954 661.9818 330 696.5 330 C 731.0182 330 759 330.8954 759 332 C 759 333.1046 731.0182 334 696.5 334 C 661.9818 334 634 333.1046 634 332 Z" fill="#ff0000"/>		<path id="Ellipse35" d="M 674 318.5 C 674 311.5963 679.5964 306 686.5 306 C 693.4036 306 699 311.5963 699 318.5 C 699 325.4037 693.4036 331 686.5 331 C 679.5964 331 674 325.4037 674 318.5 Z" fill="#ff0000"/>		<path id="Ellipse36" d="M 687 317.5 C 687 315.567 703.1175 314 723 314 C 742.8825 314 759 315.567 759 317.5 C 759 319.433 742.8825 321 723 321 C 703.1175 321 687 319.433 687 317.5 Z" fill="#ff0000"/>		<path id="Ellipse37" d="M 728 321.5 C 728 309.6257 728 300 728 300 C 728 300 728 309.6257 728 321.5 C 728 333.3743 728 343 728 343 C 728 343 728 333.3743 728 321.5 Z" fill="#ff0000"/>		<path id="Ellipse38" d="M 693 300.5 C 693 295.8055 697.4771 292 703 292 C 708.5229 292 713 295.8055 713 300.5 C 713 305.1945 708.5229 309 703 309 C 697.4771 309 693 305.1945 693 300.5 Z" fill="#ff0000"/>		<path id="Ellipse39" d="M 711 285.5 C 711 279.1487 714.134 274 718 274 C 721.866 274 725 279.1487 725 285.5 C 725 291.8513 721.866 297 718 297 C 714.134 297 711 291.8513 711 285.5 Z" fill="#ff0000"/>		<path id="Ellipse40" d="M 685 283.5 C 685 282.1193 702.9083 281 725 281 C 747.0917 281 765 282.1193 765 283.5 C 765 284.8807 747.0917 286 725 286 C 702.9083 286 685 284.8807 685 283.5 Z" fill="#ff0000"/>		<path id="Ellipse41" d="M 718 299.5 C 718 285.4166 724.4918 274 732.5 274 C 740.5082 274 747 285.4166 747 299.5 C 747 313.5834 740.5082 325 732.5 325 C 724.4918 325 718 313.5834 718 299.5 Z" fill="#ff0000"/>		<path id="Ellipse42" d="M 699 319 C 699 311.8202 704.3725 306 711 306 C 717.6275 306 723 311.8202 723 319 C 723 326.1798 717.6275 332 711 332 C 704.3725 332 699 326.1798 699 319 Z" fill="#ff0000"/>		<path id="Ellipse43" d="M 660 288.5 C 660 277.178 669.178 268 680.5 268 C 691.822 268 701 277.178 701 288.5 C 701 299.822 691.822 309 680.5 309 C 669.178 309 660 299.822 660 288.5 Z" fill="#ff0000"/>		<path id="Ellipse44" d="M 715 284.5 C 715 275.3872 722.1633 268 731 268 C 739.8367 268 747 275.3872 747 284.5 C 747 293.6128 739.8367 301 731 301 C 722.1633 301 715 293.6128 715 284.5 Z" fill="#ff0000"/>		<path id="Ellipse45" d="M 750 306 C 750 302.6862 752.0147 300 754.5 300 C 756.9853 300 759 302.6862 759 306 C 759 309.3138 756.9853 312 754.5 312 C 752.0147 312 750 309.3138 750 306 Z" fill="#ff0000"/>		<path id="Ellipse46" d="M 763 325.5 C 763 323.0147 764.1193 321 765.5 321 C 766.8807 321 768 323.0147 768 325.5 C 768 327.9853 766.8807 330 765.5 330 C 764.1193 330 763 327.9853 763 325.5 Z" fill="#ff0000"/>		<path id="Ellipse47" d="M 612 273 C 612 272.4477 645.3542 272 686.5 272 C 727.6458 272 761 272.4477 761 273 C 761 273.5523 727.6458 274 686.5 274 C 645.3542 274 612 273.5523 612 273 Z" fill="#ff0000"/>		<path id="Ellipse48" d="M 612 330 C 612 325.0294 616.0294 321 621 321 C 625.9706 321 630 325.0294 630 330 C 630 334.9706 625.9706 339 621 339 C 616.0294 339 612 334.9706 612 330 Z" fill="#ff0000"/>		<path id="Ellipse49" d="M 617 323.5 C 617 313.8349 624.8349 306 634.5 306 C 644.1651 306 652 313.8349 652 323.5 C 652 333.1651 644.1651 341 634.5 341 C 624.8349 341 617 333.1651 617 323.5 Z" fill="#ff0000"/>		<path id="Ellipse50" d="M 605 300 C 605 298.3431 642.1598 297 688 297 C 733.8402 297 771 298.3431 771 300 C 771 301.6569 733.8402 303 688 303 C 642.1598 303 605 301.6569 605 300 Z" fill="#ff0000"/>		<path d="M 644.5807 321.6976 L 652.1748 321.6976 C 658.9371 321.6976 662.3243 317.8053 662.3243 310.0208 C 662.3243 307.189 661.8422 305.0682 660.8899 303.6462 C 660.0461 302.2243 658.4791 301.0434 656.1888 300.1276 C 658.1898 299.4166 659.576 298.3682 660.3716 296.9704 C 661.1551 295.5846 661.5529 293.4517 661.5529 290.5717 C 661.5529 283.0523 658.4911 279.2806 652.3918 279.2806 L 644.5807 279.2806 L 644.5807 321.6976 L 644.5807 321.6976 ZM 649.981 283.932 C 650.0171 283.9199 650.1135 283.9079 650.2703 283.9079 L 650.5234 283.9079 L 650.9814 283.9079 C 654.4289 283.9079 656.1526 286.1974 656.1526 290.7766 C 656.1526 293.4999 655.6946 295.3918 654.8026 296.4643 C 653.8985 297.5006 652.2953 298.0067 649.981 298.0067 L 649.981 283.932 L 649.981 283.932 ZM 649.981 302.4774 C 652.5364 302.4774 654.3325 303.0317 655.3571 304.1283 C 656.3937 305.2128 656.9241 307.1167 656.9241 309.816 C 656.9241 312.467 656.4178 314.2867 655.4174 315.2989 C 654.4048 316.3111 652.5967 316.8051 649.981 316.8051 L 649.981 302.4774 L 649.981 302.4774 Z" fill="#ffffff"/>		<path d="M 669.2675 321.6976 L 674.6677 321.6976 L 674.6677 274.6533 L 669.2675 274.6533 L 669.2675 321.6976 L 669.2675 321.6976 Z" fill="#ffffff"/>		<path d="M 693.1828 293.1625 L 693.1828 296.3799 C 691.8328 293.7289 690.0488 292.3913 687.8428 292.3913 C 685.42 292.3913 683.648 293.5843 682.527 295.9582 C 681.3939 298.3321 680.8394 302.0435 680.8394 307.0926 C 680.8394 312.3947 681.3939 316.2749 682.527 318.7573 C 683.648 321.2397 685.42 322.4688 687.8428 322.4688 C 689.0965 322.4688 690.097 322.1193 690.8684 321.4204 C 691.6399 320.7215 692.4114 319.6008 693.1828 318.0463 L 693.1828 321.6976 L 698.5831 321.6976 L 698.5831 293.1625 L 693.1828 293.1625 L 693.1828 293.1625 ZM 687.0232 299.7299 C 687.5656 298.2718 688.4697 297.5367 689.7474 297.5367 C 690.9528 297.5367 691.8207 298.308 692.3632 299.8383 C 692.9056 301.5013 693.1828 304.0439 693.1828 307.4903 C 693.1828 310.9126 692.9056 313.4552 692.3632 315.094 C 691.8207 316.6364 690.9528 317.4077 689.7474 317.4077 C 688.4335 317.4077 687.5174 316.6726 686.9991 315.1784 C 686.4928 313.7082 686.2397 311.0933 686.2397 307.3457 C 686.2397 303.6342 686.4928 301.0916 687.0232 299.7299 L 687.0232 299.7299 Z" fill="#ffffff"/>		<path d="M 706.2977 321.6976 L 711.6979 321.6976 L 711.6979 302.5738 C 711.6979 300.5614 711.939 299.1274 712.4453 298.2839 C 712.9395 297.4403 713.7712 297.0186 714.9404 297.0186 C 715.4949 297.0186 715.953 297.127 716.3267 297.3199 C 716.6883 297.5127 716.9896 297.826 717.2307 298.2598 C 717.4598 298.6936 717.6285 299.2599 717.7249 299.9709 C 717.8214 300.6819 717.8696 301.5495 717.8696 302.5738 L 717.8696 321.6976 L 723.2698 321.6976 L 723.2698 302.5738 C 723.2698 300.4288 723.4868 298.9707 723.9328 298.1995 C 724.3909 297.4163 725.2708 297.0186 726.5485 297.0186 C 727.6816 297.0186 728.441 297.4042 728.8268 298.1754 C 729.2366 298.9225 729.4415 300.3927 729.4415 302.5738 L 729.4415 321.6976 L 734.8417 321.6976 L 734.8417 298.7177 C 734.8417 296.645 734.3114 295.0664 733.2627 293.994 C 732.2019 292.9335 730.6831 292.3913 728.6942 292.3913 C 726.1387 292.3913 724.1618 293.7289 722.7756 296.3799 C 721.8354 293.7289 720.0634 292.3913 717.4598 292.3913 C 715.061 292.3913 713.1444 293.8253 711.6979 296.6812 L 711.6979 293.1625 L 706.2977 293.1625 L 706.2977 321.6976 L 706.2977 321.6976 Z" fill="#ffffff"/>	</g></svg>