<?xml version="1.0" standalone="no"?><!-- Generator: Adobe Fireworks CS5, Export SVG Extension by Aaron Beall (http://fireworks.abeall.com) . Version: 0.6.1  --><!DOCTYPE svg PUBLIC "-//W3C//DTD SVG 1.1//EN" "http://www.w3.org/Graphics/SVG/1.1/DTD/svg11.dtd"><svg id="morris_ch02p01-Page%201" viewBox="0 0 800 800" style="background-color:#ffffff" version="1.1"	xmlns="http://www.w3.org/2000/svg" xmlns:xlink="http://www.w3.org/1999/xlink" xml:space="preserve"	x="0px" y="0px" width="800px" height="800px">	<defs>		<linearGradient id="gradient1" x1="91%" y1="-2.75%" x2="50%" y2="73.5%">			<stop stop-color="#0b0f18" stop-opacity="1" offset="0%"/>			<stop stop-color="#111325" stop-opacity="1" offset="100%"/>		</linearGradient>		<radialGradient id="gradient2" cx="33.3334%" cy="16.418%" r="45.1984%">			<stop stop-color="#c8a078" stop-opacity="1" offset="0%"/>			<stop stop-color="#ffcc99" stop-opacity="1" offset="100%"/>		</radialGradient>		<linearGradient id="gradient3" x1="50%" y1="0%" x2="50%" y2="100%">			<stop stop-color="#0b0f18" stop-opacity="1" offset="0%"/>			<stop stop-color="#111325" stop-opacity="1" offset="100%"/>		</linearGradient>		<linearGradient id="gradient4" x1="57.732%" y1="-25.3395%" x2="57.732%" y2="29.4532%">			<stop stop-color="#000000" stop-opacity="1" offset="0%"/>			<stop stop-color="#ffffff" stop-opacity="1" offset="100%"/>		</linearGradient>	</defs>	<g id="Background">		<rect x="0" y="0" width="800" height="800" fill="url(#gradient1)"/>		<path d="M 239.2 540 L 797 540 L 797 0 L 477.765 0 C 438.2391 83.9825 283.9123 437.4498 239.2 540 Z" fill="#181c27"/>	</g>	<g id="furniture">		<rect x="45.5831" y="705.2636" width="31.8817" height="46.7364" fill="#cccccc"/>		<rect x="691.1868" y="704.1237" width="31.8817" height="46.7363" fill="#cccccc"/>		<rect x="124.9306" y="675.6054" width="31.8817" height="46.7362" fill="#cccccc"/>		<rect x="613.8893" y="676.7453" width="31.8817" height="46.7362" fill="#cccccc"/>		<path d="M 47.8604 570.7546 L 749.257 570.7546 L 779.5508 658.0256 L -6 650.3391 L 47.8604 570.7546 Z" fill="#2b345d"/>		<path d="M -2.2394 651.688 L 780 651.688 L 748.1183 714.3831 L 25.0878 714.3831 L -2.2394 651.688 Z" fill="#45527c"/>		<path d="M 14 387 L 777.1183 286 L 748.1183 575.3142 L 46.7217 575.3142 L 14 387 Z" fill="#45527c"/>	</g>	<g id="baby%20morris">		<rect x="30" y="71" width="216" height="216" stroke="#666666" stroke-width="2" fill="none" rx="17.28" ry="17.28"/>		<rect x="43" y="81" width="190" height="191" fill="#8358c3" rx="15.2" ry="15.2"/>		<g>			<path d="M 56.4375 179.8359 C 56.4375 179.8359 60.9167 193.0853 56.4375 198.915 C 56.4375 198.915 68.0306 199.975 65.9228 185.7981 L 56.4375 179.8359 Z" fill="#ff0000"/>			<path id="Ellipse" d="M 43 153.6021 C 43 125.9418 67.5952 103.5194 97.9357 103.5194 C 128.2762 103.5194 152.8713 125.9418 152.8713 153.6021 C 152.8713 181.2624 128.2762 203.6848 97.9357 203.6848 C 67.5952 203.6848 43 181.2624 43 153.6021 Z" fill="#ff0000"/>			<path d="M 58.8088 132.1381 C 58.8088 132.1381 35.886 156.252 48.9283 177.451 L 48.9283 172.2837 L 52.8805 181.8233 L 53.6709 178.6434 L 63.5515 192.1578 C 63.5515 192.1578 76.462 149.8923 76.5938 148.4348 C 76.7255 146.9774 58.8088 132.1381 58.8088 132.1381 Z" fill="#ff0000"/>			<path d="M 54.4614 174.6686 C 54.4614 174.6686 63.5515 178.5109 65.5276 213.2243 C 65.5276 213.2243 51.4314 233.0984 78.1746 249.3952 L 130.3438 233.4959 L 169.8658 229.5211 L 184.489 224.7513 C 184.489 224.7513 181.5907 211.3695 185.6746 210.442 C 189.7586 209.5145 186.0699 209.2495 186.0699 209.2495 C 186.0699 209.2495 192.9203 185.9306 172.6324 183.0157 C 172.6324 183.0157 162.1731 173.0098 157.4451 153.3766 C 157.3681 153.0569 157.2927 152.7345 157.2188 152.4096 C 152.6078 132.1381 54.4614 174.6686 54.4614 174.6686 Z" fill="#ff0000"/>			<path d="M 127.9724 205.2747 L 138.2482 222.7639 L 118.4871 231.906 L 109.7923 215.2118 L 127.9724 205.2747 Z" fill="url(#gradient2)"/>			<path id="Ellipse2" d="M 68.6893 197.9213 C 68.6893 194.2991 71.1665 191.3628 74.2224 191.3628 C 77.2783 191.3628 79.7555 194.2991 79.7555 197.9213 C 79.7555 201.5435 77.2783 204.4798 74.2224 204.4798 C 71.1665 204.4798 68.6893 201.5435 68.6893 197.9213 Z" fill="#dcb084"/>			<path id="Ellipse3" d="M 134.2959 194.3439 C 134.2959 190.7218 136.7732 187.7855 139.8291 187.7855 C 142.8849 187.7855 145.3621 190.7218 145.3621 194.3439 C 145.3621 197.9662 142.8849 200.9024 139.8291 200.9024 C 136.7732 200.9024 134.2959 197.9662 134.2959 194.3439 Z" fill="#dcb084"/>			<path id="Ellipse4" d="M 52.0901 161.353 C 52.0901 131.6072 76.0659 107.4942 105.6425 107.4942 C 135.219 107.4942 159.1949 131.6072 159.1949 161.353 C 159.1949 191.0988 113.0053 218.5241 104.9179 218.5241 C 94.8544 218.5241 52.0901 191.0988 52.0901 161.353 Z" stroke="#eabb8c" stroke-width="1" fill="#ffcc99"/>			<g>				<path id="Ellipse5" d="M 63.429 173.0865 C 63.9689 170.458 74.1751 165.5602 82.5492 168.7671 C 90.9233 171.9741 95.9397 179.1072 93.7539 184.6997 C 91.5681 190.2923 83.0078 192.2261 74.6337 189.0192 C 66.2596 185.8122 62.2222 178.9625 63.429 173.0865 Z" fill="#000000"/>				<path id="Ellipse6" d="M 66.8059 174.4538 C 67.2667 172.0881 75.9794 167.6801 83.128 170.5663 C 90.2766 173.4526 94.5589 179.8724 92.6929 184.9057 C 90.827 189.9389 83.5195 191.6794 76.3709 188.7932 C 69.2223 185.9069 65.7757 179.7422 66.8059 174.4538 Z" fill="#ffffff"/>				<path d="M 71.1703 168.0951 C 71.1703 168.0951 64.6076 169.8727 62.4621 166.9525 C 60.3166 164.0323 61.3263 167.3334 61.3263 167.3334 C 61.3263 167.3334 62.3077 175.8242 63.4916 178.4404 C 63.6502 178.791 63.8125 179.036 63.9766 179.1411 C 65.3648 180.0298 64.1028 172.6659 71.1703 168.0951 Z" fill="#000000"/>			</g>			<g>				<path id="Ellipse7" d="M 140.7669 173.0865 C 140.2271 170.458 130.0209 165.5602 121.6468 168.7671 C 113.2727 171.9741 108.2563 179.1072 110.4421 184.6997 C 112.6279 190.2923 121.1882 192.2261 129.5622 189.0192 C 137.9364 185.8122 141.9738 178.9625 140.7669 173.0865 Z" fill="#000000"/>				<path id="Ellipse8" d="M 137.3901 174.4538 C 136.9292 172.0881 128.2166 167.6801 121.068 170.5663 C 113.9194 173.4526 109.6371 179.8724 111.503 184.9057 C 113.369 189.9389 120.6765 191.6794 127.8251 188.7932 C 134.9737 185.9069 138.4203 179.7422 137.3901 174.4538 Z" fill="#ffffff"/>				<path d="M 133.0257 168.0951 C 133.0257 168.0951 139.5884 169.8727 141.7339 166.9525 C 143.8793 164.0323 142.8697 167.3334 142.8697 167.3334 C 142.8697 167.3334 141.8883 175.8242 140.7044 178.4404 C 140.5457 178.791 140.3835 179.036 140.2194 179.1411 C 138.8311 180.0298 140.0932 172.6659 133.0257 168.0951 Z" fill="#000000"/>			</g>			<path d="M 97.1452 203.9181 C 97.1452 207.0821 99.6224 209.647 102.6783 209.647 C 105.7342 209.647 108.2114 207.0821 108.2114 203.9181 C 108.2114 203.5671 108.1809 203.2234 108.1225 202.8898 C 107.6546 205.5632 105.3952 207.5905 102.6783 207.5905 C 99.9615 207.5905 97.702 205.5632 97.2341 202.8898 C 97.1758 203.2234 97.1452 203.5671 97.1452 203.9181 Z" fill="#ff0000"/>			<path id="Ellipse9" d="M 74.1992 182.1882 C 74.1992 177.5602 78.5217 173.8085 83.8539 173.8085 C 89.1861 173.8085 93.5085 177.5602 93.5085 182.1882 C 93.5085 186.8163 89.1861 190.5679 83.8539 190.5679 C 78.5217 190.5679 74.1992 186.8163 74.1992 182.1882 Z" fill="#000000"/>			<path id="Ellipse10" d="M 116.604 181.4264 C 116.604 176.7984 120.9265 173.0468 126.2587 173.0468 C 131.5909 173.0468 135.9134 176.7984 135.9134 181.4264 C 135.9134 186.0545 131.5909 189.8061 126.2587 189.8061 C 120.9265 189.8061 116.604 186.0545 116.604 181.4264 Z" fill="#000000"/>			<path d="M 50.5092 160.8534 C 50.5092 165.9679 51.7581 170.9199 53.8864 175.6213 L 54.5635 175.3538 C 53.6175 171.9499 52.1309 160.6492 52.1309 160.6492 L 52.9418 153.7053 L 54.5635 153.7053 L 57.8069 148.8038 L 59.4286 153.2968 L 61.8612 150.0291 L 61.8612 155.7476 L 69.1589 150.0291 L 67.5372 156.5645 L 75.6458 148.8038 L 75.2404 158.1984 L 82.5381 151.2545 L 80.1055 159.8322 L 92.6738 150.8461 L 89.4304 159.0153 L 97.1335 152.0714 L 96.7281 159.8322 L 104.0258 153.2968 L 104.0258 159.0153 L 111.3236 150.0291 L 112.1344 154.9307 L 117.8104 150.0291 L 115.7833 156.973 L 125.5136 149.6207 L 123.4865 155.7476 L 137.271 147.1699 L 133.2168 156.1561 L 144.1633 148.8038 L 140.9199 156.973 L 151.8665 152.4799 L 150.2448 158.6068 L 156.7316 156.5645 L 155.9208 160.6492 C 159.0291 163.7807 154.2991 179.4384 154.2991 179.4384 L 155.2154 178.789 C 158.4131 173.1644 160.3805 167.1307 160.3805 160.8534 C 160.3805 130.2859 135.7854 105.5068 105.4449 105.5068 C 75.1043 105.5068 50.5092 130.2859 50.5092 160.8534 Z" fill="#ff0000"/>			<path d="M 55.2518 162.9776 C 55.2518 162.9776 78.726 155.2328 85.541 157.6451 L 83.6479 159.9305 C 83.6479 159.9305 77.9687 157.0103 55.2518 162.9776 Z" fill="#000000"/>			<path d="M 139.0386 165.6937 C 139.0386 165.6937 115.5645 157.9488 108.7494 160.3611 L 110.6425 162.6465 C 110.6425 162.6465 116.3217 159.7263 139.0386 165.6937 Z" fill="#000000"/>			<path d="M 97.1452 194.9402 C 97.1452 194.9402 101.8879 192.5553 105.8401 194.5427 " stroke="#dcb084" stroke-width="2" fill="none"/>			<path d="M 135.8768 114.6488 C 135.8768 114.6488 152.3444 124.7184 153.6618 128.5607 L 151.6857 128.9582 L 157.614 134.1255 L 155.6379 135.3179 L 160.7757 144.0625 L 158.0092 143.665 L 161.9614 151.6147 L 157.2188 149.6273 C 157.2188 149.6273 137.853 136.1129 136.6673 133.3305 C 135.4816 130.5481 135.8768 114.6488 135.8768 114.6488 Z" fill="#ff0000"/>			<path d="M 76.1985 252.575 C 76.1985 252.575 76.989 244.4929 81.3364 242.2405 L 127.9724 220.7765 L 172.6324 215.6093 C 172.6324 215.6093 179.7463 215.3443 186.4651 220.7765 L 197.136 250.5876 L 84.4982 257.7423 L 76.1985 252.575 Z" fill="#ffcc99"/>			<path d="M 76.1985 252.575 L 77.7794 267.6794 L 200.5613 267.4144 L 186.4651 220.7765 C 179.7463 215.3443 172.6324 215.6093 172.6324 215.6093 L 151.579 218.0458 C 152.1642 219.6116 152.4761 221.2599 152.4761 222.9626 C 152.4761 233.1706 141.2402 241.4456 127.3796 241.4456 C 117.6171 241.4456 109.1576 237.3398 105.0081 231.3456 L 81.3364 242.2405 C 76.989 244.4929 76.1985 252.575 76.1985 252.575 Z" fill="#000000"/>			<path d="M 90.0313 226.3413 C 90.0313 226.3413 87.2647 238.6632 90.8217 247.4078 C 90.8217 247.4078 95.6961 255.0925 98.3309 254.96 C 98.3309 254.96 81.2047 255.3574 72.6415 247.0103 L 90.0313 226.3413 Z" fill="#ff0000"/>			<path d="M 94.7739 212.8269 C 94.7739 212.8269 92.0074 225.1488 95.5643 233.8934 C 95.5643 233.8934 100.4387 241.5781 103.0735 241.4456 C 103.0735 241.4456 85.9473 241.8431 77.3842 233.4959 L 94.7739 212.8269 Z" fill="#ff0000"/>			<path id="Ellipse11" d="M 72.6415 175.6623 C 72.6415 173.7964 74.234 172.2837 76.1985 172.2837 C 78.163 172.2837 79.7555 173.7964 79.7555 175.6623 C 79.7555 177.5283 78.163 179.0409 76.1985 179.0409 C 74.234 179.0409 72.6415 177.5283 72.6415 175.6623 Z" fill="#ffffff"/>			<path id="Ellipse12" d="M 115.3254 176.4573 C 115.3254 174.5913 116.9178 173.0787 118.8824 173.0787 C 120.8468 173.0787 122.4394 174.5913 122.4394 176.4573 C 122.4394 178.3233 120.8468 179.8359 118.8824 179.8359 C 116.9178 179.8359 115.3254 178.3233 115.3254 176.4573 Z" fill="#ffffff"/>			<path d="M 160.3805 163.5391 C 160.3805 163.5391 172.1054 179.0409 178.1655 174.6686 C 178.1655 174.6686 177.6385 190.1704 169.4706 190.5679 L 161.5662 177.451 L 160.3805 163.5391 Z" fill="#ff0000"/>			<path d="M 168.2849 214.0193 C 168.2849 214.0193 183.6985 229.3886 178.1655 235.4833 C 178.1655 235.4833 186.8603 229.9186 183.3033 217.9941 L 176.1893 205.6722 L 168.2849 214.0193 Z" fill="#ff0000"/>			<path d="M 155.6379 205.6722 C 155.6379 205.6722 171.0515 221.0415 165.5184 227.1362 C 165.5184 227.1362 174.2132 221.5715 170.6563 209.647 L 163.5423 197.3251 L 155.6379 205.6722 Z" fill="#ff0000"/>			<path d="M 148.3105 239.9492 C 148.3105 251.447 154.4182 261.5995 163.7419 267.6794 L 204.3468 267.6794 C 213.6705 261.5995 219.779 251.447 219.779 239.9492 C 219.779 221.3411 203.7804 206.2567 184.0448 206.2567 C 164.309 206.2567 148.3105 221.3411 148.3105 239.9492 Z" fill="#ffcc00"/>			<path id="Ellipse13" d="M 151.884 234.2909 C 151.884 217.6715 166.1683 204.1992 183.7895 204.1992 C 201.4107 204.1992 215.6951 217.6715 215.6951 234.2909 C 215.6951 250.9103 201.4107 264.3826 183.7895 264.3826 C 166.1683 264.3826 151.884 250.9103 151.884 234.2909 Z" fill="#ffffff"/>			<path id="Ellipse14" d="M 141.7894 196.6938 C 141.7894 175.5289 160.0734 158.3719 182.6286 158.3719 C 205.1836 158.3719 223.4677 175.5289 223.4677 196.6938 C 223.4677 217.8587 205.1836 235.0157 182.6286 235.0157 C 160.0734 235.0157 141.7894 217.8587 141.7894 196.6938 Z" fill="#ffcc00"/>			<path d="M 143.7161 186.71 C 143.7161 186.71 132.6555 192.7112 134.0168 198.5409 L 144.7371 203.1704 L 143.7161 186.71 Z" fill="#ffcc00"/>			<path d="M 221.1943 183.6237 C 221.1943 183.6237 232.2549 189.6248 230.8936 195.4546 L 220.1733 200.0841 L 221.1943 183.6237 Z" fill="#ffcc00"/>			<path d="M 143.2056 195.969 C 143.2056 195.969 135.7185 194.4258 134.5273 198.5409 C 134.5273 198.5409 141.8443 201.6272 142.6951 204.7136 C 142.6951 204.7136 141.504 197.8551 143.2056 195.969 Z" fill="#9d6b36"/>			<path d="M 222.8419 192.8826 C 222.8419 192.8826 230.3291 191.3395 231.5202 195.4546 C 231.5202 195.4546 224.2032 198.5409 223.3524 201.6272 C 223.3524 201.6272 224.5436 194.7687 222.8419 192.8826 Z" fill="#9d6b36"/>			<path id="Ellipse15" d="M 214.6741 179.5086 C 214.6741 179.5086 214.9026 179.5086 215.1846 179.5086 C 215.4665 179.5086 215.6951 179.5086 215.6951 179.5086 C 215.6951 179.5086 215.4665 179.5086 215.1846 179.5086 C 214.9026 179.5086 214.6741 179.5086 214.6741 179.5086 Z" stroke="#000000" stroke-width="1" fill="#ffffff"/>			<path d="M 137.0625 241.8431 C 137.0625 250.0753 156.0186 251.7801 183.3033 251.7801 C 210.5879 251.7801 229.5441 246.8954 229.5441 238.6632 C 229.5441 234.2113 225.3744 224.8989 215.1186 222.1677 C 211.6065 231.4298 199.2602 241.8431 183.5009 241.8431 C 167.6879 241.8431 154.4417 234.9099 150.9841 225.5999 C 140.5202 228.3331 137.0625 237.3394 137.0625 241.8431 Z" stroke="#ffcc00" stroke-width="1" fill="#ffffff"/>			<path d="M 136.6673 241.8431 C 136.6673 250.0753 140.3798 252.3306 167.6644 252.3306 C 170.466 252.3306 173.1796 252.2789 175.7941 252.1776 C 179.9839 249.1284 199.585 242.6485 204.4476 235.4833 C 198.5981 238.6644 191.4348 241.8431 183.1057 241.8431 C 167.2926 241.8431 156.1313 233.465 152.6737 224.1551 C 142.2098 226.8882 136.6673 237.3394 136.6673 241.8431 Z" stroke="#ffcc00" stroke-width="1" fill="#ffffff"/>			<path d="M 155.6379 231.5085 L 158.4044 231.906 L 158.4044 231.1111 L 153.2666 224.3539 L 151.2905 225.1488 L 155.6379 231.5085 Z" fill="#ffffff"/>			<path d="M 212.1544 229.5211 L 209.3879 229.9186 L 209.3879 229.1236 L 214.5257 222.3664 L 216.5018 223.1614 L 212.1544 229.5211 Z" fill="#ffffff"/>			<path d="M 218.3329 234.2909 C 218.3329 234.2909 216.5545 229.9186 208.4525 229.9186 C 208.4525 229.9186 199.1647 233.4959 199.3624 237.4707 C 199.3624 237.4707 211.6142 236.0796 213.1951 238.2657 C 213.1951 238.2657 219.5186 238.4644 218.3329 234.2909 Z" stroke="#ffcc00" stroke-width="1" fill="#ffffff"/>			<path d="M 152.0809 236.2783 C 152.0809 236.2783 153.8594 231.906 161.9614 231.906 C 161.9614 231.906 171.2491 235.4833 171.0515 239.4582 C 171.0515 239.4582 158.7996 238.067 157.2188 240.2531 C 157.2188 240.2531 150.8952 240.4519 152.0809 236.2783 Z" stroke="#ffcc00" stroke-width="1" fill="#ffffff"/>			<rect x="257.2096" y="254.2719" width="0.7904" height="0.795" fill="#000000"/>			<path d="M 149.822 219.5198 C 150.6742 220.5965 151.5859 221.6291 152.5512 222.6149 C 151.5076 224.4086 150.6209 226.7986 151.6857 228.7262 L 155.2585 225.1329 C 155.4343 225.282 155.6115 225.4298 155.79 225.5761 C 154.9011 227.2844 154.2882 229.3831 155.2426 231.1111 L 158.6317 227.7026 C 158.849 227.851 159.0672 227.9974 159.2877 228.1419 C 158.6803 229.6326 158.4157 231.2904 159.1949 232.701 L 162.0681 229.8113 C 168.1062 233.12 175.1315 235.0157 182.6286 235.0157 C 189.9337 235.0157 196.7912 233.2151 202.7244 230.0617 L 206.5349 233.8934 C 207.521 232.1082 206.8339 229.9269 205.8981 228.1895 L 206.2004 227.9908 L 210.4871 232.3035 C 211.6534 230.192 210.4789 227.5272 209.3207 225.6973 L 209.7791 225.3197 L 209.6966 225.5463 L 214.0441 229.9186 C 215.3269 227.5963 213.7783 224.6035 212.5338 222.7898 C 213.9146 221.397 215.1862 219.9082 216.3361 218.3341 L 188.2439 219.5841 L 174.4607 203.1237 L 149.822 219.5198 Z" fill="#ffcc00"/>			<path d="M 149.822 218.7248 C 150.6742 219.8016 151.5859 220.8341 152.5512 221.8199 C 151.5076 223.6136 150.6209 226.0036 151.6857 227.9312 L 155.2585 224.3379 C 155.4343 224.487 155.6115 224.6349 155.79 224.7812 C 154.9011 226.4894 154.2882 228.5882 155.2426 230.3161 L 158.6317 226.9077 C 158.849 227.0561 159.0672 227.2025 159.2877 227.3469 C 158.6803 228.8376 158.4157 230.4954 159.1949 231.906 L 162.0681 229.0163 C 168.1062 232.325 175.1315 234.2207 182.6286 234.2207 C 189.9337 234.2207 196.7912 232.4201 202.7244 229.2667 L 206.5349 233.0984 C 207.521 231.3133 206.8339 229.1319 205.8981 227.3946 L 206.2004 227.1959 L 210.4871 231.5085 C 211.6534 229.3971 210.4789 226.7322 209.3207 224.9024 L 209.7791 224.5247 L 209.6966 224.7513 L 214.0441 229.1236 C 215.3269 226.8013 213.7783 223.8086 212.5338 221.9948 C 213.9146 220.602 215.1862 219.1132 216.3361 217.5391 L 188.2439 218.7891 L 174.4607 202.3287 L 149.822 218.7248 Z" stroke="#ffcc00" stroke-width="1" fill="#ffffff"/>			<path d="M 166.1776 216.0301 C 166.1776 217.7347 167.5489 219.1165 169.2406 219.1165 C 170.9322 219.1165 172.3035 217.7347 172.3035 216.0301 C 172.3035 215.9081 172.2967 215.7884 172.2831 215.67 L 167.3696 213.5867 C 166.644 214.1512 166.1776 215.035 166.1776 216.0301 Z" fill="#000000"/>			<path d="M 196.807 216.5445 C 196.807 218.249 195.4357 219.6308 193.744 219.6308 C 192.0524 219.6308 190.6811 218.249 190.6811 216.5445 C 190.6811 216.4225 190.6879 216.3027 190.7015 216.1844 L 195.615 214.1012 C 196.3406 214.6656 196.807 215.5494 196.807 216.5445 Z" fill="#000000"/>			<path d="M 177.9189 221.4779 L 186.0867 221.4779 C 186.0867 221.4779 183.5343 224.5643 182.0028 225.0787 C 182.0028 225.0787 178.9399 224.7358 177.9189 221.4779 Z" fill="#000000"/>			<path d="M 168.7301 208.8287 L 173.3245 216.5445 L 174.8559 215.5157 L 168.7301 208.8287 Z" fill="#000000"/>			<path d="M 188.6391 215.5157 L 189.6601 216.5445 L 194.2545 210.3718 L 188.6391 215.5157 Z" fill="#000000"/>			<path d="M 186.0699 231.1111 C 185.9557 229.3385 184.2297 227.9312 182.1176 227.9312 C 180.0056 227.9312 178.2795 229.3385 178.1655 231.1111 L 179.0416 231.1111 C 179.0995 229.7597 180.4052 228.6794 182.0077 228.6794 C 183.6103 228.6794 184.916 229.7597 184.9738 231.1111 L 186.0699 231.1111 Z" fill="#000000"/>			<path d="M 196.3456 174.6686 C 196.3456 174.6686 205.4357 167.1165 215.3162 169.5014 L 211.7592 172.6812 C 211.7592 172.6812 222.0349 169.8988 223.6158 172.6812 L 218.478 175.8611 C 218.478 175.8611 226.3824 177.0535 227.1728 178.6434 L 215.7114 184.6057 L 196.3456 174.6686 Z" fill="#ffcc00"/>			<path d="M 182.4007 152.015 C 181.0919 151.869 166.8405 157.4164 164.95 154.6427 C 164.95 154.6427 159.8603 162.0879 178.9105 160.3361 C 178.9105 160.3361 183.7094 152.161 182.4007 152.015 Z" fill="#dcb084"/>			<path d="M 170.2747 172.052 L 175.238 155.3239 C 176.1078 152.3925 181.1665 151.2505 186.5218 152.7594 L 196.0247 155.4369 C 201.3253 156.9304 204.9499 160.4934 204.1358 163.4088 L 199.4905 180.044 C 198.6584 183.0236 193.6223 184.2623 188.226 182.797 L 178.5509 180.1699 C 173.098 178.6893 169.3857 175.0485 170.2747 172.052 Z" fill="#ffcc99"/>			<path d="M 176.7292 179.606 L 183.4186 159.1682 L 178.4742 180.9199 L 176.7292 179.606 Z" fill="#d5aa80"/>			<path d="M 186.7633 181.7958 L 193.8889 160.6281 L 188.5084 183.1097 L 186.7633 181.7958 Z" fill="#d5aa80"/>		</g>		<path opacity="0.1216" d="M 30 184.615 L 30 267.72 C 30 277.2636 37.7364 285 47.28 285 L 228.72 285 C 238.2636 285 246 277.2636 246 267.72 L 246 154.115 C 228.7499 152.0823 210.6537 151 192 151 C 127.2635 151 69.2415 164.0269 30 184.615 Z" fill="#ffffff"/>	</g>	<g id="Morris">		<path id="Ellipse16" opacity="0.3294" d="M 65 619.5 C 65 607.0734 142.4535 597 238 597 C 333.5465 597 411 607.0734 411 619.5 C 411 631.9266 333.5465 642 238 642 C 142.4535 642 65 631.9266 65 619.5 Z" fill="url(#gradient3)"/>		<g>			<path id="Ellipse17" d="M 62.9668 557.6859 C 62.9668 513.7054 112.8095 473.5398 174.2953 473.5398 C 235.7811 473.5398 285.6237 509.1919 285.6237 553.1722 C 285.6237 597.1526 235.7811 632.8047 174.2953 632.8047 C 112.8095 632.8047 62.9668 619.264 62.9668 557.6859 Z" fill="#ffcc00"/>			<path id="Ellipse18" d="M 147.5119 566.3906 C 147.5119 527.2178 180.7404 495.4629 221.7309 495.4629 C 262.7214 495.4629 295.9498 527.2178 295.9498 566.3906 C 295.9498 605.5634 278.5245 630.8704 223.667 630.8704 C 164.923 630.8704 147.5119 605.5634 147.5119 566.3906 Z" fill="#ffffff"/>			<path d="M 206.4224 626.7469 C 211.9084 627.3422 217.861 627.6464 224.3124 627.6464 C 279.1699 627.6464 296.5952 602.3395 296.5952 563.1666 C 296.5952 523.9938 263.3668 492.2389 222.3762 492.2389 C 218.3865 492.2389 214.4689 492.5398 210.6497 493.119 C 244.2592 499.8875 269.4892 528.3887 269.4892 562.5219 C 269.4892 599.4111 254.0365 624.0051 206.4224 626.7469 Z" fill="#cccccc"/>			<g>				<path d="M 197.8517 474.8293 C 197.8517 474.8293 181.7172 478.0534 170.7457 498.6869 C 170.7457 498.6869 177.8449 512.2277 188.171 511.5828 L 197.8517 474.8293 Z" fill="#c8a000"/>				<path d="M 173.3272 499.3317 C 173.3272 499.3317 182.1474 494.8181 184.2987 499.3317 L 191.3979 503.2005 L 187.5256 509.0036 C 187.5256 509.0036 178.7054 509.0036 173.3272 499.3317 Z" fill="#564500"/>			</g>			<g>				<path d="M 316.6021 479.343 C 316.6021 479.343 332.7366 482.5669 343.7081 503.2005 C 343.7081 503.2005 336.6089 516.7412 326.2828 516.0964 L 316.6021 479.343 Z" fill="#c8a000"/>				<path d="M 341.1266 503.8453 C 341.1266 503.8453 332.3064 499.3317 330.1551 503.8453 L 323.0559 507.714 L 326.9282 513.5172 C 326.9282 513.5172 335.7484 513.5172 341.1266 503.8453 Z" fill="#564500"/>			</g>			<path id="Ellipse19" d="M 186.2349 507.714 C 184.9441 458.0646 217.8403 440.0104 257.2269 440.0104 C 296.6134 440.0104 328.219 462.5782 328.8643 507.714 C 329.3328 540.4734 296.9362 567.0354 257.5496 567.0354 C 218.1631 567.0354 187.0863 540.4657 186.2349 507.714 Z" fill="#ffcc00"/>			<path d="M 195.196 536.5236 C 194.9328 538.2493 194.2425 544.6403 197.8517 547.6915 L 199.1425 545.7571 C 199.1425 545.7571 199.1425 552.2051 203.0148 552.8499 L 203.6602 548.3362 C 203.6602 548.3362 204.3056 553.4947 207.5325 554.7842 L 207.5325 549.9966 C 220.4038 560.5331 238.0636 567.0354 257.5496 567.0354 C 274.7033 567.0354 290.44 561.9955 302.7425 553.6011 L 302.744 561.877 C 305.9709 560.5874 306.6163 555.429 306.6163 555.429 L 307.2617 559.9426 C 311.134 559.2977 311.134 552.8499 311.134 552.8499 L 312.4248 554.7842 C 316.6198 551.2378 315.0063 543.1779 315.0063 543.1779 L 314.5304 543.3875 C 314.8255 543.0618 315.1177 542.7349 315.4048 542.4042 L 307.5667 538.0195 L 268.8438 537.3746 L 241.7377 501.9108 L 215.2771 531.5715 L 194.6506 535.6918 L 195.196 536.5236 Z" stroke="#999999" stroke-width="2" fill="#ffffff"/>			<path d="M 225.6032 538.4446 C 225.6032 539.1838 225.7003 539.9047 225.8834 540.5988 C 227.0819 536.0571 231.9909 532.6556 237.8654 532.6556 C 243.74 532.6556 248.649 536.0571 249.8474 540.5988 C 250.0306 539.9047 250.1277 539.1838 250.1277 538.4446 C 250.1277 532.8682 244.6378 528.3475 237.8654 528.3475 C 231.0931 528.3475 225.6032 532.8682 225.6032 538.4446 Z" fill="#000000"/>			<path d="M 274.0068 538.4446 C 274.0068 539.1838 274.104 539.9047 274.2871 540.5988 C 275.4856 536.0571 280.3946 532.6556 286.2691 532.6556 C 292.1436 532.6556 297.0526 536.0571 298.2511 540.5988 C 298.4343 539.9047 298.5314 539.1838 298.5314 538.4446 C 298.5314 532.8682 293.0414 528.3475 286.2691 528.3475 C 279.4968 528.3475 274.0068 532.8682 274.0068 538.4446 Z" fill="#000000"/>			<path d="M 247.5546 553.3357 C 247.8593 560.7177 259.6746 566.6105 261.675 566.6105 C 263.8689 566.6105 275.4907 560.7177 275.7953 553.3357 L 247.5546 553.3357 Z" fill="#000000"/>			<rect x="170.7457" y="593.4719" width="191.0332" height="39.9774" fill="#ffcc00"/>			<path d="M 219.1494 574.1282 L 244.9647 574.1282 C 244.9647 574.1282 260.4538 577.3522 255.2907 607.6577 C 255.2907 607.6577 234.6385 617.9744 224.3124 607.6577 L 224.3124 590.2481 L 217.2132 590.8929 L 219.1494 574.1282 Z" fill="#ffffff"/>			<path d="M 268.1984 443.2343 C 268.1984 443.2343 281.106 436.1415 296.5952 439.3655 L 289.496 443.8791 L 308.8575 443.2343 L 312.0844 444.5238 L 296.5952 452.9062 L 270.1346 456.775 L 268.1984 443.2343 Z" fill="#ffcc00"/>			<path d="M 127.5051 493.5285 C 127.5051 493.5285 114.5974 486.4358 99.1082 489.6597 L 106.2075 494.1733 L 86.846 493.5285 L 83.6191 494.8181 L 99.1082 503.2005 L 125.5689 507.0692 L 127.5051 493.5285 Z" fill="#ffcc00"/>			<path d="M 108.789 505.7796 C 108.789 505.7796 95.8813 498.6869 80.3922 501.9108 L 87.4914 506.4244 L 68.1299 505.7796 L 64.903 507.0692 L 80.3922 515.4516 L 106.8528 519.3204 L 108.789 505.7796 Z" fill="#ffcc00"/>			<path d="M 104.2713 517.386 C 104.2713 517.386 91.3637 510.2932 75.8745 513.5172 L 82.9737 518.0308 L 63.6122 517.386 L 60.3853 518.6756 L 75.8745 527.058 L 102.3352 530.9268 L 104.2713 517.386 Z" fill="#ffcc00"/>			<path d="M 213.9863 575.4177 L 245.61 575.4177 C 245.61 575.4177 253.0319 571.8714 255.2907 592.8274 L 257.2269 592.8274 C 257.2269 592.8274 258.8404 572.5162 246.2554 572.8386 L 212.0501 572.8386 L 213.9863 575.4177 Z" fill="#cccccc"/>			<path d="M 359.8427 593.4721 C 359.8427 593.4721 393.4026 588.3137 410.8279 610.2369 C 428.2532 632.1599 410.1825 612.816 410.1825 612.816 C 410.1825 612.816 395.984 604.4337 394.0479 611.5264 C 394.0479 611.5264 410.1825 617.3297 410.8279 624.4224 C 410.8279 624.4224 395.3387 613.4608 392.7572 620.5536 C 392.7572 620.5536 406.9556 623.7776 407.601 631.5151 L 359.1973 633.4495 L 359.8427 593.4721 Z" fill="#ffcc00"/>			<path d="M 148.8027 592.1825 L 178.4902 594.7617 L 186.2349 617.9744 C 186.2349 617.9744 173.3272 625.0672 170.7457 625.0672 C 168.1642 625.0672 148.8027 621.8432 148.8027 621.8432 L 148.8027 592.1825 Z" fill="#ffcc00"/>			<path d="M 313.7688 633.4495 L 359.8427 633.4495 L 362.4242 633.4495 L 362.4242 633.3464 L 408.2463 631.5151 C 407.601 623.7776 393.4026 620.5536 393.4026 620.5536 C 395.984 613.4608 411.4733 624.4224 411.4733 624.4224 C 410.8279 617.3297 394.6933 611.5264 394.6933 611.5264 C 396.6295 604.4337 410.8279 612.816 410.8279 612.816 C 410.8279 612.816 428.8986 632.1599 411.4733 610.2369 C 394.0479 588.3137 360.488 593.4721 360.488 593.4721 L 317.0667 593.4721 C 313.8517 601.2555 312.0844 609.7396 312.0844 618.6192 C 312.0844 623.712 312.6666 628.6746 313.7688 633.4495 Z" stroke="#999999" stroke-width="2" fill="#ffffff"/>			<path d="M 295.3044 577.3522 L 321.1197 577.3522 C 321.1197 577.3522 336.6089 580.5761 331.4459 610.8817 C 331.4459 610.8817 310.7936 621.1984 300.4675 610.8817 L 300.4675 593.4721 L 293.3683 594.1169 L 295.3044 577.3522 Z" stroke="#999999" stroke-width="2" fill="#ffffff"/>			<path d="M 80.3922 568.9697 C 80.3922 582.5732 121.5529 594.9839 161.7103 597.3409 C 161.4368 596.2768 151.0478 594.5307 150.7066 593.0046 C 114.1221 590.8161 85.0147 580.5433 80.4018 568.5378 C 80.395 568.6813 80.3922 568.8257 80.3922 568.9697 Z" fill="#c8a000"/>			<path d="M 296.5952 560.5874 C 296.5952 560.5874 298.2087 586.3793 294.6591 592.8274 L 291.4321 593.4721 C 291.4321 593.4721 294.6591 590.5705 296.5952 560.5874 Z" fill="#cccccc"/>		</g>	</g>	<g id="NJ">		<path d="M 678 366 C 678 366 772 437 785 460 C 785 460 769 498 714 570 L 690 553 C 690 553 746 487 740 462 C 740 462 666 397 657 406 C 657 406 667 367 678 366 Z" stroke="#000000" stroke-width="1" fill="#ffffcc"/>		<path opacity="0.2118" d="M 680 371 C 680 371 678 402 684 413 L 685 420 L 663 407 C 663 407 659 350 680 371 Z" fill="#000000"/>		<path id="Ellipse20" opacity="0.4118" d="M 491 591 C 491 583.2679 534.4277 577 588 577 C 641.5723 577 685 583.2679 685 591 C 685 598.7321 641.5723 605 588 605 C 534.4277 605 491 598.7321 491 591 Z" fill="#000000"/>		<path d="M 512 383 C 512 383 418 454 405 477 C 405 477 421 515 476 587 L 500 570 C 500 570 444 504 450 479 C 450 479 524 414 533 423 C 533 423 523 384 512 383 Z" stroke="#000000" stroke-width="1" fill="#ffffcc"/>		<path opacity="0.3686" d="M 521 385 L 521 426 L 502 436 C 502 436 512 394 521 385 Z" fill="#000000"/>		<path d="M 449 691.8065 C 449 722.4914 456.0909 751.2526 468.475 776 L 531.335 776 C 512.6991 756.3488 501 727.9874 501 696.4516 C 501 637.1248 542.413 589.0323 593.5 589.0323 C 644.587 589.0323 686 637.1248 686 696.4516 C 686 727.9874 674.3009 756.3488 655.665 776 L 718.525 776 C 730.9091 751.2526 738 722.4914 738 691.8065 C 738 599.1284 673.3062 524 593.5 524 C 513.6938 524 449 599.1284 449 691.8065 Z" fill="#ffffcc"/>		<path d="M 516 373 C 516 373 522 480 494 554 C 494 554 660 578 688 546 C 688 546 650 407 682 367 C 682 367 570 323 516 373 Z" fill="url(#gradient4)"/>		<path d="M 512 665 C 524.4176 622.6856 550.8595 601.0323 591.5 601.0323 C 631.7429 601.0323 658.2772 624.3315 671 666 C 689.6965 662.8113 729.8832 654.9516 746 650 C 729.4882 578.4315 670.9805 519.6642 591.5 517 C 502 514 460.8533 580.3073 445 653 C 461.2536 657.6143 493.3501 662.1238 512 665 Z" fill="#000000"/>		<path id="Ellipse21" d="M 527 369.5 C 527 342.1616 552.5193 320 584 320 C 615.4807 320 641 342.1616 641 369.5 C 641 396.8384 615.4807 419 584 419 C 552.5193 419 527 396.8384 527 369.5 Z" fill="#333333"/>		<path id="Ellipse22" d="M 526 366.5 C 526 339.1616 551.5193 317 583 317 C 614.4807 317 640 339.1616 640 366.5 C 640 393.8384 614.4807 416 583 416 C 551.5193 416 526 393.8384 526 366.5 Z" fill="#cfcfa6"/>		<path d="M 684 546 L 654 543 C 654 543 631 550 642 576 L 683 585 C 683 585 678 566 719 569 C 719 569 700 543 684 546 Z" fill="#ffffcc"/>		<path d="M 447 287.5 C 447 345.7668 495.8002 393 556 393 C 602.2128 393 641.7069 365.1679 657.565 325.875 C 658.3649 325.9591 659.1779 326 660 326 C 672.7027 326 683 315.7027 683 303 C 683 291.9305 675.1818 282.6887 664.765 280.495 C 661.0396 225.4947 613.7675 182 556 182 C 495.8002 182 447 229.2332 447 287.5 Z" stroke="#000000" stroke-width="1" fill="#ffffcc"/>		<path d="M 506 553 C 506 553 532 554 529 583 L 513 591 C 513 591 508.5 563 468.5 584 C 468.5 584 488 549 506 553 Z" fill="#ffffcc"/>		<path id="Ellipse23" d="M 520 310.5 C 520 289.789 537.0129 273 558 273 C 578.9871 273 596 289.789 596 310.5 C 596 331.211 578.9871 348 558 348 C 537.0129 348 520 331.211 520 310.5 Z" stroke="#000000" stroke-width="1" fill="#ffffff"/>		<path id="Ellipse24" d="M 438 325.5 C 438 304.789 455.0129 288 476 288 C 496.9871 288 514 304.789 514 325.5 C 514 346.211 496.9871 363 476 363 C 455.0129 363 438 346.211 438 325.5 Z" stroke="#000000" stroke-width="1" fill="#ffffff"/>		<path id="Ellipse25" d="M 560 370 C 560 364.4771 564.4771 360 570 360 C 575.5229 360 580 364.4771 580 370 C 580 375.5229 575.5229 380 570 380 C 564.4771 380 560 375.5229 560 370 Z" stroke="#ffffff" stroke-width="1" fill="#000000"/>		<path id="Ellipse26" d="M 440 331.5 C 440 317.4166 451.4166 306 465.5 306 C 479.5834 306 491 317.4166 491 331.5 C 491 345.5834 479.5834 357 465.5 357 C 451.4166 357 440 345.5834 440 331.5 Z" fill="#000000"/>		<path id="Ellipse27" d="M 524 313.5 C 524 299.4166 535.4166 288 549.5 288 C 563.5834 288 575 299.4166 575 313.5 C 575 327.5834 563.5834 339 549.5 339 C 535.4166 339 524 327.5834 524 313.5 Z" fill="#000000"/>		<path d="M 514 337 C 514 337 516 350 513 354 C 513 354 521 360 533 356 L 521 352 L 514 337 Z" stroke="#ffffff" stroke-width="1" fill="#000000"/>		<path d="M 434 296 L 473 283 L 472 276 L 434 296 Z" stroke="#ffffff" stroke-width="1" fill="#000000"/>		<path d="M 601 282 L 562 269 L 563 262 L 601 282 Z" stroke="#ffffff" stroke-width="1" fill="#000000"/>		<path d="M 520 518 C 520 518 538.772 494.2311 598.0787 484.3149 L 597.8419 491.6057 C 597.8419 491.6057 572.2035 483.7901 520 518 Z" fill="#666666"/>		<path d="M 741 463 C 741 463 753 454 764 453 C 764 453 740 463 742 469 L 741 463 Z" fill="#cfcfa6"/>		<path d="M 448 478 C 448 478 427 471 421 476 L 450 484 L 448 478 Z" fill="#cfcfa6"/>		<path d="M 592 297 L 668 283 L 595 305 L 592 297 Z" fill="#000000"/>		<path d="M 510 309 L 521 306 L 521 311 L 513 315 L 510 309 Z" fill="#000000"/>		<path d="M 676 274.4067 C 673.8455 246.2789 661.09 220.9916 641.565 202.24 C 643.6894 186.2686 647.3027 166.3947 648 165 C 648.6001 163.7999 630.8349 174.8404 616.53 183.865 C 611.237 180.9601 605.6884 178.4358 599.925 176.335 C 598.5048 165.9549 595 157 595 157 C 594.5455 162.908 588.515 167.7839 582.07 171.345 C 574.322 169.8078 566.2968 169 558.0759 169 C 494.9478 169 443.373 216.6523 440 276.6525 L 453.9296 268.3333 C 453.9296 268.3333 460.4387 282.3696 477.7964 276.971 C 477.7964 276.971 462.6084 262.9348 479.9662 253.2174 C 479.9662 253.2174 509.2474 245.4461 514.1136 269.524 C 514.3777 270.8307 514.5699 272.2312 514.6816 273.7319 C 514.6816 273.7319 548.3123 266.1739 547.2274 240.2609 C 547.2274 240.2609 572.1791 244.5797 574.3488 265.0942 C 574.3488 265.0942 589.5172 267.9248 595.0397 252.4176 C 595.4249 251.3362 595.7631 250.1655 596.046 248.8985 C 600.3854 229.4638 629.6766 249.9783 629.6766 279.1304 L 657.8829 289.9276 L 648.1191 318 L 674.1557 275.8913 L 676 274.4067 Z" fill="#000000"/>		<path d="M 422 771 C 422 772.688 422.0786 774.356 422.235 776 L 468.475 776 L 513.765 776 L 531.335 776 C 521.3405 765.461 513.3395 752.4156 508.07 737.72 C 506.2101 737.9994 504.3064 738.2343 502.365 738.425 C 493.9398 728.3464 481.666 722 468 722 C 442.5946 722 422 743.9377 422 771 Z" fill="#000000"/>		<path d="M 764.335 771 C 764.335 772.688 764.2563 774.356 764.1 776 L 717.86 776 L 672.5699 776 L 655 776 C 664.9945 765.461 672.9954 752.4156 678.265 737.72 C 680.1248 737.9994 682.0286 738.2343 683.97 738.425 C 692.3951 728.3464 704.6689 722 718.335 722 C 743.7404 722 764.335 743.9377 764.335 771 Z" fill="#000000"/>		<path d="M 661 293 C 661 293 674.5 286.5 678 299 C 678 299 667.3604 302.8953 668.1802 302.1976 C 669 301.5 667.625 304.4063 668 306 C 668 306 670.5 319.5 661 319 C 661 319 668.5 309 664 302 C 664 302 666.5 296 671 296 C 671 296 665 289 661 293 Z" fill="#cfcfa6"/>		<g>			<g>				<path d="M 607.5403 445.9204 L 613.0516 455.9142 L 618.5629 445.9204 L 620.8394 434.7645 L 616.6459 436.8562 L 613.0516 430 L 609.4573 436.8562 L 605.2639 434.7645 L 607.5403 445.9204 Z" fill="#ff0000"/>				<path d="M 615.8802 448.8186 L 610.5469 458.8743 L 622.1873 457.6707 L 633 453.2122 L 628.8214 451.0218 L 632.635 444.2417 L 624.712 445.2304 L 624.0983 440.6548 L 615.8802 448.8186 Z" fill="#ff0000"/>				<path d="M 610.496 449.4463 L 615.8293 459.502 L 604.189 458.2984 L 593.3762 453.84 L 597.5549 451.6495 L 593.7412 444.8694 L 601.6644 445.8581 L 602.278 441.2826 L 610.496 449.4463 Z" fill="#ff0000"/>				<path d="M 602.8677 457.5412 L 600.5913 462.0733 L 613.411 461.0273 L 625.2723 461.957 L 622.7563 457.5412 L 602.8677 457.5412 Z" fill="#ff0000"/>				<rect x="612.5938" y="460.5871" width="2.1566" height="9.4129" fill="#ff0000"/>			</g>			<path d="M 560.6436 446.4456 C 560.6436 447.4997 560.855 448.5049 561.2351 449.421 L 560.6436 449.4782 C 560.6436 449.4782 569.0455 465.3152 574.0868 465.6522 C 574.0868 465.6522 588.5382 457.2283 588.2021 446.7826 C 588.2069 446.6706 588.2021 446.5588 588.2021 446.4456 C 588.2021 442.1654 584.7415 438.6956 580.4723 438.6956 C 578.0226 438.6956 575.8391 439.8379 574.4229 441.6204 C 573.0067 439.8379 570.8231 438.6956 568.3734 438.6956 C 564.1042 438.6956 560.6436 442.1654 560.6436 446.4456 Z" fill="#ff0000"/>			<rect x="546" y="443.913" width="6.0297" height="21.7391" fill="#ff0000"/>			<rect x="546" y="434.3479" width="5.1683" height="5.2174" fill="#ff0000"/>		</g>		<path d="M 451 654 C 451 654 488.6667 663.6667 507 664 C 507 664 502 675 500 684 C 500 684 490 661 451 654 Z" fill="#a1a181"/>		<path d="M 682 662 L 736 654 L 686 682 L 682 662 Z" fill="#a1a181"/>	</g>	<g id="text%20box">		<path d="M 407.5 61 L 419.0781 61 L 419.0781 57 L 411.5 57 L 411.5 51 L 419.0781 51 L 419.0781 47 L 411.5 47 L 411.5 40 L 419.0781 40 L 419.0781 36 L 407.5 36 L 407.5 61 L 407.5 61 Z" fill="#ffffff"/>		<path d="M 427.5 40 L 427.7656 40 C 429.3438 40 430.6875 40.5938 431.8125 41.7656 C 432.9375 42.9375 433.5 44.3594 433.5 46.0156 C 433.5 47.6719 432.9375 49.0938 431.8125 50.2656 C 430.6875 51.4375 429.3438 52.0156 427.7656 52.0156 L 427.5 52.0156 L 427.5 40 L 427.5 40 ZM 434.4531 52.7813 C 436.4844 50.8594 437.5 48.5469 437.5 45.8281 C 437.5 43.125 436.5313 40.8125 434.5938 38.8906 C 432.6563 36.9688 430.3281 36 427.5938 36 L 423.5 36 L 423.5 61 L 427.5 61 L 427.5 55.7656 L 427.7813 55.7656 C 428.7813 55.7656 429.7188 55.6406 430.6094 55.375 L 433.25 61 L 437.2344 61 L 433.5 53.5938 C 433.8281 53.3438 434.1406 53.0781 434.4531 52.7813 L 434.4531 52.7813 Z" fill="#ffffff"/>		<path d="M 446.5 40 L 446.7656 40 C 448.3438 40 449.6875 40.5938 450.8125 41.7656 C 451.9375 42.9375 452.5 44.3594 452.5 46.0156 C 452.5 47.6719 451.9375 49.0938 450.8125 50.2656 C 449.6875 51.4375 448.3438 52.0156 446.7656 52.0156 L 446.5 52.0156 L 446.5 40 L 446.5 40 ZM 453.4531 52.7813 C 455.4844 50.8594 456.5 48.5469 456.5 45.8281 C 456.5 43.125 455.5313 40.8125 453.5938 38.8906 C 451.6563 36.9688 449.3281 36 446.5938 36 L 442.5 36 L 442.5 61 L 446.5 61 L 446.5 55.7656 L 446.7813 55.7656 C 447.7813 55.7656 448.7188 55.6406 449.6094 55.375 L 452.25 61 L 456.2344 61 L 452.5 53.5938 C 452.8281 53.3438 453.1406 53.0781 453.4531 52.7813 L 453.4531 52.7813 Z" fill="#ffffff"/>		<path d="M 461.5 61 L 464.5 61 L 464.5 57 L 461.5 57 L 461.5 61 L 461.5 61 Z" fill="#ffffff"/>		<path d="M 469.5 61 L 472.5 61 L 472.5 57 L 469.5 57 L 469.5 61 L 469.5 61 Z" fill="#ffffff"/>		<path d="M 477.5 61 L 480.5 61 L 480.5 57 L 477.5 57 L 477.5 61 L 477.5 61 Z" fill="#ffffff"/>		<path d="M 506.5 49.3906 L 501.625 36 L 498.5 36 L 498.5 61 L 502.5 61 L 502.5 48.7344 L 506.5 60.3281 L 510.5 48.9063 L 510.5 61 L 514.5 61 L 514.5 36 L 511.375 36 L 506.5 49.3906 L 506.5 49.3906 Z" fill="#ffffff"/>		<path d="M 543.625 43.9063 C 542.9688 42.4063 542.0625 41.0938 540.9219 39.9844 C 539.7813 38.8906 538.4531 38.0156 536.9375 37.3594 C 535.4219 36.7188 533.7969 36.3906 532.0625 36.3906 C 530.3125 36.3906 528.6719 36.7188 527.1563 37.3594 C 525.6406 38.0156 524.3125 38.8906 523.1719 39.9844 C 522.0313 41.0938 521.1406 42.4063 520.4844 43.9063 C 519.8281 45.4219 519.5 47.0313 519.5 48.7188 C 519.5 50.4219 519.8281 52.0156 520.4844 53.5 C 521.1406 55 522.0313 56.2969 523.1719 57.4063 C 524.3125 58.5156 525.6406 59.3906 527.1563 60.0313 C 528.6719 60.6875 530.3125 61 532.0625 61 C 533.7969 61 535.4219 60.6875 536.9375 60.0313 C 538.4531 59.3906 539.7813 58.5156 540.9219 57.4063 C 542.0625 56.2969 542.9688 55 543.625 53.5 C 544.2813 52.0156 544.6094 50.4219 544.6094 48.7188 C 544.6094 47.0313 544.2813 45.4219 543.625 43.9063 L 543.625 43.9063 ZM 524.1719 45.3906 C 524.6094 44.3594 525.2188 43.4531 526 42.6875 C 526.7656 41.9219 527.6719 41.3281 528.7188 40.8906 C 529.75 40.4531 530.875 40.2344 532.0625 40.2344 C 533.2188 40.2344 534.3281 40.4531 535.375 40.8906 C 536.4063 41.3281 537.3125 41.9219 538.0938 42.6875 C 538.8594 43.4531 539.4688 44.3594 539.9063 45.3906 C 540.3438 46.4219 540.5781 47.5313 540.5781 48.7188 C 540.5781 49.9063 540.3438 51.0156 539.9063 52.0469 C 539.4688 53.0781 538.8594 53.9844 538.0938 54.75 C 537.3125 55.5313 536.4063 56.125 535.375 56.5625 C 534.3281 57 533.2188 57.2188 532.0625 57.2188 C 530.875 57.2188 529.75 57 528.7188 56.5625 C 527.6719 56.125 526.7656 55.5313 526 54.75 C 525.2188 53.9844 524.6094 53.0781 524.1719 52.0469 C 523.7344 51.0156 523.5156 49.9063 523.5156 48.7188 C 523.5156 47.5313 523.7344 46.4219 524.1719 45.3906 L 524.1719 45.3906 Z" fill="#ffffff"/>		<path d="M 553.5 40 L 553.7656 40 C 555.3438 40 556.6875 40.5938 557.8125 41.7656 C 558.9375 42.9375 559.5 44.3594 559.5 46.0156 C 559.5 47.6719 558.9375 49.0938 557.8125 50.2656 C 556.6875 51.4375 555.3438 52.0156 553.7656 52.0156 L 553.5 52.0156 L 553.5 40 L 553.5 40 ZM 560.4531 52.7813 C 562.4844 50.8594 563.5 48.5469 563.5 45.8281 C 563.5 43.125 562.5313 40.8125 560.5938 38.8906 C 558.6563 36.9688 556.3281 36 553.5938 36 L 549.5 36 L 549.5 61 L 553.5 61 L 553.5 55.7656 L 553.7813 55.7656 C 554.7813 55.7656 555.7188 55.6406 556.6094 55.375 L 559.25 61 L 563.2344 61 L 559.5 53.5938 C 559.8281 53.3438 560.1406 53.0781 560.4531 52.7813 L 560.4531 52.7813 Z" fill="#ffffff"/>		<path d="M 572.5 40 L 572.7656 40 C 574.3438 40 575.6875 40.5938 576.8125 41.7656 C 577.9375 42.9375 578.5 44.3594 578.5 46.0156 C 578.5 47.6719 577.9375 49.0938 576.8125 50.2656 C 575.6875 51.4375 574.3438 52.0156 572.7656 52.0156 L 572.5 52.0156 L 572.5 40 L 572.5 40 ZM 579.4531 52.7813 C 581.4844 50.8594 582.5 48.5469 582.5 45.8281 C 582.5 43.125 581.5313 40.8125 579.5938 38.8906 C 577.6563 36.9688 575.3281 36 572.5938 36 L 568.5 36 L 568.5 61 L 572.5 61 L 572.5 55.7656 L 572.7813 55.7656 C 573.7813 55.7656 574.7188 55.6406 575.6094 55.375 L 578.25 61 L 582.2344 61 L 578.5 53.5938 C 578.8281 53.3438 579.1406 53.0781 579.4531 52.7813 L 579.4531 52.7813 Z" fill="#ffffff"/>		<path d="M 587.5 61 L 591.5 61 L 591.5 36 L 587.5 36 L 587.5 61 L 587.5 61 Z" fill="#ffffff"/>		<path d="M 604.875 60.4688 C 605.8125 60.0938 606.6563 59.5625 607.3906 58.875 C 608.125 58.2031 608.7031 57.4219 609.1094 56.5469 C 609.5156 55.6719 609.7188 54.7344 609.7188 53.7656 C 609.6875 52.7031 609.5156 51.7969 609.1875 51.0156 C 608.8438 50.2344 608.4063 49.5938 607.875 49.0781 C 607.3281 48.5781 606.7813 48.1563 606.2188 47.8438 C 605.6563 47.5313 604.9375 47.1563 604.0625 46.7188 C 602.7656 46.125 601.8281 45.5938 601.25 45.1094 C 600.6563 44.625 600.3594 43.9844 600.3438 43.1719 C 600.3438 42.3281 600.7031 41.5781 601.4219 40.9219 C 602.1406 40.2813 603.0156 39.9531 604.0625 39.9375 C 604.5313 39.9375 604.9688 40 605.375 40.125 C 605.7813 40.25 606.1563 40.3906 606.4688 40.5625 C 606.7813 40.7344 607.0313 40.8594 607.2031 40.9219 C 607.375 41 607.6875 41.1875 608.1563 41.5 L 608.1563 37.6563 C 607.375 37.1875 606.6875 36.8594 606.0781 36.6719 C 605.4688 36.4844 604.7969 36.3906 604.0625 36.3594 C 603.0625 36.3594 602.125 36.5313 601.2344 36.8594 C 600.3438 37.2031 599.5469 37.6719 598.8594 38.2656 C 598.1719 38.875 597.6094 39.5781 597.2031 40.375 C 596.7969 41.1875 596.5625 42.0469 596.5313 42.9688 C 596.5313 43.9219 596.6875 44.75 597 45.4531 C 597.3125 46.1563 597.7344 46.7656 598.2656 47.2656 C 598.7813 47.7813 599.3281 48.2031 599.8906 48.5469 C 600.4531 48.8906 601.1563 49.2813 601.9688 49.6875 C 603.3281 50.375 604.3125 50.9844 604.9063 51.5156 C 605.5 52.0469 605.8125 52.75 605.8125 53.5938 C 605.8125 54.6406 605.4531 55.5469 604.75 56.2969 C 604.0469 57.0625 603.1406 57.4375 602.0469 57.4375 C 601.5156 57.4375 600.9688 57.3594 600.4375 57.1875 C 599.8906 57.0313 599.3906 56.8281 598.9531 56.5781 C 598.5 56.3281 598.125 56.0938 597.8125 55.875 C 597.5 55.6563 597.0625 55.25 596.5 54.6406 L 596.5 59.2031 C 597.4219 59.8906 598.2969 60.375 599.1094 60.6406 C 599.9219 60.9063 600.8594 61.0313 601.9219 61.0313 C 602.9531 61.0313 603.9375 60.8438 604.875 60.4688 L 604.875 60.4688 Z" fill="#ffffff"/>		<path d="M 614.5 61 L 617.5 61 L 617.5 57 L 614.5 57 L 614.5 61 L 614.5 61 Z" fill="#ffffff"/>		<path d="M 622.5 61 L 625.5 61 L 625.5 57 L 622.5 57 L 622.5 61 L 622.5 61 Z" fill="#ffffff"/>		<path d="M 630.5 61 L 633.5 61 L 633.5 57 L 630.5 57 L 630.5 61 L 630.5 61 Z" fill="#ffffff"/>		<g>			<path d="M 340.9844 103 C 344.3594 103 347.25 101.8125 349.625 99.4219 C 352 97.0313 353.2031 94.1563 353.2031 90.7813 C 353.2031 87.4063 352 84.5313 349.625 82.1406 C 347.25 79.7656 344.3594 78.5625 340.9844 78.5625 L 336.5 78.5625 L 336.5 103 L 340.9844 103 L 340.9844 103 ZM 340.9844 82.2656 C 343.3281 82.2656 345.3438 83.1094 347.0156 84.7656 C 348.6719 86.4219 349.5156 88.4375 349.5156 90.7813 C 349.5156 93.125 348.6719 95.1406 347.0156 96.7969 C 345.3438 98.4531 343.3281 99.2813 340.9844 99.2813 L 340.2188 99.2813 L 340.2188 82.2656 L 340.9844 82.2656 L 340.9844 82.2656 Z" fill="#ffffff"/>			<path d="M 382.625 85.9063 C 381.9688 84.4063 381.0625 83.0938 379.9219 81.9844 C 378.7813 80.8906 377.4531 80.0156 375.9375 79.3594 C 374.4219 78.7188 372.7969 78.3906 371.0625 78.3906 C 369.3125 78.3906 367.6719 78.7188 366.1563 79.3594 C 364.6406 80.0156 363.3125 80.8906 362.1719 81.9844 C 361.0313 83.0938 360.1406 84.4063 359.4844 85.9063 C 358.8281 87.4219 358.5 89.0313 358.5 90.7188 C 358.5 92.4219 358.8281 94.0156 359.4844 95.5 C 360.1406 97 361.0313 98.2969 362.1719 99.4063 C 363.3125 100.5156 364.6406 101.3906 366.1563 102.0313 C 367.6719 102.6875 369.3125 103 371.0625 103 C 372.7969 103 374.4219 102.6875 375.9375 102.0313 C 377.4531 101.3906 378.7813 100.5156 379.9219 99.4063 C 381.0625 98.2969 381.9688 97 382.625 95.5 C 383.2813 94.0156 383.6094 92.4219 383.6094 90.7188 C 383.6094 89.0313 383.2813 87.4219 382.625 85.9063 L 382.625 85.9063 ZM 363.1719 87.3906 C 363.6094 86.3594 364.2188 85.4531 365 84.6875 C 365.7656 83.9219 366.6719 83.3281 367.7188 82.8906 C 368.75 82.4531 369.875 82.2344 371.0625 82.2344 C 372.2188 82.2344 373.3281 82.4531 374.375 82.8906 C 375.4063 83.3281 376.3125 83.9219 377.0938 84.6875 C 377.8594 85.4531 378.4688 86.3594 378.9063 87.3906 C 379.3438 88.4219 379.5781 89.5313 379.5781 90.7188 C 379.5781 91.9063 379.3438 93.0156 378.9063 94.0469 C 378.4688 95.0781 377.8594 95.9844 377.0938 96.75 C 376.3125 97.5313 375.4063 98.125 374.375 98.5625 C 373.3281 99 372.2188 99.2188 371.0625 99.2188 C 369.875 99.2188 368.75 99 367.7188 98.5625 C 366.6719 98.125 365.7656 97.5313 365 96.75 C 364.2188 95.9844 363.6094 95.0781 363.1719 94.0469 C 362.7344 93.0156 362.5156 91.9063 362.5156 90.7188 C 362.5156 89.5313 362.7344 88.4219 363.1719 87.3906 L 363.1719 87.3906 Z" fill="#ffffff"/>			<path d="M 388.5 103 L 400.0781 103 L 400.0781 99 L 392.5 99 L 392.5 95 L 400.0781 95 L 400.0781 91 L 392.5 91 L 392.5 82 L 400.0781 82 L 400.0781 78 L 388.5 78 L 388.5 103 L 388.5 103 Z" fill="#ffffff"/>			<path d="M 412.875 102.4688 C 413.8125 102.0938 414.6563 101.5625 415.3906 100.875 C 416.125 100.2031 416.7031 99.4219 417.1094 98.5469 C 417.5156 97.6719 417.7188 96.7344 417.7188 95.7656 C 417.6875 94.7031 417.5156 93.7969 417.1875 93.0156 C 416.8438 92.2344 416.4063 91.5938 415.875 91.0781 C 415.3281 90.5781 414.7813 90.1563 414.2188 89.8438 C 413.6563 89.5313 412.9375 89.1563 412.0625 88.7188 C 410.7656 88.125 409.8281 87.5938 409.25 87.1094 C 408.6563 86.625 408.3594 85.9844 408.3438 85.1719 C 408.3438 84.3281 408.7031 83.5781 409.4219 82.9219 C 410.1406 82.2813 411.0156 81.9531 412.0625 81.9375 C 412.5313 81.9375 412.9688 82 413.375 82.125 C 413.7813 82.25 414.1563 82.3906 414.4688 82.5625 C 414.7813 82.7344 415.0313 82.8594 415.2031 82.9219 C 415.375 83 415.6875 83.1875 416.1563 83.5 L 416.1563 79.6563 C 415.375 79.1875 414.6875 78.8594 414.0781 78.6719 C 413.4688 78.4844 412.7969 78.3906 412.0625 78.3594 C 411.0625 78.3594 410.125 78.5313 409.2344 78.8594 C 408.3438 79.2031 407.5469 79.6719 406.8594 80.2656 C 406.1719 80.875 405.6094 81.5781 405.2031 82.375 C 404.7969 83.1875 404.5625 84.0469 404.5313 84.9688 C 404.5313 85.9219 404.6875 86.75 405 87.4531 C 405.3125 88.1563 405.7344 88.7656 406.2656 89.2656 C 406.7813 89.7813 407.3281 90.2031 407.8906 90.5469 C 408.4531 90.8906 409.1563 91.2813 409.9688 91.6875 C 411.3281 92.375 412.3125 92.9844 412.9063 93.5156 C 413.5 94.0469 413.8125 94.75 413.8125 95.5938 C 413.8125 96.6406 413.4531 97.5469 412.75 98.2969 C 412.0469 99.0625 411.1406 99.4375 410.0469 99.4375 C 409.5156 99.4375 408.9688 99.3594 408.4375 99.1875 C 407.8906 99.0313 407.3906 98.8281 406.9531 98.5781 C 406.5 98.3281 406.125 98.0938 405.8125 97.875 C 405.5 97.6563 405.0625 97.25 404.5 96.6406 L 404.5 101.2031 C 405.4219 101.8906 406.2969 102.375 407.1094 102.6406 C 407.9219 102.9063 408.8594 103.0313 409.9219 103.0313 C 410.9531 103.0313 411.9375 102.8438 412.875 102.4688 L 412.875 102.4688 Z" fill="#ffffff"/>			<path d="M 435.2813 102.1094 C 436.3594 102.7031 437.5313 103 438.7813 103 C 440.8281 103 442.625 102.2969 444.1719 100.875 C 445.7188 99.4531 446.5 97.7344 446.5 95.7188 L 446.5 79 L 442.5 79 L 442.5 95.4219 C 442.5 96.4063 442.125 97.25 441.4063 97.9531 C 440.6875 98.6563 439.8125 99 438.7813 99 C 437.75 99 436.5781 98.625 435.2813 97.8594 L 435.2813 102.1094 L 435.2813 102.1094 Z" fill="#ffffff"/>			<path d="M 461.4688 97.9063 C 460.7813 98.6406 459.9688 99 459 99 C 458.0313 99 457.2188 98.6406 456.5313 97.9063 C 455.8438 97.1719 455.5 96.2813 455.5 95.2344 L 455.5 78 L 451.5 78 L 451.5 95.4219 C 451.5 97.5156 452.2188 99.3125 453.6875 100.7813 C 455.1563 102.2656 456.9219 103 459.0156 103 C 461.0781 103 462.8438 102.2656 464.3125 100.7813 C 465.7656 99.3125 466.5 97.5156 466.5 95.4219 L 466.5 78 L 462.5 78 L 462.5 95.2344 C 462.5 96.2813 462.1563 97.1719 461.4688 97.9063 L 461.4688 97.9063 Z" fill="#ffffff"/>			<path d="M 471.5 103 L 483.7188 103 L 483.7188 99.2813 L 475.2344 99.2813 L 475.2344 78.5625 L 471.5 78.5625 L 471.5 103 L 471.5 103 Z" fill="#ffffff"/>			<path d="M 488.5 103 L 492.5 103 L 492.5 78 L 488.5 78 L 488.5 103 L 488.5 103 Z" fill="#ffffff"/>			<path d="M 497.5 103 L 509.0781 103 L 509.0781 99 L 501.5 99 L 501.5 95 L 509.0781 95 L 509.0781 91 L 501.5 91 L 501.5 82 L 509.0781 82 L 509.0781 78 L 497.5 78 L 497.5 103 L 497.5 103 Z" fill="#ffffff"/>		</g>		<path d="M 531.5 103 L 543.0781 103 L 543.0781 99 L 535.5 99 L 535.5 95 L 543.0781 95 L 543.0781 91 L 535.5 91 L 535.5 82 L 543.0781 82 L 543.0781 78 L 531.5 78 L 531.5 103 L 531.5 103 Z" fill="#ffffff"/>		<path d="M 563.2188 78 L 557.3594 93.4844 L 551.4844 78 L 547.5 78 L 557.3594 104 L 567.2031 78 L 563.2188 78 L 563.2188 78 Z" fill="#ffffff"/>		<path d="M 572.5 103 L 584.0781 103 L 584.0781 99 L 576.5 99 L 576.5 95 L 584.0781 95 L 584.0781 91 L 576.5 91 L 576.5 82 L 584.0781 82 L 584.0781 78 L 572.5 78 L 572.5 103 L 572.5 103 Z" fill="#ffffff"/>		<path d="M 592.5 82 L 592.7656 82 C 594.3438 82 595.6875 82.5938 596.8125 83.7656 C 597.9375 84.9375 598.5 86.3594 598.5 88.0156 C 598.5 89.6719 597.9375 91.0938 596.8125 92.2656 C 595.6875 93.4375 594.3438 94.0156 592.7656 94.0156 L 592.5 94.0156 L 592.5 82 L 592.5 82 ZM 599.4531 94.7813 C 601.4844 92.8594 602.5 90.5469 602.5 87.8281 C 602.5 85.125 601.5313 82.8125 599.5938 80.8906 C 597.6563 78.9688 595.3281 78 592.5938 78 L 588.5 78 L 588.5 103 L 592.5 103 L 592.5 97.7656 L 592.7813 97.7656 C 593.7813 97.7656 594.7188 97.6406 595.6094 97.375 L 598.25 103 L 602.2344 103 L 598.5 95.5938 C 598.8281 95.3438 599.1406 95.0781 599.4531 94.7813 L 599.4531 94.7813 Z" fill="#ffffff"/>		<path d="M 620.3906 82 L 626.5 82 L 626.5 103 L 630.5 103 L 630.5 82 L 636.6094 82 L 636.6094 78 L 620.3906 78 L 620.3906 82 L 620.3906 82 Z" fill="#ffffff"/>		<path d="M 649.9219 99.7031 L 651.2188 103.0781 L 655.2031 103.0781 L 645.3594 77.4531 L 635.5 103.0781 L 639.4844 103.0781 L 640.7813 99.7031 L 649.9219 99.7031 L 649.9219 99.7031 ZM 645.3594 87.8281 L 648.4844 95.9844 L 642.2188 95.9844 L 645.3594 87.8281 L 645.3594 87.8281 Z" fill="#ffffff"/>		<path d="M 660.5 103 L 672.7188 103 L 672.7188 99.2813 L 664.2344 99.2813 L 664.2344 78.5625 L 660.5 78.5625 L 660.5 103 L 660.5 103 Z" fill="#ffffff"/>		<path d="M 688.4063 79 L 681.5 90.5938 L 681.5 79 L 677.5 79 L 677.5 102.9688 L 681.5 103 L 681.5 97.8125 L 684.6719 92.5 L 688.3438 103 L 692.3125 103 L 687.1563 88.3125 L 692.7031 79 L 688.4063 79 L 688.4063 79 Z" fill="#ffffff"/>		<path d="M 444.4219 139.7031 L 445.7188 143.0781 L 449.7031 143.0781 L 439.8594 117.4531 L 430 143.0781 L 433.9844 143.0781 L 435.2813 139.7031 L 444.4219 139.7031 L 444.4219 139.7031 ZM 439.8594 127.8281 L 442.9844 135.9844 L 436.7188 135.9844 L 439.8594 127.8281 L 439.8594 127.8281 Z" fill="#ffffff"/>		<path d="M 459 122 L 460.9375 122 C 461.4688 122 461.9063 122.2031 462.2813 122.5781 C 462.6563 122.9688 462.8438 123.4375 462.8438 123.9844 C 462.8438 124.5625 462.6563 125.0469 462.2813 125.4219 C 461.9063 125.8125 461.4688 126 460.9375 126 L 459 126 L 459 122 L 459 122 ZM 462.3906 143 C 464.4844 143 466.2656 142.25 467.7656 140.7344 C 469.25 139.2188 470 137.3906 470 135.2344 C 470 133.1094 469.25 131.2656 467.7813 129.7344 C 466.8438 128.8281 465.8281 128.1875 464.7031 127.8125 C 465.5625 126.7031 466 125.3594 466 123.7813 C 466 122.1875 465.4531 120.8281 464.3906 119.7031 C 463.3281 118.5781 462.0313 118 460.5156 118 L 455 118 L 455 143 L 462.3906 143 L 462.3906 143 ZM 462.3906 131 C 463.375 131 464.2188 131.4063 464.9375 132.1875 C 465.6406 132.9688 466 133.9063 466 134.9844 C 466 136.0938 465.6406 137.0469 464.9375 137.8281 C 464.2188 138.6094 463.375 139 462.3906 139 L 459 139 L 459 136.4063 L 459 131 L 462.3906 131 L 462.3906 131 Z" fill="#ffffff"/>		<path d="M 499.125 125.9063 C 498.4688 124.4063 497.5625 123.0938 496.4219 121.9844 C 495.2813 120.8906 493.9531 120.0156 492.4375 119.3594 C 490.9219 118.7188 489.2969 118.3906 487.5625 118.3906 C 485.8125 118.3906 484.1719 118.7188 482.6563 119.3594 C 481.1406 120.0156 479.8125 120.8906 478.6719 121.9844 C 477.5313 123.0938 476.6406 124.4063 475.9844 125.9063 C 475.3281 127.4219 475 129.0313 475 130.7188 C 475 132.4219 475.3281 134.0156 475.9844 135.5 C 476.6406 137 477.5313 138.2969 478.6719 139.4063 C 479.8125 140.5156 481.1406 141.3906 482.6563 142.0313 C 484.1719 142.6875 485.8125 143 487.5625 143 C 489.2969 143 490.9219 142.6875 492.4375 142.0313 C 493.9531 141.3906 495.2813 140.5156 496.4219 139.4063 C 497.5625 138.2969 498.4688 137 499.125 135.5 C 499.7813 134.0156 500.1094 132.4219 500.1094 130.7188 C 500.1094 129.0313 499.7813 127.4219 499.125 125.9063 L 499.125 125.9063 ZM 479.6719 127.3906 C 480.1094 126.3594 480.7188 125.4531 481.5 124.6875 C 482.2656 123.9219 483.1719 123.3281 484.2188 122.8906 C 485.25 122.4531 486.375 122.2344 487.5625 122.2344 C 488.7188 122.2344 489.8281 122.4531 490.875 122.8906 C 491.9063 123.3281 492.8125 123.9219 493.5938 124.6875 C 494.3594 125.4531 494.9688 126.3594 495.4063 127.3906 C 495.8438 128.4219 496.0781 129.5313 496.0781 130.7188 C 496.0781 131.9063 495.8438 133.0156 495.4063 134.0469 C 494.9688 135.0781 494.3594 135.9844 493.5938 136.75 C 492.8125 137.5313 491.9063 138.125 490.875 138.5625 C 489.8281 139 488.7188 139.2188 487.5625 139.2188 C 486.375 139.2188 485.25 139 484.2188 138.5625 C 483.1719 138.125 482.2656 137.5313 481.5 136.75 C 480.7188 135.9844 480.1094 135.0781 479.6719 134.0469 C 479.2344 133.0156 479.0156 131.9063 479.0156 130.7188 C 479.0156 129.5313 479.2344 128.4219 479.6719 127.3906 L 479.6719 127.3906 Z" fill="#ffffff"/>		<path d="M 514.9688 137.9063 C 514.2813 138.6406 513.4688 139 512.5 139 C 511.5313 139 510.7188 138.6406 510.0313 137.9063 C 509.3438 137.1719 509 136.2813 509 135.2344 L 509 118 L 505 118 L 505 135.4219 C 505 137.5156 505.7188 139.3125 507.1875 140.7813 C 508.6563 142.2656 510.4219 143 512.5156 143 C 514.5781 143 516.3438 142.2656 517.8125 140.7813 C 519.2656 139.3125 520 137.5156 520 135.4219 L 520 118 L 516 118 L 516 135.2344 C 516 136.2813 515.6563 137.1719 514.9688 137.9063 L 514.9688 137.9063 Z" fill="#ffffff"/>		<path d="M 524.8906 122 L 531 122 L 531 143 L 535 143 L 535 122 L 541.1094 122 L 541.1094 118 L 524.8906 118 L 524.8906 122 L 524.8906 122 Z" fill="#ffffff"/>		<path d="M 562.7188 123.125 L 559 117.4375 L 559 143 L 562.7188 143 L 562.7188 129.9375 L 568.2188 138.3906 L 573.7344 129.9375 L 573.7344 143 L 577.4531 143 L 577.4531 117.4375 L 573.7344 123.125 L 568.2188 131.5781 L 562.7188 123.125 L 562.7188 123.125 Z" fill="#ffffff"/>		<path d="M 582 143 L 593.5781 143 L 593.5781 139 L 586 139 L 586 135 L 593.5781 135 L 593.5781 131 L 586 131 L 586 122 L 593.5781 122 L 593.5781 118 L 582 118 L 582 143 L 582 143 Z" fill="#ffffff"/>		<path d="M 608.9844 128.9063 C 610.6094 127.875 611.375 126.1094 611.25 123.5781 C 611.25 120.6719 610.1875 118.8125 608.0625 118.0156 C 607.1094 117.6719 606.1875 117.4844 605.3125 117.4844 C 604.25 117.4844 603.2188 117.75 602.1875 118.25 C 600.2188 119.2031 598.9531 120.9688 598.375 123.5625 L 601.4063 124.9219 C 602.5938 122.7969 603.8594 121.7344 605.2031 121.7344 C 606.5313 121.7344 607.3125 122.4688 607.5313 123.9063 C 607.5 125.2969 606.75 126.6406 605.25 127.9375 C 603.75 129.25 603 131.0781 603 133.4219 L 603 136.0781 L 607 136.0781 C 606.6875 132.3281 607.3438 129.9375 608.9844 128.9063 L 608.9844 128.9063 ZM 603 139 L 603 143 L 607 143 L 607 139 L 603 139 L 603 139 Z" fill="#ffffff"/>		<path d="M 304.66 17 C 287.7267 17 274 30.7267 274 47.66 L 274 132.34 C 274 149.2733 287.7267 163 304.66 163 L 350.51 163 L 416 234 L 401.685 163 L 741.34 163 C 758.2733 163 772 149.2733 772 132.34 L 772 47.66 C 772 30.7267 758.2733 17 741.34 17 L 304.66 17 Z" stroke="#ffffff" stroke-width="2" fill="none"/>	</g></svg>