<?xml version="1.0" encoding="utf-8"?>
<!-- Generator: Adobe Illustrator 24.3.0, SVG Export Plug-In . SVG Version: 6.00 Build 0)  -->
<svg version="1.1" id="Layer_1" xmlns="http://www.w3.org/2000/svg" xmlns:xlink="http://www.w3.org/1999/xlink" x="0px" y="0px"
	 viewBox="0 0 968 409" enable-background="new 0 0 968 409" xml:space="preserve">

	<defs>
		<linearGradient id="gradient1" x1="19.8276%" y1="65.4762%" x2="62.0689%" y2="49.4048%">
			<stop stop-color="#b0b0b0" stop-opacity="1" offset="0%"/>
			<stop stop-color="#f8f8f8" stop-opacity="1" offset="100%"/>
		</linearGradient>
		<linearGradient id="gradient2" x1="36.8624%" y1="-70.8668%" x2="44.7213%" y2="55.155%">
			<stop stop-color="#000000" stop-opacity="1" offset="0%"/>
			<stop stop-color="#000000" stop-opacity="0" offset="100%"/>
		</linearGradient>
		<linearGradient id="gradient3" x1="131.3954%" y1="131.7073%" x2="29.6325%" y2="57.8195%">
			<stop stop-color="#000000" stop-opacity="1" offset="0%"/>
			<stop stop-color="#000000" stop-opacity="0" offset="100%"/>
		</linearGradient>
		<linearGradient id="gradient4" x1="71.133%" y1="18.9869%" x2="34.0797%" y2="32.7365%">
			<stop stop-color="#b0b0b0" stop-opacity="1" offset="0%"/>
			<stop stop-color="#f8f8f8" stop-opacity="1" offset="100%"/>
		</linearGradient>
		<linearGradient id="gradient5" x1="144.3965%" y1="66%" x2="38.6607%" y2="40.119%">
			<stop stop-color="#000000" stop-opacity="1" offset="0%"/>
			<stop stop-color="#000000" stop-opacity="0" offset="100%"/>
		</linearGradient>
		<radialGradient id="gradient6" cx="30.6034%" cy="21%" r="14.5%">
			<stop stop-color="#ffffff" stop-opacity="1" offset="0%"/>
			<stop stop-color="#ffffff" stop-opacity="0" offset="100%"/>
		</radialGradient>
		<linearGradient id="gradient7" x1="0%" y1="49.9999%" x2="100%" y2="49.9999%">
			<stop stop-color="#ffffff" stop-opacity="1" offset="0%"/>
			<stop stop-color="#ffffff" stop-opacity="0" offset="100%"/>
		</linearGradient>
		<linearGradient id="gradient8" x1="0%" y1="50.0001%" x2="100%" y2="50.0001%">
			<stop stop-color="#ffffff" stop-opacity="1" offset="0%"/>
			<stop stop-color="#ffffff" stop-opacity="0" offset="100%"/>
		</linearGradient>
		<linearGradient id="gradient9" x1="0%" y1="50%" x2="100%" y2="50%">
			<stop stop-color="#ffffff" stop-opacity="1" offset="0%"/>
			<stop stop-color="#ffffff" stop-opacity="0" offset="100%"/>
		</linearGradient>
		<radialGradient id="gradient10" cx="46.2963%" cy="48.7654%" r="50%">
			<stop stop-color="#ffffff" stop-opacity="1" offset="0%"/>
			<stop stop-color="#ffffff" stop-opacity="0.3176" offset="21.2121%"/>
			<stop stop-color="#ffffff" stop-opacity="0" offset="100%"/>
		</radialGradient>
	</defs>
	<g id="Layer%201">
		<path id="background" d="M 42.5061 21.1601 L 933.4495 3.3993 C 942.0363 3.2281 948.6925 11.1309 948.3037 21.0354 L 934.5254 372.0423 C 934.1611 381.3211 927.1439 388.699 918.864 388.5362 L 57.0228 371.5901 C 50.1573 371.4551 44.3089 364.5112 43.9495 356.0683 L 30.3953 37.6453 C 30.014 28.6874 35.4313 21.3012 42.5061 21.1601 Z" fill="#56a1e8"/>
		<path id="linedots1" d="M 53.5069 33.1614 L 944.4524 15.4037 C 953.0391 15.2325 959.6953 23.1354 959.3066 33.0399 L 945.5292 384.0482 C 945.165 393.327 938.1477 400.7049 929.8678 400.5421 L 68.0245 383.5928 C 61.159 383.4578 55.3105 376.5139 54.9511 368.0709 L 41.3961 49.6466 C 41.0148 40.6887 46.432 33.3024 53.5069 33.1614 Z" stroke="#ffffff" stroke-width="2" stroke-dasharray="7, 3" fill="none"/>
		<path id="linedots2" d="M 59.5077 39.1622 L 950.4553 21.4065 C 959.042 21.2354 965.6982 29.1383 965.3096 39.0429 L 951.533 390.0519 C 951.1688 399.3308 944.1516 406.7087 935.8716 406.5459 L 74.0262 389.5945 C 67.1607 389.4595 61.3122 382.5155 60.9527 374.0725 L 47.3969 55.6474 C 47.0156 46.6894 52.4328 39.3032 59.5077 39.1622 Z" stroke="#56a1e8" stroke-width="2" stroke-dasharray="7, 3"  fill="none"/>


		<g id="CTA">
		<rect id="ctalinedots1" x="505" y="329" width="334" height="60" stroke="#fcf9f2" stroke-width="1" stroke-dasharray="7, 3" fill="none" rx="12.3" ry="12.3"/>
		
		<path id="ctabg" d="M 524.3 336 L 833.7 336 C 840.4932 336 846 341.5068 846 348.3 L 846 383.7 C 846 390.4932 840.4932 396 833.7 396 L 524.3 396 C 517.5068 396 512 390.4932 512 383.7 L 512 348.3 C 512 341.5068 517.5068 336 524.3 336 Z" fill="#6eb440"/>
		
		<g id="ctaText" opacity="1">
			<path d="M 564.1348 373.2873 C 563.2709 373.6499 562.3483 373.8239 561.3819 373.8239 C 560.4008 373.8239 559.4783 373.6499 558.629 373.2873 C 557.7651 372.9392 557.0183 372.4461 556.374 371.808 C 555.7297 371.1844 555.2172 370.4448 554.8511 369.6036 C 554.485 368.7624 554.3093 367.8488 554.3093 366.8626 C 554.3093 365.9054 554.485 364.9917 554.8511 364.1505 C 555.2172 363.3094 555.7297 362.5698 556.374 361.9316 C 557.0183 361.2935 557.7651 360.8004 558.629 360.4524 C 559.4783 360.1043 560.4008 359.9157 561.3819 359.9157 C 562.3483 359.9157 563.2709 360.1043 564.1348 360.4524 C 564.5009 360.6119 564.8523 360.7859 565.2037 360.989 L 565.2037 357.4648 C 564.003 357.0152 562.7291 356.7831 561.3819 356.7831 C 559.9323 356.7831 558.5851 357.0442 557.3258 357.5663 C 556.0665 358.0884 554.9683 358.8135 554.0311 359.7127 C 553.0939 360.6264 552.3472 361.6996 551.8054 362.9323 C 551.2635 364.1796 551 365.4848 551 366.8626 C 551 368.2693 551.2635 369.5746 551.8054 370.7928 C 552.3472 372.011 553.0939 373.0843 554.0311 373.9834 C 554.9683 374.8826 556.0665 375.6077 557.3258 376.1298 C 558.5851 376.6664 559.9323 376.9275 561.3819 376.9275 C 562.7291 376.9275 564.003 376.6954 565.2037 376.2169 L 565.2037 372.7362 C 564.8523 372.9537 564.5009 373.1423 564.1348 373.2873 L 564.1348 373.2873 Z" fill="#ffffff"/>
			<path d="M 568.8059 376.9275 L 578.9096 376.9275 L 578.9096 373.8819 L 571.881 373.8819 L 571.881 356.9137 L 568.8059 356.9137 L 568.8059 376.9275 L 568.8059 376.9275 Z" fill="#ffffff"/>
			<path d="M 582.1458 376.9275 L 584.9572 376.9275 L 584.9572 356.5076 L 582.1458 356.5076 L 582.1458 376.9275 L 582.1458 376.9275 Z" fill="#ffffff"/>
			<path d="M 601.621 373.2873 C 600.7571 373.6499 599.8345 373.8239 598.8681 373.8239 C 597.887 373.8239 596.9645 373.6499 596.1152 373.2873 C 595.2513 372.9392 594.5045 372.4461 593.8602 371.808 C 593.2159 371.1844 592.7034 370.4448 592.3373 369.6036 C 591.9713 368.7624 591.7955 367.8488 591.7955 366.8626 C 591.7955 365.9054 591.9713 364.9917 592.3373 364.1505 C 592.7034 363.3094 593.2159 362.5698 593.8602 361.9316 C 594.5045 361.2935 595.2513 360.8004 596.1152 360.4524 C 596.9645 360.1043 597.887 359.9157 598.8681 359.9157 C 599.8345 359.9157 600.7571 360.1043 601.621 360.4524 C 601.9871 360.6119 602.3385 360.7859 602.6899 360.989 L 602.6899 357.4648 C 601.4892 357.0152 600.2153 356.7831 598.8681 356.7831 C 597.4185 356.7831 596.0713 357.0442 594.812 357.5663 C 593.5527 358.0884 592.4545 358.8135 591.5173 359.7127 C 590.5801 360.6264 589.8333 361.6996 589.2916 362.9323 C 588.7498 364.1796 588.4862 365.4848 588.4862 366.8626 C 588.4862 368.2693 588.7498 369.5746 589.2916 370.7928 C 589.8333 372.011 590.5801 373.0843 591.5173 373.9834 C 592.4545 374.8826 593.5527 375.6077 594.812 376.1298 C 596.0713 376.6664 597.4185 376.9275 598.8681 376.9275 C 600.2153 376.9275 601.4892 376.6954 602.6899 376.2169 L 602.6899 372.7362 C 602.3385 372.9537 601.9871 373.1423 601.621 373.2873 L 601.621 373.2873 Z" fill="#ffffff"/>
			<path d="M 615.034 356.5076 L 609.3232 366.3695 L 609.3232 356.5076 L 606.5118 356.5076 L 606.5118 376.8985 L 609.3232 376.9275 L 609.3232 372.5042 L 611.959 367.9938 L 615.0047 376.9275 L 618.2848 376.9275 L 614.009 364.4261 L 618.5923 356.5076 L 615.034 356.5076 L 615.034 356.5076 Z" fill="#ffffff"/>
			<path d="M 644.9351 356.5076 L 642.1237 356.5076 L 642.1237 367.6457 L 634.6264 367.6457 L 634.6264 356.5076 L 631.8149 356.5076 L 631.8149 376.9275 L 634.6264 376.9275 L 634.6264 370.4302 L 642.1237 370.4302 L 642.1237 376.9275 L 644.9351 376.9275 L 644.9351 356.5076 L 644.9351 356.5076 Z" fill="#ffffff"/>
			<path d="M 648.6837 376.9275 L 657.777 376.9275 L 657.777 374.1429 L 651.4952 374.1429 L 651.4952 370.4302 L 657.777 370.4302 L 657.777 367.6457 L 651.4952 367.6457 L 651.4952 360.2203 L 657.777 360.2203 L 657.777 357.4358 L 648.6837 357.4358 L 648.6837 376.9275 L 648.6837 376.9275 Z" fill="#ffffff"/>
			<path d="M 664.6154 359.2921 L 664.8643 359.2921 C 666.3432 359.2921 667.6025 359.7852 668.6568 360.7424 C 669.7111 361.6996 670.2383 362.8598 670.2383 364.2086 C 670.2383 365.5718 669.7111 366.7466 668.6568 367.7037 C 667.6025 368.6609 666.3432 369.1395 664.8643 369.1395 L 664.6154 369.1395 L 664.6154 359.2921 L 664.6154 359.2921 ZM 670.9119 370.2127 C 672.3322 368.6464 673.0497 366.761 673.0497 364.5276 C 673.0497 362.3232 672.2737 360.4233 670.7215 358.8571 C 669.1693 357.2907 667.2804 356.5076 665.0839 356.5076 L 661.8039 356.5076 L 661.8039 376.9275 L 664.6154 376.9275 L 664.6154 372.6492 L 664.8496 372.6492 C 665.6989 372.6492 666.4897 372.5476 667.2511 372.3156 L 669.4769 376.9275 L 672.8594 376.9275 L 670.2383 370.8798 C 670.4726 370.6768 670.6922 370.4593 670.9119 370.2127 L 670.9119 370.2127 Z" fill="#ffffff"/>
			<path d="M 676.7983 376.9275 L 685.8917 376.9275 L 685.8917 374.1429 L 679.6098 374.1429 L 679.6098 370.4302 L 685.8917 370.4302 L 685.8917 367.6457 L 679.6098 367.6457 L 679.6098 360.2203 L 685.8917 360.2203 L 685.8917 357.4358 L 676.7983 357.4358 L 676.7983 376.9275 L 676.7983 376.9275 Z" fill="#ffffff"/>
			<path d="M 698.924 360.2203 L 703.9758 360.2203 L 703.9758 376.9275 L 706.7873 376.9275 L 706.7873 360.2203 L 711.8392 360.2203 L 711.8392 357.4358 L 698.924 357.4358 L 698.924 360.2203 L 698.924 360.2203 Z" fill="#ffffff"/>
			<path d="M 733.0715 362.9323 C 732.5151 361.6996 731.7683 360.6264 730.8312 359.7127 C 729.894 358.8135 728.7958 358.0884 727.5365 357.5663 C 726.2772 357.0442 724.9447 356.7831 723.5096 356.7831 C 722.06 356.7831 720.7128 357.0442 719.4536 357.5663 C 718.1942 358.0884 717.096 358.8135 716.1589 359.7127 C 715.2217 360.6264 714.4749 361.6996 713.9331 362.9323 C 713.3913 364.1796 713.1277 365.4848 713.1277 366.8626 C 713.1277 368.2693 713.3913 369.5746 713.9331 370.7928 C 714.4749 372.011 715.2217 373.0843 716.1589 373.9834 C 717.096 374.8826 718.1942 375.6077 719.4536 376.1298 C 720.7128 376.6664 722.06 376.9275 723.5096 376.9275 C 724.9447 376.9275 726.2772 376.6664 727.5365 376.1298 C 728.7958 375.6077 729.894 374.8826 730.8312 373.9834 C 731.7683 373.0843 732.5151 372.011 733.0715 370.7928 C 733.6133 369.5746 733.8916 368.2693 733.8916 366.8626 C 733.8916 365.4848 733.6133 364.1796 733.0715 362.9323 L 733.0715 362.9323 ZM 716.9789 364.1505 C 717.3449 363.3094 717.8574 362.5698 718.5017 361.9316 C 719.1461 361.2935 719.8928 360.8004 720.7568 360.4524 C 721.6061 360.1043 722.5286 359.9157 723.5096 359.9157 C 724.4761 359.9157 725.3986 360.1043 726.2626 360.4524 C 727.1118 360.8004 727.8586 361.2935 728.5029 361.9316 C 729.1326 362.5698 729.6304 363.3094 729.9965 364.1505 C 730.3626 364.9917 730.553 365.9054 730.553 366.8626 C 730.553 367.8488 730.3626 368.7624 729.9965 369.6036 C 729.6304 370.4448 729.1326 371.1844 728.5029 371.808 C 727.8586 372.4461 727.1118 372.9392 726.2626 373.2873 C 725.3986 373.6499 724.4761 373.8239 723.5096 373.8239 C 722.5286 373.8239 721.6061 373.6499 720.7568 373.2873 C 719.8928 372.9392 719.1461 372.4461 718.5017 371.808 C 717.8574 371.1844 717.3449 370.4448 716.9789 369.6036 C 716.6128 368.7624 716.4371 367.8488 716.4371 366.8626 C 716.4371 365.9054 716.6128 364.9917 716.9789 364.1505 L 716.9789 364.1505 Z" fill="#ffffff"/>
			<path d="M 749.8964 359.2921 L 750.1453 359.2921 C 751.6243 359.2921 752.8836 359.7852 753.9379 360.7424 C 754.9922 361.6996 755.5193 362.8598 755.5193 364.2086 C 755.5193 365.5718 754.9922 366.7466 753.9379 367.7037 C 752.8836 368.6609 751.6243 369.1395 750.1453 369.1395 L 749.8964 369.1395 L 749.8964 359.2921 L 749.8964 359.2921 ZM 756.1929 370.2127 C 757.6133 368.6464 758.3308 366.761 758.3308 364.5276 C 758.3308 362.3232 757.5547 360.4233 756.0026 358.8571 C 754.4504 357.2907 752.5615 356.5076 750.365 356.5076 L 747.085 356.5076 L 747.085 376.9275 L 749.8964 376.9275 L 749.8964 372.6492 L 750.1307 372.6492 C 750.98 372.6492 751.7708 372.5476 752.5322 372.3156 L 754.7579 376.9275 L 758.1404 376.9275 L 755.5193 370.8798 C 755.7537 370.6768 755.9733 370.4593 756.1929 370.2127 L 756.1929 370.2127 Z" fill="#ffffff"/>
			<path d="M 762.0794 376.9275 L 771.1727 376.9275 L 771.1727 374.1429 L 764.8909 374.1429 L 764.8909 370.4302 L 771.1727 370.4302 L 771.1727 367.6457 L 764.8909 367.6457 L 764.8909 360.2203 L 771.1727 360.2203 L 771.1727 357.4358 L 762.0794 357.4358 L 762.0794 376.9275 L 762.0794 376.9275 Z" fill="#ffffff"/>
			<path d="M 786.8994 374.2155 L 787.9683 377 L 791.263 377 L 783.1215 356 L 774.9799 377 L 778.2747 377 L 779.3582 374.2155 L 786.8994 374.2155 L 786.8994 374.2155 ZM 783.1215 364.4986 L 785.7279 371.1699 L 780.5297 371.1699 L 783.1215 364.4986 L 783.1215 364.4986 Z" fill="#ffffff"/>
			<path d="M 798.4088 376.9275 C 801.0592 376.9275 803.3142 375.9848 805.1885 374.0704 C 807.0629 372.1706 808 369.8792 808 367.1816 C 808 364.4986 807.0629 362.2072 805.1885 360.2928 C 803.3142 358.3929 801.0592 357.4358 798.4088 357.4358 L 794.8798 357.4358 L 794.8798 376.9275 L 798.4088 376.9275 L 798.4088 376.9275 ZM 798.3209 360.2203 C 800.2099 360.2203 801.8206 360.9019 803.1678 362.2652 C 804.515 363.6284 805.1885 365.2673 805.1885 367.1816 C 805.1885 369.1105 804.515 370.7493 803.1678 372.1126 C 801.8206 373.4758 800.2099 374.1429 798.3209 374.1429 L 797.6913 374.1429 L 797.6913 360.2203 L 798.3209 360.2203 L 798.3209 360.2203 Z" fill="#ffffff"/>
		</g>

		<g id="starCTA01">
			<path d="M 529.5 357 L 532.4357 362.9252 L 539 363.8754 L 534.25 368.4875 L 535.3713 375 L 529.5 371.9252 L 523.6287 375 L 524.75 368.4875 L 520 363.8754 L 526.5643 362.9252 L 529.5 357 Z" fill="#50832f"/>
		</g>
		<g id="starCTA02">
			<path d="M 827.5 357 L 830.4357 362.9252 L 837 363.8754 L 832.25 368.4875 L 833.3713 375 L 827.5 371.9252 L 821.6287 375 L 822.75 368.4875 L 818 363.8754 L 824.5643 362.9252 L 827.5 357 Z" fill="#50832f"/>
		</g>
		
		</g>

		<g id="star01">
			<path d="M 45 -1 L 58.9058 26.9803 L 90 31.4671 L 67.5 53.2467 L 72.8115 84 L 45 69.4803 L 17.1885 84 L 22.5 53.2467 L 0 31.4671 L 31.0943 26.9803 L 45 -1 Z" fill="#8358c3"/>
		</g>
		<g id="star02">
			<path d="M 103.5 82 L 111.3799 97.8006 L 129 100.3344 L 116.25 112.6334 L 119.2599 130 L 103.5 121.8006 L 87.7401 130 L 90.75 112.6334 L 78 100.3344 L 95.6201 97.8006 L 103.5 82 Z" fill="#106db6"/>
		</g>
		<g id="starTitle01">
			<path d="M 459.5 61 L 462.4357 66.9252 L 469 67.8754 L 464.25 72.4875 L 465.3713 79 L 459.5 75.9252 L 453.6287 79 L 454.75 72.4875 L 450 67.8754 L 456.5643 66.9252 L 459.5 61 Z" fill="#ffffff"/>
		</g>
		<g id="starTitle02">
			<path d="M 906.5 59 L 909.4357 64.9252 L 916 65.8754 L 911.25 70.4875 L 912.3713 77 L 906.5 73.9252 L 900.6287 77 L 901.75 70.4875 L 897 65.8754 L 903.5643 64.9252 L 906.5 59 Z" fill="#ffffff"/>
		</g>
		
		<g id="star03" opacity="0.4118">
			<path d="M 102 333 L 106.3262 341.5587 L 116 342.9311 L 109 349.5931 L 110.6525 359 L 102 354.5587 L 93.3475 359 L 95 349.5931 L 88 342.9311 L 97.6738 341.5587 L 102 333 Z" fill="#ffffff"/>
		</g>
		<g id="star04">
			<path d="M 918.2343 356.9121 L 931.1983 368.668 L 948.4659 364.7352 L 940.9978 380.6014 L 949.9777 395.5713 L 932.3149 393.7623 L 920.3138 407.3133 L 916.9993 389.9183 L 900.4653 383.1141 L 916.3666 374.3306 L 918.2343 356.9121 Z" fill="#106db6"/>
		</g>
		<g id="star05">
			<path d="M 46.2343 356.9121 L 59.1983 368.668 L 76.4659 364.7352 L 68.9978 380.6014 L 77.9777 395.5713 L 60.3149 393.7623 L 48.3138 407.3133 L 44.9993 389.9183 L 28.4653 383.1141 L 44.3665 374.3306 L 46.2343 356.9121 Z" stroke="#fcf9f2" stroke-width="1" fill="#6eb440"/>
		</g>
		<g id="catImage">
			<path id="armRight" d="M 423.3274 245.4056 L 363.5997 210.7773 C 362.135 209.5571 360.43 208.5611 358.5539 207.8514 L 355.9341 206.3329 L 355.5522 206.9973 C 354.3405 206.7582 353.0817 206.6308 351.7887 206.6308 C 342.2614 206.6308 334.5381 213.4776 334.5381 221.9238 C 334.5381 228.4781 339.1894 234.0684 345.7251 236.2443 L 407.264 271.9229 C 408.4568 279.7506 412.8707 287.7324 420.1263 293.84 C 434.0038 305.5216 453.0172 305.9175 462.5942 294.7245 C 472.1715 283.5314 468.6855 264.9884 454.808 253.3069 C 445.1647 245.1896 433.041 242.5224 423.3274 245.4056 Z" fill="url(#gradient1)"/>
			<g id="catTail">
				<path d="M 295.3142 247.3363 L 219.6459 253.6914 L 216.0266 262.0315 L 173.5048 252.5373 L 174.8363 262.0338 L 121.6337 258.8201 L 126.736 266.4845 L 70.2523 259.3752 L 72.3517 268.2225 L 45.7616 290.455 L 53.7316 298.379 L 39.7828 316.6793 L 63.566 333.9489 L 102.975 322.2051 L 98.5532 331.2205 L 131.0408 323.9363 L 136.8927 315.0493 L 164.5497 313.1313 L 155.979 328.2862 L 190.64 312.5224 L 223.5641 291.5638 L 266.4106 280.8744 L 298.2952 271.3975 C 298.2952 271.3975 314.8888 254.8185 295.3142 247.3363 Z" fill="#ffcc00"/>
				<path d="M 158.8712 314.1235 L 136.1113 315.7039 L 130.2593 324.591 L 97.7711 331.8754 L 102.1931 322.8599 L 62.7833 334.6039 L 39 317.334 L 52.9491 299.0334 L 44.9794 291.1092 L 71.5699 268.8761 L 69.4706 260.0287 L 125.955 267.138 L 120.8527 259.4734 L 145.1729 260.9419 C 155.7868 277.2268 160.2817 296.003 158.8712 314.1235 ZM 156.509 328.347 L 155.1976 328.941 L 157.2169 325.3684 C 156.999 326.3656 156.764 327.3587 156.509 328.347 Z" fill="#ffffff"/>
				<path d="M 295.3142 247.3363 L 219.6459 253.6914 L 216.0266 262.0315 L 173.5048 252.5373 L 174.8363 262.0338 L 121.6337 258.8201 L 126.736 266.4845 L 70.2523 259.3752 L 72.3517 268.2225 L 45.7616 290.455 L 53.7316 298.379 L 39.7828 316.6793 L 63.566 333.9489 L 102.975 322.2051 L 98.5532 331.2205 L 131.0408 323.9363 L 136.8927 315.0493 L 164.5497 313.1313 L 155.979 328.2862 L 190.64 312.5224 L 223.5641 291.5638 L 266.4106 280.8744 L 298.2952 271.3975 C 298.2952 271.3975 314.8888 254.8185 295.3142 247.3363 Z" fill="url(#gradient2)"/>
			</g>
			<rect x="265.3621" y="301.1822" width="32.5984" height="69.2248" stroke="#999999" stroke-width="1" fill="#f8f8f8"/>
			<rect x="310.748" y="301.1822" width="32.5984" height="69.2248" stroke="#999999" stroke-width="1" fill="#f8f8f8"/>
			<path d="M 213.049 249.395 C 213.049 201.0423 252.2719 161.8459 300.6573 161.8459 C 349.0427 161.8459 388.2656 201.0423 388.2656 249.395 C 388.2656 297.7476 349.0427 328.7999 300.6573 328.7999 C 252.2719 328.7999 213.049 297.7476 213.049 249.395 Z" fill="#ffcc00"/>
			<path d="M 254.0007 248.4685 C 254.0007 208.6952 282.5889 176.4534 317.8553 176.4534 C 353.1217 176.4534 381.71 208.6952 381.71 248.4685 C 381.71 288.2418 353.1217 313.7845 317.8553 313.7845 C 282.5889 313.7845 254.0007 288.2418 254.0007 248.4685 Z" fill="#ffffff"/>
			<path d="M 319.9527 362.2157 C 319.9527 364.8468 320.2064 367.4039 320.681 369.8507 L 370.1593 369.8507 C 370.634 367.4039 370.8877 364.8468 370.8877 362.2157 C 370.8877 344.5051 359.4858 330.1483 345.4202 330.1483 C 331.3546 330.1483 319.9527 344.5051 319.9527 362.2157 Z" fill="#ffffff"/>
			<path d="M 240.2542 363.3649 C 240.2542 365.996 240.5079 368.553 240.9826 371 L 290.4609 371 C 290.9355 368.553 291.1893 365.996 291.1893 363.3649 C 291.1893 345.6543 279.7872 331.2975 265.7218 331.2975 C 251.6563 331.2975 240.2542 345.6543 240.2542 363.3649 Z" fill="#ffffff"/>
			<path opacity="0.3098" d="M 375.3179 202.5461 C 359.8989 177.5168 332.2274 160.8279 300.6573 160.8279 C 269.354 160.8279 241.8872 177.2327 226.3939 201.9098 C 242.2899 218.2373 269.8401 229.0348 301.1666 229.0348 C 332.0864 229.0348 359.3307 218.519 375.3179 202.5461 Z" fill="#999999"/>
			<path d="M 213.049 249.395 C 213.049 201.0423 252.2719 161.8459 300.6573 161.8459 C 349.0427 161.8459 388.2656 201.0423 388.2656 249.395 C 388.2656 297.7476 349.0427 328.7999 300.6573 328.7999 C 252.2719 328.7999 213.049 297.7476 213.049 249.395 Z" fill="url(#gradient3)"/>
			<path d="M 371.9664 53.9366 C 371.9664 53.9366 364.8354 11.1801 348.5362 1 C 348.5362 1 329.1809 3.036 323.0687 22.3783 " fill="#d0a600"/>
			<path d="M 212.0303 55.9727 C 212.0303 55.9727 219.1611 13.2161 235.4603 3.036 C 235.4603 3.036 254.8157 5.072 260.9279 24.4143 " fill="#d0a600"/>
			<path d="M 189.7665 122.6066 C 186.1258 128.8694 172.3008 153.4082 172.3008 164.9 L 187.5813 154.7198 L 178.4131 180.1701 L 196.7496 169.9901 L 193.6935 190.3503 L 214.5056 183.7332 C 233.184 205.249 260.7472 218.8546 291.4889 218.8546 C 320.449 218.8546 346.5886 206.7807 365.136 187.3929 L 387.2469 194.4223 L 384.1908 174.0621 L 402.5275 184.2422 L 393.3591 158.7919 L 408.6396 168.972 C 408.6396 158.6931 397.5761 137.9746 392.6359 129.2339 C 393.1122 125.2402 393.3591 121.1751 393.3591 117.0534 C 393.3591 60.8294 347.751 15.2522 291.4889 15.2522 C 235.2269 15.2522 189.6188 60.8294 189.6188 117.0534 C 189.6188 118.9158 189.6676 120.7689 189.7665 122.6066 Z" fill="#ffcc00"/>
			<path d="M 189.7665 122.6066 C 186.1258 128.8694 172.3008 153.4082 172.3008 164.9 L 187.5813 154.7198 L 178.4131 180.1701 L 196.7496 169.9901 L 193.6935 190.3503 L 214.5056 183.7332 C 233.184 205.249 260.7472 218.8546 291.4889 218.8546 C 320.449 218.8546 346.5886 206.7807 365.136 187.3929 L 387.2469 194.4223 L 384.1908 174.0621 L 402.5275 184.2422 L 393.3591 158.7919 L 408.6396 168.972 C 408.6396 158.6931 397.5761 137.9746 392.6359 129.2339 L 392.6816 128.8267 L 352.6111 110.9453 L 308.8069 111.9633 L 278.2458 68.1888 L 189.853 110.0596 C 189.6961 112.3708 189.6188 114.7024 189.6188 117.0534 C 189.6188 118.9158 189.6676 120.7689 189.7665 122.6066 Z" fill="#ffffff"/>
			<path d="M 253.797 19.3242 C 253.797 19.3242 248.7035 6.09 241.5726 7.1081 C 241.5726 7.1081 227.3107 18.3062 227.3107 37.6484 " fill="#ffffff"/>
			<path d="M 333.2557 21.3602 C 333.2557 21.3602 338.3492 8.1261 345.4801 9.1441 C 345.4801 9.1441 359.7419 20.3422 359.7419 39.6844 " fill="#ffffff"/>
			<path id="armLeft" d="M 155.3942 197.6047 L 215.1472 232.084 C 216.6125 233.2988 218.3182 234.2906 220.1952 234.9972 L 222.8161 236.5092 L 223.198 235.8476 C 224.4105 236.0857 225.6697 236.2126 226.9631 236.2126 C 236.4946 236.2126 244.2212 229.3952 244.2212 220.9854 C 244.2212 214.4594 239.5679 208.8931 233.0293 206.7266 L 171.4643 171.2015 C 170.2711 163.4075 165.8552 155.46 158.5966 149.3788 C 144.7132 137.7475 125.6918 137.3532 116.1106 148.4981 C 106.5294 159.6429 110.0167 178.1061 123.9002 189.7374 C 133.5475 197.8198 145.6765 200.4755 155.3942 197.6047 Z" fill="url(#gradient4)"/>
			<path d="M 189.7665 122.6066 C 186.1258 128.8694 172.3008 153.4082 172.3008 164.9 L 187.5813 154.7198 L 178.4131 180.1701 L 196.7496 169.9901 L 193.6935 190.3503 L 214.5056 183.7332 C 233.184 205.249 260.7472 218.8546 291.4889 218.8546 C 320.449 218.8546 346.5886 206.7807 365.136 187.3929 L 387.2469 194.4223 L 384.1908 174.0621 L 402.5275 184.2422 L 393.3591 158.7919 L 408.6396 168.972 C 408.6396 158.6931 397.5761 137.9746 392.6359 129.2339 C 393.1122 125.2402 393.3591 121.1751 393.3591 117.0534 C 393.3591 60.8294 347.751 15.2522 291.4889 15.2522 C 235.2269 15.2522 189.6188 60.8294 189.6188 117.0534 C 189.6188 118.9158 189.6676 120.7689 189.7665 122.6066 Z" fill="url(#gradient5)"/>
			<path opacity="0.8392" d="M 189.7665 122.6066 C 186.1258 128.8694 172.3008 153.4082 172.3008 164.9 L 187.5813 154.7198 L 178.4131 180.1701 L 196.7496 169.9901 L 193.6935 190.3503 L 214.5056 183.7332 C 233.184 205.249 260.7472 218.8546 291.4889 218.8546 C 320.449 218.8546 346.5886 206.7807 365.136 187.3929 L 387.2469 194.4223 L 384.1908 174.0621 L 402.5275 184.2422 L 393.3591 158.7919 L 408.6396 168.972 C 408.6396 158.6931 397.5761 137.9746 392.6359 129.2339 C 393.1122 125.2402 393.3591 121.1751 393.3591 117.0534 C 393.3591 60.8294 347.751 15.2522 291.4889 15.2522 C 235.2269 15.2522 189.6188 60.8294 189.6188 117.0534 C 189.6188 118.9158 189.6676 120.7689 189.7665 122.6066 Z" fill="url(#gradient6)"/>
			<path d="M 310.8442 94.6571 C 310.8442 87.348 316.7733 81.423 324.0873 81.423 C 331.4014 81.423 337.3306 87.348 337.3306 94.6571 C 337.3306 101.9662 331.4014 107.8913 324.0873 107.8913 C 316.7733 107.8913 310.8442 101.9662 310.8442 94.6571 Z" fill="url(#gradient7)"/>
			<path d="M 234.4416 95.6751 C 234.4416 88.366 240.3706 82.441 247.6847 82.441 C 254.9988 82.441 260.9279 88.366 260.9279 95.6751 C 260.9279 102.9842 254.9988 108.9093 247.6847 108.9093 C 240.3706 108.9093 234.4416 102.9842 234.4416 95.6751 Z" fill="url(#gradient8)"/>
			<path d="M 233.4229 93.6391 C 233.4229 86.33 239.3521 80.405 246.666 80.405 C 253.9801 80.405 259.9092 86.33 259.9092 93.6391 C 259.9092 100.9482 253.9801 106.8733 246.666 106.8733 C 239.3521 106.8733 233.4229 100.9482 233.4229 93.6391 Z" fill="url(#gradient9)"/>
			<g>
				<path d="M 237.4977 95.1661 C 237.4977 88.1381 243.1987 82.441 250.2316 82.441 C 257.2643 82.441 262.9653 88.1381 262.9653 95.1661 C 262.9653 102.1941 257.2643 107.8913 250.2316 107.8913 C 243.1987 107.8913 237.4977 102.1941 237.4977 95.1661 Z" fill="#000000"/>
				<path opacity="0.6588" d="M 248.082 106.4762 C 249.095 106.7354 250.1565 106.8733 251.2502 106.8733 C 258.283 106.8733 263.984 101.1761 263.984 94.1481 C 263.984 93.0551 263.8459 91.9943 263.5867 90.9821 C 262.5738 90.7229 261.5123 90.5851 260.4185 90.5851 C 253.3857 90.5851 247.6847 96.2822 247.6847 103.3102 C 247.6847 104.4032 247.8227 105.464 248.082 106.4762 Z" fill="#666666"/>
				<path d="M 240.5538 91.0941 C 240.5538 88.564 242.6062 86.513 245.138 86.513 C 247.6698 86.513 249.7222 88.564 249.7222 91.0941 C 249.7222 93.6241 247.6698 95.6751 245.138 95.6751 C 242.6062 95.6751 240.5538 93.6241 240.5538 91.0941 Z" fill="#ffffff"/>
			</g>
			<g>
				<path d="M 308.8069 93.1301 C 308.8069 86.1021 314.5079 80.405 321.5406 80.405 C 328.5734 80.405 334.2744 86.1021 334.2744 93.1301 C 334.2744 100.1581 328.5734 105.8553 321.5406 105.8553 C 314.5079 105.8553 308.8069 100.1581 308.8069 93.1301 Z" fill="#000000"/>
				<path opacity="0.6588" d="M 318.3724 105.4582 C 319.3854 105.7174 320.4469 105.8553 321.5406 105.8553 C 328.5735 105.8553 334.2744 100.1581 334.2744 93.1301 C 334.2744 92.0371 334.1364 90.9763 333.8771 89.9641 C 332.8641 89.7049 331.8027 89.567 330.7089 89.567 C 323.6761 89.567 317.9752 95.2642 317.9752 102.2922 C 317.9752 103.3852 318.1132 104.446 318.3724 105.4582 Z" fill="#666666"/>
				<path d="M 311.8629 88.04 C 311.8629 85.5099 313.9153 83.459 316.4471 83.459 C 318.979 83.459 321.0313 85.5099 321.0313 88.04 C 321.0313 90.5701 318.979 92.6211 316.4471 92.6211 C 313.9153 92.6211 311.8629 90.5701 311.8629 88.04 Z" fill="#ffffff"/>
			</g>
			<path d="M 266.0214 160.8279 C 266.5707 180.6416 277.7627 196.4583 291.4889 196.4583 C 305.2152 196.4583 316.4071 180.6416 316.9564 160.8279 L 266.0214 160.8279 Z" fill="#ffffff"/>
			<path d="M 263.984 158.7919 C 264.5334 178.6055 275.7253 194.4223 289.4515 194.4223 C 303.1777 194.4223 314.3696 178.6055 314.9191 158.7919 L 263.984 158.7919 Z" fill="#000000"/>
			<path d="M 273.1523 124.1795 C 273.5039 132.671 287.1425 139.4496 289.4515 139.4496 C 291.984 139.4496 305.3992 132.671 305.7509 124.1795 L 273.1523 124.1795 Z" fill="#000000"/>
			<path d="M 270.6055 125.7065 L 220.6892 117.5624 " stroke="#cccccc" stroke-width="1" fill="none"/>
			<path d="M 273.6616 132.8326 L 215.5957 139.9586 " stroke="#cccccc" stroke-width="1" fill="none"/>
			<path d="M 308.2975 126.7245 L 354.1391 117.5624 " stroke="#cccccc" stroke-width="1" fill="none"/>
			<path d="M 305.2414 130.7966 L 367.3822 144.0307 " stroke="#cccccc" stroke-width="1" fill="none"/>
			<path d="M 273.2032 184.8734 C 277.6146 190.201 283.2753 193.4043 289.4515 193.4043 C 296.5171 193.4043 302.9117 189.2151 307.5284 182.4454 C 303.3365 178.5102 297.6942 176.0981 291.4889 176.0981 C 284.0915 176.0981 277.4972 179.5228 273.2032 184.8734 Z" fill="#d32c22"/>
		</g>
		
		<g id="saveThatText" opacity="1">
		
		<g id="saveText" opacity="1">

			<path d="M 512.6563 101.6719 C 514.9844 100.7344 517.0469 99.4219 518.8594 97.75 C 520.6719 96.0938 522.0781 94.1719 523.0938 91.9844 C 524.0938 89.8125 524.6094 87.5156 524.6094 85.1094 C 524.5469 82.4844 524.1094 80.2188 523.2969 78.3125 C 522.4688 76.4063 521.3906 74.8125 520.0469 73.5469 C 518.7031 72.2969 517.3438 71.2656 515.9688 70.4688 C 514.5938 69.6875 512.8125 68.7656 510.625 67.7188 C 507.4219 66.25 505.1094 64.9219 503.6719 63.7344 C 502.2344 62.5469 501.4844 60.9531 501.4375 58.9531 C 501.4375 56.8594 502.3125 55 504.0938 53.3906 C 505.875 51.7969 508.0469 50.9844 510.625 50.9531 C 511.7656 50.9531 512.8438 51.1094 513.875 51.4063 C 514.9063 51.7188 515.8125 52.0781 516.5938 52.5 C 517.375 52.9219 517.9688 53.2188 518.3906 53.3906 C 518.8125 53.5781 519.5938 54.0469 520.75 54.8125 L 520.75 45.3281 C 518.8438 44.1563 517.125 43.3438 515.625 42.8906 C 514.125 42.4531 512.4531 42.1875 510.625 42.125 C 508.1875 42.125 505.8594 42.5469 503.6719 43.3594 C 501.4688 44.1875 499.5 45.3438 497.7813 46.8281 C 496.0625 48.3281 494.6875 50.0625 493.6875 52.0469 C 492.6719 54.0313 492.1094 56.1719 492 58.4531 C 492 60.8125 492.3906 62.8594 493.1875 64.5938 C 493.9844 66.3281 495.0313 67.8281 496.3125 69.0781 C 497.5938 70.3438 498.9219 71.4063 500.3281 72.25 C 501.7188 73.0938 503.4219 74.0313 505.4531 75.0625 C 508.8125 76.7656 511.2344 78.2656 512.7188 79.5781 C 514.1875 80.8906 514.9375 82.6094 514.9375 84.7031 C 514.9375 87.2813 514.0625 89.5 512.3281 91.375 C 510.5781 93.25 508.3594 94.1875 505.6563 94.1875 C 504.3438 94.1875 503.0156 93.9844 501.6719 93.5781 C 500.3281 93.1719 499.1094 92.6563 498.0156 92.0469 C 496.9063 91.4531 495.9688 90.875 495.2031 90.3438 C 494.4375 89.8125 493.3438 88.7969 491.9219 87.2969 L 491.9219 98.5625 C 494.2188 100.2656 496.375 101.4375 498.375 102.0938 C 500.375 102.75 502.7031 103.0781 505.3281 103.0781 C 507.875 103.0781 510.3125 102.6094 512.6563 101.6719 L 512.6563 101.6719 Z" fill="#106db6"/>
			<path d="M 566.5625 94.8438 L 569.7656 103.2031 L 579.6094 103.2031 L 555.2813 39.875 L 530.9219 103.2031 L 540.7656 103.2031 L 544 94.8438 L 566.5625 94.8438 L 566.5625 94.8438 ZM 555.2813 65.5156 L 563.0313 85.6563 L 547.5313 85.6563 L 555.2813 65.5156 L 555.2813 65.5156 Z" fill="#106db6"/>
			<path d="M 606.7656 42 L 592.2813 80.1094 L 577.7656 42 L 567.9219 42 L 592.2813 106 L 616.6094 42 L 606.7656 42 L 606.7656 42 Z" fill="#106db6"/>
			<path d="M 627 103 L 654.7344 103 L 654.7344 94 L 636 94 L 636 83 L 654.7344 83 L 654.7344 74 L 636 74 L 636 52 L 654.7344 52 L 654.7344 43 L 627 43 L 627 103 L 627 103 Z" fill="#106db6"/>


			<path d="M 510.6563 99.6719 C 512.9844 98.7344 515.0469 97.4219 516.8594 95.75 C 518.6719 94.0938 520.0781 92.1719 521.0938 89.9844 C 522.0938 87.8125 522.6094 85.5156 522.6094 83.1094 C 522.5469 80.4844 522.1094 78.2188 521.2969 76.3125 C 520.4688 74.4063 519.3906 72.8125 518.0469 71.5469 C 516.7031 70.2969 515.3438 69.2656 513.9688 68.4688 C 512.5938 67.6875 510.8125 66.7656 508.625 65.7188 C 505.4219 64.25 503.1094 62.9219 501.6719 61.7344 C 500.2344 60.5469 499.4844 58.9531 499.4375 56.9531 C 499.4375 54.8594 500.3125 53 502.0938 51.3906 C 503.875 49.7969 506.0469 48.9844 508.625 48.9531 C 509.7656 48.9531 510.8438 49.1094 511.875 49.4063 C 512.9063 49.7188 513.8125 50.0781 514.5938 50.5 C 515.375 50.9219 515.9688 51.2188 516.3906 51.3906 C 516.8125 51.5781 517.5938 52.0469 518.75 52.8125 L 518.75 43.3281 C 516.8438 42.1563 515.125 41.3438 513.625 40.8906 C 512.125 40.4531 510.4531 40.1875 508.625 40.125 C 506.1875 40.125 503.8594 40.5469 501.6719 41.3594 C 499.4688 42.1875 497.5 43.3438 495.7813 44.8281 C 494.0625 46.3281 492.6875 48.0625 491.6875 50.0469 C 490.6719 52.0313 490.1094 54.1719 490 56.4531 C 490 58.8125 490.3906 60.8594 491.1875 62.5938 C 491.9844 64.3281 493.0313 65.8281 494.3125 67.0781 C 495.5938 68.3438 496.9219 69.4063 498.3281 70.25 C 499.7188 71.0938 501.4219 72.0313 503.4531 73.0625 C 506.8125 74.7656 509.2344 76.2656 510.7188 77.5781 C 512.1875 78.8906 512.9375 80.6094 512.9375 82.7031 C 512.9375 85.2813 512.0625 87.5 510.3281 89.375 C 508.5781 91.25 506.3594 92.1875 503.6563 92.1875 C 502.3438 92.1875 501.0156 91.9844 499.6719 91.5781 C 498.3281 91.1719 497.1094 90.6563 496.0156 90.0469 C 494.9063 89.4531 493.9688 88.875 493.2031 88.3438 C 492.4375 87.8125 491.3438 86.7969 489.9219 85.2969 L 489.9219 96.5625 C 492.2188 98.2656 494.375 99.4375 496.375 100.0938 C 498.375 100.75 500.7031 101.0781 503.3281 101.0781 C 505.875 101.0781 508.3125 100.6094 510.6563 99.6719 L 510.6563 99.6719 Z" fill="#ffffff"/>
			<path d="M 564.5625 92.8438 L 567.7656 101.2031 L 577.6094 101.2031 L 553.2813 37.875 L 528.9219 101.2031 L 538.7656 101.2031 L 542 92.8438 L 564.5625 92.8438 L 564.5625 92.8438 ZM 553.2813 63.5156 L 561.0313 83.6563 L 545.5313 83.6563 L 553.2813 63.5156 L 553.2813 63.5156 Z" fill="#ffffff"/>
			<path d="M 604.7656 40 L 590.2813 78.1094 L 575.7656 40 L 565.9219 40 L 590.2813 104 L 614.6094 40 L 604.7656 40 L 604.7656 40 Z" fill="#ffffff"/>
			<path d="M 625 101 L 652.7344 101 L 652.7344 92 L 634 92 L 634 81 L 652.7344 81 L 652.7344 72 L 634 72 L 634 50 L 652.7344 50 L 652.7344 41 L 625 41 L 625 101 L 625 101 Z" fill="#ffffff"/>

		</g>
		

		<g id="thatText" opacity="1">
			<path d="M 700.9063 51 L 716 51 L 716 102 L 725 102 L 725 51 L 740.0938 51 L 740.0938 41 L 700.9063 41 L 700.9063 51 L 700.9063 51 Z" fill="#106db6"/>
			<path d="M 789 41 L 780 41 L 780 73 L 759 73 L 759 41 L 750 41 L 750 102 L 759 102 L 759 82 L 780 82 L 780 102 L 789 102 L 789 41 L 789 41 Z" fill="#106db6"/>
			<path d="M 834.5625 93.8438 L 837.7656 102.2031 L 847.6094 102.2031 L 823.2813 38.875 L 798.9219 102.2031 L 808.7656 102.2031 L 812 93.8438 L 834.5625 93.8438 L 834.5625 93.8438 ZM 823.2813 64.5156 L 831.0313 84.6563 L 815.5313 84.6563 L 823.2813 64.5156 L 823.2813 64.5156 Z" fill="#106db6"/>
			<path d="M 842.9063 51 L 858 51 L 858 102 L 867 102 L 867 51 L 882.0938 51 L 882.0938 41 L 842.9063 41 L 842.9063 51 L 842.9063 51 Z" fill="#106db6"/>

			<path d="M 698.9063 49 L 714 49 L 714 100 L 723 100 L 723 49 L 738.0938 49 L 738.0938 39 L 698.9063 39 L 698.9063 49 L 698.9063 49 Z" fill="#ffffff"/>
			<path d="M 787 39 L 778 39 L 778 71 L 757 71 L 757 39 L 748 39 L 748 100 L 757 100 L 757 80 L 778 80 L 778 100 L 787 100 L 787 39 L 787 39 Z" fill="#ffffff"/>
			<path d="M 832.5625 91.8438 L 835.7656 100.2031 L 845.6094 100.2031 L 821.2813 36.875 L 796.9219 100.2031 L 806.7656 100.2031 L 810 91.8438 L 832.5625 91.8438 L 832.5625 91.8438 ZM 821.2813 62.5156 L 829.0313 82.6563 L 813.5313 82.6563 L 821.2813 62.5156 L 821.2813 62.5156 Z" fill="#ffffff"/>
			<path d="M 840.9063 49 L 856 49 L 856 100 L 865 100 L 865 49 L 880.0938 49 L 880.0938 39 L 840.9063 39 L 840.9063 49 L 840.9063 49 Z" fill="#ffffff"/>
		</g>


		</g>


		<g id="catText" opacity="1">
		<path d="M 483.2819 230.0053 L 468 252.8931 L 483.2819 248.3156 L 472.5846 269.6776 L 486.3383 262.0483 L 478.6974 283.4103 L 500.8791 267.7779 C 503.3759 270.9893 506.0953 274.0222 509.0343 276.8819 C 517.2811 284.9062 526.8899 291.2653 537.8606 295.9591 C 548.8312 300.653 560.6418 303 573.2919 303 C 585.8654 303 597.6369 300.653 608.6062 295.9591 C 616.941 292.3927 624.4931 287.862 631.2568 282.3727 C 622.3542 277.9929 614.4484 272.1101 607.9442 265.0924 C 604.6494 267.3011 601.1089 269.2047 597.3159 270.8021 C 589.7889 273.972 581.7811 275.5569 573.2919 275.5569 C 564.7262 275.5569 556.6797 273.972 549.1529 270.8021 C 541.6258 267.6321 535.0599 263.2585 529.4547 257.6814 C 523.8497 252.1041 519.4456 245.5647 516.2427 238.063 C 513.0398 230.5613 511.4384 222.5171 511.4384 213.9304 C 511.4384 205.3439 513.0398 197.299 516.2427 189.796 C 519.4456 182.293 523.8497 175.7535 529.4547 170.1776 C 535.0599 164.6016 541.6258 160.2486 549.1529 157.1185 C 556.6797 153.9884 564.7262 152.4234 573.2919 152.4234 C 581.7811 152.4234 589.7889 153.9884 597.3159 157.1185 C 602.5196 159.2824 607.254 162.0293 611.5202 165.3623 C 619.9709 157.371 630.3658 151.1384 642 147.3114 C 633.9724 128.9489 622.4557 104.6717 620.8193 112.5142 C 618.9218 121.6081 616.4582 130.6991 615.3254 134.7459 C 613.1452 133.622 610.906 132.5751 608.6062 131.5994 C 597.6369 126.9452 585.8654 124.6182 573.2919 124.6182 C 560.6418 124.6182 548.8312 126.9452 537.8606 131.5994 C 536.1586 132.3214 534.4931 133.0806 532.8565 133.8838 C 531.6426 129.5036 529.3724 121.0106 527.5995 112.5142 C 525.5643 102.7602 508.2397 142.6945 501.3605 159.1368 C 496.6383 165.1359 492.6924 171.784 489.5169 179.0845 C 484.7523 190.0386 482.37 201.6539 482.37 213.9304 C 482.37 219.3876 482.8339 224.6927 483.7633 229.845 L 483.2819 230.0053 Z" fill="#106db6"/>
		<path d="M 779.875 151 L 823 151 L 823 296 L 849 296 L 849 151 L 892.125 151 L 892.125 124 L 779.875 124 L 779.875 151 L 779.875 151 Z" fill="#106db6"/>
		<path d="M 749.9063 271.6719 L 759.0469 295.5781 L 787.1719 295.5781 L 717.6719 114.6406 L 648.0625 295.5781 L 676.1875 295.5781 L 685.4531 271.6719 L 749.9063 271.6719 L 749.9063 271.6719 ZM 717.6719 187.8906 L 739.8281 245.4219 L 695.5313 245.4219 L 717.6719 187.8906 L 717.6719 187.8906 Z" fill="#106db6"/>
		<path d="M 481.2819 228.0053 L 466 250.8931 L 481.2819 246.3156 L 470.5846 267.6776 L 484.3383 260.0483 L 476.6974 281.4103 L 498.8791 265.7779 C 501.3759 268.9893 504.0953 272.0222 507.0343 274.8819 C 515.2811 282.9062 524.8899 289.2653 535.8606 293.9591 C 546.8312 298.653 558.6418 301 571.2919 301 C 583.8654 301 595.6369 298.653 606.6062 293.9591 C 614.941 290.3927 622.4931 285.862 629.2568 280.3727 C 620.3542 275.9929 612.4484 270.1101 605.9442 263.0924 C 602.6494 265.3011 599.1089 267.2047 595.3159 268.8021 C 587.7889 271.972 579.7811 273.5569 571.2919 273.5569 C 562.7262 273.5569 554.6797 271.972 547.1529 268.8021 C 539.6258 265.6321 533.0599 261.2585 527.4547 255.6814 C 521.8497 250.1041 517.4456 243.5647 514.2427 236.063 C 511.0398 228.5613 509.4384 220.5171 509.4384 211.9304 C 509.4384 203.3439 511.0398 195.299 514.2427 187.796 C 517.4456 180.293 521.8497 173.7535 527.4547 168.1776 C 533.0599 162.6016 539.6258 158.2486 547.1529 155.1185 C 554.6797 151.9884 562.7262 150.4234 571.2919 150.4234 C 579.7811 150.4234 587.7889 151.9884 595.3159 155.1185 C 600.5196 157.2824 605.254 160.0293 609.5202 163.3623 C 617.9709 155.371 628.3658 149.1384 640 145.3114 C 631.9724 126.9489 620.4557 102.6717 618.8193 110.5142 C 616.9218 119.6081 614.4582 128.6991 613.3254 132.7459 C 611.1452 131.622 608.906 130.5751 606.6062 129.5994 C 595.6369 124.9452 583.8654 122.6182 571.2919 122.6182 C 558.6418 122.6182 546.8312 124.9452 535.8606 129.5994 C 534.1586 130.3214 532.4931 131.0806 530.8565 131.8838 C 529.6426 127.5036 527.3724 119.0106 525.5995 110.5142 C 523.5643 100.7602 506.2397 140.6945 499.3605 157.1368 C 494.6383 163.1359 490.6924 169.784 487.5169 177.0845 C 482.7523 188.0386 480.37 199.6539 480.37 211.9304 C 480.37 217.3876 480.8339 222.6927 481.7633 227.845 L 481.2819 228.0053 Z" fill="#fcf9f2"/>
		<path d="M 777.875 149 L 821 149 L 821 294 L 847 294 L 847 149 L 890.125 149 L 890.125 122 L 777.875 122 L 777.875 149 L 777.875 149 Z" fill="#ffffff"/>
		<path d="M 747.9063 269.6719 L 757.0469 293.5781 L 785.1719 293.5781 L 715.6719 112.6406 L 646.0625 293.5781 L 674.1875 293.5781 L 683.4531 269.6719 L 747.9063 269.6719 L 747.9063 269.6719 ZM 715.6719 185.8906 L 737.8281 243.4219 L 693.5313 243.4219 L 715.6719 185.8906 L 715.6719 185.8906 Z" fill="#ffffff"/>
		</g>

		<path id="shineTitle" d="M 652 238 C 652 193.2644 688.2643 157 733 157 C 777.7357 157 814 193.2644 814 238 C 814 282.7357 777.7357 319 733 319 C 688.2643 319 652 282.7357 652 238 Z" fill="url(#gradient10)"/>
	</g>
</svg>