<?xml version="1.0" encoding="utf-8"?>
<!-- Generator: Adobe Illustrator 25.3.1, SVG Export Plug-In . SVG Version: 6.00 Build 0)  -->
<svg version="1.1" id="Layer_1" xmlns="http://www.w3.org/2000/svg" xmlns:xlink="http://www.w3.org/1999/xlink" x="0px" y="0px"
	 viewBox="0 0 500 655.2" enable-background="new 0 0 500 655.2" xml:space="preserve">
<path id="background_1_" fill="#5E9FD6" d="M25.8,46.2l441.8-8.8c4.3-0.1,7.6,3.8,7.4,8.7l-6.8,564c-0.2,4.6-3.7,8.3-7.8,8.2L33,610
	c-3.4-0.1-6.3-3.5-6.5-7.7L19.8,54.4C19.7,50,22.3,46.3,25.8,46.2z"/>
<path id="linedots1_1_" fill="none" stroke="#FFFFFF" stroke-width="0.9917" stroke-miterlimit="1.9835" stroke-dasharray="3.4711,1.4876" d="
	M30.1,51.8L471.9,43c4.3-0.1,7.6,3.8,7.4,8.7l-6.8,566.6c-0.2,4.6-3.7,8.3-7.8,8.2l-427.4-8.4c-3.4-0.1-6.3-3.5-6.5-7.7L24.1,60
	C23.9,55.5,26.6,51.9,30.1,51.8z"/>
<path id="linedots2_1_" fill="none" stroke="#5E9FD6" stroke-width="0.9917" stroke-miterlimit="1.9835" stroke-dasharray="3.4711,1.4876" d="
	M30.1,38.8L471.9,30c4.3-0.1,7.6,3.8,7.4,8.7l-6.8,579.5c-0.2,4.6-3.7,8.3-7.8,8.2l-427.4-8.4c-3.4-0.1-6.3-3.5-6.5-7.7L24.1,47
	C23.9,42.6,26.6,38.9,30.1,38.8z"/>
<g id="CTA_1_">
	<path id="ctabg_1_" fill="#6EB444" d="M74.4,577.9h340.9c7.5,0,13.6,6.1,13.6,13.6v39c0,7.5-6.1,13.6-13.6,13.6H74.4
		c-7.5,0-13.6-6.1-13.6-13.6v-39C60.8,584,66.9,577.9,74.4,577.9z"/>
	<g id="ctaText_1_">
		<path fill="#FFFFFF" d="M118.3,619c-1,0.4-2,0.6-3,0.6c-1.1,0-2.1-0.2-3-0.6c-1-0.4-1.8-0.9-2.5-1.6c-0.7-0.7-1.3-1.5-1.7-2.4
			c-0.4-0.9-0.6-1.9-0.6-3c0-1.1,0.2-2.1,0.6-3c0.4-0.9,1-1.7,1.7-2.4c0.7-0.7,1.5-1.2,2.5-1.6c0.9-0.4,2-0.6,3-0.6
			c1.1,0,2.1,0.2,3,0.6c0.4,0.2,0.8,0.4,1.2,0.6v-3.9c-1.3-0.5-2.7-0.8-4.2-0.8c-1.6,0-3.1,0.3-4.5,0.9c-1.4,0.6-2.6,1.4-3.6,2.4
			c-1,1-1.9,2.2-2.5,3.5c-0.6,1.4-0.9,2.8-0.9,4.3c0,1.5,0.3,3,0.9,4.3c0.6,1.3,1.4,2.5,2.5,3.5c1,1,2.2,1.8,3.6,2.4
			c1.4,0.6,2.9,0.9,4.5,0.9c1.5,0,2.9-0.3,4.2-0.8v-3.8C119.1,618.7,118.7,618.9,118.3,619L118.3,619z"/>
		<path fill="#FFFFFF" d="M123.4,623h11.1v-3.4h-7.7V601h-3.4V623L123.4,623z"/>
		<path fill="#FFFFFF" d="M138.1,623h3.1v-22.5h-3.1V623L138.1,623z"/>
		<path fill="#FFFFFF" d="M159.6,619c-1,0.4-2,0.6-3,0.6c-1.1,0-2.1-0.2-3-0.6c-1-0.4-1.8-0.9-2.5-1.6c-0.7-0.7-1.3-1.5-1.7-2.4
			c-0.4-0.9-0.6-1.9-0.6-3c0-1.1,0.2-2.1,0.6-3c0.4-0.9,1-1.7,1.7-2.4c0.7-0.7,1.5-1.2,2.5-1.6c0.9-0.4,2-0.6,3-0.6
			c1.1,0,2.1,0.2,3,0.6c0.4,0.2,0.8,0.4,1.2,0.6v-3.9c-1.3-0.5-2.7-0.8-4.2-0.8c-1.6,0-3.1,0.3-4.5,0.9c-1.4,0.6-2.6,1.4-3.6,2.4
			c-1,1-1.9,2.2-2.5,3.5c-0.6,1.4-0.9,2.8-0.9,4.3c0,1.5,0.3,3,0.9,4.3c0.6,1.3,1.4,2.5,2.5,3.5c1,1,2.2,1.8,3.6,2.4
			c1.4,0.6,2.9,0.9,4.5,0.9c1.5,0,2.9-0.3,4.2-0.8v-3.8C160.4,618.7,160,618.9,159.6,619L159.6,619z"/>
		<path fill="#FFFFFF" d="M174.4,600.5l-6.3,10.9v-10.9H165V623l3.1,0v-4.9l2.9-5l3.4,9.8h3.6l-4.7-13.8l5-8.7H174.4L174.4,600.5z"
			/>
		<path fill="#FFFFFF" d="M207.3,600.5h-3.1v12.3H196v-12.3h-3.1V623h3.1v-7.2h8.3v7.2h3.1V600.5L207.3,600.5z"/>
		<path fill="#FFFFFF" d="M211.4,623h10V620h-6.9v-4.1h6.9v-3.1h-6.9v-8.2h6.9v-3.1h-10V623L211.4,623z"/>
		<path fill="#FFFFFF" d="M229,603.6h0.3c1.6,0,3,0.5,4.2,1.6c1.2,1.1,1.7,2.3,1.7,3.8c0,1.5-0.6,2.8-1.7,3.9
			c-1.2,1.1-2.5,1.6-4.2,1.6H229V603.6L229,603.6z M235.9,615.6c1.6-1.7,2.4-3.8,2.4-6.3c0-2.4-0.9-4.5-2.6-6.2
			c-1.7-1.7-3.8-2.6-6.2-2.6h-3.6V623h3.1v-4.7h0.3c0.9,0,1.8-0.1,2.6-0.4l2.5,5.1h3.7l-2.9-6.7
			C235.4,616.2,235.7,615.9,235.9,615.6L235.9,615.6z"/>
		<path fill="#FFFFFF" d="M242.4,623h10V620h-6.9v-4.1h6.9v-3.1h-6.9v-8.2h6.9v-3.1h-10V623L242.4,623z"/>
		<path fill="#FFFFFF" d="M266.8,604.6h5.6V623h3.1v-18.4h5.6v-3.1h-14.2V604.6L266.8,604.6z"/>
		<path fill="#FFFFFF" d="M304.4,607.6c-0.6-1.4-1.4-2.5-2.5-3.5c-1-1-2.2-1.8-3.6-2.4c-1.4-0.6-2.9-0.9-4.4-0.9
			c-1.6,0-3.1,0.3-4.5,0.9c-1.4,0.6-2.6,1.4-3.6,2.4c-1,1-1.9,2.2-2.5,3.5c-0.6,1.4-0.9,2.8-0.9,4.3c0,1.5,0.3,3,0.9,4.3
			c0.6,1.3,1.4,2.5,2.5,3.5c1,1,2.2,1.8,3.6,2.4c1.4,0.6,2.9,0.9,4.5,0.9c1.6,0,3-0.3,4.4-0.9c1.4-0.6,2.6-1.4,3.6-2.4
			c1-1,1.9-2.2,2.5-3.5c0.6-1.3,0.9-2.8,0.9-4.3C305.3,610.4,305,609,304.4,607.6L304.4,607.6z M286.7,609c0.4-0.9,1-1.7,1.7-2.4
			c0.7-0.7,1.5-1.2,2.5-1.6c0.9-0.4,2-0.6,3-0.6c1.1,0,2.1,0.2,3,0.6c0.9,0.4,1.8,0.9,2.5,1.6c0.7,0.7,1.2,1.5,1.6,2.4
			c0.4,0.9,0.6,1.9,0.6,3c0,1.1-0.2,2.1-0.6,3c-0.4,0.9-1,1.7-1.6,2.4c-0.7,0.7-1.5,1.2-2.5,1.6c-1,0.4-2,0.6-3,0.6
			c-1.1,0-2.1-0.2-3-0.6c-1-0.4-1.8-0.9-2.5-1.6c-0.7-0.7-1.3-1.5-1.7-2.4c-0.4-0.9-0.6-1.9-0.6-3
			C286.1,610.9,286.3,609.9,286.7,609L286.7,609z"/>
		<path fill="#FFFFFF" d="M322.9,603.6h0.3c1.6,0,3,0.5,4.2,1.6c1.2,1.1,1.7,2.3,1.7,3.8c0,1.5-0.6,2.8-1.7,3.9
			c-1.2,1.1-2.5,1.6-4.2,1.6h-0.3V603.6L322.9,603.6z M329.9,615.6c1.6-1.7,2.4-3.8,2.4-6.3c0-2.4-0.9-4.5-2.6-6.2
			c-1.7-1.7-3.8-2.6-6.2-2.6h-3.6V623h3.1v-4.7h0.3c0.9,0,1.8-0.1,2.6-0.4l2.5,5.1h3.7l-2.9-6.7
			C329.4,616.2,329.6,615.9,329.9,615.6L329.9,615.6z"/>
		<path fill="#FFFFFF" d="M336.4,623h10V620h-6.9v-4.1h6.9v-3.1h-6.9v-8.2h6.9v-3.1h-10V623L336.4,623z"/>
		<path fill="#FFFFFF" d="M363.7,620l1.2,3.1h3.6l-9-23.1l-9,23.1h3.6l1.2-3.1H363.7L363.7,620z M359.6,609.3l2.9,7.4h-5.7
			L359.6,609.3L359.6,609.3z"/>
		<path fill="#FFFFFF" d="M376.4,623c2.9,0,5.4-1,7.5-3.1c2.1-2.1,3.1-4.6,3.1-7.6c0-3-1-5.5-3.1-7.6c-2.1-2.1-4.5-3.1-7.5-3.1h-3.9
			V623H376.4L376.4,623z M376.3,604.6c2.1,0,3.9,0.8,5.3,2.3c1.5,1.5,2.2,3.3,2.2,5.4c0,2.1-0.7,3.9-2.2,5.4
			c-1.5,1.5-3.3,2.2-5.3,2.2h-0.7v-15.3H376.3L376.3,604.6z"/>
	</g>
	<g id="starCTA01_1_">
		<path fill="#51843C" d="M80.1,601.1l3.2,6.5l7.2,1l-5.2,5.1l1.2,7.2l-6.5-3.4l-6.5,3.4l1.2-7.2l-5.2-5.1l7.2-1L80.1,601.1z"/>
	</g>
	<g id="starCTA02_1_">
		<path fill="#51843C" d="M408.4,601.1l3.2,6.5l7.2,1l-5.2,5.1l1.2,7.2l-6.5-3.4l-6.5,3.4l1.2-7.2l-5.2-5.1l7.2-1L408.4,601.1z"/>
	</g>
</g>
<g id="star01_1_">
	<path fill="#7B5DA7" d="M19.8,26.9l6.9,13.9L42.1,43L31,53.8l2.6,15.2l-13.8-7.2L6,69.1l2.6-15.2L-2.5,43l15.4-2.2L19.8,26.9z"/>
</g>
<g id="star01_3_">
	<path fill="#156EB7" d="M475,8.9l6.9,13.9l15.4,2.2l-11.2,10.8l2.6,15.2L475,43.9l-13.8,7.2l2.6-15.2L452.7,25l15.4-2.2L475,8.9z"
		/>
</g>
<g id="star01_2_">
	<path fill="#7B5DA7" d="M460,69.1l6.9,13.9l15.4,2.2L471.1,96l2.6,15.2L460,104l-13.8,7.2l2.6-15.2l-11.2-10.8l15.4-2.2L460,69.1z"
		/>
</g>
<g id="star02_1_">
	<path fill="#156EB7" d="M54.4,74.6l3.9,7.8l8.7,1.3l-6.3,6.1l1.5,8.6l-7.8-4.1l-7.8,4.1l1.5-8.6l-6.3-6.1l8.7-1.3L54.4,74.6z"/>
</g>
<g id="star03_1_" opacity="0.4118">
	<path fill="#FFFFFF" d="M47.5,589.6l2.1,4.2l4.8,0.7l-3.5,3.3l0.8,4.7l-4.3-2.2l-4.3,2.2l0.8-4.7l-3.5-3.3l4.8-0.7L47.5,589.6z"/>
</g>
<g id="star04_1_">
	<path fill="#156EB7" d="M456.5,605.9l6.4,5.8l8.6-2l-3.7,7.9l4.5,7.4l-8.8-0.9l-6,6.7l-1.6-8.6l-8.2-3.4l7.9-4.4L456.5,605.9z"/>
</g>
<g id="star05_1_">
	<path fill="#6EB444" stroke="#FEF9F2" stroke-width="0.4959" stroke-miterlimit="1.9835" d="M19.8,601.5l6.4,5.8l8.6-2l-3.7,7.9
		l4.5,7.4l-8.8-0.9l-6,6.7l-1.6-8.6l-8.2-3.4l7.9-4.4L19.8,601.5z"/>
</g>
<g>
	<g id="starTitle01_1_">
		<path fill="#FFFFFF" d="M82.8,78l2.2,4.5l5,0.7l-3.6,3.5l0.8,4.9l-4.4-2.3l-4.4,2.3l0.8-4.9l-3.6-3.5l5-0.7L82.8,78z"/>
	</g>
	<g id="starTitle02_1_">
		<path fill="#FFFFFF" d="M420.5,76.5l2.2,4.5l5,0.7l-3.6,3.5l0.8,4.9l-4.4-2.3l-4.4,2.3l0.8-4.9l-3.6-3.5l5-0.7L420.5,76.5z"/>
	</g>
	<g id="saveThatText_1_">
		<g id="saveText_1_">
			<path fill="#156EB7" d="M122.9,108.7c1.8-0.7,3.3-1.7,4.7-3c1.4-1.3,2.4-2.7,3.2-4.4c0.8-1.6,1.1-3.4,1.1-5.2c0-2-0.4-3.7-1-5.1
				c-0.6-1.4-1.4-2.6-2.5-3.6c-1-0.9-2-1.7-3.1-2.3c-1-0.6-2.4-1.3-4-2.1c-2.4-1.1-4.2-2.1-5.3-3s-1.7-2.1-1.7-3.6
				c0-1.6,0.7-3,2-4.2c1.3-1.2,3-1.8,4.9-1.8c0.9,0,1.7,0.1,2.5,0.3c0.8,0.2,1.5,0.5,2.1,0.8c0.6,0.3,1,0.5,1.4,0.7
				c0.3,0.1,0.9,0.5,1.8,1.1v-7.2c-1.4-0.9-2.7-1.5-3.9-1.8c-1.1-0.3-2.4-0.5-3.8-0.6c-1.8,0-3.6,0.3-5.3,0.9
				c-1.7,0.6-3.2,1.5-4.5,2.6c-1.3,1.1-2.3,2.4-3.1,3.9c-0.8,1.5-1.2,3.1-1.3,4.8c0,1.8,0.3,3.3,0.9,4.6c0.6,1.3,1.4,2.4,2.4,3.4
				c1,1,2,1.8,3,2.4c1.1,0.6,2.3,1.3,3.9,2.1c2.5,1.3,4.4,2.4,5.5,3.4c1.1,1,1.7,2.3,1.7,3.9c0,1.9-0.7,3.6-2,5
				c-1.3,1.4-3,2.1-5,2.1c-1,0-2-0.2-3-0.5c-1-0.3-1.9-0.7-2.8-1.2c-0.8-0.4-1.5-0.9-2.1-1.3c-0.6-0.4-1.4-1.2-2.5-2.3v8.5
				c1.7,1.3,3.4,2.2,4.9,2.7c1.5,0.5,3.3,0.7,5.3,0.7C119.3,109.8,121.2,109.4,122.9,108.7L122.9,108.7z"/>
			<path fill="#156EB7" d="M163.7,103.6l2.4,6.3h7.4L155.1,62l-18.4,47.9h7.4l2.4-6.3H163.7L163.7,103.6z M155.1,81.4l5.9,15.2
				h-11.7L155.1,81.4L155.1,81.4z"/>
			<path fill="#156EB7" d="M194,63.6l-10.9,28.8l-11-28.8h-7.4l18.4,48.4l18.4-48.4H194L194,63.6z"/>
			<path fill="#156EB7" d="M209.3,109.7h21v-6.8h-14.2v-8.3h14.2v-6.8h-14.2V71.2h14.2v-6.8h-21V109.7L209.3,109.7z"/>
			<path fill="#FFFFFF" d="M121.4,107.2c1.8-0.7,3.3-1.7,4.7-3c1.4-1.3,2.4-2.7,3.2-4.4c0.8-1.6,1.1-3.4,1.1-5.2c0-2-0.4-3.7-1-5.1
				c-0.6-1.4-1.4-2.6-2.5-3.6c-1-0.9-2-1.7-3.1-2.3c-1-0.6-2.4-1.3-4-2.1c-2.4-1.1-4.2-2.1-5.3-3c-1.1-0.9-1.7-2.1-1.7-3.6
				c0-1.6,0.7-3,2-4.2c1.3-1.2,3-1.8,4.9-1.8c0.9,0,1.7,0.1,2.5,0.3c0.8,0.2,1.5,0.5,2.1,0.8c0.6,0.3,1,0.5,1.4,0.7
				c0.3,0.1,0.9,0.5,1.8,1.1v-7.2c-1.4-0.9-2.7-1.5-3.9-1.8c-1.1-0.3-2.4-0.5-3.8-0.6c-1.8,0-3.6,0.3-5.3,0.9
				c-1.7,0.6-3.2,1.5-4.5,2.6c-1.3,1.1-2.3,2.4-3.1,3.9c-0.8,1.5-1.2,3.1-1.3,4.8c0,1.8,0.3,3.3,0.9,4.6c0.6,1.3,1.4,2.4,2.4,3.4
				c1,1,2,1.8,3,2.4c1.1,0.6,2.3,1.3,3.9,2.1c2.5,1.3,4.4,2.4,5.5,3.4c1.1,1,1.7,2.3,1.7,3.9c0,1.9-0.7,3.6-2,5
				c-1.3,1.4-3,2.1-5,2.1c-1,0-2-0.2-3-0.5c-1-0.3-1.9-0.7-2.8-1.2c-0.8-0.4-1.5-0.9-2.1-1.3c-0.6-0.4-1.4-1.2-2.5-2.3v8.5
				c1.7,1.3,3.4,2.2,4.9,2.7c1.5,0.5,3.3,0.7,5.3,0.7C117.8,108.3,119.6,107.9,121.4,107.2L121.4,107.2z"/>
			<path fill="#FFFFFF" d="M162.1,102l2.4,6.3h7.4l-18.4-47.9l-18.4,47.9h7.4l2.4-6.3H162.1L162.1,102z M153.6,79.9l5.9,15.2h-11.7
				L153.6,79.9L153.6,79.9z"/>
			<path fill="#FFFFFF" d="M192.5,62.1l-10.9,28.8l-11-28.8h-7.4l18.4,48.4L200,62.1H192.5L192.5,62.1z"/>
			<path fill="#FFFFFF" d="M207.8,108.2h21v-6.8h-14.2v-8.3h14.2v-6.8h-14.2V69.7h14.2v-6.8h-21V108.2L207.8,108.2z"/>
		</g>
		<g id="thatText_1_">
			<path fill="#156EB7" d="M265.2,70.4h11.4V109h6.8V70.4h11.4v-7.6h-29.6V70.4L265.2,70.4z"/>
			<path fill="#156EB7" d="M331.7,62.9h-6.8v24.2h-15.9V62.9h-6.8V109h6.8V93.9h15.9V109h6.8V62.9L331.7,62.9z"/>
			<path fill="#156EB7" d="M366.2,102.8l2.4,6.3h7.4l-18.4-47.9l-18.4,47.9h7.4l2.4-6.3H366.2L366.2,102.8z M357.6,80.6l5.9,15.2
				h-11.7L357.6,80.6L357.6,80.6z"/>
			<path fill="#156EB7" d="M372.5,70.4h11.4V109h6.8V70.4h11.4v-7.6h-29.6V70.4L372.5,70.4z"/>
			<path fill="#FFFFFF" d="M263.7,68.9h11.4v38.5h6.8V68.9h11.4v-7.6h-29.6V68.9L263.7,68.9z"/>
			<path fill="#FFFFFF" d="M330.2,61.4h-6.8v24.2h-15.9V61.4h-6.8v46.1h6.8V92.3h15.9v15.1h6.8V61.4L330.2,61.4z"/>
			<path fill="#FFFFFF" d="M364.7,101.3l2.4,6.3h7.4l-18.4-47.9l-18.4,47.9h7.4l2.4-6.3H364.7L364.7,101.3z M356.1,79.1l5.9,15.2
				h-11.7L356.1,79.1L356.1,79.1z"/>
			<path fill="#FFFFFF" d="M371,68.9h11.4v38.5h6.8V68.9h11.4v-7.6H371V68.9L371,68.9z"/>
		</g>
	</g>
	<g id="catText_1_">
		<path fill="#156EB7" d="M100.7,205.7L89.2,223l11.5-3.5l-8.1,16.1l10.4-5.8L97.3,246l16.8-11.8c1.9,2.4,3.9,4.7,6.2,6.9
			c6.2,6.1,13.5,10.9,21.8,14.4c8.3,3.5,17.2,5.3,26.8,5.3c9.5,0,18.4-1.8,26.7-5.3c6.3-2.7,12-6.1,17.1-10.3
			c-6.7-3.3-12.7-7.8-17.6-13.1c-2.5,1.7-5.2,3.1-8,4.3c-5.7,2.4-11.7,3.6-18.2,3.6c-6.5,0-12.6-1.2-18.2-3.6
			c-5.7-2.4-10.6-5.7-14.9-9.9c-4.2-4.2-7.6-9.2-10-14.8c-2.4-5.7-3.6-11.7-3.6-18.2c0-6.5,1.2-12.6,3.6-18.2
			c2.4-5.7,5.7-10.6,10-14.8c4.2-4.2,9.2-7.5,14.9-9.9c5.7-2.4,11.8-3.5,18.2-3.5c6.4,0,12.5,1.2,18.2,3.5c3.9,1.6,7.5,3.7,10.7,6.2
			c6.4-6,14.2-10.7,23-13.6c-6.1-13.9-14.8-32.2-16-26.3c-1.4,6.9-3.3,13.7-4.2,16.8c-1.6-0.8-3.3-1.6-5.1-2.4
			c-8.3-3.5-17.2-5.3-26.7-5.3c-9.6,0-18.5,1.8-26.8,5.3c-1.3,0.5-2.5,1.1-3.8,1.7c-0.9-3.3-2.6-9.7-4-16.1
			c-1.5-7.4-14.6,22.8-19.8,35.2c-3.6,4.5-6.5,9.6-8.9,15.1c-3.6,8.3-5.4,17.1-5.4,26.3c0,4.1,0.4,8.1,1.1,12L100.7,205.7z"/>
		<path fill="#156EB7" d="M324.8,146h32.6v109.6h19.6V146h32.6v-20.4h-84.8V146L324.8,146z"/>
		<path fill="#156EB7" d="M302.2,237.2l6.9,18.1h21.3l-52.5-136.7l-52.6,136.7h21.3l7-18.1H302.2L302.2,237.2z M277.8,173.9
			l16.7,43.5h-33.5L277.8,173.9L277.8,173.9z"/>
		<path fill="#FEF9F2" d="M99.2,204.2l-11.5,17.3l11.5-3.5l-8.1,16.1l10.4-5.8l-5.8,16.1l16.8-11.8c1.9,2.4,3.9,4.7,6.2,6.9
			c6.2,6.1,13.5,10.9,21.8,14.4c8.3,3.5,17.2,5.3,26.8,5.3c9.5,0,18.4-1.8,26.7-5.3c6.3-2.7,12-6.1,17.1-10.3
			c-6.7-3.3-12.7-7.8-17.6-13.1c-2.5,1.7-5.2,3.1-8,4.3c-5.7,2.4-11.7,3.6-18.2,3.6c-6.5,0-12.6-1.2-18.2-3.6
			c-5.7-2.4-10.6-5.7-14.9-9.9c-4.2-4.2-7.6-9.2-10-14.8c-2.4-5.7-3.6-11.7-3.6-18.2c0-6.5,1.2-12.6,3.6-18.2
			c2.4-5.7,5.7-10.6,10-14.8c4.2-4.2,9.2-7.5,14.9-9.9c5.7-2.4,11.8-3.5,18.2-3.5c6.4,0,12.5,1.2,18.2,3.5c3.9,1.6,7.5,3.7,10.7,6.2
			c6.4-6,14.2-10.7,23-13.6c-6.1-13.9-14.8-32.2-16-26.3c-1.4,6.9-3.3,13.7-4.2,16.8c-1.6-0.8-3.3-1.6-5.1-2.4
			c-8.3-3.5-17.2-5.3-26.7-5.3c-9.6,0-18.5,1.8-26.8,5.3c-1.3,0.5-2.5,1.1-3.8,1.7c-0.9-3.3-2.6-9.7-4-16.1
			c-1.5-7.4-14.6,22.8-19.8,35.2c-3.6,4.5-6.5,9.6-8.9,15.1c-3.6,8.3-5.4,17.1-5.4,26.3c0,4.1,0.4,8.1,1.1,12L99.2,204.2z"/>
		<path fill="#FFFFFF" d="M323.3,144.5h32.6V254h19.6V144.5h32.6v-20.4h-84.8V144.5L323.3,144.5z"/>
		<path fill="#FFFFFF" d="M300.7,235.7l6.9,18.1h21.3L276.3,117l-52.6,136.7H245l7-18.1H300.7L300.7,235.7z M276.3,172.4l16.7,43.5
			h-33.5L276.3,172.4L276.3,172.4z"/>
	</g>
	
		<radialGradient id="shineTitle_2_" cx="0.5093" cy="800.648" r="0.7619" gradientTransform="matrix(80.3306 0 0 -80.3306 243.9752 64526.7383)" gradientUnits="userSpaceOnUse">
		<stop  offset="0" style="stop-color:#FFFFFF"/>
		<stop  offset="0.2121" style="stop-color:#FFFFFF;stop-opacity:0.3176"/>
		<stop  offset="1" style="stop-color:#FFFFFF;stop-opacity:0"/>
	</radialGradient>
	<path id="shineTitle_1_" fill="url(#shineTitle_2_)" d="M228.2,211.7c0-33.8,27.4-61.2,61.2-61.2s61.2,27.4,61.2,61.2
		c0,33.8-27.4,61.2-61.2,61.2S228.2,245.5,228.2,211.7z"/>
</g>
<g id="catImage_1_">
	
		<linearGradient id="armRight_2_" gradientUnits="userSpaceOnUse" x1="3.1805" y1="795.8637" x2="3.9173" y2="796.144" gradientTransform="matrix(66.1794 0 0 -47.8681 100.7072 38548.7734)">
		<stop  offset="0" style="stop-color:#B0B1B1"/>
		<stop  offset="1" style="stop-color:#F7F8F8"/>
	</linearGradient>
	<path id="armRight_1_" fill="url(#armRight_2_)" d="M366.9,434.8l-51.7-29.9c-1.3-1.1-2.7-1.9-4.4-2.5l-2.3-1.3l-0.3,0.6
		c-1-0.2-2.1-0.3-3.3-0.3c-8.2,0-14.9,5.9-14.9,13.2c0,5.7,4,10.5,9.7,12.4l53.2,30.9c1,6.8,4.8,13.7,11.1,19
		c12,10.1,28.4,10.4,36.7,0.8c8.3-9.7,5.3-25.7-6.7-35.8C385.8,434.6,375.3,432.3,366.9,434.8z"/>
	<g id="catTail_1_">
		<path fill="#FFCD05" d="M256.2,436.5l-65.4,5.5l-3.1,7.2l-36.8-8.2l1.2,8.2l-46-2.8l4.4,6.6l-48.9-6.1l1.8,7.7l-23,19.2l6.9,6.9
			l-12.1,15.8l20.6,14.9l34.1-10.2L86,509l28.1-6.3l5.1-7.7l23.9-1.7l-7.4,13.1l30-13.6l28.5-18.1l37.1-9.2l27.6-8.2
			C258.8,457.3,273.1,443,256.2,436.5z"/>
		<path fill="#FFFFFF" d="M138.2,494.2l-19.7,1.4l-5.1,7.7l-28.1,6.3l3.8-7.8L55.1,512L34.5,497l12.1-15.8l-6.9-6.9l23-19.2
			l-1.8-7.7l48.9,6.1l-4.4-6.6l21,1.3C135.5,462.3,139.4,478.6,138.2,494.2z M136.1,506.5l-1.1,0.5l1.7-3.1
			C136.6,504.8,136.4,505.7,136.1,506.5z"/>
		
			<linearGradient id="SVGID_1_" gradientUnits="userSpaceOnUse" x1="1.8548" y1="797.3589" x2="1.9919" y2="795.1609" gradientTransform="matrix(131.4434 0 0 -42.9484 -110.7164 34628.4102)">
			<stop  offset="0" style="stop-color:#010101"/>
			<stop  offset="1" style="stop-color:#010101;stop-opacity:0"/>
		</linearGradient>
		<path fill="url(#SVGID_1_)" d="M256.2,436.5l-65.4,5.5l-3.1,7.2l-36.8-8.2l1.2,8.2l-46-2.8l4.4,6.6l-48.9-6.1l1.8,7.7l-23,19.2
			l6.9,6.9l-12.1,15.8l20.6,14.9l34.1-10.2L86,509l28.1-6.3l5.1-7.7l23.9-1.7l-7.4,13.1l30-13.6l28.5-18.1l37.1-9.2l27.6-8.2
			C258.8,457.3,273.1,443,256.2,436.5z"/>
	</g>
	
		<rect x="230.3" y="483" fill="#F7F8F8" stroke="#989898" stroke-width="0.4959" stroke-miterlimit="1.9835" width="28.2" height="59.9"/>
	
		<rect x="269.5" y="483" fill="#F7F8F8" stroke="#989898" stroke-width="0.4959" stroke-miterlimit="1.9835" width="28.2" height="59.9"/>
	<path fill="#FFCD05" d="M185,438.3c0-41.8,33.9-75.7,75.8-75.7s75.8,33.9,75.8,75.7c0,41.8-33.9,68.7-75.8,68.7
		S185,480.1,185,438.3z"/>
	<path fill="#FFFFFF" d="M220.4,437.5c0-34.4,24.7-62.3,55.2-62.3c30.5,0,55.2,27.9,55.2,62.3s-24.7,56.5-55.2,56.5
		C245.2,493.9,220.4,471.9,220.4,437.5z"/>
	<path fill="#FFFFFF" d="M277.5,535.8c0,2.3,0.2,4.5,0.6,6.6h42.8c0.4-2.1,0.6-4.3,0.6-6.6c0-15.3-9.9-27.7-22-27.7
		C287.3,508.1,277.5,520.5,277.5,535.8z"/>
	<path fill="#FFFFFF" d="M208.6,536.8c0,2.3,0.2,4.5,0.6,6.6H252c0.4-2.1,0.6-4.3,0.6-6.6c0-15.3-9.9-27.7-22-27.7
		C218.4,509.1,208.6,521.5,208.6,536.8z"/>
	<path opacity="0.3098" fill="#989898" enable-background="new    " d="M325.4,397.7c-13.3-21.6-37.3-36.1-64.6-36.1
		c-27.1,0-50.8,14.2-64.2,35.5c13.7,14.1,37.6,23.5,64.7,23.5C288,420.7,311.5,411.6,325.4,397.7z"/>
	
		<linearGradient id="SVGID_2_" gradientUnits="userSpaceOnUse" x1="4.3741" y1="796.7986" x2="2.5992" y2="798.0873" gradientTransform="matrix(86.8843 0 0 -82.7871 19.7599 66496.8203)">
		<stop  offset="0" style="stop-color:#010101"/>
		<stop  offset="1" style="stop-color:#010101;stop-opacity:0"/>
	</linearGradient>
	<path fill="url(#SVGID_2_)" d="M185,438.3c0-41.8,33.9-75.7,75.8-75.7s75.8,33.9,75.8,75.7c0,41.8-33.9,68.7-75.8,68.7
		S185,480.1,185,438.3z"/>
	<path fill="#D0A72B" d="M322.5,269.2c0,0-6.2-37-20.3-45.8c0,0-16.7,1.8-22,18.5"/>
	<path fill="#D0A72B" d="M184.1,271c0,0,6.2-37,20.3-45.8c0,0,16.7,1.8,22,18.5"/>
	<path fill="#FFCD05" d="M164.9,328.6c-3.1,5.4-15.1,26.6-15.1,36.6l13.2-8.8l-7.9,22l15.9-8.8l-2.6,17.6l18-5.7
		c16.2,18.6,40,30.4,66.6,30.4c25,0,47.7-10.4,63.7-27.2l19.1,6.1l-2.6-17.6l15.9,8.8l-7.9-22l13.2,8.8c0-8.9-9.6-26.8-13.8-34.4
		c0.4-3.5,0.6-7,0.6-10.5c0-48.6-39.4-88-88.1-88c-48.7,0-88.1,39.4-88.1,88C164.8,325.4,164.8,327,164.9,328.6z"/>
	<path fill="#FFFFFF" d="M164.9,328.6c-3.1,5.4-15.1,26.6-15.1,36.6l13.2-8.8l-7.9,22l15.9-8.8l-2.6,17.6l18-5.7
		c16.2,18.6,40,30.4,66.6,30.4c25,0,47.7-10.4,63.7-27.2l19.1,6.1l-2.6-17.6l15.9,8.8l-7.9-22l13.2,8.8c0-8.9-9.6-26.8-13.8-34.4
		l0-0.4l-34.7-15.5l-37.9,0.9l-26.4-37.9L165,317.8c-0.1,2-0.2,4-0.2,6C164.8,325.4,164.8,327,164.9,328.6z"/>
	<path fill="#FFFFFF" d="M220.3,239.3c0,0-4.4-11.4-10.6-10.6c0,0-12.3,9.7-12.3,26.4"/>
	<path fill="#FFFFFF" d="M289,241c0,0,4.4-11.4,10.6-10.6c0,0,12.3,9.7,12.3,26.4"/>
	
		<linearGradient id="armLeft_2_" gradientUnits="userSpaceOnUse" x1="2.9898" y1="796.7309" x2="2.3435" y2="796.4911" gradientTransform="matrix(66.2076 0 0 -47.6621 -10.3137 38351.0352)">
		<stop  offset="0" style="stop-color:#B0B1B1"/>
		<stop  offset="1" style="stop-color:#F7F8F8"/>
	</linearGradient>
	<path id="armLeft_1_" fill="url(#armLeft_2_)" d="M135.2,393.5l51.7,29.8c1.3,1.1,2.7,1.9,4.4,2.5l2.3,1.3l0.3-0.6
		c1,0.2,2.1,0.3,3.3,0.3c8.2,0,14.9-5.9,14.9-13.2c0-5.6-4-10.5-9.7-12.3l-53.2-30.7c-1-6.7-4.9-13.6-11.1-18.9
		c-12-10.1-28.5-10.4-36.7-0.8c-8.3,9.6-5.3,25.6,6.7,35.7C116.3,393.7,126.8,396,135.2,393.5z"/>
	
		<linearGradient id="SVGID_3_" gradientUnits="userSpaceOnUse" x1="4.0308" y1="798.5045" x2="2.1867" y2="798.9559" gradientTransform="matrix(117.1928 0 0 -100.9599 -30.7544 80980.5078)">
		<stop  offset="0" style="stop-color:#010101"/>
		<stop  offset="1" style="stop-color:#010101;stop-opacity:0"/>
	</linearGradient>
	<path fill="url(#SVGID_3_)" d="M164.9,328.6c-3.1,5.4-15.1,26.6-15.1,36.6l13.2-8.8l-7.9,22l15.9-8.8l-2.6,17.6l18-5.7
		c16.2,18.6,40,30.4,66.6,30.4c25,0,47.7-10.4,63.7-27.2l19.1,6.1l-2.6-17.6l15.9,8.8l-7.9-22l13.2,8.8c0-8.9-9.6-26.8-13.8-34.4
		c0.4-3.5,0.6-7,0.6-10.5c0-48.6-39.4-88-88.1-88c-48.7,0-88.1,39.4-88.1,88C164.8,325.4,164.8,327,164.9,328.6z"/>
	
		<radialGradient id="SVGID_4_" cx="2.0743" cy="799.4045" r="0.2529" gradientTransform="matrix(117.1928 0 0 -100.9599 -30.7544 80980.5078)" gradientUnits="userSpaceOnUse">
		<stop  offset="0" style="stop-color:#FFFFFF"/>
		<stop  offset="1" style="stop-color:#FFFFFF;stop-opacity:0"/>
	</radialGradient>
	<path opacity="0.8392" fill="url(#SVGID_4_)" enable-background="new    " d="M164.9,328.6c-3.1,5.4-15.1,26.6-15.1,36.6l13.2-8.8
		l-7.9,22l15.9-8.8l-2.6,17.6l18-5.7c16.2,18.6,40,30.4,66.6,30.4c25,0,47.7-10.4,63.7-27.2l19.1,6.1l-2.6-17.6l15.9,8.8l-7.9-22
		l13.2,8.8c0-8.9-9.6-26.8-13.8-34.4c0.4-3.5,0.6-7,0.6-10.5c0-48.6-39.4-88-88.1-88c-48.7,0-88.1,39.4-88.1,88
		C164.8,325.4,164.8,327,164.9,328.6z"/>
	
		<linearGradient id="SVGID_5_" gradientUnits="userSpaceOnUse" x1="9.7159" y1="788.8121" x2="11.46" y2="788.8121" gradientTransform="matrix(13.1337 0 0 -13.1248 142.0039 10657.416)">
		<stop  offset="0" style="stop-color:#FFFFFF"/>
		<stop  offset="1" style="stop-color:#FFFFFF;stop-opacity:0"/>
	</linearGradient>
	<path fill="url(#SVGID_5_)" d="M269.6,304.4c0-6.3,5.1-11.4,11.5-11.4c6.3,0,11.5,5.1,11.5,11.4c0,6.3-5.1,11.4-11.5,11.4
		C274.7,315.9,269.6,310.8,269.6,304.4z"/>
	
		<linearGradient id="SVGID_6_" gradientUnits="userSpaceOnUse" x1="7.5694" y1="788.7834" x2="9.3135" y2="788.7834" gradientTransform="matrix(13.1337 0 0 -13.1248 104.1183 10657.9209)">
		<stop  offset="0" style="stop-color:#FFFFFF"/>
		<stop  offset="1" style="stop-color:#FFFFFF;stop-opacity:0"/>
	</linearGradient>
	<path fill="url(#SVGID_6_)" d="M203.5,305.3c0-6.3,5.1-11.4,11.5-11.4c6.3,0,11.5,5.1,11.5,11.4c0,6.3-5.1,11.4-11.5,11.4
		C208.7,316.8,203.5,311.6,203.5,305.3z"/>
	
		<linearGradient id="SVGID_7_" gradientUnits="userSpaceOnUse" x1="7.5408" y1="788.8407" x2="9.2849" y2="788.8407" gradientTransform="matrix(13.1337 0 0 -13.1248 103.6132 10656.9111)">
		<stop  offset="0" style="stop-color:#FFFFFF"/>
		<stop  offset="1" style="stop-color:#FFFFFF;stop-opacity:0"/>
	</linearGradient>
	<path fill="url(#SVGID_7_)" d="M202.7,303.6c0-6.3,5.1-11.4,11.5-11.4c6.3,0,11.5,5.1,11.5,11.4c0,6.3-5.1,11.4-11.5,11.4
		C207.8,315,202.7,309.9,202.7,303.6z"/>
	<g>
		<path fill="#010101" d="M206.2,304.9c0-6.1,4.9-11,11-11c6.1,0,11,4.9,11,11s-4.9,11-11,11C211.1,315.9,206.2,311,206.2,304.9z"/>
		<path opacity="0.6588" fill="#676767" enable-background="new    " d="M215.3,314.7c0.9,0.2,1.8,0.3,2.7,0.3c6.1,0,11-4.9,11-11
			c0-0.9-0.1-1.9-0.3-2.7c-0.9-0.2-1.8-0.3-2.7-0.3c-6.1,0-11,4.9-11,11C215,312.9,215.1,313.8,215.3,314.7z"/>
		<path fill="#FFFFFF" d="M208.8,301.4c0-2.2,1.8-4,4-4s4,1.8,4,4c0,2.2-1.8,4-4,4S208.8,303.5,208.8,301.4z"/>
	</g>
	<g>
		<path fill="#010101" d="M267.8,303.1c0-6.1,4.9-11,11-11c6.1,0,11,4.9,11,11c0,6.1-4.9,11-11,11
			C272.8,314.1,267.8,309.2,267.8,303.1z"/>
		<path opacity="0.6588" fill="#676767" enable-background="new    " d="M276.1,313.8c0.9,0.2,1.8,0.3,2.7,0.3c6.1,0,11-4.9,11-11
			c0-0.9-0.1-1.9-0.3-2.7c-0.9-0.2-1.8-0.3-2.7-0.3c-6.1,0-11,4.9-11,11C275.8,312,275.9,312.9,276.1,313.8z"/>
		<path fill="#FFFFFF" d="M270.5,298.7c0-2.2,1.8-4,4-4c2.2,0,4,1.8,4,4s-1.8,4-4,4C272.3,302.7,270.5,300.9,270.5,298.7z"/>
	</g>
	<path fill="#FFFFFF" d="M230.8,361.7c0.5,17.1,10.2,30.8,22,30.8c11.9,0,21.6-13.7,22-30.8H230.8z"/>
	<path fill="#010101" d="M229.1,359.9c0.5,17.1,10.2,30.8,22,30.8c11.9,0,21.6-13.7,22-30.8H229.1z"/>
	<path fill="#010101" d="M237,330c0.3,7.3,12.1,13.2,14.1,13.2c2.2,0,13.8-5.9,14.1-13.2H237z"/>
	<path fill="none" stroke="#CCCCCC" stroke-width="0.4959" stroke-miterlimit="1.9835" d="M234.8,331.3l-43.2-7"/>
	<path fill="none" stroke="#CCCCCC" stroke-width="0.4959" stroke-miterlimit="1.9835" d="M237.5,337.5l-50.2,6.2"/>
	<path fill="none" stroke="#CCCCCC" stroke-width="0.4959" stroke-miterlimit="1.9835" d="M267.4,332.2l39.6-7.9"/>
	<path fill="none" stroke="#CCCCCC" stroke-width="0.4959" stroke-miterlimit="1.9835" d="M264.8,335.7l53.7,11.4"/>
	<path fill="#D42E27" d="M237.1,382.5c3.8,4.6,8.7,7.4,14.1,7.4c6.1,0,11.6-3.6,15.6-9.5c-3.6-3.4-8.5-5.5-13.9-5.5
		C246.5,374.9,240.8,377.8,237.1,382.5z"/>
</g>
</svg>
