<?xml version="1.0" standalone="no"?><!-- Generator: Adobe Fireworks CS5, Export SVG Extension by Aaron Beall (http://fireworks.abeall.com) . Version: 0.6.1  --><!DOCTYPE svg PUBLIC "-//W3C//DTD SVG 1.1//EN" "http://www.w3.org/Graphics/SVG/1.1/DTD/svg11.dtd"><svg id="morrisIcon-Page%201" viewBox="0 0 70 60" style="background-color:#ffffff00" version="1.1"	xmlns="http://www.w3.org/2000/svg" xmlns:xlink="http://www.w3.org/1999/xlink" xml:space="preserve"	x="0px" y="0px" width="70px" height="60px">	<defs>		<linearGradient id="gradient1" x1="0%" y1="49.9999%" x2="100%" y2="49.9999%">			<stop stop-color="#ffffff" stop-opacity="1" offset="0%"/>			<stop stop-color="#ffffff" stop-opacity="0" offset="100%"/>		</linearGradient>		<linearGradient id="gradient2" x1="0%" y1="49.9999%" x2="100%" y2="49.9999%">			<stop stop-color="#ffffff" stop-opacity="1" offset="0%"/>			<stop stop-color="#ffffff" stop-opacity="0" offset="100%"/>		</linearGradient>		<linearGradient id="gradient3" x1="0%" y1="50.0002%" x2="100%" y2="50.0002%">			<stop stop-color="#ffffff" stop-opacity="1" offset="0%"/>			<stop stop-color="#ffffff" stop-opacity="0" offset="100%"/>		</linearGradient>	</defs>	<g id="Layer%201">		<g>			<path d="M 56.3218 13.486 C 56.3218 13.486 54.3104 2.5935 49.7126 0 C 49.7126 0 44.2528 0.5187 42.5287 5.4463 " fill="#ffcc00"/>			<path d="M 11.2069 14.0047 C 11.2069 14.0047 13.2184 3.1122 17.8161 0.5187 C 17.8161 0.5187 23.2759 1.0374 25 5.965 " fill="#ffcc00"/>			<path d="M 4.9267 30.9802 C 3.8997 32.5756 0 38.8271 0 41.7547 L 4.3103 39.1612 L 1.7241 45.6449 L 6.8966 43.0514 L 6.0344 48.2383 L 11.9052 46.5526 C 17.174 52.0339 24.949 55.5 33.6207 55.5 C 41.7897 55.5 49.1633 52.4241 54.3951 47.4849 L 60.6322 49.2757 L 59.7701 44.0888 L 64.9426 46.6822 L 62.3563 40.1986 L 66.6666 42.792 C 66.6666 40.1734 63.5458 34.8953 62.1523 32.6685 C 62.2867 31.6511 62.3563 30.6155 62.3563 29.5654 C 62.3563 15.242 49.4911 3.6308 33.6207 3.6308 C 17.7502 3.6308 4.885 15.242 4.885 29.5654 C 4.885 30.0399 4.8988 30.512 4.9267 30.9802 Z" fill="#ffcc00"/>			<path d="M 8.2601 35.4802 C 7.2331 37.0756 3.3333 43.3271 3.3333 46.2547 L 7.6436 43.6612 L 5.0575 50.1449 L 10.2299 47.5514 L 9.3678 52.7383 L 15.2385 51.0526 C 20.5073 56.5339 28.2824 60 36.954 60 C 45.1231 60 52.4966 56.9241 57.7284 51.9849 L 63.9655 53.7757 L 63.1034 48.5888 L 68.2758 51.1823 L 65.6896 44.6986 L 70 47.292 C 70 44.6734 66.8792 39.3953 65.4856 37.1685 L 65.4986 37.0648 L 54.1954 32.5093 L 41.8391 32.7687 L 33.2184 21.6168 L 8.2845 32.2837 C 8.2402 32.8725 8.2184 33.4665 8.2184 34.0654 C 8.2184 34.5399 8.2322 35.012 8.2601 35.4802 Z" fill="#666666"/>			<path d="M 4.9267 30.9802 C 3.8997 32.5756 0 38.8271 0 41.7547 L 4.3103 39.1612 L 1.7241 45.6449 L 6.8966 43.0514 L 6.0344 48.2383 L 11.9052 46.5526 C 17.174 52.0339 24.949 55.5 33.6207 55.5 C 41.7897 55.5 49.1633 52.4241 54.3951 47.4849 L 60.6322 49.2757 L 59.7701 44.0888 L 64.9426 46.6822 L 62.3563 40.1986 L 66.6666 42.792 C 66.6666 40.1734 63.5458 34.8953 62.1523 32.6685 L 62.1652 32.5648 L 50.8621 28.0093 L 38.5058 28.2687 L 29.8851 17.1168 L 4.9512 27.7837 C 4.9069 28.3725 4.885 28.9665 4.885 29.5654 C 4.885 30.0399 4.8988 30.512 4.9267 30.9802 Z" fill="#ffffff"/>			<path d="M 22.9885 4.6682 C 22.9885 4.6682 21.5517 1.2967 19.5402 1.5561 C 19.5402 1.5561 15.5172 4.4089 15.5172 9.3364 " fill="#ffffff"/>			<path d="M 45.4023 5.1869 C 45.4023 5.1869 46.8391 1.8154 48.8505 2.0748 C 48.8505 2.0748 52.8736 4.9276 52.8736 9.8551 " fill="#ffffff"/>			<path d="M 39.0804 23.8598 C 39.0804 21.9978 40.7529 20.4883 42.8161 20.4883 C 44.8792 20.4883 46.5517 21.9978 46.5517 23.8598 C 46.5517 25.7219 44.8792 27.2313 42.8161 27.2313 C 40.7529 27.2313 39.0804 25.7219 39.0804 23.8598 Z" fill="url(#gradient1)"/>			<path d="M 17.5287 24.1192 C 17.5287 22.2571 19.2012 20.7477 21.2643 20.7477 C 23.3275 20.7477 25 22.2571 25 24.1192 C 25 25.9812 23.3275 27.4907 21.2643 27.4907 C 19.2012 27.4907 17.5287 25.9812 17.5287 24.1192 Z" fill="url(#gradient2)"/>			<path d="M 17.2414 23.6005 C 17.2414 21.7384 18.9139 20.229 20.977 20.229 C 23.0401 20.229 24.7127 21.7384 24.7127 23.6005 C 24.7127 25.4625 23.0401 26.972 20.977 26.972 C 18.9139 26.972 17.2414 25.4625 17.2414 23.6005 Z" fill="url(#gradient3)"/>			<g>				<path d="M 18.3908 23.9895 C 18.3908 22.1991 19.9989 20.7477 21.9828 20.7477 C 23.9666 20.7477 25.5747 22.1991 25.5747 23.9895 C 25.5747 25.7799 23.9666 27.2313 21.9828 27.2313 C 19.9989 27.2313 18.3908 25.7799 18.3908 23.9895 Z" fill="#000000"/>				<path opacity="0.6588" d="M 21.3764 26.8708 C 21.6622 26.9368 21.9616 26.972 22.2701 26.972 C 24.2539 26.972 25.8621 25.5206 25.8621 23.7301 C 25.8621 23.4517 25.8231 23.1814 25.75 22.9236 C 25.4643 22.8575 25.1649 22.8224 24.8563 22.8224 C 22.8725 22.8224 21.2643 24.2738 21.2643 26.0643 C 21.2643 26.3427 21.3033 26.613 21.3764 26.8708 Z" fill="#666666"/>				<path d="M 19.2528 22.9521 C 19.2528 22.3076 19.8318 21.785 20.546 21.785 C 21.2602 21.785 21.8391 22.3076 21.8391 22.9521 C 21.8391 23.5967 21.2602 24.1192 20.546 24.1192 C 19.8318 24.1192 19.2528 23.5967 19.2528 22.9521 Z" fill="#ffffff"/>			</g>			<g>				<path d="M 38.5058 23.4708 C 38.5058 21.6804 40.1139 20.229 42.0977 20.229 C 44.0814 20.229 45.6897 21.6804 45.6897 23.4708 C 45.6897 25.2612 44.0814 26.7126 42.0977 26.7126 C 40.1139 26.7126 38.5058 25.2612 38.5058 23.4708 Z" fill="#000000"/>				<path opacity="0.6588" d="M 41.204 26.6115 C 41.4897 26.6775 41.7891 26.7126 42.0977 26.7126 C 44.0816 26.7126 45.6897 25.2612 45.6897 23.4708 C 45.6897 23.1923 45.6507 22.9221 45.5776 22.6642 C 45.2918 22.5982 44.9925 22.5631 44.6839 22.5631 C 42.7001 22.5631 41.0919 24.0145 41.0919 25.8049 C 41.0919 26.0834 41.1309 26.3536 41.204 26.6115 Z" fill="#666666"/>				<path d="M 39.3678 22.1741 C 39.3678 21.5295 39.9467 21.007 40.6609 21.007 C 41.3751 21.007 41.954 21.5295 41.954 22.1741 C 41.954 22.8186 41.3751 23.3411 40.6609 23.3411 C 39.9467 23.3411 39.3678 22.8186 39.3678 22.1741 Z" fill="#ffffff"/>			</g>			<path d="M 26.4368 40.7173 C 26.5917 45.765 29.7488 49.7944 33.6207 49.7944 C 37.4926 49.7944 40.6496 45.765 40.8045 40.7173 L 26.4368 40.7173 Z" fill="#ffffff"/>			<path d="M 25.8621 40.1986 C 26.0171 45.2463 29.1741 49.2757 33.046 49.2757 C 36.9179 49.2757 40.0748 45.2463 40.2299 40.1986 L 25.8621 40.1986 Z" fill="#000000"/>			<path d="M 28.4483 31.3808 C 28.5475 33.5441 32.3946 35.271 33.046 35.271 C 33.7603 35.271 37.5445 33.5441 37.6437 31.3808 L 28.4483 31.3808 Z" fill="#000000"/>			<path d="M 27.7299 31.7699 L 13.6494 29.6951 " stroke="#cccccc" stroke-width="1" fill="none"/>			<path d="M 28.5919 33.5853 L 12.2127 35.4007 " stroke="#cccccc" stroke-width="1" fill="none"/>			<path d="M 38.3621 32.0292 L 51.2931 29.6951 " stroke="#cccccc" stroke-width="1" fill="none"/>			<path d="M 37.5 33.0666 L 55.0288 36.4381 " stroke="#cccccc" stroke-width="1" fill="none"/>			<path d="M 28.7447 47.0978 C 29.9891 48.4551 31.5859 49.2711 33.3281 49.2711 C 35.3211 49.2711 37.1249 48.2039 38.4272 46.4793 C 37.2448 45.4767 35.6532 44.8622 33.9027 44.8622 C 31.8161 44.8622 29.9559 45.7347 28.7447 47.0978 Z" fill="#d32c22"/>		</g>	</g></svg>