<?xml version="1.0" standalone="no"?><!-- Generator: Adobe Fireworks CS5, Export SVG Extension by Aaron Beall (http://fireworks.abeall.com) . Version: 0.6.1  --><!DOCTYPE svg PUBLIC "-//W3C//DTD SVG 1.1//EN" "http://www.w3.org/Graphics/SVG/1.1/DTD/svg11.dtd"><svg id="morris_ch02p05-Page%201" viewBox="0 0 800 800" style="background-color:#ffffff" version="1.1"	xmlns="http://www.w3.org/2000/svg" xmlns:xlink="http://www.w3.org/1999/xlink" xml:space="preserve"	x="0px" y="0px" width="800px" height="800px">	<g id="Layer%201">		<rect x="0" y="0" width="800" height="800" fill="#000000"/>		<g>			<path d="M 493 173 L 499.1342 270.9429 L 517.4883 174.5415 L 511.3058 272.4814 L 541.5904 179.142 L 523.1887 275.5342 L 564.9262 186.7287 L 534.5956 280.0531 L 587.1277 197.182 L 545.3464 285.9669 L 607.8447 210.3372 L 555.2717 293.1823 L 626.7506 225.9866 L 564.215 301.5855 L 643.5471 243.8836 L 572.0351 311.0439 L 657.9695 263.7458 L 578.6088 321.4086 L 669.7902 285.2601 L 583.8325 332.5158 L 678.8227 308.0871 L 587.6236 344.1906 L 684.9247 331.8669 L 589.9224 356.2487 L 688 356.2244 L 590.6927 368.5 L 688 380.7755 L 589.9224 380.7513 L 684.9247 405.1331 L 587.6236 392.8094 L 678.8227 428.9128 L 583.8325 404.4842 L 669.7902 451.7398 L 578.6088 415.5914 L 657.9695 473.2542 L 572.0351 425.956 L 643.5471 493.1164 L 564.215 435.4145 L 626.7506 511.0134 L 555.2717 443.8177 L 607.8447 526.6628 L 545.3464 451.0331 L 587.1277 539.8179 L 534.5956 456.9468 L 564.9262 550.2713 L 523.1887 461.4658 L 541.5904 557.858 L 511.3058 464.5186 L 517.4883 562.4584 L 499.1342 466.0571 L 493 564 L 486.8658 466.0571 L 468.5117 562.4584 L 474.6942 464.5186 L 444.4096 557.858 L 462.8113 461.4658 L 421.0738 550.2713 L 451.4044 456.9468 L 398.8723 539.8179 L 440.6536 451.0331 L 378.1553 526.6628 L 430.7283 443.8177 L 359.2494 511.0134 L 421.785 435.4145 L 342.4528 493.1164 L 413.9649 425.956 L 328.0305 473.2542 L 407.3912 415.5914 L 316.2098 451.7398 L 402.1675 404.4842 L 307.1773 428.9128 L 398.3765 392.8094 L 301.0753 405.1331 L 396.0776 380.7513 L 298 380.7755 L 395.3073 368.5 L 298 356.2244 L 396.0776 356.2487 L 301.0753 331.8669 L 398.3765 344.1906 L 307.1773 308.0871 L 402.1675 332.5158 L 316.2098 285.2601 L 407.3912 321.4086 L 328.0305 263.7458 L 413.9649 311.0439 L 342.4528 243.8836 L 421.785 301.5855 L 359.2494 225.9866 L 430.7283 293.1823 L 378.1553 210.3372 L 440.6536 285.9669 L 398.8723 197.182 L 451.4044 280.0531 L 421.0738 186.7287 L 462.8113 275.5342 L 444.4096 179.142 L 474.6942 272.4814 L 468.5117 174.5415 L 486.8658 270.9429 L 493 173 Z" fill="#ffffff"/>		</g>		<path d="M 530.7361 548.3526 L 386.3429 635.4572 L 534.6672 683.2305 L 583.6854 583.876 L 552.5341 537.5227 L 530.7361 548.3526 Z" fill="#000000"/>		<path id="Ellipse" d="M 367.0852 758.8068 C 338.9654 720.0397 349.9261 664.2263 391.5669 634.1422 C 433.2077 604.0581 489.7583 611.0969 517.8781 649.864 C 545.9979 688.631 535.0372 744.4445 493.3964 774.5286 C 451.7556 804.6127 395.205 797.5739 367.0852 758.8068 Z" stroke="#cfcfa6" stroke-width="3" fill="#000000"/>		<path d="M 393.6495 313.5376 C 379.7371 444.279 478.0023 561.5762 613.1345 575.5323 C 683.7305 582.8233 750.4193 560.471 800 518.815 L 800 159.95 L 800 105.255 L 797.9433 106.2721 C 786.7557 98.5269 774.9033 91.5765 762.4677 85.5264 C 761.7581 61.9059 756.0289 41 756.0289 41 C 753.5981 54.1512 738.8969 63.694 723.5795 70.1903 C 706.5542 64.9448 688.7328 61.2718 670.2792 59.366 C 528.5737 44.731 401.4242 139.6987 379.5265 273.5475 L 405.3 261.58 C 399.5363 278.0816 395.5725 295.466 393.6495 313.5376 Z" stroke="#ffffff" stroke-width="2" fill="#000000"/>		<path id="Ellipse2" d="M 581.1144 372.0023 C 581.1144 325.3324 619.4614 287.5002 666.7665 287.5002 C 714.0715 287.5002 752.4187 325.3324 752.4187 372.0023 C 752.4187 418.6722 714.0715 456.5044 666.7665 456.5044 C 619.4614 456.5044 581.1144 418.6722 581.1144 372.0023 Z" stroke="#000000" stroke-width="2" fill="#ffffff"/>		<path id="Ellipse3" d="M 396.286 378.7625 C 396.286 332.0926 434.6331 294.2604 481.9382 294.2604 C 529.2433 294.2604 567.5903 332.0926 567.5903 378.7625 C 567.5903 425.4324 529.2433 463.2646 481.9382 463.2646 C 434.6331 463.2646 396.286 425.4324 396.286 378.7625 Z" stroke="#000000" stroke-width="2" fill="#ffffff"/>		<path d="M 564.3363 405.69 C 564.3363 405.69 553.0663 443.9977 546.3043 453.0112 C 546.3043 453.0112 564.3363 466.5316 591.3844 457.518 L 564.3363 448.5044 L 564.3363 405.69 Z" fill="#000000"/>		<g>			<g>				<path d="M 757.1124 699.9446 L 769.5349 722.4646 L 781.9574 699.9446 L 787.0886 674.806 L 777.6366 679.5194 L 769.5349 664.0697 L 761.4333 679.5194 L 751.9813 674.806 L 757.1124 699.9446 Z" fill="#ff0000"/>				<path d="M 775.9108 706.4754 L 763.8895 729.1348 L 790.1268 726.4224 L 814.4987 716.3759 L 805.0801 711.44 L 813.6761 696.1618 L 795.8175 698.3897 L 794.4342 688.0792 L 775.9108 706.4754 Z" fill="#ff0000"/>				<path d="M 763.7745 707.8898 L 775.796 730.5492 L 749.5586 727.8369 L 725.1866 717.7904 L 734.6053 712.8545 L 726.0093 697.5762 L 743.8681 699.8041 L 745.2513 689.4937 L 763.7745 707.8898 Z" fill="#ff0000"/>				<path d="M 746.5804 726.1307 L 741.4495 736.3433 L 770.3451 733.9864 L 797.0804 736.0813 L 791.4094 726.1307 L 746.5804 726.1307 Z" fill="#ff0000"/>				<rect x="768.5031" y="732.9946" width="4.861" height="21.2107" fill="#ff0000"/>			</g>			<path d="M 651.407 701.1281 C 651.407 703.5033 651.8835 705.7686 652.7404 707.8326 L 651.407 707.9617 C 651.407 707.9617 670.3451 743.6486 681.7081 744.4079 C 681.7081 744.4079 714.2817 725.4256 713.5242 701.8874 C 713.5349 701.6351 713.5242 701.3831 713.5242 701.1281 C 713.5242 691.4831 705.7238 683.6644 696.1011 683.6644 C 690.5795 683.6644 685.6577 686.2383 682.4656 690.255 C 679.2735 686.2383 674.3518 683.6644 668.8302 683.6644 C 659.2075 683.6644 651.407 691.4831 651.407 701.1281 Z" fill="#ff0000"/>			<rect x="618.4001" y="695.4212" width="13.591" height="48.9866" fill="#ff0000"/>			<rect x="618.4001" y="673.8671" width="11.6494" height="11.7568" fill="#ff0000"/>		</g>		<rect x="563.0823" y="361.8622" width="20.286" height="18.0271" fill="#ffffff"/>		<rect x="753" y="368" width="47" height="9" fill="#ffffff"/>		<path id="Ellipse4" d="M 462 382.5 C 462 370.6257 476.9982 361 495.5 361 C 514.0018 361 529 370.6257 529 382.5 C 529 394.3742 514.0018 404 495.5 404 C 476.9982 404 462 394.3742 462 382.5 Z" fill="#000000"/>		<path id="Ellipse5" d="M 616 382.5 C 616 370.6257 630.9982 361 649.5 361 C 668.0018 361 683 370.6257 683 382.5 C 683 394.3742 668.0018 404 649.5 404 C 630.9982 404 616 394.3742 616 382.5 Z" fill="#000000"/>		<path d="M 474 297 C 472.7267 304.1523 472.539 311.6063 473.5933 319.1571 C 479.0191 358.0172 515.3123 384.8542 554.7741 379.0748 C 555.6332 378.9489 556.486 378.8062 557.3337 378.6518 C 516.3478 370.42 482.9568 339.0311 474 297 Z" fill="#000000"/>		<path d="M 591 374 C 597.8931 376.3483 605.2496 377.6401 612.8859 377.688 C 652.0195 377.933 683.4623 345.5392 683.3601 305.6703 C 683.3578 304.8079 683.3384 303.9494 683.307 303.0944 C 669.5502 342.3688 633.9211 371.1652 591 374 Z" fill="#000000"/>		<path id="Ellipse6" d="M 513 515 C 513 494.5652 560.457 478 619 478 C 677.543 478 725 494.5652 725 515 C 725 535.4348 677.543 552 619 552 C 560.457 552 513 535.4348 513 515 Z" stroke="#ffffff" stroke-width="2" fill="#000000"/>		<path d="M 688.475 488 C 669.5195 481.7979 644.0316 478 616 478 C 587.9684 478 562.4805 481.7979 543.525 488 C 562.4805 494.2021 587.9684 498 616 498 C 644.0316 498 669.5195 494.2021 688.475 488 Z" fill="#ffffff"/>		<path d="M 385 707 L 345 654 L 365 541 L 456 542 C 456 542 471 563 442 599 L 385 707 Z" stroke="#ffffff" stroke-width="3" fill="#000000"/>		<path d="M 386.28 699.21 C 386.0975 700.1119 386 701.0443 386 702 L 386 754 C 386 761.7321 392.2679 768 400 768 L 577 768 C 584.7321 768 591 761.7321 591 754 L 591 702 C 591 701.0443 590.9025 700.1119 590.72 699.21 C 590.9032 698.002 591 696.7641 591 695.505 L 591 606.495 C 591 592.9666 580.0334 582 566.505 582 L 546.495 582 C 535.3809 582 525.9957 589.4019 523 599.545 C 520.0043 589.4019 510.6191 582 499.505 582 L 479.495 582 C 465.9666 582 455 592.9666 455 606.495 C 455 592.9666 444.0334 582 430.505 582 L 410.495 582 C 396.9666 582 386 592.9666 386 606.495 L 386 695.505 C 386 696.7641 386.0968 698.002 386.28 699.21 Z" stroke="#ffffff" stroke-width="3" fill="#000000"/>		<rect x="452" y="601" width="5" height="106" fill="#ffffff"/>		<rect x="521" y="601" width="5" height="106" fill="#ffffff"/>	</g>	<g id="Text">		<g>			<path d="M 49.3281 661 L 54 661 L 54 677 L 57 677 L 57 661 L 61.6719 661 L 61.6719 658 L 49.3281 658 L 49.3281 661 L 49.3281 661 Z" fill="#ffffff"/>			<path d="M 77 658 L 74 658 L 74 668 L 69 668 L 69 658 L 66 658 L 66 677 L 69 677 L 69 671 L 74 671 L 74 677 L 77 677 L 77 658 L 77 658 Z" fill="#ffffff"/>			<path d="M 92.5625 674.4688 L 93.5469 677.0625 L 96.5938 677.0625 L 89.0625 657.4688 L 81.5313 677.0625 L 84.5781 677.0625 L 85.5781 674.4688 L 92.5625 674.4688 L 92.5625 674.4688 ZM 89.0625 665.3906 L 91.4688 671.625 L 86.6719 671.625 L 89.0625 665.3906 L 89.0625 665.3906 Z" fill="#ffffff"/>			<path d="M 95.3281 661 L 100 661 L 100 677 L 103 677 L 103 661 L 107.6719 661 L 107.6719 658 L 95.3281 658 L 95.3281 661 L 95.3281 661 Z" fill="#ffffff"/>			<path d="M 111.5313 662.6094 L 111.5313 663 L 113.0156 663 L 115.6563 656.3906 L 115.6563 656 L 113.0156 656 L 111.5313 662.6094 L 111.5313 662.6094 Z" fill="#ffffff"/>			<path d="M 125.9375 676.5938 C 126.6563 676.3125 127.2969 675.9063 127.8594 675.375 C 128.4219 674.8594 128.8594 674.2656 129.1719 673.5938 C 129.4844 672.9219 129.6406 672.2188 129.6406 671.4688 C 129.6094 670.6563 129.4844 669.9531 129.2344 669.3594 C 128.9844 668.7656 128.6406 668.2813 128.2344 667.8906 C 127.8125 667.5 127.3906 667.1875 126.9688 666.9375 C 126.5313 666.6875 125.9844 666.4063 125.3125 666.0781 C 124.3125 665.625 123.5938 665.2188 123.1563 664.8438 C 122.7188 664.4844 122.4844 663.9844 122.4688 663.3594 C 122.4688 662.7188 122.7344 662.1563 123.2969 661.6563 C 123.8438 661.1563 124.5156 660.9063 125.3125 660.8906 C 125.6563 660.8906 126 660.9375 126.3125 661.0313 C 126.625 661.125 126.9063 661.25 127.1563 661.375 C 127.3906 661.5 127.5781 661.5938 127.7188 661.6563 C 127.8438 661.7188 128.0938 661.8594 128.4531 662.0781 L 128.4531 659.1563 C 127.8594 658.7969 127.3281 658.5469 126.8594 658.4063 C 126.3906 658.2656 125.875 658.1875 125.3125 658.1563 C 124.5625 658.1563 123.8438 658.2969 123.1563 658.5469 C 122.4688 658.7969 121.875 659.1563 121.3438 659.625 C 120.8125 660.0938 120.375 660.625 120.0625 661.2344 C 119.75 661.8438 119.5781 662.5 119.5469 663.2188 C 119.5469 663.9375 119.6563 664.5781 119.9063 665.1094 C 120.1563 665.6563 120.4688 666.125 120.875 666.5 C 121.2813 666.8906 121.6875 667.2188 122.125 667.4844 C 122.5625 667.75 123.0938 668.0469 123.7188 668.3594 C 124.75 668.8906 125.5 669.3438 125.9531 669.75 C 126.4063 670.1563 126.6406 670.6875 126.6406 671.3438 C 126.6406 672.1406 126.3594 672.8281 125.8281 673.4063 C 125.2969 673.9844 124.6094 674.2656 123.7813 674.2656 C 123.375 674.2656 122.9531 674.2031 122.5469 674.0781 C 122.125 673.9531 121.75 673.7969 121.4063 673.6094 C 121.0625 673.4219 120.7656 673.25 120.5313 673.0781 C 120.2969 672.9219 119.9688 672.6094 119.5313 672.1406 L 119.5313 675.625 C 120.2344 676.1563 120.8906 676.5313 121.5156 676.7344 C 122.1406 676.9375 122.8594 677.0313 123.6719 677.0313 C 124.4531 677.0313 125.2188 676.8906 125.9375 676.5938 L 125.9375 676.5938 Z" fill="#ffffff"/>			<path d="M 153.1406 674.1094 C 152.2344 674.1094 151.375 673.9531 150.5781 673.6094 C 149.7813 673.2813 149.0938 672.8281 148.5 672.2344 C 147.9063 671.6406 147.4375 670.9531 147.0938 670.1563 C 146.75 669.375 146.5938 668.5156 146.5938 667.6094 C 146.5938 666.7031 146.75 665.8594 147.0938 665.0625 C 147.4375 664.2813 147.9063 663.5938 148.5 663 C 149.0938 662.4063 149.7813 661.9531 150.5781 661.625 C 151.375 661.2969 152.2344 661.125 153.1406 661.125 C 154.0313 661.125 154.875 661.2969 155.6719 661.6094 C 156.0156 661.7656 156.3438 661.9375 156.6563 662.125 L 156.6563 658.8281 C 155.5625 658.4063 154.3906 658.1875 153.1406 658.1875 C 151.7969 658.1875 150.5469 658.4375 149.3906 658.9219 C 148.2344 659.4219 147.2188 660.0938 146.3438 660.9375 C 145.4688 661.7813 144.7813 662.7813 144.2813 663.9375 C 143.7813 665.0938 143.5313 666.3125 143.5313 667.6094 C 143.5313 668.9219 143.7813 670.1406 144.2813 671.2656 C 144.7813 672.4063 145.4688 673.4063 146.3438 674.25 C 147.2188 675.0938 148.2344 675.7656 149.3906 676.2656 C 150.5469 676.7656 151.7969 677 153.1406 677 C 154.3906 677 155.5625 676.7813 156.6563 676.3438 L 156.6563 668.0625 L 152.2656 668.0625 L 152.2656 670.9063 L 154.2188 670.9063 L 154.2188 674.0156 C 153.8594 674.0781 153.5 674.1094 153.1406 674.1094 L 153.1406 674.1094 Z" fill="#ffffff"/>			<path d="M 178.9688 663.9375 C 178.4688 662.7813 177.7813 661.7813 176.9063 660.9375 C 176.0313 660.0938 175.0156 659.4219 173.8594 658.9219 C 172.7031 658.4375 171.4531 658.1875 170.1406 658.1875 C 168.7969 658.1875 167.5469 658.4375 166.3906 658.9219 C 165.2344 659.4219 164.2188 660.0938 163.3438 660.9375 C 162.4688 661.7813 161.7813 662.7813 161.2813 663.9375 C 160.7813 665.0938 160.5313 666.3125 160.5313 667.6094 C 160.5313 668.9219 160.7813 670.1406 161.2813 671.2656 C 161.7813 672.4063 162.4688 673.4063 163.3438 674.25 C 164.2188 675.0938 165.2344 675.7656 166.3906 676.2656 C 167.5469 676.7656 168.7969 677 170.1406 677 C 171.4531 677 172.7031 676.7656 173.8594 676.2656 C 175.0156 675.7656 176.0313 675.0938 176.9063 674.25 C 177.7813 673.4063 178.4688 672.4063 178.9688 671.2656 C 179.4688 670.1406 179.7344 668.9219 179.7344 667.6094 C 179.7344 666.3125 179.4688 665.0938 178.9688 663.9375 L 178.9688 663.9375 ZM 164.0938 665.0625 C 164.4375 664.2813 164.9063 663.5938 165.5 663 C 166.0938 662.4063 166.7813 661.9531 167.5781 661.625 C 168.375 661.2969 169.2344 661.125 170.1406 661.125 C 171.0313 661.125 171.875 661.2969 172.6719 661.625 C 173.4531 661.9531 174.1406 662.4063 174.7344 663 C 175.3281 663.5938 175.7813 664.2813 176.125 665.0625 C 176.4688 665.8594 176.6406 666.7031 176.6406 667.6094 C 176.6406 668.5156 176.4688 669.375 176.125 670.1563 C 175.7813 670.9531 175.3281 671.6406 174.7344 672.2344 C 174.1406 672.8281 173.4531 673.2813 172.6719 673.6094 C 171.875 673.9531 171.0313 674.1094 170.1406 674.1094 C 169.2344 674.1094 168.375 673.9531 167.5781 673.6094 C 166.7813 673.2813 166.0938 672.8281 165.5 672.2344 C 164.9063 671.6406 164.4375 670.9531 164.0938 670.1563 C 163.75 669.375 163.5938 668.5156 163.5938 667.6094 C 163.5938 666.7031 163.75 665.8594 164.0938 665.0625 L 164.0938 665.0625 Z" fill="#ffffff"/>			<path d="M 181.3281 661 L 186 661 L 186 677 L 189 677 L 189 661 L 193.6719 661 L 193.6719 658 L 181.3281 658 L 181.3281 661 L 181.3281 661 Z" fill="#ffffff"/>			<path d="M 197.3281 661 L 202 661 L 202 677 L 205 677 L 205 661 L 209.6719 661 L 209.6719 658 L 197.3281 658 L 197.3281 661 L 197.3281 661 Z" fill="#ffffff"/>			<path d="M 220.5625 674.4688 L 221.5469 677.0625 L 224.5938 677.0625 L 217.0625 657.4688 L 209.5313 677.0625 L 212.5781 677.0625 L 213.5781 674.4688 L 220.5625 674.4688 L 220.5625 674.4688 ZM 217.0625 665.3906 L 219.4688 671.625 L 214.6719 671.625 L 217.0625 665.3906 L 217.0625 665.3906 Z" fill="#ffffff"/>			<path d="M 52.375 692.7969 L 49.5313 688.4531 L 49.5313 708 L 52.375 708 L 52.375 698.0156 L 56.5781 704.4688 L 60.7969 698.0156 L 60.7969 708 L 63.6406 708 L 63.6406 688.4531 L 60.7969 692.7969 L 56.5781 699.2656 L 52.375 692.7969 L 52.375 692.7969 Z" fill="#ffffff"/>			<path d="M 67 708 L 75.8125 708 L 75.8125 705 L 70 705 L 70 702 L 75.8125 702 L 75.8125 699 L 70 699 L 70 692 L 75.8125 692 L 75.8125 689 L 67 689 L 67 708 L 67 708 Z" fill="#ffffff"/>			<path d="M 90.5625 705.4688 L 91.5469 708.0625 L 94.5938 708.0625 L 87.0625 688.4688 L 79.5313 708.0625 L 82.5781 708.0625 L 83.5781 705.4688 L 90.5625 705.4688 L 90.5625 705.4688 ZM 87.0625 696.3906 L 89.4688 702.625 L 84.6719 702.625 L 87.0625 696.3906 L 87.0625 696.3906 Z" fill="#ffffff"/>			<path d="M 98.5313 688.4531 L 98.5313 708 L 101.375 708 L 101.375 697.0938 L 110.0313 708.8281 L 110.0313 689.2031 L 107.1875 689.2031 L 107.1875 700.2031 L 98.5313 688.4531 L 98.5313 688.4531 Z" fill="#ffffff"/>			<path d="M 129.9375 707.5938 C 130.6563 707.3125 131.2969 706.9063 131.8594 706.375 C 132.4219 705.8594 132.8594 705.2656 133.1719 704.5938 C 133.4844 703.9219 133.6406 703.2188 133.6406 702.4688 C 133.6094 701.6563 133.4844 700.9531 133.2344 700.3594 C 132.9844 699.7656 132.6406 699.2813 132.2344 698.8906 C 131.8125 698.5 131.3906 698.1875 130.9688 697.9375 C 130.5313 697.6875 129.9844 697.4063 129.3125 697.0781 C 128.3125 696.625 127.5938 696.2188 127.1563 695.8438 C 126.7188 695.4844 126.4844 694.9844 126.4688 694.3594 C 126.4688 693.7188 126.7344 693.1563 127.2969 692.6563 C 127.8438 692.1563 128.5156 691.9063 129.3125 691.8906 C 129.6563 691.8906 130 691.9375 130.3125 692.0313 C 130.625 692.125 130.9063 692.25 131.1563 692.375 C 131.3906 692.5 131.5781 692.5938 131.7188 692.6563 C 131.8438 692.7188 132.0938 692.8594 132.4531 693.0781 L 132.4531 690.1563 C 131.8594 689.7969 131.3281 689.5469 130.8594 689.4063 C 130.3906 689.2656 129.875 689.1875 129.3125 689.1563 C 128.5625 689.1563 127.8438 689.2969 127.1563 689.5469 C 126.4688 689.7969 125.875 690.1563 125.3438 690.625 C 124.8125 691.0938 124.375 691.625 124.0625 692.2344 C 123.75 692.8438 123.5781 693.5 123.5469 694.2188 C 123.5469 694.9375 123.6563 695.5781 123.9063 696.1094 C 124.1563 696.6563 124.4688 697.125 124.875 697.5 C 125.2813 697.8906 125.6875 698.2188 126.125 698.4844 C 126.5625 698.75 127.0938 699.0469 127.7188 699.3594 C 128.75 699.8906 129.5 700.3438 129.9531 700.75 C 130.4063 701.1563 130.6406 701.6875 130.6406 702.3438 C 130.6406 703.1406 130.3594 703.8281 129.8281 704.4063 C 129.2969 704.9844 128.6094 705.2656 127.7813 705.2656 C 127.375 705.2656 126.9531 705.2031 126.5469 705.0781 C 126.125 704.9531 125.75 704.7969 125.4063 704.6094 C 125.0625 704.4219 124.7656 704.25 124.5313 704.0781 C 124.2969 703.9219 123.9688 703.6094 123.5313 703.1406 L 123.5313 706.625 C 124.2344 707.1563 124.8906 707.5313 125.5156 707.7344 C 126.1406 707.9375 126.8594 708.0313 127.6719 708.0313 C 128.4531 708.0313 129.2188 707.8906 129.9375 707.5938 L 129.9375 707.5938 Z" fill="#ffffff"/>			<path d="M 155.9688 694.9375 C 155.4688 693.7813 154.7813 692.7813 153.9063 691.9375 C 153.0313 691.0938 152.0156 690.4219 150.8594 689.9219 C 149.7031 689.4375 148.4531 689.1875 147.1406 689.1875 C 145.7969 689.1875 144.5469 689.4375 143.3906 689.9219 C 142.2344 690.4219 141.2188 691.0938 140.3438 691.9375 C 139.4688 692.7813 138.7813 693.7813 138.2813 694.9375 C 137.7813 696.0938 137.5313 697.3125 137.5313 698.6094 C 137.5313 699.9219 137.7813 701.1406 138.2813 702.2656 C 138.7813 703.4063 139.4688 704.4063 140.3438 705.25 C 141.2188 706.0938 142.2344 706.7656 143.3906 707.2656 C 144.5469 707.7656 145.7969 708 147.1406 708 C 148.4531 708 149.7031 707.7656 150.8594 707.2656 C 152.0156 706.7656 153.0313 706.0938 153.9063 705.25 C 154.7813 704.4063 155.4688 703.4063 155.9688 702.2656 C 156.4688 701.1406 156.7344 699.9219 156.7344 698.6094 C 156.7344 697.3125 156.4688 696.0938 155.9688 694.9375 L 155.9688 694.9375 ZM 141.0938 696.0625 C 141.4375 695.2813 141.9063 694.5938 142.5 694 C 143.0938 693.4063 143.7813 692.9531 144.5781 692.625 C 145.375 692.2969 146.2344 692.125 147.1406 692.125 C 148.0313 692.125 148.875 692.2969 149.6719 692.625 C 150.4531 692.9531 151.1406 693.4063 151.7344 694 C 152.3281 694.5938 152.7813 695.2813 153.125 696.0625 C 153.4688 696.8594 153.6406 697.7031 153.6406 698.6094 C 153.6406 699.5156 153.4688 700.375 153.125 701.1563 C 152.7813 701.9531 152.3281 702.6406 151.7344 703.2344 C 151.1406 703.8281 150.4531 704.2813 149.6719 704.6094 C 148.875 704.9531 148.0313 705.1094 147.1406 705.1094 C 146.2344 705.1094 145.375 704.9531 144.5781 704.6094 C 143.7813 704.2813 143.0938 703.8281 142.5 703.2344 C 141.9063 702.6406 141.4375 701.9531 141.0938 701.1563 C 140.75 700.375 140.5938 699.5156 140.5938 698.6094 C 140.5938 697.7031 140.75 696.8594 141.0938 696.0625 L 141.0938 696.0625 Z" fill="#ffffff"/>			<path d="M 163.375 692.7969 L 160.5313 688.4531 L 160.5313 708 L 163.375 708 L 163.375 698.0156 L 167.5781 704.4688 L 171.7969 698.0156 L 171.7969 708 L 174.6406 708 L 174.6406 688.4531 L 171.7969 692.7969 L 167.5781 699.2656 L 163.375 692.7969 L 163.375 692.7969 Z" fill="#ffffff"/>			<path d="M 178 708 L 186.8125 708 L 186.8125 705 L 181 705 L 181 702 L 186.8125 702 L 186.8125 699 L 181 699 L 181 692 L 186.8125 692 L 186.8125 689 L 178 689 L 178 708 L 178 708 Z" fill="#ffffff"/>			<path d="M 190.3281 692 L 195 692 L 195 708 L 198 708 L 198 692 L 202.6719 692 L 202.6719 689 L 190.3281 689 L 190.3281 692 L 190.3281 692 Z" fill="#ffffff"/>			<path d="M 218 689 L 215 689 L 215 699 L 210 699 L 210 689 L 207 689 L 207 708 L 210 708 L 210 702 L 215 702 L 215 708 L 218 708 L 218 689 L 218 689 Z" fill="#ffffff"/>			<path d="M 222 708 L 225 708 L 225 689 L 222 689 L 222 708 L 222 708 Z" fill="#ffffff"/>			<path d="M 229.5313 688.4531 L 229.5313 708 L 232.375 708 L 232.375 697.0938 L 241.0313 708.8281 L 241.0313 689.2031 L 238.1875 689.2031 L 238.1875 700.2031 L 229.5313 688.4531 L 229.5313 688.4531 Z" fill="#ffffff"/>			<path d="M 254.1406 705.1094 C 253.2344 705.1094 252.375 704.9531 251.5781 704.6094 C 250.7813 704.2813 250.0938 703.8281 249.5 703.2344 C 248.9063 702.6406 248.4375 701.9531 248.0938 701.1563 C 247.75 700.375 247.5938 699.5156 247.5938 698.6094 C 247.5938 697.7031 247.75 696.8594 248.0938 696.0625 C 248.4375 695.2813 248.9063 694.5938 249.5 694 C 250.0938 693.4063 250.7813 692.9531 251.5781 692.625 C 252.375 692.2969 253.2344 692.125 254.1406 692.125 C 255.0313 692.125 255.875 692.2969 256.6719 692.6094 C 257.0156 692.7656 257.3438 692.9375 257.6563 693.125 L 257.6563 689.8281 C 256.5625 689.4063 255.3906 689.1875 254.1406 689.1875 C 252.7969 689.1875 251.5469 689.4375 250.3906 689.9219 C 249.2344 690.4219 248.2188 691.0938 247.3438 691.9375 C 246.4688 692.7813 245.7813 693.7813 245.2813 694.9375 C 244.7813 696.0938 244.5313 697.3125 244.5313 698.6094 C 244.5313 699.9219 244.7813 701.1406 245.2813 702.2656 C 245.7813 703.4063 246.4688 704.4063 247.3438 705.25 C 248.2188 706.0938 249.2344 706.7656 250.3906 707.2656 C 251.5469 707.7656 252.7969 708 254.1406 708 C 255.3906 708 256.5625 707.7813 257.6563 707.3438 L 257.6563 699.0625 L 253.2656 699.0625 L 253.2656 701.9063 L 255.2188 701.9063 L 255.2188 705.0156 C 254.8594 705.0781 254.5 705.1094 254.1406 705.1094 L 254.1406 705.1094 Z" fill="#ffffff"/>			<path d="M 261.5313 711.6094 L 261.5313 712 L 263.1563 712 L 266 705.3906 L 266 705 L 263.1563 705 L 261.5313 711.6094 L 261.5313 711.6094 Z" fill="#ffffff"/>			<path d="M 53 723 L 53.1719 723 C 54.2344 723 55.125 723.4531 55.875 724.3594 C 56.625 725.2656 57 726.3438 57 727.6094 C 57 728.875 56.625 729.9531 55.875 730.8594 C 55.125 731.7656 54.2344 732.2031 53.1719 732.2031 L 53 732.2031 L 53 723 L 53 723 ZM 57.7188 732.75 C 59.2344 731.2969 60 729.5313 60 727.4688 C 60 725.4063 59.2969 723.6563 57.9219 722.1875 C 56.5469 720.7344 54.875 720 52.9219 720 L 50 720 L 50 739 L 53 739 L 53 735 L 53.2031 735 C 53.8906 735 54.5469 734.9063 55.1719 734.7031 L 57.0156 739 L 59.7969 739 L 57 733.3594 C 57.25 733.1719 57.4844 732.9688 57.7188 732.75 L 57.7188 732.75 Z" fill="#ffffff"/>			<path d="M 63 739 L 66 739 L 66 720 L 63 720 L 63 739 L 63 739 Z" fill="#ffffff"/>			<path d="M 80.1406 736.1094 C 79.2344 736.1094 78.375 735.9531 77.5781 735.6094 C 76.7813 735.2813 76.0938 734.8281 75.5 734.2344 C 74.9063 733.6406 74.4375 732.9531 74.0938 732.1563 C 73.75 731.375 73.5938 730.5156 73.5938 729.6094 C 73.5938 728.7031 73.75 727.8594 74.0938 727.0625 C 74.4375 726.2813 74.9063 725.5938 75.5 725 C 76.0938 724.4063 76.7813 723.9531 77.5781 723.625 C 78.375 723.2969 79.2344 723.125 80.1406 723.125 C 81.0313 723.125 81.875 723.2969 82.6719 723.6094 C 83.0156 723.7656 83.3438 723.9375 83.6563 724.125 L 83.6563 720.8281 C 82.5625 720.4063 81.3906 720.1875 80.1406 720.1875 C 78.7969 720.1875 77.5469 720.4375 76.3906 720.9219 C 75.2344 721.4219 74.2188 722.0938 73.3438 722.9375 C 72.4688 723.7813 71.7813 724.7813 71.2813 725.9375 C 70.7813 727.0938 70.5313 728.3125 70.5313 729.6094 C 70.5313 730.9219 70.7813 732.1406 71.2813 733.2656 C 71.7813 734.4063 72.4688 735.4063 73.3438 736.25 C 74.2188 737.0938 75.2344 737.7656 76.3906 738.2656 C 77.5469 738.7656 78.7969 739 80.1406 739 C 81.3906 739 82.5625 738.7813 83.6563 738.3438 L 83.6563 730.0625 L 79.2656 730.0625 L 79.2656 732.9063 L 81.2188 732.9063 L 81.2188 736.0156 C 80.8594 736.0781 80.5 736.1094 80.1406 736.1094 L 80.1406 736.1094 Z" fill="#ffffff"/>			<path d="M 99 720 L 96 720 L 96 730 L 91 730 L 91 720 L 88 720 L 88 739 L 91 739 L 91 733 L 96 733 L 96 739 L 99 739 L 99 720 L 99 720 Z" fill="#ffffff"/>			<path d="M 103.3281 723 L 108 723 L 108 739 L 111 739 L 111 723 L 115.6719 723 L 115.6719 720 L 103.3281 720 L 103.3281 723 L 103.3281 723 Z" fill="#ffffff"/>			<path d="M 127.5156 728.2188 C 128.7656 727.4375 129.3438 726.0781 129.25 724.1406 C 129.25 721.9219 128.4375 720.5156 126.8125 719.8906 C 126.0938 719.625 125.3906 719.4844 124.7344 719.4844 C 123.9375 719.4844 123.1563 719.6875 122.375 720.0781 C 120.875 720.7969 119.9063 722.1563 119.4688 724.1406 L 121.7813 725.1719 C 122.6875 723.5469 123.6563 722.7344 124.6563 722.7344 C 125.6563 722.7344 126.2344 723.2969 126.4063 724.4063 C 126.3906 725.4688 125.8125 726.4844 124.6875 727.4844 C 123.5625 728.4844 123 729.875 123 731.6719 L 123 733.7031 L 126 733.7031 C 125.7656 730.8281 126.2656 729 127.5156 728.2188 L 127.5156 728.2188 ZM 123 736 L 123 739 L 126 739 L 126 736 L 123 736 L 123 736 Z" fill="#ffffff"/>		</g>		<g>			<path d="M 31.5469 56.8906 L 33.4219 56.8906 C 33.9375 56.8906 34.375 57.0938 34.7344 57.4844 C 35.0938 57.875 35.2813 58.3438 35.2813 58.9063 C 35.2813 59.4844 35.0938 59.9688 34.7344 60.3594 C 34.375 60.75 33.9375 60.9375 33.4219 60.9375 L 31.5469 60.9375 L 31.5469 56.8906 L 31.5469 56.8906 ZM 35.1094 77 C 37.1406 77 38.8906 76.2813 40.3281 74.8438 C 41.7656 73.4063 42.5 71.6563 42.5 69.6094 C 42.5 67.5781 41.7813 65.8281 40.3438 64.3594 C 39.4375 63.4844 38.4531 62.875 37.3594 62.5313 C 38.375 61.4844 38.8906 60.2188 38.8906 58.7344 C 38.8906 57.2344 38.3594 55.9375 37.2969 54.875 C 36.2344 53.8125 34.9375 53.2813 33.4219 53.2813 L 27.9375 53.2813 L 27.9375 77 L 35.1094 77 L 35.1094 77 ZM 35.1094 65.3438 C 36.1406 65.3438 37.0313 65.75 37.7813 66.5313 C 38.5156 67.3281 38.8906 68.2656 38.8906 69.3594 C 38.8906 70.4688 38.5156 71.4219 37.7813 72.2031 C 37.0313 73 36.1406 73.3906 35.1094 73.3906 L 31.5469 73.3906 L 31.5469 70.7813 L 31.5469 65.3438 L 35.1094 65.3438 L 35.1094 65.3438 Z" fill="#ffffff"/>			<path d="M 56.125 71.9531 C 55.5313 72.6563 54.8281 73 54 73 C 53.1719 73 52.4688 72.6563 51.875 71.9531 C 51.2813 71.25 51 70.4063 51 69.4219 L 51 53 L 47 53 L 47 69.7188 C 47 71.7344 47.6719 73.4531 49.0469 74.875 C 50.4219 76.2969 52.0625 77 54 77 C 55.9375 77 57.5781 76.2969 58.9531 74.875 C 60.3125 73.4531 61 71.7344 61 69.7188 L 61 53 L 57 53 L 57 69.4219 C 57 70.4063 56.7031 71.25 56.125 71.9531 L 56.125 71.9531 Z" fill="#ffffff"/>			<path d="M 66.0781 57 L 72 57 L 72 77 L 76 77 L 76 57 L 81.9375 57 L 81.9375 53 L 66.0781 53 L 66.0781 57 L 66.0781 57 Z" fill="#ffffff"/>			<path d="M 124.4688 75.9375 C 126.3281 75.1875 127.9844 74.1563 129.4219 72.8125 C 130.8594 71.4844 131.9688 69.9531 132.7813 68.2188 C 133.5938 66.4844 134 64.6563 134 62.7344 C 133.9531 60.6406 133.6094 58.8438 132.9531 57.3125 C 132.2969 55.7813 131.4219 54.5156 130.3594 53.5156 C 129.2969 52.5156 128.2031 51.6875 127.1094 51.0625 C 126.0156 50.4375 124.5938 49.7031 122.8438 48.8594 C 120.2813 47.6875 118.4375 46.625 117.2969 45.6719 C 116.1406 44.7344 115.5469 43.4531 115.5156 41.8594 C 115.5156 40.1875 116.2188 38.7188 117.6406 37.4375 C 119.0469 36.1563 120.7813 35.5156 122.8438 35.4844 C 123.75 35.4844 124.625 35.6094 125.4375 35.8438 C 126.25 36.0938 126.9688 36.375 127.5938 36.7188 C 128.2188 37.0625 128.6875 37.2969 129.0313 37.4375 C 129.375 37.5781 130 37.9531 130.9219 38.5625 L 130.9219 31 C 129.3906 30.0625 128.0313 29.4219 126.8281 29.0625 C 125.625 28.7031 124.2969 28.5 122.8438 28.4531 C 120.9063 28.4531 119.0469 28.7813 117.2969 29.4375 C 115.5469 30.0938 113.9844 31.0156 112.6094 32.2031 C 111.2344 33.3906 110.1406 34.7813 109.3281 36.3594 C 108.5156 37.9375 108.0781 39.6406 107.9844 41.4688 C 107.9844 43.3438 108.2969 44.9844 108.9375 46.3594 C 109.5625 47.75 110.3906 48.9531 111.4219 49.9531 C 112.4531 50.9531 113.5156 51.7969 114.625 52.4688 C 115.7344 53.1563 117.0938 53.9063 118.7188 54.7188 C 121.4063 56.0781 123.3281 57.2813 124.5156 58.3281 C 125.6875 59.375 126.2813 60.7344 126.2813 62.4063 C 126.2813 64.4688 125.5781 66.2344 124.2031 67.7344 C 122.8125 69.2344 121.0469 69.9688 118.8906 69.9688 C 117.8281 69.9688 116.7656 69.8125 115.7031 69.4844 C 114.6406 69.1563 113.6563 68.75 112.7813 68.2656 C 111.8906 67.7969 111.1406 67.3438 110.5313 66.9063 C 109.9219 66.4844 109.0469 65.6719 107.9219 64.4688 L 107.9219 73.4688 C 109.75 74.8281 111.4688 75.7656 113.0781 76.2813 C 114.6719 76.8125 116.5313 77.0625 118.625 77.0625 C 120.6563 77.0625 122.5938 76.6875 124.4688 75.9375 L 124.4688 75.9375 Z" fill="#ffffff"/>			<path d="M 144 77 L 151 77 L 151 56 L 168 56 L 168 77 L 175 77 L 175 29 L 168 29 L 168 49 L 151 49 L 151 29 L 144 29 L 144 77 L 144 77 Z" fill="#ffffff"/>			<path d="M 185 77 L 206.9531 77 L 206.9531 70 L 192 70 L 192 56 L 206.9531 56 L 206.9531 49 L 192 49 L 192 36 L 206.9531 36 L 206.9531 29 L 185 29 L 185 77 L 185 77 Z" fill="#ffffff"/>		</g>		<g>			<path d="M 56.7031 133.4375 L 58.4844 138.1094 L 64 138.1094 L 50.3906 102.6875 L 36.75 138.1094 L 42.2656 138.1094 L 44.0781 133.4375 L 56.7031 133.4375 L 56.7031 133.4375 ZM 50.3906 117.0313 L 54.7188 128.2969 L 46.0469 128.2969 L 50.3906 117.0313 L 50.3906 117.0313 Z" fill="#ffffff"/>			<path d="M 82.3438 137.2656 C 83.6563 136.7344 84.8125 136 85.8281 135.0625 C 86.8281 134.125 87.625 133.0625 88.1875 131.8438 C 88.75 130.625 89.0469 129.3438 89.0469 128 C 89.0156 126.5313 88.7656 125.2656 88.3125 124.1875 C 87.8438 123.125 87.25 122.2344 86.5 121.5313 C 85.75 120.8281 84.9844 120.25 84.2188 119.8125 C 83.4375 119.375 82.4375 118.8594 81.2188 118.2656 C 79.4219 117.4531 78.125 116.7031 77.3281 116.0313 C 76.5156 115.375 76.1094 114.4844 76.0781 113.3594 C 76.0781 112.1719 76.5625 111.1406 77.5625 110.25 C 78.5625 109.3594 79.7813 108.9063 81.2188 108.875 C 81.8594 108.875 82.4688 108.9688 83.0469 109.125 C 83.6094 109.2969 84.125 109.5 84.5625 109.7344 C 85 109.9844 85.3281 110.1563 85.5625 110.25 C 85.7969 110.3438 86.2344 110.6094 86.8906 111.0313 L 86.8906 105.7344 C 85.8125 105.0781 84.8594 104.625 84.0156 104.375 C 83.1719 104.125 82.2344 103.9688 81.2188 103.9375 C 79.8438 103.9375 78.5469 104.1719 77.3281 104.625 C 76.0938 105.0938 75 105.7344 74.0313 106.5781 C 73.0625 107.4219 72.2969 108.3906 71.7344 109.5 C 71.1719 110.6094 70.8594 111.7969 70.7969 113.0781 C 70.7969 114.3906 71.0156 115.5469 71.4531 116.5156 C 71.8906 117.4844 72.4844 118.3281 73.2031 119.0313 C 73.9219 119.7344 74.6719 120.3281 75.4531 120.7969 C 76.2344 121.2656 77.1875 121.7969 78.3281 122.375 C 80.2031 123.3281 81.5625 124.1719 82.3906 124.9063 C 83.2031 125.6406 83.625 126.5938 83.625 127.7656 C 83.625 129.2031 83.1406 130.4531 82.1719 131.5 C 81.2031 132.5469 79.9531 133.0625 78.4375 133.0625 C 77.7031 133.0625 76.9688 132.9531 76.2188 132.7188 C 75.4688 132.5 74.7813 132.2188 74.1563 131.875 C 73.5313 131.5469 73.0156 131.2344 72.5938 130.9219 C 72.1563 130.625 71.5469 130.0469 70.75 129.2031 L 70.75 135.5156 C 72.0313 136.4688 73.25 137.125 74.375 137.5 C 75.5 137.875 76.7969 138.0469 78.2656 138.0469 C 79.6719 138.0469 81.0313 137.7969 82.3438 137.2656 L 82.3438 137.2656 Z" fill="#ffffff"/>			<path d="M 110.5469 104 L 101 120.4219 L 101 104 L 96 104 L 96 137.9531 L 101 138 L 101 130.6406 L 105.375 123.125 L 110.4688 138 L 115.9531 138 L 108.8281 117.1875 L 116.4844 104 L 110.5469 104 L 110.5469 104 Z" fill="#ffffff"/>			<path d="M 123 138 L 138.4844 138 L 138.4844 133 L 128 133 L 128 127 L 138.4844 127 L 138.4844 122 L 128 122 L 128 109 L 138.4844 109 L 138.4844 104 L 123 104 L 123 138 L 123 138 Z" fill="#ffffff"/>			<path d="M 151.1875 138 C 155.8281 138 159.7969 136.3438 163.0781 133.0156 C 166.3594 129.6875 168 125.6875 168 121 C 168 116.3125 166.3594 112.2969 163.0781 108.9844 C 159.7969 105.6719 155.8281 104 151.1875 104 L 145 104 L 145 138 L 151.1875 138 L 151.1875 138 ZM 151.0938 109 C 154.375 109 157.1719 110.1719 159.5 112.5156 C 161.8281 114.8594 163 117.7031 163 121.0156 C 163 124.3281 161.8281 127.1406 159.5 129.4844 C 157.1719 131.8281 154.375 133 151.0938 133 L 150 133 L 150 109 L 151.0938 109 L 151.0938 109 Z" fill="#ffffff"/>			<path d="M 196.8906 110.5313 L 191.75 102.6563 L 191.75 138 L 196.8906 138 L 196.8906 119.9375 L 204.5156 131.625 L 212.1406 119.9375 L 212.1406 138 L 217.2813 138 L 217.2813 102.6563 L 212.1406 110.5313 L 204.5156 122.2031 L 196.8906 110.5313 L 196.8906 110.5313 Z" fill="#ffffff"/>			<path d="M 224 138 L 239.4844 138 L 239.4844 133 L 229 133 L 229 127 L 239.4844 127 L 239.4844 122 L 229 122 L 229 109 L 239.4844 109 L 239.4844 104 L 224 104 L 224 138 L 224 138 Z" fill="#ffffff"/>		</g>		<g>			<path d="M 259.3906 143 L 270 143 L 270 179 L 276 179 L 276 143 L 286.5938 143 L 286.5938 136 L 259.3906 136 L 259.3906 143 L 259.3906 143 Z" fill="#ffffff"/>			<path d="M 332.3281 149.3438 C 331.1719 146.7188 329.6094 144.4531 327.6406 142.5313 C 325.6719 140.6094 323.3594 139.0938 320.7344 137.9844 C 318.0938 136.875 315.2656 136.3125 312.2656 136.3125 C 309.2344 136.3125 306.3906 136.875 303.7656 137.9844 C 301.125 139.0938 298.8125 140.6094 296.8438 142.5313 C 294.875 144.4531 293.3125 146.7188 292.1719 149.3438 C 291.0156 151.9688 290.4531 154.75 290.4531 157.6875 C 290.4531 160.6563 291.0156 163.4219 292.1719 166 C 293.3125 168.5938 294.875 170.8438 296.8438 172.75 C 298.8125 174.6719 301.125 176.1875 303.7656 177.3125 C 306.3906 178.4375 309.2344 179 312.2656 179 C 315.2656 179 318.0938 178.4375 320.7344 177.3125 C 323.3594 176.1875 325.6719 174.6719 327.6406 172.75 C 329.6094 170.8438 331.1719 168.5938 332.3281 166 C 333.4688 163.4219 334.0469 160.6563 334.0469 157.6875 C 334.0469 154.75 333.4688 151.9688 332.3281 149.3438 L 332.3281 149.3438 ZM 298.5781 151.9063 C 299.3438 150.125 300.4063 148.5625 301.75 147.2188 C 303.0938 145.875 304.6563 144.8281 306.4688 144.0781 C 308.2813 143.3281 310.2031 142.9531 312.2656 142.9531 C 314.2969 142.9531 316.2031 143.3281 318.0156 144.0781 C 319.8281 144.8281 321.3906 145.875 322.7344 147.2188 C 324.0625 148.5625 325.1094 150.125 325.8906 151.9063 C 326.6563 153.7031 327.0469 155.625 327.0469 157.6875 C 327.0469 159.75 326.6563 161.6719 325.8906 163.4688 C 325.1094 165.2656 324.0625 166.8281 322.7344 168.1563 C 321.3906 169.5 319.8281 170.5469 318.0156 171.2969 C 316.2031 172.0625 314.2969 172.4375 312.2656 172.4375 C 310.2031 172.4375 308.2813 172.0625 306.4688 171.2969 C 304.6563 170.5469 303.0938 169.5 301.75 168.1563 C 300.4063 166.8281 299.3438 165.2656 298.5781 163.4688 C 297.7969 161.6719 297.4219 159.75 297.4219 157.6875 C 297.4219 155.625 297.7969 153.7031 298.5781 151.9063 L 298.5781 151.9063 Z" fill="#ffffff"/>		</g>		<g>			<path d="M 65 204 L 59 204 L 59 226 L 43 226 L 43 204 L 37 204 L 37 246 L 43 246 L 43 232 L 59 232 L 59 246 L 65 246 L 65 204 L 65 204 Z" fill="#ffffff"/>			<path d="M 114.5625 216.8438 C 113.4375 214.2813 111.8906 212.0469 109.9531 210.1563 C 108.0156 208.2656 105.75 206.7656 103.1563 205.6719 C 100.5625 204.5781 97.7969 204.0313 94.8438 204.0313 C 91.8438 204.0313 89.0625 204.5781 86.4844 205.6719 C 83.8906 206.7656 81.625 208.2656 79.6875 210.1563 C 77.7344 212.0469 76.2031 214.2813 75.0781 216.8438 C 73.9531 219.4219 73.4063 222.1563 73.4063 225.0469 C 73.4063 227.9531 73.9531 230.6875 75.0781 233.2188 C 76.2031 235.75 77.7344 237.9688 79.6875 239.8594 C 81.625 241.75 83.8906 243.25 86.4844 244.3438 C 89.0625 245.4531 91.8438 246 94.8438 246 C 97.7969 246 100.5625 245.4531 103.1563 244.3438 C 105.75 243.25 108.0156 241.75 109.9531 239.8594 C 111.8906 237.9688 113.4375 235.75 114.5625 233.2188 C 115.6875 230.6875 116.25 227.9531 116.25 225.0469 C 116.25 222.1563 115.6875 219.4219 114.5625 216.8438 L 114.5625 216.8438 ZM 81.375 219.375 C 82.125 217.6094 83.1719 216.0625 84.5 214.75 C 85.8125 213.4375 87.3594 212.4219 89.1406 211.6875 C 90.9219 210.9531 92.8125 210.5781 94.8438 210.5781 C 96.8438 210.5781 98.7188 210.9531 100.5 211.6875 C 102.2656 212.4219 103.8125 213.4375 105.125 214.75 C 106.4375 216.0625 107.4688 217.6094 108.2188 219.375 C 108.9688 221.1406 109.3594 223.0313 109.3594 225.0469 C 109.3594 227.0781 108.9688 228.9688 108.2188 230.7344 C 107.4688 232.5 106.4375 234.0313 105.125 235.3438 C 103.8125 236.6563 102.2656 237.6875 100.5 238.4375 C 98.7188 239.1875 96.8438 239.5469 94.8438 239.5469 C 92.8125 239.5469 90.9219 239.1875 89.1406 238.4375 C 87.3594 237.6875 85.8125 236.6563 84.5 235.3438 C 83.1719 234.0313 82.125 232.5 81.375 230.7344 C 80.625 228.9688 80.25 227.0781 80.25 225.0469 C 80.25 223.0313 80.625 221.1406 81.375 219.375 L 81.375 219.375 Z" fill="#ffffff"/>			<path d="M 141.9531 238.1094 C 140.5938 239.375 138.9531 240 137.0156 240 C 135.0781 240 133.4219 239.375 132.0469 238.1094 C 130.6719 236.8594 130 235.3281 130 233.5469 L 130 204 L 124 204 L 124 233.2656 C 124 236.7813 125.2656 239.7813 127.8125 242.2656 C 130.3438 244.7656 133.4219 246 137.0156 246 C 140.6094 246 143.6719 244.7656 146.2031 242.2656 C 148.7344 239.7813 150 236.7813 150 233.2656 L 150 204 L 144 204 L 144 233.5469 C 144 235.3281 143.3125 236.8594 141.9531 238.1094 L 141.9531 238.1094 Z" fill="#ffffff"/>			<path d="M 172.7188 245.0938 C 174.3281 244.4375 175.75 243.5313 177 242.375 C 178.25 241.2188 179.2188 239.8906 179.9219 238.3906 C 180.6094 236.8906 180.9688 235.3125 180.9688 233.6563 C 180.9219 231.8438 180.625 230.2813 180.0625 228.9531 C 179.5 227.6406 178.75 226.5469 177.8281 225.6719 C 176.8906 224.7969 175.9531 224.0938 175 223.5469 C 174.0469 223 172.8125 222.3594 171.3125 221.6406 C 169.0938 220.625 167.5 219.7031 166.5156 218.8906 C 165.5156 218.0781 165 216.9688 164.9688 215.5781 C 164.9688 214.1406 165.5781 212.8594 166.8125 211.75 C 168.0313 210.6563 169.5313 210.0938 171.3125 210.0625 C 172.0938 210.0625 172.8438 210.1719 173.5625 210.375 C 174.2656 210.5938 174.8906 210.8438 175.4219 211.125 C 175.9531 211.4219 176.375 211.625 176.6719 211.75 C 176.9688 211.875 177.5156 212.2031 178.3125 212.7188 L 178.3125 206.1875 C 176.9844 205.375 175.7969 204.8125 174.7656 204.5 C 173.7188 204.1875 172.5625 204.0156 171.3125 203.9688 C 169.625 203.9688 168.0313 204.2656 166.5156 204.8281 C 164.9844 205.3906 163.6406 206.1875 162.4531 207.2188 C 161.2656 208.25 160.3125 209.4531 159.6094 210.8125 C 158.9063 212.1875 158.5156 213.6563 158.4531 215.25 C 158.4531 216.875 158.7188 218.2813 159.2656 219.4844 C 159.8125 220.6875 160.5313 221.7188 161.4219 222.5781 C 162.3125 223.4531 163.2344 224.1719 164.2031 224.7656 C 165.1719 225.3594 166.3438 226 167.75 226.7188 C 170.0625 227.8906 171.7344 228.9219 172.75 229.8281 C 173.7656 230.7344 174.2813 231.9219 174.2813 233.375 C 174.2813 235.1563 173.6719 236.6875 172.4844 237.9688 C 171.2813 239.2656 169.75 239.9063 167.8906 239.9063 C 166.9844 239.9063 166.0625 239.7656 165.1406 239.4844 C 164.2031 239.2031 163.3594 238.8594 162.5938 238.4375 C 161.8281 238.0313 161.1875 237.6406 160.6563 237.2656 C 160.125 236.8906 159.375 236.1875 158.4063 235.1563 L 158.4063 242.9375 C 159.9844 244.125 161.4688 244.9375 162.8594 245.3906 C 164.2344 245.8438 165.8438 246.0625 167.6563 246.0625 C 169.4063 246.0625 171.0938 245.75 172.7188 245.0938 L 172.7188 245.0938 Z" fill="#ffffff"/>			<path d="M 190 246 L 208.9531 246 L 208.9531 240 L 196 240 L 196 232 L 208.9531 232 L 208.9531 226 L 196 226 L 196 210 L 208.9531 210 L 208.9531 204 L 190 204 L 190 246 L 190 246 Z" fill="#ffffff"/>			<path d="M 231.7188 245.0938 C 233.3281 244.4375 234.75 243.5313 236 242.375 C 237.25 241.2188 238.2188 239.8906 238.9219 238.3906 C 239.6094 236.8906 239.9688 235.3125 239.9688 233.6563 C 239.9219 231.8438 239.625 230.2813 239.0625 228.9531 C 238.5 227.6406 237.75 226.5469 236.8281 225.6719 C 235.8906 224.7969 234.9531 224.0938 234 223.5469 C 233.0469 223 231.8125 222.3594 230.3125 221.6406 C 228.0938 220.625 226.5 219.7031 225.5156 218.8906 C 224.5156 218.0781 224 216.9688 223.9688 215.5781 C 223.9688 214.1406 224.5781 212.8594 225.8125 211.75 C 227.0313 210.6563 228.5313 210.0938 230.3125 210.0625 C 231.0938 210.0625 231.8438 210.1719 232.5625 210.375 C 233.2656 210.5938 233.8906 210.8438 234.4219 211.125 C 234.9531 211.4219 235.375 211.625 235.6719 211.75 C 235.9688 211.875 236.5156 212.2031 237.3125 212.7188 L 237.3125 206.1875 C 235.9844 205.375 234.7969 204.8125 233.7656 204.5 C 232.7188 204.1875 231.5625 204.0156 230.3125 203.9688 C 228.625 203.9688 227.0313 204.2656 225.5156 204.8281 C 223.9844 205.3906 222.6406 206.1875 221.4531 207.2188 C 220.2656 208.25 219.3125 209.4531 218.6094 210.8125 C 217.9063 212.1875 217.5156 213.6563 217.4531 215.25 C 217.4531 216.875 217.7188 218.2813 218.2656 219.4844 C 218.8125 220.6875 219.5313 221.7188 220.4219 222.5781 C 221.3125 223.4531 222.2344 224.1719 223.2031 224.7656 C 224.1719 225.3594 225.3438 226 226.75 226.7188 C 229.0625 227.8906 230.7344 228.9219 231.75 229.8281 C 232.7656 230.7344 233.2813 231.9219 233.2813 233.375 C 233.2813 235.1563 232.6719 236.6875 231.4844 237.9688 C 230.2813 239.2656 228.75 239.9063 226.8906 239.9063 C 225.9844 239.9063 225.0625 239.7656 224.1406 239.4844 C 223.2031 239.2031 222.3594 238.8594 221.5938 238.4375 C 220.8281 238.0313 220.1875 237.6406 219.6563 237.2656 C 219.125 236.8906 218.375 236.1875 217.4063 235.1563 L 217.4063 242.9375 C 218.9844 244.125 220.4688 244.9375 221.8594 245.3906 C 223.2344 245.8438 224.8438 246.0625 226.6563 246.0625 C 228.4063 246.0625 230.0938 245.75 231.7188 245.0938 L 231.7188 245.0938 Z" fill="#ffffff"/>			<path d="M 249 246 L 255 246 L 255 204 L 249 204 L 249 246 L 249 246 Z" fill="#ffffff"/>			<path d="M 263.5781 211 L 274 211 L 274 246 L 280 246 L 280 211 L 290.4219 211 L 290.4219 204 L 263.5781 204 L 263.5781 211 L 263.5781 211 Z" fill="#ffffff"/>		</g>		<g>			<path d="M 103.1719 271 L 116.1875 311.6875 L 123.5 288.8594 L 130.7969 311.6875 L 143.7969 271 L 137.5938 271 L 130.7969 292.3281 L 123.5 269.4531 L 116.1875 292.3281 L 109.3594 271 L 103.1719 271 L 103.1719 271 Z" fill="#ffffff"/>			<path d="M 177 271 L 171 271 L 171 291 L 157 291 L 157 271 L 151 271 L 151 310 L 157 310 L 157 297 L 171 297 L 171 310 L 177 310 L 177 271 L 177 271 Z" fill="#ffffff"/>			<path d="M 184 310 L 190 310 L 190 271 L 184 271 L 184 310 L 184 310 Z" fill="#ffffff"/>			<path d="M 198.1719 310 L 217.5781 310 L 217.5781 304.0938 L 204.0938 304.0938 L 204.0938 271.1875 L 198.1719 271.1875 L 198.1719 310 L 198.1719 310 Z" fill="#ffffff"/>			<path d="M 225 310 L 243.0469 310 L 243.0469 304 L 231 304 L 231 297 L 243.0469 297 L 243.0469 291 L 231 291 L 231 277 L 243.0469 277 L 243.0469 271 L 225 271 L 225 310 L 225 310 Z" fill="#ffffff"/>		</g>		<g>			<path d="M 120.841 487.1402 L 123.9315 493.2254 L 131.3905 492.4415 L 107.9172 446.3929 L 94.4999 496.3188 L 101.9588 495.5349 L 103.7477 488.9367 L 120.841 487.1402 L 120.841 487.1402 ZM 109.9588 465.8171 L 117.4366 480.4594 L 105.6888 481.6942 L 109.9588 465.8171 L 109.9588 465.8171 Z" fill="#ffffff"/>			<path d="M 121.4771 446.853 L 141.8703 493.1939 L 147.6503 465.3748 L 159.0879 491.3842 L 169.3696 441.8192 L 162.0661 442.5869 L 156.6903 468.5724 L 145.2462 442.5008 L 139.4727 470.382 L 128.7806 446.0853 L 121.4771 446.853 L 121.4771 446.853 Z" fill="#ffffff"/>			<path d="M 196.4247 479.196 L 199.5152 485.2813 L 206.9741 484.4973 L 183.5009 438.4486 L 170.0836 488.3746 L 177.5425 487.5907 L 179.3314 480.9926 L 196.4247 479.196 L 196.4247 479.196 ZM 185.5425 457.8729 L 193.0202 472.5152 L 181.2724 473.75 L 185.5425 457.8729 L 185.5425 457.8729 Z" fill="#ffffff"/>			<path d="M 214.8291 471.637 L 216.0639 483.3848 L 224.0201 482.5486 L 222.7853 470.8008 L 231.2082 435.5397 L 223.8425 436.3138 L 217.967 463.0746 L 206.6249 438.1235 L 199.2592 438.8976 L 214.8291 471.637 L 214.8291 471.637 Z" fill="#ffffff"/>			<path d="M 243.4416 466.4301 L 249.4088 465.8029 L 246.0639 433.9783 L 240.0967 434.6054 L 243.4416 466.4301 L 243.4416 466.4301 ZM 244.905 480.3534 L 250.8722 479.7263 L 250.1405 472.7646 L 244.1733 473.3918 L 244.905 480.3534 L 244.905 480.3534 Z" fill="#ffffff"/>		</g>		<g>			<path d="M 60.9088 399.7823 C 62.2301 399.3803 63.4135 398.7623 64.49 397.9311 C 65.5496 397.1141 66.405 396.1223 67.0688 394.9884 C 67.7171 393.8531 68.1062 392.6324 68.222 391.3093 C 68.3161 389.8745 68.1747 388.623 67.8301 387.542 C 67.4699 386.4597 66.9547 385.5362 66.283 384.7874 C 65.6114 384.0385 64.9132 383.4127 64.2042 382.9115 C 63.4952 382.4103 62.5582 381.8264 61.4242 381.1626 C 59.7517 380.2007 58.538 379.373 57.8169 378.6511 C 57.0958 377.9293 56.7674 377.0222 56.8315 375.9299 C 56.9323 374.778 57.5034 373.8085 58.5447 373.0212 C 59.586 372.234 60.8227 371.903 62.225 372.01 C 62.8476 372.0645 63.4309 372.2097 63.9776 372.4143 C 64.5244 372.619 64.9892 372.8636 65.4046 373.1352 C 65.8045 373.4054 66.1164 373.6053 66.3417 373.7191 C 66.567 373.8329 66.9797 374.1357 67.5669 374.5948 L 68.019 369.4271 C 67.0164 368.6963 66.1206 368.1787 65.333 367.8589 C 64.5298 367.5376 63.6392 367.3185 62.6458 367.2003 C 61.3071 367.0832 60.0259 367.2063 58.7892 367.5373 C 57.5512 367.8839 56.4213 368.4281 55.4166 369.1558 C 54.4118 369.8835 53.5816 370.7676 52.9273 371.7926 C 52.2716 372.8332 51.8737 373.9747 51.7025 375.2145 C 51.5908 376.4909 51.7107 377.6307 52.0635 378.6183 C 52.4162 379.6059 52.9058 380.4644 53.5463 381.2105 C 54.1868 381.9567 54.868 382.5966 55.5899 383.1303 C 56.3117 383.664 57.2007 384.2594 58.2569 384.9164 C 60.0119 386.011 61.2486 386.9349 61.9953 387.7217 C 62.7421 388.5085 63.0651 389.4779 62.9643 390.6297 C 62.8418 392.0306 62.253 393.2025 61.2136 394.1468 C 60.1743 395.091 58.9166 395.4829 57.4534 395.3549 C 56.7374 395.2922 56.0153 395.1193 55.3028 394.8374 C 54.5903 394.5555 53.9455 394.2167 53.3826 393.8381 C 52.8042 393.4581 52.3177 393.1018 51.9233 392.7693 C 51.5289 392.4368 50.9865 391.8247 50.2959 390.933 L 49.7567 397.097 C 50.9202 398.1398 52.0318 398.8802 53.1056 399.3349 C 54.1639 399.7882 55.4253 400.0711 56.8573 400.1964 C 58.2271 400.3162 59.5875 400.1843 60.9088 399.7823 L 60.9088 399.7823 Z" fill="#ffffff"/>			<path d="M 98.5424 370.6702 L 93.5614 370.2344 L 92.0798 387.1697 L 81.1217 386.211 L 82.6033 369.2757 L 77.6223 368.8399 L 74.7462 401.7144 L 79.7271 402.1501 L 80.6859 391.192 L 91.644 392.1507 L 90.6853 403.1089 L 95.6663 403.5446 L 98.5424 370.6702 L 98.5424 370.6702 Z" fill="#ffffff"/>			<path d="M 102.6396 404.1547 L 117.8471 405.4852 L 118.2829 400.5042 L 108.0564 399.6095 L 108.5793 393.6323 L 118.8059 394.527 L 119.2416 389.5461 L 109.0151 388.6514 L 110.061 376.697 L 120.2875 377.5917 L 120.7233 372.6107 L 105.5158 371.2803 L 102.6396 404.1547 L 102.6396 404.1547 Z" fill="#ffffff"/>			<path d="M 141.4912 407.5538 L 146.4722 407.9895 L 149.3483 375.1151 L 144.3673 374.6793 L 141.4912 407.5538 L 141.4912 407.5538 Z" fill="#ffffff"/>			<path d="M 164.513 408.8464 C 165.8343 408.4444 167.0177 407.8264 168.0942 406.9952 C 169.1538 406.1782 170.0091 405.1865 170.673 404.0525 C 171.3213 402.9172 171.7104 401.6965 171.8262 400.3734 C 171.9203 398.9386 171.7788 397.6872 171.4342 396.6061 C 171.0741 395.5238 170.5589 394.6003 169.8872 393.8515 C 169.2155 393.1026 168.5174 392.4768 167.8084 391.9756 C 167.0994 391.4745 166.1623 390.8906 165.0284 390.2267 C 163.3559 389.2648 162.1421 388.4371 161.4211 387.7152 C 160.7 386.9934 160.3715 386.0863 160.4357 384.994 C 160.5365 383.8422 161.1075 382.8726 162.1489 382.0854 C 163.1902 381.2981 164.4269 380.9672 165.8291 381.0742 C 166.4518 381.1286 167.0351 381.2738 167.5818 381.4785 C 168.1286 381.6831 168.5934 381.9277 169.0088 382.1993 C 169.4086 382.4695 169.7205 382.6694 169.9458 382.7832 C 170.1712 382.897 170.5838 383.1998 171.1711 383.6589 L 171.6232 378.4912 C 170.6205 377.7604 169.7247 377.2428 168.9371 376.923 C 168.1339 376.6017 167.2434 376.3827 166.2499 376.2644 C 164.9113 376.1473 163.6301 376.2704 162.3934 376.6014 C 161.1553 376.948 160.0255 377.4922 159.0208 378.2199 C 158.016 378.9476 157.1858 379.8317 156.5315 380.8567 C 155.8758 381.8973 155.4779 383.0388 155.3067 384.2786 C 155.195 385.555 155.3149 386.6948 155.6676 387.6824 C 156.0204 388.67 156.5099 389.5285 157.1505 390.2747 C 157.791 391.0208 158.4722 391.6607 159.1941 392.1945 C 159.9159 392.7281 160.8049 393.3235 161.861 393.9806 C 163.6161 395.0752 164.8528 395.999 165.5995 396.7858 C 166.3463 397.5726 166.6693 398.542 166.5685 399.6938 C 166.4459 401.0947 165.8572 402.2666 164.8178 403.2109 C 163.7784 404.1552 162.5207 404.547 161.0576 404.419 C 160.3416 404.3564 159.6195 404.1834 158.907 403.9015 C 158.1945 403.6196 157.5497 403.2808 156.9868 402.9022 C 156.4083 402.5222 155.9219 402.166 155.5275 401.8334 C 155.1331 401.5009 154.5907 400.8888 153.9001 399.9971 L 153.3608 406.1611 C 154.5244 407.2039 155.636 407.9443 156.7098 408.399 C 157.7681 408.8523 159.0294 409.1352 160.4615 409.2605 C 161.8312 409.3803 163.1917 409.2484 164.513 408.8464 L 164.513 408.8464 Z" fill="#ffffff"/>		</g>		<path d="M 65.63 435.105 L 67.459 436.3314 L 62.035 438.38 L 65.63 435.105 ZM 318.245 202.625 L 318.2391 202.5874 L 319.71 203.005 L 318.245 202.625 ZM 33.57 168.695 L 37.3126 168.0575 L 36.575 170.33 L 33.57 168.695 ZM 134.5 -32 L 126.1287 -18.8871 L 115.8512 -31.0222 L 109.518 -17.1383 L 97.4966 -28.1043 L 93.3013 -13.6684 L 79.7255 -23.2923 L 77.7343 -8.532 L 62.8181 -16.662 L 63.0626 -1.8102 L 47.0413 -8.3181 L 49.5175 6.3911 L 32.6438 1.6079 L 37.3126 15.9425 L 19.8525 12.9594 L 26.6404 26.6934 L 8.8694 25.5575 L 17.6692 38.4741 L -0.1325 39.2034 L 10.5405 51.099 L -7.0111 53.6819 L 5.3667 64.369 L -11.6581 68.7647 L 2.2294 78.0747 L -14 84.214 L 1.1782 92 L -14 99.786 L 2.2294 105.9253 L -11.6581 115.2353 L 5.3667 119.631 L -7.0111 130.3181 L 10.5405 132.901 L -0.1325 144.7966 L 17.6692 145.5259 L 8.8694 158.4425 L 26.6404 157.3066 L 19.8525 171.0406 L 31.82 168.995 L 31.9205 175.2166 L 23.8289 171.9364 L 25.0795 179.3503 L 16.5575 176.9395 L 18.9154 184.1646 L 10.0972 182.661 L 13.5254 189.5833 L 4.5502 189.0108 L 8.9945 195.5212 L 0.0038 195.8888 L 5.3942 201.8846 L -3.4703 203.1864 L 2.7812 208.5731 L -5.8172 210.7887 L 1.1967 215.4812 L -7 218.5756 L 0.6657 222.5 L -7 226.4244 L 1.1967 229.5188 L -5.8172 234.2113 L 2.7812 236.4269 L -3.4703 241.8136 L 5.3942 243.1154 L 0.0038 249.1112 L 8.9945 249.4788 L 4.5502 255.9892 L 13.5254 255.4167 L 10.0972 262.339 L 18.9154 260.8354 L 16.5575 268.0605 L 25.0795 265.6497 L 23.8289 273.0636 L 31.9205 269.7834 L 31.797 277.2692 L 39.3305 273.1714 L 40.3361 280.6111 L 42.53 279.06 L 41.8675 279.7966 L 48.445 280.065 L 49.3114 283.0364 L 52.395 280.225 L 56.705 280.405 L 57.93 283.08 L 50.8694 293.4425 L 68.6404 292.3066 L 61.8525 306.0406 L 79.3126 303.0575 L 74.6438 317.3921 L 91.5175 312.6089 L 90.475 318.805 L 89.4186 316.4928 L 84.228 322.6093 L 80 316 L 75.772 322.6093 L 70.5814 316.4928 L 67.3828 323.4908 L 61.3114 317.9636 L 59.1926 325.2397 L 52.3361 320.389 L 51.3305 327.8286 L 43.797 323.7309 L 43.9205 331.2166 L 35.8289 327.9364 L 37.0795 335.3503 L 28.5575 332.9395 L 30.9154 340.1646 L 22.0972 338.661 L 25.5254 345.5833 L 16.5502 345.0108 L 20.9945 351.5212 L 12.0038 351.8888 L 17.3942 357.8846 L 8.5297 359.1864 L 14.7812 364.5731 L 6.1828 366.7887 L 13.1967 371.4812 L 5 374.5756 L 12.6657 378.5 L 5 382.4244 L 13.1967 385.5188 L 6.1828 390.2113 L 14.7812 392.4269 L 8.5297 397.8136 L 17.3942 399.1154 L 12.0038 405.1112 L 20.9945 405.4788 L 16.5502 411.9892 L 25.5254 411.4167 L 22.0972 418.339 L 30.9154 416.8354 L 28.5575 424.0605 L 37.0795 421.6497 L 35.8289 429.0636 L 43.9205 425.7834 L 43.797 433.2692 L 51.3305 429.1714 L 52.3361 436.6111 L 59.1926 431.7603 L 61.21 438.69 L 55 441.0349 L 66.6519 447 L 55 452.9651 L 67.459 457.6686 L 56.7979 464.8012 L 69.8674 468.1689 L 60.3652 476.3566 L 73.8391 478.3354 L 65.6458 487.449 L 79.3117 488.0078 L 72.5563 497.9036 L 86.1987 497.0333 L 80.9878 507.5553 L 94.3915 505.2698 L 90.8074 516.252 L 103.7609 512.5875 L 101.86 523.8566 L 114.1591 518.8707 L 113.9715 530.2491 L 125.4223 524.0205 L 126.9509 535.3288 L 137.3727 527.9556 L 140.5933 539.0154 L 149.8219 530.614 L 150 531.005 L 150 632 L 45.53 632 C 31.43 632 20 643.43 20 657.53 L 20 744.47 C 20 758.57 31.43 770 45.53 770 L 266.47 770 C 280.57 770 292 758.57 292 744.47 L 292 657.53 C 292 643.43 280.57 632 266.47 632 L 162 632 L 162 532.63 L 162.5735 531.9538 L 169 542 L 175.4265 531.9538 L 183.3163 541.2509 L 188.1782 530.614 L 197.4067 539.0154 L 200.6273 527.9556 L 211.0492 535.3288 L 212.5778 524.0205 L 224.0285 530.2491 L 223.8409 518.8707 L 236.14 523.8566 L 234.2391 512.5875 L 247.1927 516.252 L 243.6086 505.2698 L 257.0122 507.5553 L 251.8014 497.0333 L 265.4437 497.9036 L 258.6883 488.0078 L 272.3542 487.449 L 264.1609 478.3354 L 277.6348 476.3566 L 268.1326 468.1689 L 281.2021 464.8012 L 270.5411 457.6686 L 283 452.9651 L 271.3481 447 L 283 441.0349 L 270.5411 436.3314 L 281.2021 429.1988 L 268.1326 425.8311 L 277.6348 417.6434 L 264.1609 415.6646 L 272.3542 406.551 L 258.6883 405.9923 L 265.4437 396.0965 L 251.8014 396.9667 L 257.0122 386.4447 L 243.6086 388.7302 L 247.1927 377.748 L 234.2391 381.4125 L 236.14 370.1434 L 223.8409 375.1293 L 224.0285 363.7509 L 212.5778 369.9795 L 211.855 364.65 L 212 364.5756 L 211.835 364.515 L 211.0492 358.6712 L 205.94 362.285 L 203.8033 361.4812 L 210.8172 356.7887 L 202.2188 354.5731 L 208.4703 349.1864 L 199.6059 347.8846 L 204.9962 341.8888 L 198.97 341.645 L 201.4821 336.1383 L 213.5035 347.1043 L 217.6987 332.6684 L 231.2746 342.2923 L 233.2657 327.532 L 248.1819 335.662 L 247.9374 320.8102 L 263.9587 327.3181 L 261.4825 312.6089 L 278.3563 317.3921 L 273.6875 303.0575 L 291.1475 306.0406 L 284.3597 292.3066 L 302.1306 293.4425 L 293.3308 280.5259 L 311.1325 279.7966 L 300.4596 267.901 L 318.0112 265.3181 L 305.6333 254.631 L 322.6581 250.2353 L 308.7706 240.9253 L 325 234.786 L 309.8219 227 L 325 219.214 L 308.7706 213.0747 L 312.33 210.69 L 320.14 213.8566 L 318.865 206.305 L 322.58 203.815 L 331.1927 206.252 L 327.6086 195.2699 L 341.0122 197.5553 L 335.8014 187.0333 L 349.4437 187.9035 L 342.6883 178.0077 L 356.3542 177.449 L 348.1609 168.3354 L 361.6348 166.3566 L 352.1326 158.1689 L 365.2021 154.8012 L 357.96 149.955 L 422 144 L 357.97 110.8 L 361.6348 107.6434 L 348.1609 105.6646 L 356.3542 96.551 L 342.6883 95.9923 L 349.4437 86.0965 L 335.8014 86.9667 L 341.0122 76.4447 L 327.6086 78.7301 L 331.1927 67.748 L 318.2391 71.4126 L 320.14 60.1434 L 307.8409 65.1293 L 308.0285 53.7509 L 296.5778 59.9795 L 295.0492 48.6712 L 284.6273 56.0444 L 281.4067 44.9846 L 272.43 53.155 L 272.045 53.1 L 267.3163 42.7491 L 260.035 51.33 L 258.86 51.155 L 258.67 50.86 L 269.1325 39.2034 L 251.3308 38.4741 L 260.1306 25.5575 L 242.3597 26.6934 L 249.1475 12.9594 L 231.6875 15.9425 L 236.3563 1.6079 L 219.4825 6.3911 L 221.9587 -8.3181 L 205.9374 -1.8102 L 206.1819 -16.662 L 191.2657 -8.532 L 189.2746 -23.2923 L 175.6987 -13.6684 L 171.5035 -28.1043 L 159.4821 -17.1383 L 153.1488 -31.0222 L 142.8713 -18.8871 L 134.5 -32 Z" stroke="#ffffff" stroke-width="2" fill="none"/>	</g></svg>