<?xml version="1.0" standalone="no"?><!-- Generator: Adobe Fireworks CS5, Export SVG Extension by Aaron Beall (http://fireworks.abeall.com) . Version: 0.6.1  --><!DOCTYPE svg PUBLIC "-//W3C//DTD SVG 1.1//EN" "http://www.w3.org/Graphics/SVG/1.1/DTD/svg11.dtd"><svg id="morris_ch02p02-Page%201" viewBox="0 0 800 800" style="background-color:#ffffff" version="1.1"	xmlns="http://www.w3.org/2000/svg" xmlns:xlink="http://www.w3.org/1999/xlink" xml:space="preserve"	x="0px" y="0px" width="800px" height="800px">	<defs>		<linearGradient id="gradient1" x1="91%" y1="-2.75%" x2="50%" y2="73.5%">			<stop stop-color="#0b0f18" stop-opacity="1" offset="0%"/>			<stop stop-color="#111325" stop-opacity="1" offset="100%"/>		</linearGradient>		<radialGradient id="gradient2" cx="33.3334%" cy="16.418%" r="45.1984%">			<stop stop-color="#c8a078" stop-opacity="1" offset="0%"/>			<stop stop-color="#ffcc99" stop-opacity="1" offset="100%"/>		</radialGradient>		<linearGradient id="gradient3" x1="50%" y1="0%" x2="50%" y2="100%">			<stop stop-color="#0b0f18" stop-opacity="1" offset="0%"/>			<stop stop-color="#111325" stop-opacity="1" offset="100%"/>		</linearGradient>		<linearGradient id="gradient4" x1="-33.3333%" y1="47.3961%" x2="56.994%" y2="46.677%">			<stop stop-color="#000000" stop-opacity="1" offset="0%"/>			<stop stop-color="#ffffcc" stop-opacity="1" offset="100%"/>		</linearGradient>		<linearGradient id="gradient5" x1="57.732%" y1="-25.3395%" x2="57.732%" y2="29.4532%">			<stop stop-color="#000000" stop-opacity="1" offset="0%"/>			<stop stop-color="#ffffff" stop-opacity="1" offset="100%"/>		</linearGradient>	</defs>	<g id="Background">		<rect x="0" y="0" width="800" height="800" fill="url(#gradient1)"/>		<path d="M 241.2 540 L 799 540 L 799 0 L 479.765 0 C 440.2391 83.9825 285.9123 437.4498 241.2 540 Z" fill="#181c27"/>	</g>	<g id="furniture">		<rect x="45.5831" y="705.2636" width="31.8817" height="46.7364" fill="#cccccc"/>		<rect x="691.1868" y="704.1237" width="31.8817" height="46.7363" fill="#cccccc"/>		<rect x="124.9306" y="675.6054" width="31.8817" height="46.7362" fill="#cccccc"/>		<rect x="613.8893" y="676.7453" width="31.8817" height="46.7362" fill="#cccccc"/>		<path d="M 47.8604 570.7546 L 749.257 570.7546 L 779.5508 658.0256 L -6 650.3391 L 47.8604 570.7546 Z" fill="#2b345d"/>		<path d="M -2.2394 651.688 L 780 651.688 L 748.1183 714.3831 L 25.0878 714.3831 L -2.2394 651.688 Z" fill="#45527c"/>		<path d="M 14 387 L 777.1183 286 L 748.1183 575.3142 L 46.7217 575.3142 L 14 387 Z" fill="#45527c"/>	</g>	<g id="baby%20morris">		<rect x="30" y="71" width="216" height="216" stroke="#666666" stroke-width="2" fill="none" rx="17.28" ry="17.28"/>		<rect x="43" y="81" width="190" height="191" fill="#8358c3" rx="15.2" ry="15.2"/>		<g>			<path d="M 56.4375 179.8359 C 56.4375 179.8359 60.9167 193.0853 56.4375 198.915 C 56.4375 198.915 68.0306 199.975 65.9228 185.7981 L 56.4375 179.8359 Z" fill="#ff0000"/>			<path id="Ellipse" d="M 43 153.6021 C 43 125.9418 67.5952 103.5194 97.9357 103.5194 C 128.2762 103.5194 152.8713 125.9418 152.8713 153.6021 C 152.8713 181.2624 128.2762 203.6848 97.9357 203.6848 C 67.5952 203.6848 43 181.2624 43 153.6021 Z" fill="#ff0000"/>			<path d="M 58.8088 132.1381 C 58.8088 132.1381 35.886 156.252 48.9283 177.451 L 48.9283 172.2837 L 52.8805 181.8233 L 53.6709 178.6434 L 63.5515 192.1578 C 63.5515 192.1578 76.462 149.8923 76.5938 148.4348 C 76.7255 146.9774 58.8088 132.1381 58.8088 132.1381 Z" fill="#ff0000"/>			<path d="M 54.4614 174.6686 C 54.4614 174.6686 63.5515 178.5109 65.5276 213.2243 C 65.5276 213.2243 51.4314 233.0984 78.1746 249.3952 L 130.3438 233.4959 L 169.8658 229.5211 L 184.489 224.7513 C 184.489 224.7513 181.5907 211.3695 185.6746 210.442 C 189.7586 209.5145 186.0699 209.2495 186.0699 209.2495 C 186.0699 209.2495 192.9203 185.9306 172.6324 183.0157 C 172.6324 183.0157 162.1731 173.0098 157.4451 153.3766 C 157.3681 153.0569 157.2927 152.7345 157.2188 152.4096 C 152.6078 132.1381 54.4614 174.6686 54.4614 174.6686 Z" fill="#ff0000"/>			<path d="M 127.9724 205.2747 L 138.2482 222.7639 L 118.4871 231.906 L 109.7923 215.2118 L 127.9724 205.2747 Z" fill="url(#gradient2)"/>			<path id="Ellipse2" d="M 68.6893 197.9213 C 68.6893 194.2991 71.1665 191.3628 74.2224 191.3628 C 77.2783 191.3628 79.7555 194.2991 79.7555 197.9213 C 79.7555 201.5435 77.2783 204.4798 74.2224 204.4798 C 71.1665 204.4798 68.6893 201.5435 68.6893 197.9213 Z" fill="#dcb084"/>			<path id="Ellipse3" d="M 134.2959 194.3439 C 134.2959 190.7218 136.7732 187.7855 139.8291 187.7855 C 142.8849 187.7855 145.3621 190.7218 145.3621 194.3439 C 145.3621 197.9662 142.8849 200.9024 139.8291 200.9024 C 136.7732 200.9024 134.2959 197.9662 134.2959 194.3439 Z" fill="#dcb084"/>			<path id="Ellipse4" d="M 52.0901 161.353 C 52.0901 131.6072 76.0659 107.4942 105.6425 107.4942 C 135.219 107.4942 159.1949 131.6072 159.1949 161.353 C 159.1949 191.0988 113.0053 218.5241 104.9179 218.5241 C 94.8544 218.5241 52.0901 191.0988 52.0901 161.353 Z" stroke="#eabb8c" stroke-width="1" fill="#ffcc99"/>			<g>				<path id="Ellipse5" d="M 63.429 173.0865 C 63.9689 170.458 74.1751 165.5602 82.5492 168.7671 C 90.9233 171.9741 95.9397 179.1072 93.7539 184.6997 C 91.5681 190.2923 83.0078 192.2261 74.6337 189.0192 C 66.2596 185.8122 62.2222 178.9625 63.429 173.0865 Z" fill="#000000"/>				<path id="Ellipse6" d="M 66.8059 174.4538 C 67.2667 172.0881 75.9794 167.6801 83.128 170.5663 C 90.2766 173.4526 94.5589 179.8724 92.6929 184.9057 C 90.827 189.9389 83.5195 191.6794 76.3709 188.7932 C 69.2223 185.9069 65.7757 179.7422 66.8059 174.4538 Z" fill="#ffffff"/>				<path d="M 71.1703 168.0951 C 71.1703 168.0951 64.6076 169.8727 62.4621 166.9525 C 60.3166 164.0323 61.3263 167.3334 61.3263 167.3334 C 61.3263 167.3334 62.3077 175.8242 63.4916 178.4404 C 63.6502 178.791 63.8125 179.036 63.9766 179.1411 C 65.3648 180.0298 64.1028 172.6659 71.1703 168.0951 Z" fill="#000000"/>			</g>			<g>				<path id="Ellipse7" d="M 140.7669 173.0865 C 140.2271 170.458 130.0209 165.5602 121.6468 168.7671 C 113.2727 171.9741 108.2563 179.1072 110.4421 184.6997 C 112.6279 190.2923 121.1882 192.2261 129.5622 189.0192 C 137.9364 185.8122 141.9738 178.9625 140.7669 173.0865 Z" fill="#000000"/>				<path id="Ellipse8" d="M 137.3901 174.4538 C 136.9292 172.0881 128.2166 167.6801 121.068 170.5663 C 113.9194 173.4526 109.6371 179.8724 111.503 184.9057 C 113.369 189.9389 120.6765 191.6794 127.8251 188.7932 C 134.9737 185.9069 138.4203 179.7422 137.3901 174.4538 Z" fill="#ffffff"/>				<path d="M 133.0257 168.0951 C 133.0257 168.0951 139.5884 169.8727 141.7339 166.9525 C 143.8793 164.0323 142.8697 167.3334 142.8697 167.3334 C 142.8697 167.3334 141.8883 175.8242 140.7044 178.4404 C 140.5457 178.791 140.3835 179.036 140.2194 179.1411 C 138.8311 180.0298 140.0932 172.6659 133.0257 168.0951 Z" fill="#000000"/>			</g>			<path d="M 97.1452 203.9181 C 97.1452 207.0821 99.6224 209.647 102.6783 209.647 C 105.7342 209.647 108.2114 207.0821 108.2114 203.9181 C 108.2114 203.5671 108.1809 203.2234 108.1225 202.8898 C 107.6546 205.5632 105.3952 207.5905 102.6783 207.5905 C 99.9615 207.5905 97.702 205.5632 97.2341 202.8898 C 97.1758 203.2234 97.1452 203.5671 97.1452 203.9181 Z" fill="#ff0000"/>			<path id="Ellipse9" d="M 74.1992 182.1882 C 74.1992 177.5602 78.5217 173.8085 83.8539 173.8085 C 89.1861 173.8085 93.5085 177.5602 93.5085 182.1882 C 93.5085 186.8163 89.1861 190.5679 83.8539 190.5679 C 78.5217 190.5679 74.1992 186.8163 74.1992 182.1882 Z" fill="#000000"/>			<path id="Ellipse10" d="M 116.604 181.4264 C 116.604 176.7984 120.9265 173.0468 126.2587 173.0468 C 131.5909 173.0468 135.9134 176.7984 135.9134 181.4264 C 135.9134 186.0545 131.5909 189.8061 126.2587 189.8061 C 120.9265 189.8061 116.604 186.0545 116.604 181.4264 Z" fill="#000000"/>			<path d="M 50.5092 160.8534 C 50.5092 165.9679 51.7581 170.9199 53.8864 175.6213 L 54.5635 175.3538 C 53.6175 171.9499 52.1309 160.6492 52.1309 160.6492 L 52.9418 153.7053 L 54.5635 153.7053 L 57.8069 148.8038 L 59.4286 153.2968 L 61.8612 150.0291 L 61.8612 155.7476 L 69.1589 150.0291 L 67.5372 156.5645 L 75.6458 148.8038 L 75.2404 158.1984 L 82.5381 151.2545 L 80.1055 159.8322 L 92.6738 150.8461 L 89.4304 159.0153 L 97.1335 152.0714 L 96.7281 159.8322 L 104.0258 153.2968 L 104.0258 159.0153 L 111.3236 150.0291 L 112.1344 154.9307 L 117.8104 150.0291 L 115.7833 156.973 L 125.5136 149.6207 L 123.4865 155.7476 L 137.271 147.1699 L 133.2168 156.1561 L 144.1633 148.8038 L 140.9199 156.973 L 151.8665 152.4799 L 150.2448 158.6068 L 156.7316 156.5645 L 155.9208 160.6492 C 159.0291 163.7807 154.2991 179.4384 154.2991 179.4384 L 155.2154 178.789 C 158.4131 173.1644 160.3805 167.1307 160.3805 160.8534 C 160.3805 130.2859 135.7854 105.5068 105.4449 105.5068 C 75.1043 105.5068 50.5092 130.2859 50.5092 160.8534 Z" fill="#ff0000"/>			<path d="M 55.2518 162.9776 C 55.2518 162.9776 78.726 155.2328 85.541 157.6451 L 83.6479 159.9305 C 83.6479 159.9305 77.9687 157.0103 55.2518 162.9776 Z" fill="#000000"/>			<path d="M 139.0386 165.6937 C 139.0386 165.6937 115.5645 157.9488 108.7494 160.3611 L 110.6425 162.6465 C 110.6425 162.6465 116.3217 159.7263 139.0386 165.6937 Z" fill="#000000"/>			<path d="M 97.1452 194.9402 C 97.1452 194.9402 101.8879 192.5553 105.8401 194.5427 " stroke="#dcb084" stroke-width="2" fill="none"/>			<path d="M 135.8768 114.6488 C 135.8768 114.6488 152.3444 124.7184 153.6618 128.5607 L 151.6857 128.9582 L 157.614 134.1255 L 155.6379 135.3179 L 160.7757 144.0625 L 158.0092 143.665 L 161.9614 151.6147 L 157.2188 149.6273 C 157.2188 149.6273 137.853 136.1129 136.6673 133.3305 C 135.4816 130.5481 135.8768 114.6488 135.8768 114.6488 Z" fill="#ff0000"/>			<path d="M 76.1985 252.575 C 76.1985 252.575 76.989 244.4929 81.3364 242.2405 L 127.9724 220.7765 L 172.6324 215.6093 C 172.6324 215.6093 179.7463 215.3443 186.4651 220.7765 L 197.136 250.5876 L 84.4982 257.7423 L 76.1985 252.575 Z" fill="#ffcc99"/>			<path d="M 76.1985 252.575 L 77.7794 267.6794 L 200.5613 267.4144 L 186.4651 220.7765 C 179.7463 215.3443 172.6324 215.6093 172.6324 215.6093 L 151.579 218.0458 C 152.1642 219.6116 152.4761 221.2599 152.4761 222.9626 C 152.4761 233.1706 141.2402 241.4456 127.3796 241.4456 C 117.6171 241.4456 109.1576 237.3398 105.0081 231.3456 L 81.3364 242.2405 C 76.989 244.4929 76.1985 252.575 76.1985 252.575 Z" fill="#000000"/>			<path d="M 90.0313 226.3413 C 90.0313 226.3413 87.2647 238.6632 90.8217 247.4078 C 90.8217 247.4078 95.6961 255.0925 98.3309 254.96 C 98.3309 254.96 81.2047 255.3574 72.6415 247.0103 L 90.0313 226.3413 Z" fill="#ff0000"/>			<path d="M 94.7739 212.8269 C 94.7739 212.8269 92.0074 225.1488 95.5643 233.8934 C 95.5643 233.8934 100.4387 241.5781 103.0735 241.4456 C 103.0735 241.4456 85.9473 241.8431 77.3842 233.4959 L 94.7739 212.8269 Z" fill="#ff0000"/>			<path id="Ellipse11" d="M 72.6415 175.6623 C 72.6415 173.7964 74.234 172.2837 76.1985 172.2837 C 78.163 172.2837 79.7555 173.7964 79.7555 175.6623 C 79.7555 177.5283 78.163 179.0409 76.1985 179.0409 C 74.234 179.0409 72.6415 177.5283 72.6415 175.6623 Z" fill="#ffffff"/>			<path id="Ellipse12" d="M 115.3254 176.4573 C 115.3254 174.5913 116.9178 173.0787 118.8824 173.0787 C 120.8468 173.0787 122.4394 174.5913 122.4394 176.4573 C 122.4394 178.3233 120.8468 179.8359 118.8824 179.8359 C 116.9178 179.8359 115.3254 178.3233 115.3254 176.4573 Z" fill="#ffffff"/>			<path d="M 160.3805 163.5391 C 160.3805 163.5391 172.1054 179.0409 178.1655 174.6686 C 178.1655 174.6686 177.6385 190.1704 169.4706 190.5679 L 161.5662 177.451 L 160.3805 163.5391 Z" fill="#ff0000"/>			<path d="M 168.2849 214.0193 C 168.2849 214.0193 183.6985 229.3886 178.1655 235.4833 C 178.1655 235.4833 186.8603 229.9186 183.3033 217.9941 L 176.1893 205.6722 L 168.2849 214.0193 Z" fill="#ff0000"/>			<path d="M 155.6379 205.6722 C 155.6379 205.6722 171.0515 221.0415 165.5184 227.1362 C 165.5184 227.1362 174.2132 221.5715 170.6563 209.647 L 163.5423 197.3251 L 155.6379 205.6722 Z" fill="#ff0000"/>			<path d="M 148.3105 239.9492 C 148.3105 251.447 154.4182 261.5995 163.7419 267.6794 L 204.3468 267.6794 C 213.6705 261.5995 219.779 251.447 219.779 239.9492 C 219.779 221.3411 203.7804 206.2567 184.0448 206.2567 C 164.309 206.2567 148.3105 221.3411 148.3105 239.9492 Z" fill="#ffcc00"/>			<path id="Ellipse13" d="M 151.884 234.2909 C 151.884 217.6715 166.1683 204.1992 183.7895 204.1992 C 201.4107 204.1992 215.6951 217.6715 215.6951 234.2909 C 215.6951 250.9103 201.4107 264.3826 183.7895 264.3826 C 166.1683 264.3826 151.884 250.9103 151.884 234.2909 Z" fill="#ffffff"/>			<path id="Ellipse14" d="M 141.7894 196.6938 C 141.7894 175.5289 160.0734 158.3719 182.6286 158.3719 C 205.1836 158.3719 223.4677 175.5289 223.4677 196.6938 C 223.4677 217.8587 205.1836 235.0157 182.6286 235.0157 C 160.0734 235.0157 141.7894 217.8587 141.7894 196.6938 Z" fill="#ffcc00"/>			<path d="M 143.7161 186.71 C 143.7161 186.71 132.6555 192.7112 134.0168 198.5409 L 144.7371 203.1704 L 143.7161 186.71 Z" fill="#ffcc00"/>			<path d="M 221.1943 183.6237 C 221.1943 183.6237 232.2549 189.6248 230.8936 195.4546 L 220.1733 200.0841 L 221.1943 183.6237 Z" fill="#ffcc00"/>			<path d="M 143.2056 195.969 C 143.2056 195.969 135.7185 194.4258 134.5273 198.5409 C 134.5273 198.5409 141.8443 201.6272 142.6951 204.7136 C 142.6951 204.7136 141.504 197.8551 143.2056 195.969 Z" fill="#9d6b36"/>			<path d="M 222.8419 192.8826 C 222.8419 192.8826 230.3291 191.3395 231.5202 195.4546 C 231.5202 195.4546 224.2032 198.5409 223.3524 201.6272 C 223.3524 201.6272 224.5436 194.7687 222.8419 192.8826 Z" fill="#9d6b36"/>			<path id="Ellipse15" d="M 214.6741 179.5086 C 214.6741 179.5086 214.9026 179.5086 215.1846 179.5086 C 215.4665 179.5086 215.6951 179.5086 215.6951 179.5086 C 215.6951 179.5086 215.4665 179.5086 215.1846 179.5086 C 214.9026 179.5086 214.6741 179.5086 214.6741 179.5086 Z" stroke="#000000" stroke-width="1" fill="#ffffff"/>			<path d="M 137.0625 241.8431 C 137.0625 250.0753 156.0186 251.7801 183.3033 251.7801 C 210.5879 251.7801 229.5441 246.8954 229.5441 238.6632 C 229.5441 234.2113 225.3744 224.8989 215.1186 222.1677 C 211.6065 231.4298 199.2602 241.8431 183.5009 241.8431 C 167.6879 241.8431 154.4417 234.9099 150.9841 225.5999 C 140.5202 228.3331 137.0625 237.3394 137.0625 241.8431 Z" stroke="#ffcc00" stroke-width="1" fill="#ffffff"/>			<path d="M 136.6673 241.8431 C 136.6673 250.0753 140.3798 252.3306 167.6644 252.3306 C 170.466 252.3306 173.1796 252.2789 175.7941 252.1776 C 179.9839 249.1284 199.585 242.6485 204.4476 235.4833 C 198.5981 238.6644 191.4348 241.8431 183.1057 241.8431 C 167.2926 241.8431 156.1313 233.465 152.6737 224.1551 C 142.2098 226.8882 136.6673 237.3394 136.6673 241.8431 Z" stroke="#ffcc00" stroke-width="1" fill="#ffffff"/>			<path d="M 155.6379 231.5085 L 158.4044 231.906 L 158.4044 231.1111 L 153.2666 224.3539 L 151.2905 225.1488 L 155.6379 231.5085 Z" fill="#ffffff"/>			<path d="M 212.1544 229.5211 L 209.3879 229.9186 L 209.3879 229.1236 L 214.5257 222.3664 L 216.5018 223.1614 L 212.1544 229.5211 Z" fill="#ffffff"/>			<path d="M 218.3329 234.2909 C 218.3329 234.2909 216.5545 229.9186 208.4525 229.9186 C 208.4525 229.9186 199.1647 233.4959 199.3624 237.4707 C 199.3624 237.4707 211.6142 236.0796 213.1951 238.2657 C 213.1951 238.2657 219.5186 238.4644 218.3329 234.2909 Z" stroke="#ffcc00" stroke-width="1" fill="#ffffff"/>			<path d="M 152.0809 236.2783 C 152.0809 236.2783 153.8594 231.906 161.9614 231.906 C 161.9614 231.906 171.2491 235.4833 171.0515 239.4582 C 171.0515 239.4582 158.7996 238.067 157.2188 240.2531 C 157.2188 240.2531 150.8952 240.4519 152.0809 236.2783 Z" stroke="#ffcc00" stroke-width="1" fill="#ffffff"/>			<rect x="257.2096" y="254.2719" width="0.7904" height="0.795" fill="#000000"/>			<path d="M 149.822 219.5198 C 150.6742 220.5965 151.5859 221.6291 152.5512 222.6149 C 151.5076 224.4086 150.6209 226.7986 151.6857 228.7262 L 155.2585 225.1329 C 155.4343 225.282 155.6115 225.4298 155.79 225.5761 C 154.9011 227.2844 154.2882 229.3831 155.2426 231.1111 L 158.6317 227.7026 C 158.849 227.851 159.0672 227.9974 159.2877 228.1419 C 158.6803 229.6326 158.4157 231.2904 159.1949 232.701 L 162.0681 229.8113 C 168.1062 233.12 175.1315 235.0157 182.6286 235.0157 C 189.9337 235.0157 196.7912 233.2151 202.7244 230.0617 L 206.5349 233.8934 C 207.521 232.1082 206.8339 229.9269 205.8981 228.1895 L 206.2004 227.9908 L 210.4871 232.3035 C 211.6534 230.192 210.4789 227.5272 209.3207 225.6973 L 209.7791 225.3197 L 209.6966 225.5463 L 214.0441 229.9186 C 215.3269 227.5963 213.7783 224.6035 212.5338 222.7898 C 213.9146 221.397 215.1862 219.9082 216.3361 218.3341 L 188.2439 219.5841 L 174.4607 203.1237 L 149.822 219.5198 Z" fill="#ffcc00"/>			<path d="M 149.822 218.7248 C 150.6742 219.8016 151.5859 220.8341 152.5512 221.8199 C 151.5076 223.6136 150.6209 226.0036 151.6857 227.9312 L 155.2585 224.3379 C 155.4343 224.487 155.6115 224.6349 155.79 224.7812 C 154.9011 226.4894 154.2882 228.5882 155.2426 230.3161 L 158.6317 226.9077 C 158.849 227.0561 159.0672 227.2025 159.2877 227.3469 C 158.6803 228.8376 158.4157 230.4954 159.1949 231.906 L 162.0681 229.0163 C 168.1062 232.325 175.1315 234.2207 182.6286 234.2207 C 189.9337 234.2207 196.7912 232.4201 202.7244 229.2667 L 206.5349 233.0984 C 207.521 231.3133 206.8339 229.1319 205.8981 227.3946 L 206.2004 227.1959 L 210.4871 231.5085 C 211.6534 229.3971 210.4789 226.7322 209.3207 224.9024 L 209.7791 224.5247 L 209.6966 224.7513 L 214.0441 229.1236 C 215.3269 226.8013 213.7783 223.8086 212.5338 221.9948 C 213.9146 220.602 215.1862 219.1132 216.3361 217.5391 L 188.2439 218.7891 L 174.4607 202.3287 L 149.822 218.7248 Z" stroke="#ffcc00" stroke-width="1" fill="#ffffff"/>			<path d="M 166.1776 216.0301 C 166.1776 217.7347 167.5489 219.1165 169.2406 219.1165 C 170.9322 219.1165 172.3035 217.7347 172.3035 216.0301 C 172.3035 215.9081 172.2967 215.7884 172.2831 215.67 L 167.3696 213.5867 C 166.644 214.1512 166.1776 215.035 166.1776 216.0301 Z" fill="#000000"/>			<path d="M 196.807 216.5445 C 196.807 218.249 195.4357 219.6308 193.744 219.6308 C 192.0524 219.6308 190.6811 218.249 190.6811 216.5445 C 190.6811 216.4225 190.6879 216.3027 190.7015 216.1844 L 195.615 214.1012 C 196.3406 214.6656 196.807 215.5494 196.807 216.5445 Z" fill="#000000"/>			<path d="M 177.9189 221.4779 L 186.0867 221.4779 C 186.0867 221.4779 183.5343 224.5643 182.0028 225.0787 C 182.0028 225.0787 178.9399 224.7358 177.9189 221.4779 Z" fill="#000000"/>			<path d="M 168.7301 208.8287 L 173.3245 216.5445 L 174.8559 215.5157 L 168.7301 208.8287 Z" fill="#000000"/>			<path d="M 188.6391 215.5157 L 189.6601 216.5445 L 194.2545 210.3718 L 188.6391 215.5157 Z" fill="#000000"/>			<path d="M 186.0699 231.1111 C 185.9557 229.3385 184.2297 227.9312 182.1176 227.9312 C 180.0056 227.9312 178.2795 229.3385 178.1655 231.1111 L 179.0416 231.1111 C 179.0995 229.7597 180.4052 228.6794 182.0077 228.6794 C 183.6103 228.6794 184.916 229.7597 184.9738 231.1111 L 186.0699 231.1111 Z" fill="#000000"/>			<path d="M 196.3456 174.6686 C 196.3456 174.6686 205.4357 167.1165 215.3162 169.5014 L 211.7592 172.6812 C 211.7592 172.6812 222.0349 169.8988 223.6158 172.6812 L 218.478 175.8611 C 218.478 175.8611 226.3824 177.0535 227.1728 178.6434 L 215.7114 184.6057 L 196.3456 174.6686 Z" fill="#ffcc00"/>			<path d="M 182.4007 152.015 C 181.0919 151.869 166.8405 157.4164 164.95 154.6427 C 164.95 154.6427 159.8603 162.0879 178.9105 160.3361 C 178.9105 160.3361 183.7094 152.161 182.4007 152.015 Z" fill="#dcb084"/>			<path d="M 170.2747 172.052 L 175.238 155.3239 C 176.1078 152.3925 181.1665 151.2505 186.5218 152.7594 L 196.0247 155.4369 C 201.3253 156.9304 204.9499 160.4934 204.1358 163.4088 L 199.4905 180.044 C 198.6584 183.0236 193.6223 184.2623 188.226 182.797 L 178.5509 180.1699 C 173.098 178.6893 169.3857 175.0485 170.2747 172.052 Z" fill="#ffcc99"/>			<path d="M 176.7292 179.606 L 183.4186 159.1682 L 178.4742 180.9199 L 176.7292 179.606 Z" fill="#d5aa80"/>			<path d="M 186.7633 181.7958 L 193.8889 160.6281 L 188.5084 183.1097 L 186.7633 181.7958 Z" fill="#d5aa80"/>		</g>		<path opacity="0.1216" d="M 30 184.615 L 30 267.72 C 30 277.2636 37.7364 285 47.28 285 L 228.72 285 C 238.2636 285 246 277.2636 246 267.72 L 246 154.115 C 228.7499 152.0823 210.6537 151 192 151 C 127.2635 151 69.2415 164.0269 30 184.615 Z" fill="#ffffff"/>	</g>	<g id="Morris">		<path id="Ellipse16" opacity="0.3294" d="M 65 619.5 C 65 607.0734 142.4535 597 238 597 C 333.5465 597 411 607.0734 411 619.5 C 411 631.9266 333.5465 642 238 642 C 142.4535 642 65 631.9266 65 619.5 Z" fill="url(#gradient3)"/>		<g>			<path id="Ellipse17" d="M 62.9668 557.6859 C 62.9668 513.7054 112.8095 473.5398 174.2953 473.5398 C 235.7811 473.5398 285.6237 509.1919 285.6237 553.1722 C 285.6237 597.1526 235.7811 632.8047 174.2953 632.8047 C 112.8095 632.8047 62.9668 619.264 62.9668 557.6859 Z" fill="#ffcc00"/>			<path id="Ellipse18" d="M 147.5119 566.3906 C 147.5119 527.2178 180.7404 495.4629 221.7309 495.4629 C 262.7214 495.4629 295.9498 527.2178 295.9498 566.3906 C 295.9498 605.5634 278.5245 630.8704 223.667 630.8704 C 164.923 630.8704 147.5119 605.5634 147.5119 566.3906 Z" fill="#ffffff"/>			<path d="M 206.4224 626.7469 C 211.9084 627.3422 217.861 627.6464 224.3124 627.6464 C 279.1699 627.6464 296.5952 602.3395 296.5952 563.1666 C 296.5952 523.9938 263.3668 492.2389 222.3762 492.2389 C 218.3865 492.2389 214.4689 492.5398 210.6497 493.119 C 244.2592 499.8875 269.4892 528.3887 269.4892 562.5219 C 269.4892 599.4111 254.0365 624.0051 206.4224 626.7469 Z" fill="#cccccc"/>			<g>				<path d="M 197.8517 474.8293 C 197.8517 474.8293 181.7172 478.0534 170.7457 498.6869 C 170.7457 498.6869 177.8449 512.2277 188.171 511.5828 L 197.8517 474.8293 Z" fill="#c8a000"/>				<path d="M 173.3272 499.3317 C 173.3272 499.3317 182.1474 494.8181 184.2987 499.3317 L 191.3979 503.2005 L 187.5256 509.0036 C 187.5256 509.0036 178.7054 509.0036 173.3272 499.3317 Z" fill="#564500"/>			</g>			<g>				<path d="M 316.6021 479.343 C 316.6021 479.343 332.7366 482.5669 343.7081 503.2005 C 343.7081 503.2005 336.6089 516.7412 326.2828 516.0964 L 316.6021 479.343 Z" fill="#c8a000"/>				<path d="M 341.1266 503.8453 C 341.1266 503.8453 332.3064 499.3317 330.1551 503.8453 L 323.0559 507.714 L 326.9282 513.5172 C 326.9282 513.5172 335.7484 513.5172 341.1266 503.8453 Z" fill="#564500"/>			</g>			<path id="Ellipse19" d="M 186.2349 507.714 C 184.9441 458.0646 217.8403 440.0104 257.2269 440.0104 C 296.6134 440.0104 328.219 462.5782 328.8643 507.714 C 329.3328 540.4734 296.9362 567.0354 257.5496 567.0354 C 218.1631 567.0354 187.0863 540.4657 186.2349 507.714 Z" fill="#ffcc00"/>			<path d="M 195.196 536.5236 C 194.9328 538.2493 194.2425 544.6403 197.8517 547.6915 L 199.1425 545.7571 C 199.1425 545.7571 199.1425 552.2051 203.0148 552.8499 L 203.6602 548.3362 C 203.6602 548.3362 204.3056 553.4947 207.5325 554.7842 L 207.5325 549.9966 C 220.4038 560.5331 238.0636 567.0354 257.5496 567.0354 C 274.7033 567.0354 290.44 561.9955 302.7425 553.6011 L 302.744 561.877 C 305.9709 560.5874 306.6163 555.429 306.6163 555.429 L 307.2617 559.9426 C 311.134 559.2977 311.134 552.8499 311.134 552.8499 L 312.4248 554.7842 C 316.6198 551.2378 315.0063 543.1779 315.0063 543.1779 L 314.5304 543.3875 C 314.8255 543.0618 315.1177 542.7349 315.4048 542.4042 L 307.5667 538.0195 L 268.8438 537.3746 L 241.7377 501.9108 L 215.2771 531.5715 L 194.6506 535.6918 L 195.196 536.5236 Z" stroke="#999999" stroke-width="2" fill="#ffffff"/>			<path d="M 225.6032 538.4446 C 225.6032 539.1838 225.7003 539.9047 225.8834 540.5988 C 227.0819 536.0571 231.9909 532.6556 237.8654 532.6556 C 243.74 532.6556 248.649 536.0571 249.8474 540.5988 C 250.0306 539.9047 250.1277 539.1838 250.1277 538.4446 C 250.1277 532.8682 244.6378 528.3475 237.8654 528.3475 C 231.0931 528.3475 225.6032 532.8682 225.6032 538.4446 Z" fill="#000000"/>			<path d="M 274.0068 538.4446 C 274.0068 539.1838 274.104 539.9047 274.2871 540.5988 C 275.4856 536.0571 280.3946 532.6556 286.2691 532.6556 C 292.1436 532.6556 297.0526 536.0571 298.2511 540.5988 C 298.4343 539.9047 298.5314 539.1838 298.5314 538.4446 C 298.5314 532.8682 293.0414 528.3475 286.2691 528.3475 C 279.4968 528.3475 274.0068 532.8682 274.0068 538.4446 Z" fill="#000000"/>			<path d="M 247.5546 553.3357 C 247.8593 560.7177 259.6746 566.6105 261.675 566.6105 C 263.8689 566.6105 275.4907 560.7177 275.7953 553.3357 L 247.5546 553.3357 Z" fill="#000000"/>			<rect x="170.7457" y="593.4719" width="191.0332" height="39.9774" fill="#ffcc00"/>			<path d="M 219.1494 574.1282 L 244.9647 574.1282 C 244.9647 574.1282 260.4538 577.3522 255.2907 607.6577 C 255.2907 607.6577 234.6385 617.9744 224.3124 607.6577 L 224.3124 590.2481 L 217.2132 590.8929 L 219.1494 574.1282 Z" fill="#ffffff"/>			<path d="M 268.1984 443.2343 C 268.1984 443.2343 281.106 436.1415 296.5952 439.3655 L 289.496 443.8791 L 308.8575 443.2343 L 312.0844 444.5238 L 296.5952 452.9062 L 270.1346 456.775 L 268.1984 443.2343 Z" fill="#ffcc00"/>			<path d="M 127.5051 493.5285 C 127.5051 493.5285 114.5974 486.4358 99.1082 489.6597 L 106.2075 494.1733 L 86.846 493.5285 L 83.6191 494.8181 L 99.1082 503.2005 L 125.5689 507.0692 L 127.5051 493.5285 Z" fill="#ffcc00"/>			<path d="M 108.789 505.7796 C 108.789 505.7796 95.8813 498.6869 80.3922 501.9108 L 87.4914 506.4244 L 68.1299 505.7796 L 64.903 507.0692 L 80.3922 515.4516 L 106.8528 519.3204 L 108.789 505.7796 Z" fill="#ffcc00"/>			<path d="M 104.2713 517.386 C 104.2713 517.386 91.3637 510.2932 75.8745 513.5172 L 82.9737 518.0308 L 63.6122 517.386 L 60.3853 518.6756 L 75.8745 527.058 L 102.3352 530.9268 L 104.2713 517.386 Z" fill="#ffcc00"/>			<path d="M 213.9863 575.4177 L 245.61 575.4177 C 245.61 575.4177 253.0319 571.8714 255.2907 592.8274 L 257.2269 592.8274 C 257.2269 592.8274 258.8404 572.5162 246.2554 572.8386 L 212.0501 572.8386 L 213.9863 575.4177 Z" fill="#cccccc"/>			<path d="M 359.8427 593.4721 C 359.8427 593.4721 393.4026 588.3137 410.8279 610.2369 C 428.2532 632.1599 410.1825 612.816 410.1825 612.816 C 410.1825 612.816 395.984 604.4337 394.0479 611.5264 C 394.0479 611.5264 410.1825 617.3297 410.8279 624.4224 C 410.8279 624.4224 395.3387 613.4608 392.7572 620.5536 C 392.7572 620.5536 406.9556 623.7776 407.601 631.5151 L 359.1973 633.4495 L 359.8427 593.4721 Z" fill="#ffcc00"/>			<path d="M 148.8027 592.1825 L 178.4902 594.7617 L 186.2349 617.9744 C 186.2349 617.9744 173.3272 625.0672 170.7457 625.0672 C 168.1642 625.0672 148.8027 621.8432 148.8027 621.8432 L 148.8027 592.1825 Z" fill="#ffcc00"/>			<path d="M 313.7688 633.4495 L 359.8427 633.4495 L 362.4242 633.4495 L 362.4242 633.3464 L 408.2463 631.5151 C 407.601 623.7776 393.4026 620.5536 393.4026 620.5536 C 395.984 613.4608 411.4733 624.4224 411.4733 624.4224 C 410.8279 617.3297 394.6933 611.5264 394.6933 611.5264 C 396.6295 604.4337 410.8279 612.816 410.8279 612.816 C 410.8279 612.816 428.8986 632.1599 411.4733 610.2369 C 394.0479 588.3137 360.488 593.4721 360.488 593.4721 L 317.0667 593.4721 C 313.8517 601.2555 312.0844 609.7396 312.0844 618.6192 C 312.0844 623.712 312.6666 628.6746 313.7688 633.4495 Z" stroke="#999999" stroke-width="2" fill="#ffffff"/>			<path d="M 295.3044 577.3522 L 321.1197 577.3522 C 321.1197 577.3522 336.6089 580.5761 331.4459 610.8817 C 331.4459 610.8817 310.7936 621.1984 300.4675 610.8817 L 300.4675 593.4721 L 293.3683 594.1169 L 295.3044 577.3522 Z" stroke="#999999" stroke-width="2" fill="#ffffff"/>			<path d="M 80.3922 568.9697 C 80.3922 582.5732 121.5529 594.9839 161.7103 597.3409 C 161.4368 596.2768 151.0478 594.5307 150.7066 593.0046 C 114.1221 590.8161 85.0147 580.5433 80.4018 568.5378 C 80.395 568.6813 80.3922 568.8257 80.3922 568.9697 Z" fill="#c8a000"/>			<path d="M 296.5952 560.5874 C 296.5952 560.5874 298.2087 586.3793 294.6591 592.8274 L 291.4321 593.4721 C 291.4321 593.4721 294.6591 590.5705 296.5952 560.5874 Z" fill="#cccccc"/>		</g>	</g>	<g id="NJ">		<path d="M 708 577 L 741 582 L 718 587 L 744 597 L 720 600 L 747 611 L 706 611 L 708 577 Z" fill="#ffffcc"/>		<path d="M 674 371 C 674 371 691 370 692 387 L 713 504 L 707 573 L 679 582 L 666 528 L 650 449 L 661 392 L 674 371 Z" stroke="#000000" stroke-width="1" fill="url(#gradient4)"/>		<path id="Ellipse20" opacity="0.4118" d="M 491 591 C 491 583.2679 534.4277 577 588 577 C 641.5723 577 685 583.2679 685 591 C 685 598.7321 641.5723 605 588 605 C 534.4277 605 491 598.7321 491 591 Z" fill="#000000"/>		<path d="M 525 368 C 525 368 431 439 418 462 C 418 462 434 500 489 572 L 513 555 C 513 555 457 489 463 464 C 463 464 537 399 546 408 C 546 408 536 369 525 368 Z" stroke="#000000" stroke-width="1" fill="#ffffcc"/>		<path opacity="0.3686" d="M 523 379 L 523 420 L 504 430 C 504 430 514 388 523 379 Z" fill="#000000"/>		<path d="M 449 691.8065 C 449 722.4914 456.0909 751.2526 468.475 776 L 531.335 776 C 512.6991 756.3488 501 727.9874 501 696.4516 C 501 637.1248 542.413 589.0323 593.5 589.0323 C 644.587 589.0323 686 637.1248 686 696.4516 C 686 727.9874 674.3009 756.3488 655.665 776 L 718.525 776 C 730.9091 751.2526 738 722.4914 738 691.8065 C 738 599.1284 673.3062 524 593.5 524 C 513.6938 524 449 599.1284 449 691.8065 Z" fill="#ffffcc"/>		<path d="M 516 373 C 516 373 522 480 494 554 C 494 554 660 578 688 546 C 688 546 650 407 682 367 C 682 367 570 323 516 373 Z" fill="url(#gradient5)"/>		<path d="M 512 665 C 524.4176 622.6856 550.8595 601.0323 591.5 601.0323 C 631.7429 601.0323 658.2772 624.3315 671 666 C 689.6965 662.8113 729.8832 654.9516 746 650 C 729.4882 578.4315 670.9805 519.6642 591.5 517 C 502 514 460.8533 580.3073 445 653 C 461.2536 657.6143 493.3501 662.1238 512 665 Z" fill="#000000"/>		<path id="Ellipse21" d="M 527 363.5 C 527 336.1616 552.5193 314 584 314 C 615.4807 314 641 336.1616 641 363.5 C 641 390.8384 615.4807 413 584 413 C 552.5193 413 527 390.8384 527 363.5 Z" fill="#333333"/>		<path id="Ellipse22" d="M 528 360.5 C 528 333.1616 553.5193 311 585 311 C 616.4807 311 642 333.1616 642 360.5 C 642 387.8384 616.4807 410 585 410 C 553.5193 410 528 387.8384 528 360.5 Z" fill="#cfcfa6"/>		<path d="M 467.147 265.6672 C 460.9747 323.6871 504.5705 375.7408 564.5226 381.9341 C 610.5453 386.6886 652.8251 363.0375 672.7804 325.5427 C 673.5681 325.7087 674.3734 325.8331 675.1921 325.9176 C 687.8425 327.2245 699.1883 318.0302 700.5339 305.3813 C 701.7065 294.3587 694.8995 284.3518 684.7579 281.0957 C 686.8741 225.9451 644.4041 177.7714 586.8743 171.8282 C 526.9222 165.6348 473.3194 207.6473 467.147 265.6672 Z" stroke="#000000" stroke-width="1" fill="#ffffcc"/>		<path d="M 519 534 C 519 534 545 535 542 564 L 526 572 C 526 572 521.5 544 481.5 565 C 481.5 565 501 530 519 534 Z" fill="#ffffcc"/>		<path id="Ellipse23" d="M 541 300.5 C 541 279.789 558.0129 263 579 263 C 599.9871 263 617 279.789 617 300.5 C 617 321.211 599.9871 338 579 338 C 558.0129 338 541 321.211 541 300.5 Z" stroke="#000000" stroke-width="1" fill="#ffffff"/>		<path id="Ellipse24" d="M 459 303.5 C 459 282.789 476.0129 266 497 266 C 517.9871 266 535 282.789 535 303.5 C 535 324.211 517.9871 341 497 341 C 476.0129 341 459 324.211 459 303.5 Z" stroke="#000000" stroke-width="1" fill="#ffffff"/>		<path id="Ellipse25" d="M 462 304 C 462 286.3267 476.3267 272 494 272 C 511.6733 272 526 286.3267 526 304 C 526 321.6733 511.6733 336 494 336 C 476.3267 336 462 321.6733 462 304 Z" fill="#000000"/>		<path id="Ellipse26" d="M 543 302 C 543 284.3267 557.3267 270 575 270 C 592.6733 270 607 284.3267 607 302 C 607 319.6733 592.6733 334 575 334 C 557.3267 334 543 319.6733 543 302 Z" fill="#000000"/>		<path d="M 534 319 C 534 319 529 336 526 340 C 526 340 534 346 546 342 L 534 338 L 534 319 Z" stroke="#ffffff" stroke-width="1" fill="#000000"/>		<path d="M 520 518 C 520 518 538.772 494.2311 598.0787 484.3149 L 597.8419 491.6057 C 597.8419 491.6057 572.2035 483.7901 520 518 Z" fill="#666666"/>		<path d="M 460 463 C 460 463 439 456 433 461 L 462 469 L 460 463 Z" fill="#cfcfa6"/>		<path d="M 696.5917 276.1891 C 697.4256 247.9588 687.4014 221.4664 669.9431 200.7854 C 673.7507 185.1002 679.4543 165.6823 680.2966 164.3653 C 681.0214 163.2319 662.1597 172.398 646.9576 179.9127 C 641.9942 176.4755 636.7358 173.3911 631.2187 170.7063 C 630.9039 160.224 628.3621 150.9465 628.3621 150.9465 C 627.2837 156.7827 620.7614 161.0176 613.9658 163.9005 C 606.4124 161.5726 598.5059 159.9427 590.3188 159.0969 C 527.4505 152.6022 471.04 194.7466 461.325 254.1455 L 476.0785 247.2946 C 476.0785 247.2946 481.0739 261.9411 498.9321 258.3512 C 498.9321 258.3512 485.2935 242.8119 503.6092 234.9214 C 503.6092 234.9214 533.5932 230.1956 535.8887 254.6721 C 536.0132 256.0004 536.0564 257.4147 536.0087 258.9205 C 536.0087 258.9205 570.3015 254.8546 571.9661 228.9397 C 571.9661 228.9397 596.3576 235.8073 596.3452 256.4581 C 596.3452 256.4581 611.1514 260.8372 618.2939 245.9639 C 618.792 244.9266 619.2528 243.7958 619.6688 242.5633 C 626.0491 223.6573 653.0466 247.0983 649.9585 276.127 L 676.9049 289.7802 L 664.2076 316.7292 L 694.5977 277.4776 L 696.5917 276.1891 Z" fill="#000000"/>		<path d="M 422 771 C 422 772.688 422.0786 774.356 422.235 776 L 468.475 776 L 513.765 776 L 531.335 776 C 521.3405 765.461 513.3395 752.4156 508.07 737.72 C 506.2101 737.9994 504.3064 738.2343 502.365 738.425 C 493.9398 728.3464 481.666 722 468 722 C 442.5946 722 422 743.9377 422 771 Z" fill="#000000"/>		<path d="M 765.335 771 C 765.335 772.688 765.2563 774.356 765.1 776 L 718.86 776 L 673.5699 776 L 656 776 C 665.9945 765.461 673.9954 752.4156 679.265 737.72 C 681.1248 737.9994 683.0286 738.2343 684.97 738.425 C 693.3951 728.3464 705.6689 722 719.335 722 C 744.7404 722 765.335 743.9377 765.335 771 Z" fill="#000000"/>		<path d="M 679.6838 293.1603 C 679.6838 293.1603 693.8168 288.0768 695.9782 300.8839 C 695.9782 300.8839 684.9697 303.6681 685.86 303.0577 C 686.7504 302.4474 685.0732 305.1999 685.2778 306.8254 C 685.2778 306.8254 686.3375 320.5254 676.9295 319.0502 C 676.9295 319.0502 685.4579 309.8642 681.718 302.4308 C 681.718 302.4308 684.8433 296.7135 689.3248 297.1765 C 689.3248 297.1765 684.091 289.5888 679.6838 293.1603 Z" fill="#cfcfa6"/>		<g>			<g>				<path d="M 611.5403 438.9204 L 617.0516 448.9142 L 622.5629 438.9204 L 624.8394 427.7645 L 620.6459 429.8562 L 617.0516 423 L 613.4573 429.8562 L 609.2639 427.7645 L 611.5403 438.9204 Z" fill="#ff0000"/>				<path d="M 619.8802 441.8186 L 614.5469 451.8743 L 626.1873 450.6707 L 637 446.2122 L 632.8214 444.0218 L 636.635 437.2417 L 628.712 438.2304 L 628.0983 433.6548 L 619.8802 441.8186 Z" fill="#ff0000"/>				<path d="M 614.496 442.4463 L 619.8293 452.502 L 608.189 451.2984 L 597.3762 446.84 L 601.5549 444.6495 L 597.7412 437.8694 L 605.6644 438.8581 L 606.278 434.2826 L 614.496 442.4463 Z" fill="#ff0000"/>				<path d="M 606.8677 450.5412 L 604.5913 455.0733 L 617.411 454.0273 L 629.2723 454.957 L 626.7563 450.5412 L 606.8677 450.5412 Z" fill="#ff0000"/>				<rect x="616.5938" y="453.5871" width="2.1566" height="9.4129" fill="#ff0000"/>			</g>			<path d="M 564.6436 439.4456 C 564.6436 440.4997 564.855 441.5049 565.2351 442.421 L 564.6436 442.4782 C 564.6436 442.4782 573.0455 458.3152 578.0868 458.6522 C 578.0868 458.6522 592.5382 450.2283 592.2021 439.7826 C 592.2069 439.6706 592.2021 439.5588 592.2021 439.4456 C 592.2021 435.1654 588.7415 431.6956 584.4723 431.6956 C 582.0226 431.6956 579.8391 432.8379 578.4229 434.6204 C 577.0067 432.8379 574.8231 431.6956 572.3734 431.6956 C 568.1042 431.6956 564.6436 435.1654 564.6436 439.4456 Z" fill="#ff0000"/>			<rect x="550" y="436.913" width="6.0297" height="21.7391" fill="#ff0000"/>			<rect x="550" y="427.3479" width="5.1683" height="5.2174" fill="#ff0000"/>		</g>		<path d="M 451 654 C 451 654 488.6667 663.6667 507 664 C 507 664 502 675 500 684 C 500 684 490 661 451 654 Z" fill="#a1a181"/>		<path d="M 682 662 L 736 654 L 686 682 L 682 662 Z" fill="#a1a181"/>		<path d="M 579 366 C 579 354.4019 570.9413 345 561 345 C 551.0587 345 543 354.4019 543 366 L 579 366 Z" stroke="#ffffff" stroke-width="1" fill="#000000"/>		<path d="M 502 261 L 453 292 L 497 247 L 502 261 Z" stroke="#ffffff" stroke-width="1" fill="#000000"/>		<path d="M 577 261.7556 L 622 290 L 581.5918 249 L 577 261.7556 Z" stroke="#ffffff" stroke-width="1" fill="#000000"/>		<rect x="533" y="296" width="9" height="8" fill="#000000"/>		<rect x="614" y="290" width="68" height="4" fill="#000000"/>	</g>	<g id="text%20box">		<path opacity="0.4118" d="M 126.86 335 C 121.4144 335 117 339.4144 117 344.86 L 117 383.14 C 117 388.5856 121.4144 393 126.86 393 L 363.035 393 L 331 439 L 387.135 393 L 420.14 393 C 425.5856 393 430 388.5856 430 383.14 L 430 344.86 C 430 339.4144 425.5856 335 420.14 335 L 126.86 335 Z" fill="#0e111f"/>		<path opacity="0.4118" d="M 194.26 169 C 186.9366 169 181 174.9366 181 182.26 L 181 233.74 C 181 241.0634 186.9366 247 194.26 247 L 390.27 247 L 426 282 L 419.825 247 L 424.74 247 C 432.0634 247 438 241.0634 438 233.74 L 438 182.26 C 438 174.9366 432.0634 169 424.74 169 L 194.26 169 Z" stroke="#ffffff" stroke-width="2" fill="#0e111f"/>		<path opacity="0.4118" d="M 23.86 76 C 18.4144 76 14 80.4144 14 85.86 L 14 124.14 C 14 129.5856 18.4144 134 23.86 134 L 36.48 134 L 104 461 L 71.205 134 L 317.14 134 C 322.5856 134 327 129.5856 327 124.14 L 327 85.86 C 327 80.4144 322.5856 76 317.14 76 L 23.86 76 Z" fill="#000000"/>		<path d="M 175 119 L 175 94 L 171 94 L 171 109.0313 L 163.2969 94 L 160 94 L 160 119 L 164 119 L 164 103.5625 L 172.3438 119 L 175 119 L 175 119 Z" fill="#ffffff"/>		<path d="M 204.125 101.9063 C 203.4688 100.4063 202.5625 99.0938 201.4219 97.9844 C 200.2813 96.8906 198.9531 96.0156 197.4375 95.3594 C 195.9219 94.7188 194.2969 94.3906 192.5625 94.3906 C 190.8125 94.3906 189.1719 94.7188 187.6563 95.3594 C 186.1406 96.0156 184.8125 96.8906 183.6719 97.9844 C 182.5313 99.0938 181.6406 100.4063 180.9844 101.9063 C 180.3281 103.4219 180 105.0313 180 106.7188 C 180 108.4219 180.3281 110.0156 180.9844 111.5 C 181.6406 113 182.5313 114.2969 183.6719 115.4063 C 184.8125 116.5156 186.1406 117.3906 187.6563 118.0313 C 189.1719 118.6875 190.8125 119 192.5625 119 C 194.2969 119 195.9219 118.6875 197.4375 118.0313 C 198.9531 117.3906 200.2813 116.5156 201.4219 115.4063 C 202.5625 114.2969 203.4688 113 204.125 111.5 C 204.7813 110.0156 205.1094 108.4219 205.1094 106.7188 C 205.1094 105.0313 204.7813 103.4219 204.125 101.9063 L 204.125 101.9063 ZM 184.6719 103.3906 C 185.1094 102.3594 185.7188 101.4531 186.5 100.6875 C 187.2656 99.9219 188.1719 99.3281 189.2188 98.8906 C 190.25 98.4531 191.375 98.2344 192.5625 98.2344 C 193.7188 98.2344 194.8281 98.4531 195.875 98.8906 C 196.9063 99.3281 197.8125 99.9219 198.5938 100.6875 C 199.3594 101.4531 199.9688 102.3594 200.4063 103.3906 C 200.8438 104.4219 201.0781 105.5313 201.0781 106.7188 C 201.0781 107.9063 200.8438 109.0156 200.4063 110.0469 C 199.9688 111.0781 199.3594 111.9844 198.5938 112.75 C 197.8125 113.5313 196.9063 114.125 195.875 114.5625 C 194.8281 115 193.7188 115.2188 192.5625 115.2188 C 191.375 115.2188 190.25 115 189.2188 114.5625 C 188.1719 114.125 187.2656 113.5313 186.5 112.75 C 185.7188 111.9844 185.1094 111.0781 184.6719 110.0469 C 184.2344 109.0156 184.0156 107.9063 184.0156 106.7188 C 184.0156 105.5313 184.2344 104.4219 184.6719 103.3906 L 184.6719 103.3906 Z" fill="#ffffff"/>		<path d="M 248 197.4375 L 248 223 L 251.7188 223 L 251.7188 208.7344 L 263.0469 224.0781 L 263.0469 198.4219 L 259.3281 198.4219 L 259.3281 212.8125 L 248 197.4375 L 248 197.4375 Z" fill="#ffffff"/>		<path d="M 268 223 L 279.5781 223 L 279.5781 219 L 272 219 L 272 215 L 279.5781 215 L 279.5781 211 L 272 211 L 272 202 L 279.5781 202 L 279.5781 198 L 268 198 L 268 223 L 268 223 Z" fill="#ffffff"/>		<path d="M 299.7188 198 L 293.8594 213.4844 L 287.9844 198 L 284 198 L 293.8594 224 L 303.7031 198 L 299.7188 198 L 299.7188 198 Z" fill="#ffffff"/>		<path d="M 309 223 L 320.5781 223 L 320.5781 219 L 313 219 L 313 215 L 320.5781 215 L 320.5781 211 L 313 211 L 313 202 L 320.5781 202 L 320.5781 198 L 309 198 L 309 223 L 309 223 Z" fill="#ffffff"/>		<path d="M 329 202 L 329.2656 202 C 330.8438 202 332.1875 202.5938 333.3125 203.7656 C 334.4375 204.9375 335 206.3594 335 208.0156 C 335 209.6719 334.4375 211.0938 333.3125 212.2656 C 332.1875 213.4375 330.8438 214.0156 329.2656 214.0156 L 329 214.0156 L 329 202 L 329 202 ZM 335.9531 214.7813 C 337.9844 212.8594 339 210.5469 339 207.8281 C 339 205.125 338.0313 202.8125 336.0938 200.8906 C 334.1563 198.9688 331.8281 198 329.0938 198 L 325 198 L 325 223 L 329 223 L 329 217.7656 L 329.2813 217.7656 C 330.2813 217.7656 331.2188 217.6406 332.1094 217.375 L 334.75 223 L 338.7344 223 L 335 215.5938 C 335.3281 215.3438 335.6406 215.0781 335.9531 214.7813 L 335.9531 214.7813 Z" fill="#ffffff"/>		<path d="M 354.9844 208.9063 C 356.6094 207.875 357.375 206.1094 357.25 203.5781 C 357.25 200.6719 356.1875 198.8125 354.0625 198.0156 C 353.1094 197.6719 352.1875 197.4844 351.3125 197.4844 C 350.25 197.4844 349.2188 197.75 348.1875 198.25 C 346.2188 199.2031 344.9531 200.9688 344.375 203.5625 L 347.4063 204.9219 C 348.5938 202.7969 349.8594 201.7344 351.2031 201.7344 C 352.5313 201.7344 353.3125 202.4688 353.5313 203.9063 C 353.5 205.2969 352.75 206.6406 351.25 207.9375 C 349.75 209.25 349 211.0781 349 213.4219 L 349 216.0781 L 353 216.0781 C 352.6875 212.3281 353.3438 209.9375 354.9844 208.9063 L 354.9844 208.9063 ZM 349 219 L 349 223 L 353 223 L 353 219 L 349 219 L 349 219 Z" fill="#ffffff"/>		<path d="M 227 350.4375 L 227 376 L 230.7188 376 L 230.7188 361.7344 L 242.0469 377.0781 L 242.0469 351.4219 L 238.3281 351.4219 L 238.3281 365.8125 L 227 350.4375 L 227 350.4375 Z" fill="#ffffff"/>		<path d="M 247 376 L 258.5781 376 L 258.5781 372 L 251 372 L 251 368 L 258.5781 368 L 258.5781 364 L 251 364 L 251 355 L 258.5781 355 L 258.5781 351 L 247 351 L 247 376 L 247 376 Z" fill="#ffffff"/>		<path d="M 278.7188 351 L 272.8594 366.4844 L 266.9844 351 L 263 351 L 272.8594 377 L 282.7031 351 L 278.7188 351 L 278.7188 351 Z" fill="#ffffff"/>		<path d="M 288 376 L 299.5781 376 L 299.5781 372 L 292 372 L 292 368 L 299.5781 368 L 299.5781 364 L 292 364 L 292 355 L 299.5781 355 L 299.5781 351 L 288 351 L 288 376 L 288 376 Z" fill="#ffffff"/>		<path d="M 308 355 L 308.2656 355 C 309.8438 355 311.1875 355.5938 312.3125 356.7656 C 313.4375 357.9375 314 359.3594 314 361.0156 C 314 362.6719 313.4375 364.0938 312.3125 365.2656 C 311.1875 366.4375 309.8438 367.0156 308.2656 367.0156 L 308 367.0156 L 308 355 L 308 355 ZM 314.9531 367.7813 C 316.9844 365.8594 318 363.5469 318 360.8281 C 318 358.125 317.0313 355.8125 315.0938 353.8906 C 313.1563 351.9688 310.8281 351 308.0938 351 L 304 351 L 304 376 L 308 376 L 308 370.7656 L 308.2813 370.7656 C 309.2813 370.7656 310.2188 370.6406 311.1094 370.375 L 313.75 376 L 317.7344 376 L 314 368.5938 C 314.3281 368.3438 314.6406 368.0781 314.9531 367.7813 L 314.9531 367.7813 Z" fill="#ffffff"/>		<path d="M 323 376 L 326 376 L 326 372 L 323 372 L 323 376 L 323 376 Z" fill="#ffffff"/>		<path d="M 126.86 335 C 121.4144 335 117 339.4144 117 344.86 L 117 383.14 C 117 388.5856 121.4144 393 126.86 393 L 363.035 393 L 331 439 L 387.135 393 L 420.14 393 C 425.5856 393 430 388.5856 430 383.14 L 430 344.86 C 430 339.4144 425.5856 335 420.14 335 L 126.86 335 Z" stroke="#ffffff" stroke-width="2" fill="none"/>		<path d="M 194.26 169 C 186.9366 169 181 174.9366 181 182.26 L 181 233.74 C 181 241.0634 186.9366 247 194.26 247 L 390.27 247 L 426 282 L 419.825 247 L 424.74 247 C 432.0634 247 438 241.0634 438 233.74 L 438 182.26 C 438 174.9366 432.0634 169 424.74 169 L 194.26 169 Z" stroke="#ffffff" stroke-width="1" fill="none"/>		<path d="M 23.86 76 C 18.4144 76 14 80.4144 14 85.86 L 14 124.14 C 14 129.5856 18.4144 134 23.86 134 L 36.48 134 L 104 461 L 71.205 134 L 317.14 134 C 322.5856 134 327 129.5856 327 124.14 L 327 85.86 C 327 80.4144 322.5856 76 317.14 76 L 23.86 76 Z" stroke="#ffffff" stroke-width="2" fill="none"/>	</g></svg>