<?xml version="1.0" encoding="utf-8"?>
<!-- Generator: Adobe Illustrator 25.3.1, SVG Export Plug-In . SVG Version: 6.00 Build 0)  -->
<svg version="1.1" xmlns="http://www.w3.org/2000/svg" xmlns:xlink="http://www.w3.org/1999/xlink" x="0px" y="0px"
	 viewBox="0 0 300 300" enable-background="new 0 0 300 300" xml:space="preserve">


<g transform="translate(300,0)">
<g transform="scale(-1,1)">

<g id="icon" transform="scale(1,1)">
	<circle fill="#6DB344" cx="154" cy="146.3" r="114.8"/>
	<circle opacity="0.1" fill="none" stroke="#94C774" stroke-width="16" stroke-miterlimit="10" cx="154" cy="146.3" r="132.3"/>
	<circle opacity="0.1" fill="none" stroke="#94C774" stroke-width="14" stroke-miterlimit="10" cx="154" cy="146.3" r="132.3"/>
	<circle opacity="0.1" fill="none" stroke="#94C774" stroke-width="12" stroke-miterlimit="10" cx="154" cy="146.3" r="132.3"/>
	<circle opacity="0.1" fill="none" stroke="#94C774" stroke-width="10" stroke-miterlimit="10" cx="154" cy="146.3" r="132.3"/>
	<circle fill="none" stroke="#94C774" stroke-width="8" stroke-miterlimit="10" cx="154" cy="146.3" r="132.3"/>
	<linearGradient id="SVGID_1_" gradientUnits="userSpaceOnUse" x1="72.8069" y1="227.4699" x2="235.1786" y2="65.0983">
		<stop  offset="1.109130e-02" style="stop-color:#94C774;stop-opacity:0"/>
		<stop  offset="1" style="stop-color:#94C774"/>
	</linearGradient>
	<circle fill="url(#SVGID_1_)" cx="154" cy="146.3" r="114.8"/>
	<linearGradient id="SVGID_2_" gradientUnits="userSpaceOnUse" x1="84.1143" y1="196.2711" x2="225.2328" y2="55.1525">
		<stop  offset="1.109130e-02" style="stop-color:#94C774;stop-opacity:0"/>
		<stop  offset="0.1116" style="stop-color:#95C871;stop-opacity:0.1016"/>
		<stop  offset="0.5124" style="stop-color:#98CB69;stop-opacity:0.5069"/>
		<stop  offset="1" style="stop-color:#99CC67"/>
	</linearGradient>
	<path fill="url(#SVGID_2_)" d="M154,31.5c-63.4,0-114.8,51.4-114.8,114.8c0,1.7,0,3.5,0.1,5.2c33,11.2,74.3,17.9,119.1,17.9
		c40.8,0,78.8-5.5,110.1-15c0.2-2.7,0.3-5.3,0.3-8.1C268.8,82.9,217.4,31.5,154,31.5z"/>
	<polygon fill="#6DB444" points="96.8,235.5 97.6,147.4 96.8,59.3 261.5,147.4 	"/>
	<polygon fill="#FFFFFF" stroke="#52843C" stroke-miterlimit="10" points="101.5,228.4 102.3,147.4 101.5,66.4 252.9,147.4 	"/>
	<circle fill="none" stroke="#F1F2F2" stroke-width="2" stroke-miterlimit="10" cx="154" cy="146.3" r="132.3"/>
</g>
</g>
</g>
</svg>
